<svg width="1024" height="1440" viewBox="0 0 1024 1440" fill="none" xmlns="http://www.w3.org/2000/svg">
<g clip-path="url(#clip0_422_1261)">
<rect width="1024" height="1440" fill="#121214"/>
<g opacity="0.2" filter="url(#filter0_f_422_1261)">
<ellipse cx="512.5" cy="34" rx="670.5" ry="350" fill="#338AF3"/>
</g>
<path d="M51.0349 377C52.5302 377 53.6622 377.63 54.4308 378.891C55.2134 380.138 55.6047 381.953 55.6047 384.336C55.6047 386.719 55.2134 388.541 54.4308 389.802C53.6622 391.063 52.5302 391.693 51.0349 391.693C49.5536 391.693 48.4216 391.063 47.639 389.802C46.8564 388.541 46.4651 386.719 46.4651 384.336C46.4651 381.967 46.8564 380.152 47.639 378.891C48.4216 377.63 49.5536 377 51.0349 377ZM47.9534 384.336C47.9534 386.026 48.1072 387.35 48.4146 388.306L53.0683 379.099C52.5791 378.448 51.9013 378.122 51.0349 378.122C50.0706 378.122 49.316 378.635 48.771 379.66C48.2259 380.672 47.9534 382.23 47.9534 384.336ZM51.0349 390.55C52.0131 390.55 52.7748 390.044 53.3198 389.033C53.8648 388.008 54.1373 386.442 54.1373 384.336C54.1373 382.549 53.9627 381.163 53.6133 380.18L48.9596 389.469C49.4627 390.19 50.1545 390.55 51.0349 390.55Z" fill="url(#paint0_linear_422_1261)" fill-opacity="0.6"/>
<path d="M52.2926 414.135H55.3741V415.236H47.3874V414.135H50.9511V402.455L47.5551 404.471L46.9682 403.536L51.1607 400.959H52.2926V414.135Z" fill="url(#paint1_linear_422_1261)" fill-opacity="0.6"/>
<path d="M51.0349 424.502C52.5302 424.502 53.6622 425.133 54.4308 426.393C55.2134 427.64 55.6047 429.455 55.6047 431.838C55.6047 434.221 55.2134 436.043 54.4308 437.304C53.6622 438.565 52.5302 439.195 51.0349 439.195C49.5536 439.195 48.4216 438.565 47.639 437.304C46.8564 436.043 46.4651 434.221 46.4651 431.838C46.4651 429.469 46.8564 427.654 47.639 426.393C48.4216 425.133 49.5536 424.502 51.0349 424.502ZM47.9534 431.838C47.9534 433.529 48.1072 434.852 48.4146 435.808L53.0683 426.601C52.5791 425.95 51.9013 425.624 51.0349 425.624C50.0706 425.624 49.316 426.137 48.771 427.162C48.2259 428.174 47.9534 429.732 47.9534 431.838ZM51.0349 438.052C52.0131 438.052 52.7748 437.546 53.3198 436.535C53.8648 435.51 54.1373 433.944 54.1373 431.838C54.1373 430.051 53.9627 428.665 53.6133 427.682L48.9596 436.971C49.4627 437.692 50.1545 438.052 51.0349 438.052Z" fill="url(#paint2_linear_422_1261)" fill-opacity="0.6"/>
<path d="M52.2926 461.637H55.3741V462.738H47.3874V461.637H50.9511V449.957L47.5551 451.973L46.9682 451.038L51.1607 448.461H52.2926V461.637Z" fill="url(#paint3_linear_422_1261)" fill-opacity="0.6"/>
<path d="M52.2926 485.388H55.3741V486.489H47.3874V485.388H50.9511V473.708L47.5551 475.724L46.9682 474.789L51.1607 472.212H52.2926V485.388Z" fill="url(#paint4_linear_422_1261)" fill-opacity="0.6"/>
<path d="M51.0349 495.755C52.5302 495.755 53.6622 496.386 54.4308 497.646C55.2134 498.893 55.6047 500.708 55.6047 503.091C55.6047 505.474 55.2134 507.296 54.4308 508.557C53.6622 509.818 52.5302 510.448 51.0349 510.448C49.5536 510.448 48.4216 509.818 47.639 508.557C46.8564 507.296 46.4651 505.474 46.4651 503.091C46.4651 500.722 46.8564 498.907 47.639 497.646C48.4216 496.386 49.5536 495.755 51.0349 495.755ZM47.9534 503.091C47.9534 504.782 48.1072 506.105 48.4146 507.061L53.0683 497.854C52.5791 497.203 51.9013 496.878 51.0349 496.878C50.0706 496.878 49.316 497.39 48.771 498.415C48.2259 499.427 47.9534 500.985 47.9534 503.091ZM51.0349 509.305C52.0131 509.305 52.7748 508.8 53.3198 507.788C53.8648 506.763 54.1373 505.197 54.1373 503.091C54.1373 501.304 53.9627 499.919 53.6133 498.935L48.9596 508.225C49.4627 508.945 50.1545 509.305 51.0349 509.305Z" fill="url(#paint5_linear_422_1261)" fill-opacity="0.6"/>
<path d="M52.2926 532.89H55.3741V533.992H47.3874V532.89H50.9511V521.21L47.5551 523.226L46.9682 522.291L51.1607 519.714H52.2926V532.89Z" fill="url(#paint6_linear_422_1261)" fill-opacity="0.6"/>
<path d="M51.0349 543.257C52.5302 543.257 53.6622 543.888 54.4308 545.149C55.2134 546.396 55.6047 548.211 55.6047 550.594C55.6047 552.977 55.2134 554.798 54.4308 556.059C53.6622 557.32 52.5302 557.95 51.0349 557.95C49.5536 557.95 48.4216 557.32 47.639 556.059C46.8564 554.798 46.4651 552.977 46.4651 550.594C46.4651 548.224 46.8564 546.409 47.639 545.149C48.4216 543.888 49.5536 543.257 51.0349 543.257ZM47.9534 550.594C47.9534 552.284 48.1072 553.607 48.4146 554.563L53.0683 545.356C52.5791 544.705 51.9013 544.38 51.0349 544.38C50.0706 544.38 49.316 544.892 48.771 545.918C48.2259 546.929 47.9534 548.488 47.9534 550.594ZM51.0349 556.807C52.0131 556.807 52.7748 556.302 53.3198 555.29C53.8648 554.265 54.1373 552.699 54.1373 550.594C54.1373 548.806 53.9627 547.421 53.6133 546.437L48.9596 555.727C49.4627 556.447 50.1545 556.807 51.0349 556.807Z" fill="url(#paint7_linear_422_1261)" fill-opacity="0.6"/>
<path d="M51.0349 567.008C52.5302 567.008 53.6622 567.639 54.4308 568.9C55.2134 570.147 55.6047 571.962 55.6047 574.345C55.6047 576.728 55.2134 578.549 54.4308 579.81C53.6622 581.071 52.5302 581.701 51.0349 581.701C49.5536 581.701 48.4216 581.071 47.639 579.81C46.8564 578.549 46.4651 576.728 46.4651 574.345C46.4651 571.975 46.8564 570.16 47.639 568.9C48.4216 567.639 49.5536 567.008 51.0349 567.008ZM47.9534 574.345C47.9534 576.035 48.1072 577.358 48.4146 578.314L53.0683 569.107C52.5791 568.456 51.9013 568.131 51.0349 568.131C50.0706 568.131 49.316 568.643 48.771 569.669C48.2259 570.68 47.9534 572.239 47.9534 574.345ZM51.0349 580.558C52.0131 580.558 52.7748 580.053 53.3198 579.041C53.8648 578.016 54.1373 576.451 54.1373 574.345C54.1373 572.557 53.9627 571.172 53.6133 570.188L48.9596 579.478C49.4627 580.198 50.1545 580.558 51.0349 580.558Z" fill="url(#paint8_linear_422_1261)" fill-opacity="0.6"/>
<path d="M52.2926 604.143H55.3741V605.245H47.3874V604.143H50.9511V592.464L47.5551 594.48L46.9682 593.544L51.1607 590.967H52.2926V604.143Z" fill="url(#paint9_linear_422_1261)" fill-opacity="0.6"/>
<path d="M51.0349 614.511C52.5302 614.511 53.6622 615.141 54.4308 616.402C55.2134 617.649 55.6047 619.464 55.6047 621.847C55.6047 624.23 55.2134 626.052 54.4308 627.312C53.6622 628.573 52.5302 629.204 51.0349 629.204C49.5536 629.204 48.4216 628.573 47.639 627.312C46.8564 626.052 46.4651 624.23 46.4651 621.847C46.4651 619.478 46.8564 617.663 47.639 616.402C48.4216 615.141 49.5536 614.511 51.0349 614.511ZM47.9534 621.847C47.9534 623.537 48.1072 624.86 48.4146 625.816L53.0683 616.61C52.5791 615.958 51.9013 615.633 51.0349 615.633C50.0706 615.633 49.316 616.145 48.771 617.171C48.2259 618.182 47.9534 619.741 47.9534 621.847ZM51.0349 628.061C52.0131 628.061 52.7748 627.555 53.3198 626.543C53.8648 625.518 54.1373 623.953 54.1373 621.847C54.1373 620.059 53.9627 618.674 53.6133 617.69L48.9596 626.98C49.4627 627.7 50.1545 628.061 51.0349 628.061Z" fill="url(#paint10_linear_422_1261)" fill-opacity="0.6"/>
<path d="M52.2926 651.645H55.3741V652.747H47.3874V651.645H50.9511V639.966L47.5551 641.982L46.9682 641.046L51.1607 638.469H52.2926V651.645Z" fill="url(#paint11_linear_422_1261)" fill-opacity="0.6"/>
<path d="M52.2926 675.396H55.3741V676.498H47.3874V675.396H50.9511V663.717L47.5551 665.733L46.9682 664.798L51.1607 662.221H52.2926V675.396Z" fill="url(#paint12_linear_422_1261)" fill-opacity="0.6"/>
<path d="M89.9651 424.502C91.4604 424.502 92.5924 425.133 93.361 426.393C94.1436 427.64 94.5349 429.455 94.5349 431.838C94.5349 434.221 94.1436 436.043 93.361 437.304C92.5924 438.565 91.4604 439.195 89.9651 439.195C88.4838 439.195 87.3518 438.565 86.5692 437.304C85.7866 436.043 85.3953 434.221 85.3953 431.838C85.3953 429.469 85.7866 427.654 86.5692 426.393C87.3518 425.133 88.4838 424.502 89.9651 424.502ZM86.8836 431.838C86.8836 433.529 87.0374 434.852 87.3448 435.808L91.9985 426.601C91.5093 425.95 90.8315 425.624 89.9651 425.624C89.0008 425.624 88.2462 426.137 87.7012 427.162C87.1561 428.174 86.8836 429.732 86.8836 431.838ZM89.9651 438.052C90.9433 438.052 91.705 437.546 92.25 436.535C92.795 435.51 93.0675 433.944 93.0675 431.838C93.0675 430.051 92.8928 428.665 92.5435 427.682L87.8898 436.971C88.3929 437.692 89.0847 438.052 89.9651 438.052Z" fill="url(#paint13_linear_422_1261)" fill-opacity="0.6"/>
<path d="M91.2228 461.637H94.3043V462.738H86.3176V461.637H89.8812V449.957L86.4853 451.973L85.8984 451.038L90.0909 448.461H91.2228V461.637Z" fill="url(#paint14_linear_422_1261)" fill-opacity="0.6"/>
<path d="M89.9651 472.004C91.4604 472.004 92.5924 472.635 93.361 473.895C94.1436 475.142 94.5349 476.957 94.5349 479.34C94.5349 481.723 94.1436 483.545 93.361 484.806C92.5924 486.067 91.4604 486.697 89.9651 486.697C88.4838 486.697 87.3518 486.067 86.5692 484.806C85.7866 483.545 85.3953 481.723 85.3953 479.34C85.3953 476.971 85.7866 475.156 86.5692 473.895C87.3518 472.635 88.4838 472.004 89.9651 472.004ZM86.8836 479.34C86.8836 481.031 87.0374 482.354 87.3448 483.31L91.9985 474.103C91.5093 473.452 90.8315 473.126 89.9651 473.126C89.0008 473.126 88.2462 473.639 87.7012 474.664C87.1561 475.676 86.8836 477.234 86.8836 479.34ZM89.9651 485.554C90.9433 485.554 91.705 485.049 92.25 484.037C92.795 483.012 93.0675 481.446 93.0675 479.34C93.0675 477.553 92.8928 476.168 92.5435 475.184L87.8898 484.474C88.3929 485.194 89.0847 485.554 89.9651 485.554Z" fill="url(#paint15_linear_422_1261)" fill-opacity="0.6"/>
<path d="M89.9651 495.755C91.4604 495.755 92.5924 496.386 93.361 497.646C94.1436 498.893 94.5349 500.708 94.5349 503.091C94.5349 505.474 94.1436 507.296 93.361 508.557C92.5924 509.818 91.4604 510.448 89.9651 510.448C88.4838 510.448 87.3518 509.818 86.5692 508.557C85.7866 507.296 85.3953 505.474 85.3953 503.091C85.3953 500.722 85.7866 498.907 86.5692 497.646C87.3518 496.386 88.4838 495.755 89.9651 495.755ZM86.8836 503.091C86.8836 504.782 87.0374 506.105 87.3448 507.061L91.9985 497.854C91.5093 497.203 90.8315 496.878 89.9651 496.878C89.0008 496.878 88.2462 497.39 87.7012 498.415C87.1561 499.427 86.8836 500.985 86.8836 503.091ZM89.9651 509.305C90.9433 509.305 91.705 508.8 92.25 507.788C92.795 506.763 93.0675 505.197 93.0675 503.091C93.0675 501.304 92.8928 499.919 92.5435 498.935L87.8898 508.225C88.3929 508.945 89.0847 509.305 89.9651 509.305Z" fill="url(#paint16_linear_422_1261)" fill-opacity="0.6"/>
<path d="M91.2228 532.89H94.3043V533.992H86.3176V532.89H89.8812V521.21L86.4853 523.226L85.8984 522.291L90.0909 519.714H91.2228V532.89Z" fill="url(#paint17_linear_422_1261)" fill-opacity="0.6"/>
<path d="M89.9651 543.257C91.4604 543.257 92.5924 543.888 93.361 545.149C94.1436 546.396 94.5349 548.211 94.5349 550.594C94.5349 552.977 94.1436 554.798 93.361 556.059C92.5924 557.32 91.4604 557.95 89.9651 557.95C88.4838 557.95 87.3518 557.32 86.5692 556.059C85.7866 554.798 85.3953 552.977 85.3953 550.594C85.3953 548.224 85.7866 546.409 86.5692 545.149C87.3518 543.888 88.4838 543.257 89.9651 543.257ZM86.8836 550.594C86.8836 552.284 87.0374 553.607 87.3448 554.563L91.9985 545.356C91.5093 544.705 90.8315 544.38 89.9651 544.38C89.0008 544.38 88.2462 544.892 87.7012 545.918C87.1561 546.929 86.8836 548.488 86.8836 550.594ZM89.9651 556.807C90.9433 556.807 91.705 556.302 92.25 555.29C92.795 554.265 93.0675 552.699 93.0675 550.594C93.0675 548.806 92.8928 547.421 92.5435 546.437L87.8898 555.727C88.3929 556.447 89.0847 556.807 89.9651 556.807Z" fill="url(#paint18_linear_422_1261)" fill-opacity="0.6"/>
<path d="M91.2228 580.392H94.3043V581.494H86.3176V580.392H89.8812V568.713L86.4853 570.728L85.8984 569.793L90.0909 567.216H91.2228V580.392Z" fill="url(#paint19_linear_422_1261)" fill-opacity="0.6"/>
<path d="M89.9651 590.76C91.4604 590.76 92.5924 591.39 93.361 592.651C94.1436 593.898 94.5349 595.713 94.5349 598.096C94.5349 600.479 94.1436 602.301 93.361 603.561C92.5924 604.822 91.4604 605.453 89.9651 605.453C88.4838 605.453 87.3518 604.822 86.5692 603.561C85.7866 602.301 85.3953 600.479 85.3953 598.096C85.3953 595.726 85.7866 593.911 86.5692 592.651C87.3518 591.39 88.4838 590.76 89.9651 590.76ZM86.8836 598.096C86.8836 599.786 87.0374 601.109 87.3448 602.065L91.9985 592.859C91.5093 592.207 90.8315 591.882 89.9651 591.882C89.0008 591.882 88.2462 592.394 87.7012 593.42C87.1561 594.431 86.8836 595.99 86.8836 598.096ZM89.9651 604.31C90.9433 604.31 91.705 603.804 92.25 602.792C92.795 601.767 93.0675 600.202 93.0675 598.096C93.0675 596.308 92.8928 594.923 92.5435 593.939L87.8898 603.229C88.3929 603.949 89.0847 604.31 89.9651 604.31Z" fill="url(#paint20_linear_422_1261)" fill-opacity="0.6"/>
<path d="M89.9651 614.511C91.4604 614.511 92.5924 615.141 93.361 616.402C94.1436 617.649 94.5349 619.464 94.5349 621.847C94.5349 624.23 94.1436 626.052 93.361 627.312C92.5924 628.573 91.4604 629.204 89.9651 629.204C88.4838 629.204 87.3518 628.573 86.5692 627.312C85.7866 626.052 85.3953 624.23 85.3953 621.847C85.3953 619.478 85.7866 617.663 86.5692 616.402C87.3518 615.141 88.4838 614.511 89.9651 614.511ZM86.8836 621.847C86.8836 623.537 87.0374 624.86 87.3448 625.816L91.9985 616.61C91.5093 615.958 90.8315 615.633 89.9651 615.633C89.0008 615.633 88.2462 616.145 87.7012 617.171C87.1561 618.182 86.8836 619.741 86.8836 621.847ZM89.9651 628.061C90.9433 628.061 91.705 627.555 92.25 626.543C92.795 625.518 93.0675 623.953 93.0675 621.847C93.0675 620.059 92.8928 618.674 92.5435 617.69L87.8898 626.98C88.3929 627.7 89.0847 628.061 89.9651 628.061Z" fill="url(#paint21_linear_422_1261)" fill-opacity="0.6"/>
<path d="M91.2228 651.645H94.3043V652.747H86.3176V651.645H89.8812V639.966L86.4853 641.982L85.8984 641.046L90.0909 638.469H91.2228V651.645Z" fill="url(#paint22_linear_422_1261)" fill-opacity="0.6"/>
<path d="M89.9651 662.013C91.4604 662.013 92.5924 662.643 93.361 663.904C94.1436 665.151 94.5349 666.966 94.5349 669.349C94.5349 671.732 94.1436 673.554 93.361 674.815C92.5924 676.075 91.4604 676.706 89.9651 676.706C88.4838 676.706 87.3518 676.075 86.5692 674.815C85.7866 673.554 85.3953 671.732 85.3953 669.349C85.3953 666.98 85.7866 665.165 86.5692 663.904C87.3518 662.643 88.4838 662.013 89.9651 662.013ZM86.8836 669.349C86.8836 671.039 87.0374 672.362 87.3448 673.318L91.9985 664.112C91.5093 663.461 90.8315 663.135 89.9651 663.135C89.0008 663.135 88.2462 663.648 87.7012 664.673C87.1561 665.684 86.8836 667.243 86.8836 669.349ZM89.9651 675.563C90.9433 675.563 91.705 675.057 92.25 674.046C92.795 673.02 93.0675 671.455 93.0675 669.349C93.0675 667.562 92.8928 666.176 92.5435 665.192L87.8898 674.482C88.3929 675.202 89.0847 675.563 89.9651 675.563Z" fill="url(#paint23_linear_422_1261)" fill-opacity="0.6"/>
<path d="M91.2228 699.148H94.3043V700.249H86.3176V699.148H89.8812V687.468L86.4853 689.484L85.8984 688.549L90.0909 685.972H91.2228V699.148Z" fill="url(#paint24_linear_422_1261)" fill-opacity="0.6"/>
<path d="M91.2228 722.899H94.3043V724H86.3176V722.899H89.8812V711.219L86.4853 713.235L85.8984 712.3L90.0909 709.723H91.2228V722.899Z" fill="url(#paint25_linear_422_1261)" fill-opacity="0.6"/>
<path d="M31.5698 448.253C33.0651 448.253 34.1971 448.884 34.9657 450.144C35.7483 451.391 36.1396 453.206 36.1396 455.589C36.1396 457.972 35.7483 459.794 34.9657 461.055C34.1971 462.316 33.0651 462.946 31.5698 462.946C30.0885 462.946 28.9565 462.316 28.1739 461.055C27.3913 459.794 27 457.972 27 455.589C27 453.22 27.3913 451.405 28.1739 450.144C28.9565 448.884 30.0885 448.253 31.5698 448.253ZM28.4883 455.589C28.4883 457.28 28.6421 458.603 28.9495 459.559L33.6032 450.352C33.114 449.701 32.4363 449.375 31.5698 449.375C30.6055 449.375 29.8509 449.888 29.3059 450.913C28.7608 451.925 28.4883 453.483 28.4883 455.589ZM31.5698 461.803C32.5481 461.803 33.3097 461.297 33.8547 460.286C34.3997 459.261 34.6722 457.695 34.6722 455.589C34.6722 453.802 34.4976 452.417 34.1482 451.433L29.4945 460.722C29.9976 461.443 30.6894 461.803 31.5698 461.803Z" fill="url(#paint26_linear_422_1261)" fill-opacity="0.6"/>
<path d="M31.5698 472.004C33.0651 472.004 34.1971 472.635 34.9657 473.895C35.7483 475.142 36.1396 476.957 36.1396 479.34C36.1396 481.723 35.7483 483.545 34.9657 484.806C34.1971 486.067 33.0651 486.697 31.5698 486.697C30.0885 486.697 28.9565 486.067 28.1739 484.806C27.3913 483.545 27 481.723 27 479.34C27 476.971 27.3913 475.156 28.1739 473.895C28.9565 472.635 30.0885 472.004 31.5698 472.004ZM28.4883 479.34C28.4883 481.031 28.6421 482.354 28.9495 483.31L33.6032 474.103C33.114 473.452 32.4363 473.126 31.5698 473.126C30.6055 473.126 29.8509 473.639 29.3059 474.664C28.7608 475.676 28.4883 477.234 28.4883 479.34ZM31.5698 485.554C32.5481 485.554 33.3097 485.049 33.8547 484.037C34.3997 483.012 34.6722 481.446 34.6722 479.34C34.6722 477.553 34.4976 476.168 34.1482 475.184L29.4945 484.474C29.9976 485.194 30.6894 485.554 31.5698 485.554Z" fill="url(#paint27_linear_422_1261)" fill-opacity="0.6"/>
<path d="M32.8276 509.139H35.909V510.24H27.9223V509.139H31.486V497.459L28.09 499.475L27.5031 498.54L31.6956 495.963H32.8276V509.139Z" fill="url(#paint28_linear_422_1261)" fill-opacity="0.6"/>
<path d="M31.5698 519.506C33.0651 519.506 34.1971 520.137 34.9657 521.398C35.7483 522.644 36.1396 524.459 36.1396 526.842C36.1396 529.225 35.7483 531.047 34.9657 532.308C34.1971 533.569 33.0651 534.199 31.5698 534.199C30.0885 534.199 28.9565 533.569 28.1739 532.308C27.3913 531.047 27 529.225 27 526.842C27 524.473 27.3913 522.658 28.1739 521.398C28.9565 520.137 30.0885 519.506 31.5698 519.506ZM28.4883 526.842C28.4883 528.533 28.6421 529.856 28.9495 530.812L33.6032 521.605C33.114 520.954 32.4363 520.629 31.5698 520.629C30.6055 520.629 29.8509 521.141 29.3059 522.166C28.7608 523.178 28.4883 524.737 28.4883 526.842ZM31.5698 533.056C32.5481 533.056 33.3097 532.551 33.8547 531.539C34.3997 530.514 34.6722 528.948 34.6722 526.842C34.6722 525.055 34.4976 523.67 34.1482 522.686L29.4945 531.976C29.9976 532.696 30.6894 533.056 31.5698 533.056Z" fill="url(#paint29_linear_422_1261)" fill-opacity="0.6"/>
<path d="M32.8276 556.641H35.909V557.743H27.9223V556.641H31.486V544.962L28.09 546.977L27.5031 546.042L31.6956 543.465H32.8276V556.641Z" fill="url(#paint30_linear_422_1261)" fill-opacity="0.6"/>
<path d="M32.8276 580.392H35.909V581.494H27.9223V580.392H31.486V568.713L28.09 570.728L27.5031 569.793L31.6956 567.216H32.8276V580.392Z" fill="url(#paint31_linear_422_1261)" fill-opacity="0.6"/>
<path d="M71.7577 414.135H74.8392V415.236H66.8525V414.135H70.4162V402.455L67.0202 404.471L66.4333 403.536L70.6258 400.959H71.7577V414.135Z" fill="url(#paint32_linear_422_1261)" fill-opacity="0.6"/>
<path d="M70.5 424.502C71.9953 424.502 73.1273 425.133 73.8959 426.393C74.6785 427.64 75.0698 429.455 75.0698 431.838C75.0698 434.221 74.6785 436.043 73.8959 437.304C73.1273 438.565 71.9953 439.195 70.5 439.195C69.0187 439.195 67.8867 438.565 67.1041 437.304C66.3215 436.043 65.9302 434.221 65.9302 431.838C65.9302 429.469 66.3215 427.654 67.1041 426.393C67.8867 425.133 69.0187 424.502 70.5 424.502ZM67.4185 431.838C67.4185 433.529 67.5723 434.852 67.8797 435.808L72.5334 426.601C72.0442 425.95 71.3664 425.624 70.5 425.624C69.5357 425.624 68.7811 426.137 68.2361 427.162C67.691 428.174 67.4185 429.732 67.4185 431.838ZM70.5 438.052C71.4782 438.052 72.2399 437.546 72.7849 436.535C73.3299 435.51 73.6024 433.944 73.6024 431.838C73.6024 430.051 73.4277 428.665 73.0784 427.682L68.4247 436.971C68.9278 437.692 69.6196 438.052 70.5 438.052Z" fill="url(#paint33_linear_422_1261)" fill-opacity="0.6"/>
<path d="M71.7577 461.637H74.8392V462.738H66.8525V461.637H70.4162V449.957L67.0202 451.973L66.4333 451.038L70.6258 448.461H71.7577V461.637Z" fill="url(#paint34_linear_422_1261)" fill-opacity="0.6"/>
<path d="M71.7577 485.388H74.8392V486.489H66.8525V485.388H70.4162V473.708L67.0202 475.724L66.4333 474.789L70.6258 472.212H71.7577V485.388Z" fill="url(#paint35_linear_422_1261)" fill-opacity="0.6"/>
<path d="M70.5 495.755C71.9953 495.755 73.1273 496.386 73.8959 497.646C74.6785 498.893 75.0698 500.708 75.0698 503.091C75.0698 505.474 74.6785 507.296 73.8959 508.557C73.1273 509.818 71.9953 510.448 70.5 510.448C69.0187 510.448 67.8867 509.818 67.1041 508.557C66.3215 507.296 65.9302 505.474 65.9302 503.091C65.9302 500.722 66.3215 498.907 67.1041 497.646C67.8867 496.386 69.0187 495.755 70.5 495.755ZM67.4185 503.091C67.4185 504.782 67.5723 506.105 67.8797 507.061L72.5334 497.854C72.0442 497.203 71.3664 496.878 70.5 496.878C69.5357 496.878 68.7811 497.39 68.2361 498.415C67.691 499.427 67.4185 500.985 67.4185 503.091ZM70.5 509.305C71.4782 509.305 72.2399 508.8 72.7849 507.788C73.3299 506.763 73.6024 505.197 73.6024 503.091C73.6024 501.304 73.4277 499.919 73.0784 498.935L68.4247 508.225C68.9278 508.945 69.6196 509.305 70.5 509.305Z" fill="url(#paint36_linear_422_1261)" fill-opacity="0.6"/>
<path d="M71.7577 532.89H74.8392V533.992H66.8525V532.89H70.4162V521.21L67.0202 523.226L66.4333 522.291L70.6258 519.714H71.7577V532.89Z" fill="url(#paint37_linear_422_1261)" fill-opacity="0.6"/>
<path d="M71.7577 556.641H74.8392V557.743H66.8525V556.641H70.4162V544.962L67.0202 546.977L66.4333 546.042L70.6258 543.465H71.7577V556.641Z" fill="url(#paint38_linear_422_1261)" fill-opacity="0.6"/>
<path d="M70.5 567.008C71.9953 567.008 73.1273 567.639 73.8959 568.9C74.6785 570.147 75.0698 571.962 75.0698 574.345C75.0698 576.728 74.6785 578.549 73.8959 579.81C73.1273 581.071 71.9953 581.701 70.5 581.701C69.0187 581.701 67.8867 581.071 67.1041 579.81C66.3215 578.549 65.9302 576.728 65.9302 574.345C65.9302 571.975 66.3215 570.16 67.1041 568.9C67.8867 567.639 69.0187 567.008 70.5 567.008ZM67.4185 574.345C67.4185 576.035 67.5723 577.358 67.8797 578.314L72.5334 569.107C72.0442 568.456 71.3664 568.131 70.5 568.131C69.5357 568.131 68.7811 568.643 68.2361 569.669C67.691 570.68 67.4185 572.239 67.4185 574.345ZM70.5 580.558C71.4782 580.558 72.2399 580.053 72.7849 579.041C73.3299 578.016 73.6024 576.451 73.6024 574.345C73.6024 572.557 73.4277 571.172 73.0784 570.188L68.4247 579.478C68.9278 580.198 69.6196 580.558 70.5 580.558Z" fill="url(#paint39_linear_422_1261)" fill-opacity="0.6"/>
<path d="M71.7577 604.143H74.8392V605.245H66.8525V604.143H70.4162V592.464L67.0202 594.48L66.4333 593.544L70.6258 590.967H71.7577V604.143Z" fill="url(#paint40_linear_422_1261)" fill-opacity="0.6"/>
<path d="M70.5 614.511C71.9953 614.511 73.1273 615.141 73.8959 616.402C74.6785 617.649 75.0698 619.464 75.0698 621.847C75.0698 624.23 74.6785 626.052 73.8959 627.312C73.1273 628.573 71.9953 629.204 70.5 629.204C69.0187 629.204 67.8867 628.573 67.1041 627.312C66.3215 626.052 65.9302 624.23 65.9302 621.847C65.9302 619.478 66.3215 617.663 67.1041 616.402C67.8867 615.141 69.0187 614.511 70.5 614.511ZM67.4185 621.847C67.4185 623.537 67.5723 624.86 67.8797 625.816L72.5334 616.61C72.0442 615.958 71.3664 615.633 70.5 615.633C69.5357 615.633 68.7811 616.145 68.2361 617.171C67.691 618.182 67.4185 619.741 67.4185 621.847ZM70.5 628.061C71.4782 628.061 72.2399 627.555 72.7849 626.543C73.3299 625.518 73.6024 623.953 73.6024 621.847C73.6024 620.059 73.4277 618.674 73.0784 617.69L68.4247 626.98C68.9278 627.7 69.6196 628.061 70.5 628.061Z" fill="url(#paint41_linear_422_1261)" fill-opacity="0.6"/>
<path d="M109.43 400.751C110.926 400.751 112.057 401.381 112.826 402.642C113.609 403.889 114 405.704 114 408.087C114 410.47 113.609 412.292 112.826 413.553C112.057 414.814 110.926 415.444 109.43 415.444C107.949 415.444 106.817 414.814 106.034 413.553C105.252 412.292 104.86 410.47 104.86 408.087C104.86 405.718 105.252 403.903 106.034 402.642C106.817 401.381 107.949 400.751 109.43 400.751ZM106.349 408.087C106.349 409.777 106.502 411.101 106.81 412.057L111.464 402.85C110.974 402.199 110.297 401.873 109.43 401.873C108.466 401.873 107.711 402.386 107.166 403.411C106.621 404.423 106.349 405.981 106.349 408.087ZM109.43 414.301C110.408 414.301 111.17 413.795 111.715 412.784C112.26 411.759 112.533 410.193 112.533 408.087C112.533 406.3 112.358 404.914 112.009 403.931L107.355 413.22C107.858 413.941 108.55 414.301 109.43 414.301Z" fill="url(#paint42_linear_422_1261)" fill-opacity="0.6"/>
<path d="M110.688 437.886H113.769V438.987H105.783V437.886H109.346V426.206L105.95 428.222L105.363 427.287L109.556 424.71H110.688V437.886Z" fill="url(#paint43_linear_422_1261)" fill-opacity="0.6"/>
<path d="M110.688 461.637H113.769V462.738H105.783V461.637H109.346V449.957L105.95 451.973L105.363 451.038L109.556 448.461H110.688V461.637Z" fill="url(#paint44_linear_422_1261)" fill-opacity="0.6"/>
<path d="M109.43 472.004C110.926 472.004 112.057 472.635 112.826 473.895C113.609 475.142 114 476.957 114 479.34C114 481.723 113.609 483.545 112.826 484.806C112.057 486.067 110.926 486.697 109.43 486.697C107.949 486.697 106.817 486.067 106.034 484.806C105.252 483.545 104.86 481.723 104.86 479.34C104.86 476.971 105.252 475.156 106.034 473.895C106.817 472.635 107.949 472.004 109.43 472.004ZM106.349 479.34C106.349 481.031 106.502 482.354 106.81 483.31L111.464 474.103C110.974 473.452 110.297 473.126 109.43 473.126C108.466 473.126 107.711 473.639 107.166 474.664C106.621 475.676 106.349 477.234 106.349 479.34ZM109.43 485.554C110.408 485.554 111.17 485.049 111.715 484.037C112.26 483.012 112.533 481.446 112.533 479.34C112.533 477.553 112.358 476.168 112.009 475.184L107.355 484.474C107.858 485.194 108.55 485.554 109.43 485.554Z" fill="url(#paint45_linear_422_1261)" fill-opacity="0.6"/>
<path d="M109.43 495.755C110.926 495.755 112.057 496.386 112.826 497.646C113.609 498.893 114 500.708 114 503.091C114 505.474 113.609 507.296 112.826 508.557C112.057 509.818 110.926 510.448 109.43 510.448C107.949 510.448 106.817 509.818 106.034 508.557C105.252 507.296 104.86 505.474 104.86 503.091C104.86 500.722 105.252 498.907 106.034 497.646C106.817 496.386 107.949 495.755 109.43 495.755ZM106.349 503.091C106.349 504.782 106.502 506.105 106.81 507.061L111.464 497.854C110.974 497.203 110.297 496.878 109.43 496.878C108.466 496.878 107.711 497.39 107.166 498.415C106.621 499.427 106.349 500.985 106.349 503.091ZM109.43 509.305C110.408 509.305 111.17 508.8 111.715 507.788C112.26 506.763 112.533 505.197 112.533 503.091C112.533 501.304 112.358 499.919 112.009 498.935L107.355 508.225C107.858 508.945 108.55 509.305 109.43 509.305Z" fill="url(#paint46_linear_422_1261)" fill-opacity="0.6"/>
<g opacity="0.6">
<path d="M937.93 66C939.356 66 940.436 66.605 941.17 67.8149C941.916 69.0115 942.29 70.7532 942.29 73.0401C942.29 75.327 941.916 77.0754 941.17 78.2853C940.436 79.4952 939.356 80.1002 937.93 80.1002C936.517 80.1002 935.437 79.4952 934.69 78.2853C933.943 77.0754 933.57 75.327 933.57 73.0401C933.57 70.7665 933.943 69.0248 934.69 67.8149C935.437 66.605 936.517 66 937.93 66ZM934.99 73.0401C934.99 74.6622 935.137 75.932 935.43 76.8494L939.87 68.0143C939.403 67.3894 938.756 67.077 937.93 67.077C937.01 67.077 936.29 67.5689 935.77 68.5528C935.25 69.5234 934.99 71.0192 934.99 73.0401ZM937.93 79.0033C938.863 79.0033 939.59 78.518 940.11 77.5474C940.63 76.5635 940.89 75.0611 940.89 73.0401C940.89 71.325 940.723 69.9954 940.39 69.0514L935.95 77.9662C936.43 78.6576 937.09 79.0033 937.93 79.0033Z" fill="url(#paint47_linear_422_1261)"/>
<path d="M939.13 101.637H942.07V102.694H934.45V101.637H937.85V90.4282L934.61 92.3627L934.05 91.4653L938.05 88.9922H939.13V101.637Z" fill="url(#paint48_linear_422_1261)"/>
<path d="M937.93 111.586C939.356 111.586 940.436 112.191 941.17 113.4C941.916 114.597 942.29 116.339 942.29 118.626C942.29 120.913 941.916 122.661 941.17 123.871C940.436 125.081 939.356 125.686 937.93 125.686C936.517 125.686 935.437 125.081 934.69 123.871C933.943 122.661 933.57 120.913 933.57 118.626C933.57 116.352 933.943 114.61 934.69 113.4C935.437 112.191 936.517 111.586 937.93 111.586ZM934.99 118.626C934.99 120.248 935.137 121.518 935.43 122.435L939.87 113.6C939.403 112.975 938.756 112.663 937.93 112.663C937.01 112.663 936.29 113.155 935.77 114.138C935.25 115.109 934.99 116.605 934.99 118.626ZM937.93 124.589C938.863 124.589 939.59 124.104 940.11 123.133C940.63 122.149 940.89 120.647 940.89 118.626C940.89 116.911 940.723 115.581 940.39 114.637L935.95 123.552C936.43 124.243 937.09 124.589 937.93 124.589Z" fill="url(#paint49_linear_422_1261)"/>
<path d="M939.13 147.222H942.07V148.279H934.45V147.222H937.85V136.014L934.61 137.948L934.05 137.051L938.05 134.578H939.13V147.222Z" fill="url(#paint50_linear_422_1261)"/>
<path d="M939.13 170.015H942.07V171.072H934.45V170.015H937.85V158.807L934.61 160.741L934.05 159.844L938.05 157.371H939.13V170.015Z" fill="url(#paint51_linear_422_1261)"/>
<path d="M937.93 179.964C939.356 179.964 940.436 180.569 941.17 181.779C941.916 182.976 942.29 184.717 942.29 187.004C942.29 189.291 941.916 191.039 941.17 192.249C940.436 193.459 939.356 194.064 937.93 194.064C936.517 194.064 935.437 193.459 934.69 192.249C933.943 191.039 933.57 189.291 933.57 187.004C933.57 184.731 933.943 182.989 934.69 181.779C935.437 180.569 936.517 179.964 937.93 179.964ZM934.99 187.004C934.99 188.626 935.137 189.896 935.43 190.813L939.87 181.978C939.403 181.353 938.756 181.041 937.93 181.041C937.01 181.041 936.29 181.533 935.77 182.517C935.25 183.487 934.99 184.983 934.99 187.004ZM937.93 192.967C938.863 192.967 939.59 192.482 940.11 191.511C940.63 190.528 940.89 189.025 940.89 187.004C940.89 185.289 940.723 183.959 940.39 183.015L935.95 191.93C936.43 192.622 937.09 192.967 937.93 192.967Z" fill="url(#paint52_linear_422_1261)"/>
<path d="M939.13 215.601H942.07V216.658H934.45V215.601H937.85V204.392L934.61 206.327L934.05 205.429L938.05 202.956H939.13V215.601Z" fill="url(#paint53_linear_422_1261)"/>
<path d="M937.93 225.55C939.356 225.55 940.436 226.155 941.17 227.365C941.916 228.561 942.29 230.303 942.29 232.59C942.29 234.877 941.916 236.625 941.17 237.835C940.436 239.045 939.356 239.65 937.93 239.65C936.517 239.65 935.437 239.045 934.69 237.835C933.943 236.625 933.57 234.877 933.57 232.59C933.57 230.316 933.943 228.574 934.69 227.365C935.437 226.155 936.517 225.55 937.93 225.55ZM934.99 232.59C934.99 234.212 935.137 235.482 935.43 236.399L939.87 227.564C939.403 226.939 938.756 226.627 937.93 226.627C937.01 226.627 936.29 227.119 935.77 228.102C935.25 229.073 934.99 230.569 934.99 232.59ZM937.93 238.553C938.863 238.553 939.59 238.068 940.11 237.097C940.63 236.113 940.89 234.611 940.89 232.59C940.89 230.875 940.723 229.545 940.39 228.601L935.95 237.516C936.43 238.207 937.09 238.553 937.93 238.553Z" fill="url(#paint54_linear_422_1261)"/>
<path d="M937.93 248.342C939.356 248.342 940.436 248.947 941.17 250.157C941.916 251.354 942.29 253.096 942.29 255.383C942.29 257.669 941.916 259.418 941.17 260.628C940.436 261.838 939.356 262.443 937.93 262.443C936.517 262.443 935.437 261.838 934.69 260.628C933.943 259.418 933.57 257.669 933.57 255.383C933.57 253.109 933.943 251.367 934.69 250.157C935.437 248.947 936.517 248.342 937.93 248.342ZM934.99 255.383C934.99 257.005 935.137 258.274 935.43 259.192L939.87 250.357C939.403 249.732 938.756 249.419 937.93 249.419C937.01 249.419 936.29 249.911 935.77 250.895C935.25 251.866 934.99 253.362 934.99 255.383ZM937.93 261.346C938.863 261.346 939.59 260.86 940.11 259.89C940.63 258.906 940.89 257.404 940.89 255.383C940.89 253.667 940.723 252.338 940.39 251.394L935.95 260.309C936.43 261 937.09 261.346 937.93 261.346Z" fill="url(#paint55_linear_422_1261)"/>
<path d="M939.13 283.979H942.07V285.036H934.45V283.979H937.85V272.771L934.61 274.705L934.05 273.808L938.05 271.335H939.13V283.979Z" fill="url(#paint56_linear_422_1261)"/>
<path d="M937.93 293.928C939.356 293.928 940.436 294.533 941.17 295.743C941.916 296.94 942.29 298.681 942.29 300.968C942.29 303.255 941.916 305.003 941.17 306.213C940.436 307.423 939.356 308.028 937.93 308.028C936.517 308.028 935.437 307.423 934.69 306.213C933.943 305.003 933.57 303.255 933.57 300.968C933.57 298.695 933.943 296.953 934.69 295.743C935.437 294.533 936.517 293.928 937.93 293.928ZM934.99 300.968C934.99 302.59 935.137 303.86 935.43 304.777L939.87 295.942C939.403 295.317 938.756 295.005 937.93 295.005C937.01 295.005 936.29 295.497 935.77 296.481C935.25 297.451 934.99 298.947 934.99 300.968ZM937.93 306.931C938.863 306.931 939.59 306.446 940.11 305.475C940.63 304.492 940.89 302.989 940.89 300.968C940.89 299.253 940.723 297.923 940.39 296.979L935.95 305.894C936.43 306.586 937.09 306.931 937.93 306.931Z" fill="url(#paint57_linear_422_1261)"/>
<path d="M939.13 329.565H942.07V330.622H934.45V329.565H937.85V318.356L934.61 320.291L934.05 319.393L938.05 316.92H939.13V329.565Z" fill="url(#paint58_linear_422_1261)"/>
<path d="M939.13 352.357H942.07V353.414H934.45V352.357H937.85V341.149L934.61 343.084L934.05 342.186L938.05 339.713H939.13V352.357Z" fill="url(#paint59_linear_422_1261)"/>
<path d="M975.07 111.586C976.497 111.586 977.577 112.191 978.31 113.4C979.057 114.597 979.43 116.339 979.43 118.626C979.43 120.913 979.057 122.661 978.31 123.871C977.577 125.081 976.497 125.686 975.07 125.686C973.657 125.686 972.577 125.081 971.83 123.871C971.084 122.661 970.71 120.913 970.71 118.626C970.71 116.352 971.084 114.61 971.83 113.4C972.577 112.191 973.657 111.586 975.07 111.586ZM972.13 118.626C972.13 120.248 972.277 121.518 972.57 122.435L977.01 113.6C976.543 112.975 975.897 112.663 975.07 112.663C974.15 112.663 973.43 113.155 972.91 114.138C972.39 115.109 972.13 116.605 972.13 118.626ZM975.07 124.589C976.003 124.589 976.73 124.104 977.25 123.133C977.77 122.149 978.03 120.647 978.03 118.626C978.03 116.911 977.863 115.581 977.53 114.637L973.09 123.552C973.57 124.243 974.23 124.589 975.07 124.589Z" fill="url(#paint60_linear_422_1261)"/>
<path d="M976.27 147.222H979.21V148.279H971.59V147.222H974.99V136.014L971.75 137.948L971.19 137.051L975.19 134.578H976.27V147.222Z" fill="url(#paint61_linear_422_1261)"/>
<path d="M975.07 157.171C976.497 157.171 977.577 157.776 978.31 158.986C979.057 160.183 979.43 161.924 979.43 164.211C979.43 166.498 979.057 168.247 978.31 169.457C977.577 170.666 976.497 171.271 975.07 171.271C973.657 171.271 972.577 170.666 971.83 169.457C971.084 168.247 970.71 166.498 970.71 164.211C970.71 161.938 971.084 160.196 971.83 158.986C972.577 157.776 973.657 157.171 975.07 157.171ZM972.13 164.211C972.13 165.833 972.277 167.103 972.57 168.021L977.01 159.186C976.543 158.561 975.897 158.248 975.07 158.248C974.15 158.248 973.43 158.74 972.91 159.724C972.39 160.695 972.13 162.19 972.13 164.211ZM975.07 170.174C976.003 170.174 976.73 169.689 977.25 168.719C977.77 167.735 978.03 166.232 978.03 164.211C978.03 162.496 977.863 161.167 977.53 160.223L973.09 169.137C973.57 169.829 974.23 170.174 975.07 170.174Z" fill="url(#paint62_linear_422_1261)"/>
<path d="M975.07 179.964C976.497 179.964 977.577 180.569 978.31 181.779C979.057 182.976 979.43 184.717 979.43 187.004C979.43 189.291 979.057 191.039 978.31 192.249C977.577 193.459 976.497 194.064 975.07 194.064C973.657 194.064 972.577 193.459 971.83 192.249C971.084 191.039 970.71 189.291 970.71 187.004C970.71 184.731 971.084 182.989 971.83 181.779C972.577 180.569 973.657 179.964 975.07 179.964ZM972.13 187.004C972.13 188.626 972.277 189.896 972.57 190.813L977.01 181.978C976.543 181.353 975.897 181.041 975.07 181.041C974.15 181.041 973.43 181.533 972.91 182.517C972.39 183.487 972.13 184.983 972.13 187.004ZM975.07 192.967C976.003 192.967 976.73 192.482 977.25 191.511C977.77 190.528 978.03 189.025 978.03 187.004C978.03 185.289 977.863 183.959 977.53 183.015L973.09 191.93C973.57 192.622 974.23 192.967 975.07 192.967Z" fill="url(#paint63_linear_422_1261)"/>
<path d="M976.27 215.601H979.21V216.658H971.59V215.601H974.99V204.392L971.75 206.327L971.19 205.429L975.19 202.956H976.27V215.601Z" fill="url(#paint64_linear_422_1261)"/>
<path d="M975.07 225.55C976.497 225.55 977.577 226.155 978.31 227.365C979.057 228.561 979.43 230.303 979.43 232.59C979.43 234.877 979.057 236.625 978.31 237.835C977.577 239.045 976.497 239.65 975.07 239.65C973.657 239.65 972.577 239.045 971.83 237.835C971.084 236.625 970.71 234.877 970.71 232.59C970.71 230.316 971.084 228.574 971.83 227.365C972.577 226.155 973.657 225.55 975.07 225.55ZM972.13 232.59C972.13 234.212 972.277 235.482 972.57 236.399L977.01 227.564C976.543 226.939 975.897 226.627 975.07 226.627C974.15 226.627 973.43 227.119 972.91 228.102C972.39 229.073 972.13 230.569 972.13 232.59ZM975.07 238.553C976.003 238.553 976.73 238.068 977.25 237.097C977.77 236.113 978.03 234.611 978.03 232.59C978.03 230.875 977.863 229.545 977.53 228.601L973.09 237.516C973.57 238.207 974.23 238.553 975.07 238.553Z" fill="url(#paint65_linear_422_1261)"/>
<path d="M976.27 261.186H979.21V262.243H971.59V261.186H974.99V249.978L971.75 251.912L971.19 251.015L975.19 248.542H976.27V261.186Z" fill="url(#paint66_linear_422_1261)"/>
<path d="M975.07 271.135C976.497 271.135 977.577 271.74 978.31 272.95C979.057 274.147 979.43 275.888 979.43 278.175C979.43 280.462 979.057 282.211 978.31 283.421C977.577 284.63 976.497 285.235 975.07 285.235C973.657 285.235 972.577 284.63 971.83 283.421C971.084 282.211 970.71 280.462 970.71 278.175C970.71 275.902 971.084 274.16 971.83 272.95C972.577 271.74 973.657 271.135 975.07 271.135ZM972.13 278.175C972.13 279.797 972.277 281.067 972.57 281.985L977.01 273.15C976.543 272.525 975.897 272.212 975.07 272.212C974.15 272.212 973.43 272.704 972.91 273.688C972.39 274.659 972.13 276.154 972.13 278.175ZM975.07 284.139C976.003 284.139 976.73 283.653 977.25 282.683C977.77 281.699 978.03 280.196 978.03 278.175C978.03 276.46 977.863 275.131 977.53 274.187L973.09 283.101C973.57 283.793 974.23 284.139 975.07 284.139Z" fill="url(#paint67_linear_422_1261)"/>
<path d="M975.07 293.928C976.497 293.928 977.577 294.533 978.31 295.743C979.057 296.94 979.43 298.681 979.43 300.968C979.43 303.255 979.057 305.003 978.31 306.213C977.577 307.423 976.497 308.028 975.07 308.028C973.657 308.028 972.577 307.423 971.83 306.213C971.084 305.003 970.71 303.255 970.71 300.968C970.71 298.695 971.084 296.953 971.83 295.743C972.577 294.533 973.657 293.928 975.07 293.928ZM972.13 300.968C972.13 302.59 972.277 303.86 972.57 304.777L977.01 295.942C976.543 295.317 975.897 295.005 975.07 295.005C974.15 295.005 973.43 295.497 972.91 296.481C972.39 297.451 972.13 298.947 972.13 300.968ZM975.07 306.931C976.003 306.931 976.73 306.446 977.25 305.475C977.77 304.492 978.03 302.989 978.03 300.968C978.03 299.253 977.863 297.923 977.53 296.979L973.09 305.894C973.57 306.586 974.23 306.931 975.07 306.931Z" fill="url(#paint68_linear_422_1261)"/>
<path d="M976.27 329.565H979.21V330.622H971.59V329.565H974.99V318.356L971.75 320.291L971.19 319.393L975.19 316.92H976.27V329.565Z" fill="url(#paint69_linear_422_1261)"/>
<path d="M975.07 339.514C976.497 339.514 977.577 340.119 978.31 341.329C979.057 342.525 979.43 344.267 979.43 346.554C979.43 348.841 979.057 350.589 978.31 351.799C977.577 353.009 976.497 353.614 975.07 353.614C973.657 353.614 972.577 353.009 971.83 351.799C971.084 350.589 970.71 348.841 970.71 346.554C970.71 344.28 971.084 342.538 971.83 341.329C972.577 340.119 973.657 339.514 975.07 339.514ZM972.13 346.554C972.13 348.176 972.277 349.446 972.57 350.363L977.01 341.528C976.543 340.903 975.897 340.591 975.07 340.591C974.15 340.591 973.43 341.083 972.91 342.066C972.39 343.037 972.13 344.533 972.13 346.554ZM975.07 352.517C976.003 352.517 976.73 352.032 977.25 351.061C977.77 350.077 978.03 348.575 978.03 346.554C978.03 344.839 977.863 343.509 977.53 342.565L973.09 351.48C973.57 352.171 974.23 352.517 975.07 352.517Z" fill="url(#paint70_linear_422_1261)"/>
<path d="M976.27 375.15H979.21V376.207H971.59V375.15H974.99V363.942L971.75 365.876L971.19 364.979L975.19 362.506H976.27V375.15Z" fill="url(#paint71_linear_422_1261)"/>
<path d="M976.27 397.943H979.21V399H971.59V397.943H974.99V386.735L971.75 388.669L971.19 387.772L975.19 385.299H976.27V397.943Z" fill="url(#paint72_linear_422_1261)"/>
<path d="M919.36 134.378C920.786 134.378 921.866 134.983 922.599 136.193C923.346 137.39 923.719 139.132 923.719 141.419C923.719 143.705 923.346 145.454 922.599 146.664C921.866 147.874 920.786 148.479 919.36 148.479C917.946 148.479 916.867 147.874 916.12 146.664C915.373 145.454 915 143.705 915 141.419C915 139.145 915.373 137.403 916.12 136.193C916.867 134.983 917.946 134.378 919.36 134.378ZM916.42 141.419C916.42 143.041 916.567 144.31 916.86 145.228L921.3 136.393C920.833 135.768 920.186 135.455 919.36 135.455C918.44 135.455 917.72 135.947 917.2 136.931C916.68 137.902 916.42 139.398 916.42 141.419ZM919.36 147.382C920.293 147.382 921.02 146.896 921.54 145.926C922.06 144.942 922.319 143.44 922.319 141.419C922.319 139.703 922.153 138.374 921.82 137.43L917.38 146.345C917.86 147.036 918.52 147.382 919.36 147.382Z" fill="url(#paint73_linear_422_1261)"/>
<path d="M919.36 157.171C920.786 157.171 921.866 157.776 922.599 158.986C923.346 160.183 923.719 161.924 923.719 164.211C923.719 166.498 923.346 168.247 922.599 169.457C921.866 170.666 920.786 171.271 919.36 171.271C917.946 171.271 916.867 170.666 916.12 169.457C915.373 168.247 915 166.498 915 164.211C915 161.938 915.373 160.196 916.12 158.986C916.867 157.776 917.946 157.171 919.36 157.171ZM916.42 164.211C916.42 165.833 916.567 167.103 916.86 168.021L921.3 159.186C920.833 158.561 920.186 158.248 919.36 158.248C918.44 158.248 917.72 158.74 917.2 159.724C916.68 160.695 916.42 162.19 916.42 164.211ZM919.36 170.174C920.293 170.174 921.02 169.689 921.54 168.719C922.06 167.735 922.319 166.232 922.319 164.211C922.319 162.496 922.153 161.167 921.82 160.223L917.38 169.137C917.86 169.829 918.52 170.174 919.36 170.174Z" fill="url(#paint74_linear_422_1261)"/>
<path d="M920.56 192.808H923.499V193.865H915.88V192.808H919.28V181.599L916.04 183.534L915.48 182.636L919.48 180.163H920.56V192.808Z" fill="url(#paint75_linear_422_1261)"/>
<path d="M919.36 202.757C920.786 202.757 921.866 203.362 922.599 204.572C923.346 205.768 923.719 207.51 923.719 209.797C923.719 212.084 923.346 213.832 922.599 215.042C921.866 216.252 920.786 216.857 919.36 216.857C917.946 216.857 916.867 216.252 916.12 215.042C915.373 213.832 915 212.084 915 209.797C915 207.523 915.373 205.782 916.12 204.572C916.867 203.362 917.946 202.757 919.36 202.757ZM916.42 209.797C916.42 211.419 916.567 212.689 916.86 213.606L921.3 204.771C920.833 204.146 920.186 203.834 919.36 203.834C918.44 203.834 917.72 204.326 917.2 205.31C916.68 206.28 916.42 207.776 916.42 209.797ZM919.36 215.76C920.293 215.76 921.02 215.275 921.54 214.304C922.06 213.32 922.319 211.818 922.319 209.797C922.319 208.082 922.153 206.752 921.82 205.808L917.38 214.723C917.86 215.414 918.52 215.76 919.36 215.76Z" fill="url(#paint76_linear_422_1261)"/>
<path d="M920.56 238.393H923.499V239.45H915.88V238.393H919.28V227.185L916.04 229.12L915.48 228.222L919.48 225.749H920.56V238.393Z" fill="url(#paint77_linear_422_1261)"/>
<path d="M920.56 261.186H923.499V262.243H915.88V261.186H919.28V249.978L916.04 251.912L915.48 251.015L919.48 248.542H920.56V261.186Z" fill="url(#paint78_linear_422_1261)"/>
<path d="M957.7 101.637H960.64V102.694H953.02V101.637H956.42V90.4282L953.18 92.3627L952.62 91.4653L956.62 88.9922H957.7V101.637Z" fill="url(#paint79_linear_422_1261)"/>
<path d="M956.5 111.586C957.927 111.586 959.006 112.191 959.74 113.4C960.486 114.597 960.86 116.339 960.86 118.626C960.86 120.913 960.486 122.661 959.74 123.871C959.006 125.081 957.927 125.686 956.5 125.686C955.087 125.686 954.007 125.081 953.26 123.871C952.514 122.661 952.14 120.913 952.14 118.626C952.14 116.352 952.514 114.61 953.26 113.4C954.007 112.191 955.087 111.586 956.5 111.586ZM953.56 118.626C953.56 120.248 953.707 121.518 954 122.435L958.44 113.6C957.973 112.975 957.327 112.663 956.5 112.663C955.58 112.663 954.86 113.155 954.34 114.138C953.82 115.109 953.56 116.605 953.56 118.626ZM956.5 124.589C957.433 124.589 958.16 124.104 958.68 123.133C959.2 122.149 959.46 120.647 959.46 118.626C959.46 116.911 959.293 115.581 958.96 114.637L954.52 123.552C955 124.243 955.66 124.589 956.5 124.589Z" fill="url(#paint80_linear_422_1261)"/>
<path d="M957.7 147.222H960.64V148.279H953.02V147.222H956.42V136.014L953.18 137.948L952.62 137.051L956.62 134.578H957.7V147.222Z" fill="url(#paint81_linear_422_1261)"/>
<path d="M957.7 170.015H960.64V171.072H953.02V170.015H956.42V158.807L953.18 160.741L952.62 159.844L956.62 157.371H957.7V170.015Z" fill="url(#paint82_linear_422_1261)"/>
<path d="M956.5 179.964C957.927 179.964 959.006 180.569 959.74 181.779C960.486 182.976 960.86 184.717 960.86 187.004C960.86 189.291 960.486 191.039 959.74 192.249C959.006 193.459 957.927 194.064 956.5 194.064C955.087 194.064 954.007 193.459 953.26 192.249C952.514 191.039 952.14 189.291 952.14 187.004C952.14 184.731 952.514 182.989 953.26 181.779C954.007 180.569 955.087 179.964 956.5 179.964ZM953.56 187.004C953.56 188.626 953.707 189.896 954 190.813L958.44 181.978C957.973 181.353 957.327 181.041 956.5 181.041C955.58 181.041 954.86 181.533 954.34 182.517C953.82 183.487 953.56 184.983 953.56 187.004ZM956.5 192.967C957.433 192.967 958.16 192.482 958.68 191.511C959.2 190.528 959.46 189.025 959.46 187.004C959.46 185.289 959.293 183.959 958.96 183.015L954.52 191.93C955 192.622 955.66 192.967 956.5 192.967Z" fill="url(#paint83_linear_422_1261)"/>
<path d="M957.7 215.601H960.64V216.658H953.02V215.601H956.42V204.392L953.18 206.327L952.62 205.429L956.62 202.956H957.7V215.601Z" fill="url(#paint84_linear_422_1261)"/>
<path d="M957.7 238.393H960.64V239.45H953.02V238.393H956.42V227.185L953.18 229.12L952.62 228.222L956.62 225.749H957.7V238.393Z" fill="url(#paint85_linear_422_1261)"/>
<path d="M956.5 248.342C957.927 248.342 959.006 248.947 959.74 250.157C960.486 251.354 960.86 253.096 960.86 255.383C960.86 257.669 960.486 259.418 959.74 260.628C959.006 261.838 957.927 262.443 956.5 262.443C955.087 262.443 954.007 261.838 953.26 260.628C952.514 259.418 952.14 257.669 952.14 255.383C952.14 253.109 952.514 251.367 953.26 250.157C954.007 248.947 955.087 248.342 956.5 248.342ZM953.56 255.383C953.56 257.005 953.707 258.274 954 259.192L958.44 250.357C957.973 249.732 957.327 249.419 956.5 249.419C955.58 249.419 954.86 249.911 954.34 250.895C953.82 251.866 953.56 253.362 953.56 255.383ZM956.5 261.346C957.433 261.346 958.16 260.86 958.68 259.89C959.2 258.906 959.46 257.404 959.46 255.383C959.46 253.667 959.293 252.338 958.96 251.394L954.52 260.309C955 261 955.66 261.346 956.5 261.346Z" fill="url(#paint86_linear_422_1261)"/>
<path d="M957.7 283.979H960.64V285.036H953.02V283.979H956.42V272.771L953.18 274.705L952.62 273.808L956.62 271.335H957.7V283.979Z" fill="url(#paint87_linear_422_1261)"/>
<path d="M956.5 293.928C957.927 293.928 959.006 294.533 959.74 295.743C960.486 296.94 960.86 298.681 960.86 300.968C960.86 303.255 960.486 305.003 959.74 306.213C959.006 307.423 957.927 308.028 956.5 308.028C955.087 308.028 954.007 307.423 953.26 306.213C952.514 305.003 952.14 303.255 952.14 300.968C952.14 298.695 952.514 296.953 953.26 295.743C954.007 294.533 955.087 293.928 956.5 293.928ZM953.56 300.968C953.56 302.59 953.707 303.86 954 304.777L958.44 295.942C957.973 295.317 957.327 295.005 956.5 295.005C955.58 295.005 954.86 295.497 954.34 296.481C953.82 297.451 953.56 298.947 953.56 300.968ZM956.5 306.931C957.433 306.931 958.16 306.446 958.68 305.475C959.2 304.492 959.46 302.989 959.46 300.968C959.46 299.253 959.293 297.923 958.96 296.979L954.52 305.894C955 306.586 955.66 306.931 956.5 306.931Z" fill="url(#paint88_linear_422_1261)"/>
<path d="M993.64 88.7928C995.067 88.7928 996.147 89.3978 996.88 90.6077C997.627 91.8043 998 93.5461 998 95.8329C998 98.1198 997.627 99.8682 996.88 101.078C996.147 102.288 995.067 102.893 993.64 102.893C992.227 102.893 991.147 102.288 990.401 101.078C989.654 99.8682 989.281 98.1198 989.281 95.8329C989.281 93.5593 989.654 91.8176 990.401 90.6077C991.147 89.3978 992.227 88.7928 993.64 88.7928ZM990.7 95.8329C990.7 97.455 990.847 98.7248 991.14 99.6422L995.58 90.8071C995.114 90.1822 994.467 89.8698 993.64 89.8698C992.72 89.8698 992 90.3617 991.48 91.3456C990.96 92.3162 990.7 93.812 990.7 95.8329ZM993.64 101.796C994.574 101.796 995.3 101.311 995.82 100.34C996.34 99.3563 996.6 97.8539 996.6 95.8329C996.6 94.1178 996.433 92.7882 996.1 91.8442L991.66 100.759C992.14 101.45 992.8 101.796 993.64 101.796Z" fill="url(#paint89_linear_422_1261)"/>
<path d="M994.84 124.429H997.78V125.486H990.161V124.429H993.56V113.221L990.321 115.156L989.761 114.258L993.76 111.785H994.84V124.429Z" fill="url(#paint90_linear_422_1261)"/>
<path d="M994.84 147.222H997.78V148.279H990.161V147.222H993.56V136.014L990.321 137.948L989.761 137.051L993.76 134.578H994.84V147.222Z" fill="url(#paint91_linear_422_1261)"/>
<path d="M993.64 157.171C995.067 157.171 996.147 157.776 996.88 158.986C997.627 160.183 998 161.924 998 164.211C998 166.498 997.627 168.247 996.88 169.457C996.147 170.666 995.067 171.271 993.64 171.271C992.227 171.271 991.147 170.666 990.401 169.457C989.654 168.247 989.281 166.498 989.281 164.211C989.281 161.938 989.654 160.196 990.401 158.986C991.147 157.776 992.227 157.171 993.64 157.171ZM990.7 164.211C990.7 165.833 990.847 167.103 991.14 168.021L995.58 159.186C995.114 158.561 994.467 158.248 993.64 158.248C992.72 158.248 992 158.74 991.48 159.724C990.96 160.695 990.7 162.19 990.7 164.211ZM993.64 170.174C994.574 170.174 995.3 169.689 995.82 168.719C996.34 167.735 996.6 166.232 996.6 164.211C996.6 162.496 996.433 161.167 996.1 160.223L991.66 169.137C992.14 169.829 992.8 170.174 993.64 170.174Z" fill="url(#paint92_linear_422_1261)"/>
<path d="M993.64 179.964C995.067 179.964 996.147 180.569 996.88 181.779C997.627 182.976 998 184.717 998 187.004C998 189.291 997.627 191.039 996.88 192.249C996.147 193.459 995.067 194.064 993.64 194.064C992.227 194.064 991.147 193.459 990.401 192.249C989.654 191.039 989.281 189.291 989.281 187.004C989.281 184.731 989.654 182.989 990.401 181.779C991.147 180.569 992.227 179.964 993.64 179.964ZM990.7 187.004C990.7 188.626 990.847 189.896 991.14 190.813L995.58 181.978C995.114 181.353 994.467 181.041 993.64 181.041C992.72 181.041 992 181.533 991.48 182.517C990.96 183.487 990.7 184.983 990.7 187.004ZM993.64 192.967C994.574 192.967 995.3 192.482 995.82 191.511C996.34 190.528 996.6 189.025 996.6 187.004C996.6 185.289 996.433 183.959 996.1 183.015L991.66 191.93C992.14 192.622 992.8 192.967 993.64 192.967Z" fill="url(#paint93_linear_422_1261)"/>
</g>
</g>
<defs>
<filter id="filter0_f_422_1261" x="-558.19" y="-716.19" width="2141.38" height="1500.38" filterUnits="userSpaceOnUse" color-interpolation-filters="sRGB">
<feFlood flood-opacity="0" result="BackgroundImageFix"/>
<feBlend mode="normal" in="SourceGraphic" in2="BackgroundImageFix" result="shape"/>
<feGaussianBlur stdDeviation="200.095" result="effect1_foregroundBlur_422_1261"/>
</filter>
<linearGradient id="paint0_linear_422_1261" x1="70.5" y1="377" x2="70.5" y2="688.381" gradientUnits="userSpaceOnUse">
<stop stop-color="#F7DD43"/>
<stop offset="1" stop-color="#F7DD43" stop-opacity="0"/>
</linearGradient>
<linearGradient id="paint1_linear_422_1261" x1="70.5" y1="377" x2="70.5" y2="688.381" gradientUnits="userSpaceOnUse">
<stop stop-color="#F7DD43"/>
<stop offset="1" stop-color="#F7DD43" stop-opacity="0"/>
</linearGradient>
<linearGradient id="paint2_linear_422_1261" x1="70.5" y1="377" x2="70.5" y2="688.381" gradientUnits="userSpaceOnUse">
<stop stop-color="#F7DD43"/>
<stop offset="1" stop-color="#F7DD43" stop-opacity="0"/>
</linearGradient>
<linearGradient id="paint3_linear_422_1261" x1="70.5" y1="377" x2="70.5" y2="688.381" gradientUnits="userSpaceOnUse">
<stop stop-color="#F7DD43"/>
<stop offset="1" stop-color="#F7DD43" stop-opacity="0"/>
</linearGradient>
<linearGradient id="paint4_linear_422_1261" x1="70.5" y1="377" x2="70.5" y2="688.381" gradientUnits="userSpaceOnUse">
<stop stop-color="#F7DD43"/>
<stop offset="1" stop-color="#F7DD43" stop-opacity="0"/>
</linearGradient>
<linearGradient id="paint5_linear_422_1261" x1="70.5" y1="377" x2="70.5" y2="688.381" gradientUnits="userSpaceOnUse">
<stop stop-color="#F7DD43"/>
<stop offset="1" stop-color="#F7DD43" stop-opacity="0"/>
</linearGradient>
<linearGradient id="paint6_linear_422_1261" x1="70.5" y1="377" x2="70.5" y2="688.381" gradientUnits="userSpaceOnUse">
<stop stop-color="#F7DD43"/>
<stop offset="1" stop-color="#F7DD43" stop-opacity="0"/>
</linearGradient>
<linearGradient id="paint7_linear_422_1261" x1="70.5" y1="377" x2="70.5" y2="688.381" gradientUnits="userSpaceOnUse">
<stop stop-color="#F7DD43"/>
<stop offset="1" stop-color="#F7DD43" stop-opacity="0"/>
</linearGradient>
<linearGradient id="paint8_linear_422_1261" x1="70.5" y1="377" x2="70.5" y2="688.381" gradientUnits="userSpaceOnUse">
<stop stop-color="#F7DD43"/>
<stop offset="1" stop-color="#F7DD43" stop-opacity="0"/>
</linearGradient>
<linearGradient id="paint9_linear_422_1261" x1="70.5" y1="377" x2="70.5" y2="688.381" gradientUnits="userSpaceOnUse">
<stop stop-color="#F7DD43"/>
<stop offset="1" stop-color="#F7DD43" stop-opacity="0"/>
</linearGradient>
<linearGradient id="paint10_linear_422_1261" x1="70.5" y1="377" x2="70.5" y2="688.381" gradientUnits="userSpaceOnUse">
<stop stop-color="#F7DD43"/>
<stop offset="1" stop-color="#F7DD43" stop-opacity="0"/>
</linearGradient>
<linearGradient id="paint11_linear_422_1261" x1="70.5" y1="377" x2="70.5" y2="688.381" gradientUnits="userSpaceOnUse">
<stop stop-color="#F7DD43"/>
<stop offset="1" stop-color="#F7DD43" stop-opacity="0"/>
</linearGradient>
<linearGradient id="paint12_linear_422_1261" x1="70.5" y1="377" x2="70.5" y2="688.381" gradientUnits="userSpaceOnUse">
<stop stop-color="#F7DD43"/>
<stop offset="1" stop-color="#F7DD43" stop-opacity="0"/>
</linearGradient>
<linearGradient id="paint13_linear_422_1261" x1="70.5" y1="377" x2="70.5" y2="688.381" gradientUnits="userSpaceOnUse">
<stop stop-color="#F7DD43"/>
<stop offset="1" stop-color="#F7DD43" stop-opacity="0"/>
</linearGradient>
<linearGradient id="paint14_linear_422_1261" x1="70.5" y1="377" x2="70.5" y2="688.381" gradientUnits="userSpaceOnUse">
<stop stop-color="#F7DD43"/>
<stop offset="1" stop-color="#F7DD43" stop-opacity="0"/>
</linearGradient>
<linearGradient id="paint15_linear_422_1261" x1="70.5" y1="377" x2="70.5" y2="688.381" gradientUnits="userSpaceOnUse">
<stop stop-color="#F7DD43"/>
<stop offset="1" stop-color="#F7DD43" stop-opacity="0"/>
</linearGradient>
<linearGradient id="paint16_linear_422_1261" x1="70.5" y1="377" x2="70.5" y2="688.381" gradientUnits="userSpaceOnUse">
<stop stop-color="#F7DD43"/>
<stop offset="1" stop-color="#F7DD43" stop-opacity="0"/>
</linearGradient>
<linearGradient id="paint17_linear_422_1261" x1="70.5" y1="377" x2="70.5" y2="688.381" gradientUnits="userSpaceOnUse">
<stop stop-color="#F7DD43"/>
<stop offset="1" stop-color="#F7DD43" stop-opacity="0"/>
</linearGradient>
<linearGradient id="paint18_linear_422_1261" x1="70.5" y1="377" x2="70.5" y2="688.381" gradientUnits="userSpaceOnUse">
<stop stop-color="#F7DD43"/>
<stop offset="1" stop-color="#F7DD43" stop-opacity="0"/>
</linearGradient>
<linearGradient id="paint19_linear_422_1261" x1="70.5" y1="377" x2="70.5" y2="688.381" gradientUnits="userSpaceOnUse">
<stop stop-color="#F7DD43"/>
<stop offset="1" stop-color="#F7DD43" stop-opacity="0"/>
</linearGradient>
<linearGradient id="paint20_linear_422_1261" x1="70.5" y1="377" x2="70.5" y2="688.381" gradientUnits="userSpaceOnUse">
<stop stop-color="#F7DD43"/>
<stop offset="1" stop-color="#F7DD43" stop-opacity="0"/>
</linearGradient>
<linearGradient id="paint21_linear_422_1261" x1="70.5" y1="377" x2="70.5" y2="688.381" gradientUnits="userSpaceOnUse">
<stop stop-color="#F7DD43"/>
<stop offset="1" stop-color="#F7DD43" stop-opacity="0"/>
</linearGradient>
<linearGradient id="paint22_linear_422_1261" x1="70.5" y1="377" x2="70.5" y2="688.381" gradientUnits="userSpaceOnUse">
<stop stop-color="#F7DD43"/>
<stop offset="1" stop-color="#F7DD43" stop-opacity="0"/>
</linearGradient>
<linearGradient id="paint23_linear_422_1261" x1="70.5" y1="377" x2="70.5" y2="688.381" gradientUnits="userSpaceOnUse">
<stop stop-color="#F7DD43"/>
<stop offset="1" stop-color="#F7DD43" stop-opacity="0"/>
</linearGradient>
<linearGradient id="paint24_linear_422_1261" x1="70.5" y1="377" x2="70.5" y2="688.381" gradientUnits="userSpaceOnUse">
<stop stop-color="#F7DD43"/>
<stop offset="1" stop-color="#F7DD43" stop-opacity="0"/>
</linearGradient>
<linearGradient id="paint25_linear_422_1261" x1="70.5" y1="377" x2="70.5" y2="688.381" gradientUnits="userSpaceOnUse">
<stop stop-color="#F7DD43"/>
<stop offset="1" stop-color="#F7DD43" stop-opacity="0"/>
</linearGradient>
<linearGradient id="paint26_linear_422_1261" x1="70.5" y1="377" x2="70.5" y2="688.381" gradientUnits="userSpaceOnUse">
<stop stop-color="#F7DD43"/>
<stop offset="1" stop-color="#F7DD43" stop-opacity="0"/>
</linearGradient>
<linearGradient id="paint27_linear_422_1261" x1="70.5" y1="377" x2="70.5" y2="688.381" gradientUnits="userSpaceOnUse">
<stop stop-color="#F7DD43"/>
<stop offset="1" stop-color="#F7DD43" stop-opacity="0"/>
</linearGradient>
<linearGradient id="paint28_linear_422_1261" x1="70.5" y1="377" x2="70.5" y2="688.381" gradientUnits="userSpaceOnUse">
<stop stop-color="#F7DD43"/>
<stop offset="1" stop-color="#F7DD43" stop-opacity="0"/>
</linearGradient>
<linearGradient id="paint29_linear_422_1261" x1="70.5" y1="377" x2="70.5" y2="688.381" gradientUnits="userSpaceOnUse">
<stop stop-color="#F7DD43"/>
<stop offset="1" stop-color="#F7DD43" stop-opacity="0"/>
</linearGradient>
<linearGradient id="paint30_linear_422_1261" x1="70.5" y1="377" x2="70.5" y2="688.381" gradientUnits="userSpaceOnUse">
<stop stop-color="#F7DD43"/>
<stop offset="1" stop-color="#F7DD43" stop-opacity="0"/>
</linearGradient>
<linearGradient id="paint31_linear_422_1261" x1="70.5" y1="377" x2="70.5" y2="688.381" gradientUnits="userSpaceOnUse">
<stop stop-color="#F7DD43"/>
<stop offset="1" stop-color="#F7DD43" stop-opacity="0"/>
</linearGradient>
<linearGradient id="paint32_linear_422_1261" x1="70.5" y1="377" x2="70.5" y2="688.381" gradientUnits="userSpaceOnUse">
<stop stop-color="#F7DD43"/>
<stop offset="1" stop-color="#F7DD43" stop-opacity="0"/>
</linearGradient>
<linearGradient id="paint33_linear_422_1261" x1="70.5" y1="377" x2="70.5" y2="688.381" gradientUnits="userSpaceOnUse">
<stop stop-color="#F7DD43"/>
<stop offset="1" stop-color="#F7DD43" stop-opacity="0"/>
</linearGradient>
<linearGradient id="paint34_linear_422_1261" x1="70.5" y1="377" x2="70.5" y2="688.381" gradientUnits="userSpaceOnUse">
<stop stop-color="#F7DD43"/>
<stop offset="1" stop-color="#F7DD43" stop-opacity="0"/>
</linearGradient>
<linearGradient id="paint35_linear_422_1261" x1="70.5" y1="377" x2="70.5" y2="688.381" gradientUnits="userSpaceOnUse">
<stop stop-color="#F7DD43"/>
<stop offset="1" stop-color="#F7DD43" stop-opacity="0"/>
</linearGradient>
<linearGradient id="paint36_linear_422_1261" x1="70.5" y1="377" x2="70.5" y2="688.381" gradientUnits="userSpaceOnUse">
<stop stop-color="#F7DD43"/>
<stop offset="1" stop-color="#F7DD43" stop-opacity="0"/>
</linearGradient>
<linearGradient id="paint37_linear_422_1261" x1="70.5" y1="377" x2="70.5" y2="688.381" gradientUnits="userSpaceOnUse">
<stop stop-color="#F7DD43"/>
<stop offset="1" stop-color="#F7DD43" stop-opacity="0"/>
</linearGradient>
<linearGradient id="paint38_linear_422_1261" x1="70.5" y1="377" x2="70.5" y2="688.381" gradientUnits="userSpaceOnUse">
<stop stop-color="#F7DD43"/>
<stop offset="1" stop-color="#F7DD43" stop-opacity="0"/>
</linearGradient>
<linearGradient id="paint39_linear_422_1261" x1="70.5" y1="377" x2="70.5" y2="688.381" gradientUnits="userSpaceOnUse">
<stop stop-color="#F7DD43"/>
<stop offset="1" stop-color="#F7DD43" stop-opacity="0"/>
</linearGradient>
<linearGradient id="paint40_linear_422_1261" x1="70.5" y1="377" x2="70.5" y2="688.381" gradientUnits="userSpaceOnUse">
<stop stop-color="#F7DD43"/>
<stop offset="1" stop-color="#F7DD43" stop-opacity="0"/>
</linearGradient>
<linearGradient id="paint41_linear_422_1261" x1="70.5" y1="377" x2="70.5" y2="688.381" gradientUnits="userSpaceOnUse">
<stop stop-color="#F7DD43"/>
<stop offset="1" stop-color="#F7DD43" stop-opacity="0"/>
</linearGradient>
<linearGradient id="paint42_linear_422_1261" x1="70.5" y1="377" x2="70.5" y2="688.381" gradientUnits="userSpaceOnUse">
<stop stop-color="#F7DD43"/>
<stop offset="1" stop-color="#F7DD43" stop-opacity="0"/>
</linearGradient>
<linearGradient id="paint43_linear_422_1261" x1="70.5" y1="377" x2="70.5" y2="688.381" gradientUnits="userSpaceOnUse">
<stop stop-color="#F7DD43"/>
<stop offset="1" stop-color="#F7DD43" stop-opacity="0"/>
</linearGradient>
<linearGradient id="paint44_linear_422_1261" x1="70.5" y1="377" x2="70.5" y2="688.381" gradientUnits="userSpaceOnUse">
<stop stop-color="#F7DD43"/>
<stop offset="1" stop-color="#F7DD43" stop-opacity="0"/>
</linearGradient>
<linearGradient id="paint45_linear_422_1261" x1="70.5" y1="377" x2="70.5" y2="688.381" gradientUnits="userSpaceOnUse">
<stop stop-color="#F7DD43"/>
<stop offset="1" stop-color="#F7DD43" stop-opacity="0"/>
</linearGradient>
<linearGradient id="paint46_linear_422_1261" x1="70.5" y1="377" x2="70.5" y2="688.381" gradientUnits="userSpaceOnUse">
<stop stop-color="#F7DD43"/>
<stop offset="1" stop-color="#F7DD43" stop-opacity="0"/>
</linearGradient>
<linearGradient id="paint47_linear_422_1261" x1="956.5" y1="66" x2="956.5" y2="364.818" gradientUnits="userSpaceOnUse">
<stop stop-color="#F7DD43"/>
<stop offset="1" stop-color="#F7DD43" stop-opacity="0"/>
</linearGradient>
<linearGradient id="paint48_linear_422_1261" x1="956.5" y1="66" x2="956.5" y2="364.818" gradientUnits="userSpaceOnUse">
<stop stop-color="#F7DD43"/>
<stop offset="1" stop-color="#F7DD43" stop-opacity="0"/>
</linearGradient>
<linearGradient id="paint49_linear_422_1261" x1="956.5" y1="66" x2="956.5" y2="364.818" gradientUnits="userSpaceOnUse">
<stop stop-color="#F7DD43"/>
<stop offset="1" stop-color="#F7DD43" stop-opacity="0"/>
</linearGradient>
<linearGradient id="paint50_linear_422_1261" x1="956.5" y1="66" x2="956.5" y2="364.818" gradientUnits="userSpaceOnUse">
<stop stop-color="#F7DD43"/>
<stop offset="1" stop-color="#F7DD43" stop-opacity="0"/>
</linearGradient>
<linearGradient id="paint51_linear_422_1261" x1="956.5" y1="66" x2="956.5" y2="364.818" gradientUnits="userSpaceOnUse">
<stop stop-color="#F7DD43"/>
<stop offset="1" stop-color="#F7DD43" stop-opacity="0"/>
</linearGradient>
<linearGradient id="paint52_linear_422_1261" x1="956.5" y1="66" x2="956.5" y2="364.818" gradientUnits="userSpaceOnUse">
<stop stop-color="#F7DD43"/>
<stop offset="1" stop-color="#F7DD43" stop-opacity="0"/>
</linearGradient>
<linearGradient id="paint53_linear_422_1261" x1="956.5" y1="66" x2="956.5" y2="364.818" gradientUnits="userSpaceOnUse">
<stop stop-color="#F7DD43"/>
<stop offset="1" stop-color="#F7DD43" stop-opacity="0"/>
</linearGradient>
<linearGradient id="paint54_linear_422_1261" x1="956.5" y1="66" x2="956.5" y2="364.818" gradientUnits="userSpaceOnUse">
<stop stop-color="#F7DD43"/>
<stop offset="1" stop-color="#F7DD43" stop-opacity="0"/>
</linearGradient>
<linearGradient id="paint55_linear_422_1261" x1="956.5" y1="66" x2="956.5" y2="364.818" gradientUnits="userSpaceOnUse">
<stop stop-color="#F7DD43"/>
<stop offset="1" stop-color="#F7DD43" stop-opacity="0"/>
</linearGradient>
<linearGradient id="paint56_linear_422_1261" x1="956.5" y1="66" x2="956.5" y2="364.818" gradientUnits="userSpaceOnUse">
<stop stop-color="#F7DD43"/>
<stop offset="1" stop-color="#F7DD43" stop-opacity="0"/>
</linearGradient>
<linearGradient id="paint57_linear_422_1261" x1="956.5" y1="66" x2="956.5" y2="364.818" gradientUnits="userSpaceOnUse">
<stop stop-color="#F7DD43"/>
<stop offset="1" stop-color="#F7DD43" stop-opacity="0"/>
</linearGradient>
<linearGradient id="paint58_linear_422_1261" x1="956.5" y1="66" x2="956.5" y2="364.818" gradientUnits="userSpaceOnUse">
<stop stop-color="#F7DD43"/>
<stop offset="1" stop-color="#F7DD43" stop-opacity="0"/>
</linearGradient>
<linearGradient id="paint59_linear_422_1261" x1="956.5" y1="66" x2="956.5" y2="364.818" gradientUnits="userSpaceOnUse">
<stop stop-color="#F7DD43"/>
<stop offset="1" stop-color="#F7DD43" stop-opacity="0"/>
</linearGradient>
<linearGradient id="paint60_linear_422_1261" x1="956.5" y1="66" x2="956.5" y2="364.818" gradientUnits="userSpaceOnUse">
<stop stop-color="#F7DD43"/>
<stop offset="1" stop-color="#F7DD43" stop-opacity="0"/>
</linearGradient>
<linearGradient id="paint61_linear_422_1261" x1="956.5" y1="66" x2="956.5" y2="364.818" gradientUnits="userSpaceOnUse">
<stop stop-color="#F7DD43"/>
<stop offset="1" stop-color="#F7DD43" stop-opacity="0"/>
</linearGradient>
<linearGradient id="paint62_linear_422_1261" x1="956.5" y1="66" x2="956.5" y2="364.818" gradientUnits="userSpaceOnUse">
<stop stop-color="#F7DD43"/>
<stop offset="1" stop-color="#F7DD43" stop-opacity="0"/>
</linearGradient>
<linearGradient id="paint63_linear_422_1261" x1="956.5" y1="66" x2="956.5" y2="364.818" gradientUnits="userSpaceOnUse">
<stop stop-color="#F7DD43"/>
<stop offset="1" stop-color="#F7DD43" stop-opacity="0"/>
</linearGradient>
<linearGradient id="paint64_linear_422_1261" x1="956.5" y1="66" x2="956.5" y2="364.818" gradientUnits="userSpaceOnUse">
<stop stop-color="#F7DD43"/>
<stop offset="1" stop-color="#F7DD43" stop-opacity="0"/>
</linearGradient>
<linearGradient id="paint65_linear_422_1261" x1="956.5" y1="66" x2="956.5" y2="364.818" gradientUnits="userSpaceOnUse">
<stop stop-color="#F7DD43"/>
<stop offset="1" stop-color="#F7DD43" stop-opacity="0"/>
</linearGradient>
<linearGradient id="paint66_linear_422_1261" x1="956.5" y1="66" x2="956.5" y2="364.818" gradientUnits="userSpaceOnUse">
<stop stop-color="#F7DD43"/>
<stop offset="1" stop-color="#F7DD43" stop-opacity="0"/>
</linearGradient>
<linearGradient id="paint67_linear_422_1261" x1="956.5" y1="66" x2="956.5" y2="364.818" gradientUnits="userSpaceOnUse">
<stop stop-color="#F7DD43"/>
<stop offset="1" stop-color="#F7DD43" stop-opacity="0"/>
</linearGradient>
<linearGradient id="paint68_linear_422_1261" x1="956.5" y1="66" x2="956.5" y2="364.818" gradientUnits="userSpaceOnUse">
<stop stop-color="#F7DD43"/>
<stop offset="1" stop-color="#F7DD43" stop-opacity="0"/>
</linearGradient>
<linearGradient id="paint69_linear_422_1261" x1="956.5" y1="66" x2="956.5" y2="364.818" gradientUnits="userSpaceOnUse">
<stop stop-color="#F7DD43"/>
<stop offset="1" stop-color="#F7DD43" stop-opacity="0"/>
</linearGradient>
<linearGradient id="paint70_linear_422_1261" x1="956.5" y1="66" x2="956.5" y2="364.818" gradientUnits="userSpaceOnUse">
<stop stop-color="#F7DD43"/>
<stop offset="1" stop-color="#F7DD43" stop-opacity="0"/>
</linearGradient>
<linearGradient id="paint71_linear_422_1261" x1="956.5" y1="66" x2="956.5" y2="364.818" gradientUnits="userSpaceOnUse">
<stop stop-color="#F7DD43"/>
<stop offset="1" stop-color="#F7DD43" stop-opacity="0"/>
</linearGradient>
<linearGradient id="paint72_linear_422_1261" x1="956.5" y1="66" x2="956.5" y2="364.818" gradientUnits="userSpaceOnUse">
<stop stop-color="#F7DD43"/>
<stop offset="1" stop-color="#F7DD43" stop-opacity="0"/>
</linearGradient>
<linearGradient id="paint73_linear_422_1261" x1="956.5" y1="66" x2="956.5" y2="364.818" gradientUnits="userSpaceOnUse">
<stop stop-color="#F7DD43"/>
<stop offset="1" stop-color="#F7DD43" stop-opacity="0"/>
</linearGradient>
<linearGradient id="paint74_linear_422_1261" x1="956.5" y1="66" x2="956.5" y2="364.818" gradientUnits="userSpaceOnUse">
<stop stop-color="#F7DD43"/>
<stop offset="1" stop-color="#F7DD43" stop-opacity="0"/>
</linearGradient>
<linearGradient id="paint75_linear_422_1261" x1="956.5" y1="66" x2="956.5" y2="364.818" gradientUnits="userSpaceOnUse">
<stop stop-color="#F7DD43"/>
<stop offset="1" stop-color="#F7DD43" stop-opacity="0"/>
</linearGradient>
<linearGradient id="paint76_linear_422_1261" x1="956.5" y1="66" x2="956.5" y2="364.818" gradientUnits="userSpaceOnUse">
<stop stop-color="#F7DD43"/>
<stop offset="1" stop-color="#F7DD43" stop-opacity="0"/>
</linearGradient>
<linearGradient id="paint77_linear_422_1261" x1="956.5" y1="66" x2="956.5" y2="364.818" gradientUnits="userSpaceOnUse">
<stop stop-color="#F7DD43"/>
<stop offset="1" stop-color="#F7DD43" stop-opacity="0"/>
</linearGradient>
<linearGradient id="paint78_linear_422_1261" x1="956.5" y1="66" x2="956.5" y2="364.818" gradientUnits="userSpaceOnUse">
<stop stop-color="#F7DD43"/>
<stop offset="1" stop-color="#F7DD43" stop-opacity="0"/>
</linearGradient>
<linearGradient id="paint79_linear_422_1261" x1="956.5" y1="66" x2="956.5" y2="364.818" gradientUnits="userSpaceOnUse">
<stop stop-color="#F7DD43"/>
<stop offset="1" stop-color="#F7DD43" stop-opacity="0"/>
</linearGradient>
<linearGradient id="paint80_linear_422_1261" x1="956.5" y1="66" x2="956.5" y2="364.818" gradientUnits="userSpaceOnUse">
<stop stop-color="#F7DD43"/>
<stop offset="1" stop-color="#F7DD43" stop-opacity="0"/>
</linearGradient>
<linearGradient id="paint81_linear_422_1261" x1="956.5" y1="66" x2="956.5" y2="364.818" gradientUnits="userSpaceOnUse">
<stop stop-color="#F7DD43"/>
<stop offset="1" stop-color="#F7DD43" stop-opacity="0"/>
</linearGradient>
<linearGradient id="paint82_linear_422_1261" x1="956.5" y1="66" x2="956.5" y2="364.818" gradientUnits="userSpaceOnUse">
<stop stop-color="#F7DD43"/>
<stop offset="1" stop-color="#F7DD43" stop-opacity="0"/>
</linearGradient>
<linearGradient id="paint83_linear_422_1261" x1="956.5" y1="66" x2="956.5" y2="364.818" gradientUnits="userSpaceOnUse">
<stop stop-color="#F7DD43"/>
<stop offset="1" stop-color="#F7DD43" stop-opacity="0"/>
</linearGradient>
<linearGradient id="paint84_linear_422_1261" x1="956.5" y1="66" x2="956.5" y2="364.818" gradientUnits="userSpaceOnUse">
<stop stop-color="#F7DD43"/>
<stop offset="1" stop-color="#F7DD43" stop-opacity="0"/>
</linearGradient>
<linearGradient id="paint85_linear_422_1261" x1="956.5" y1="66" x2="956.5" y2="364.818" gradientUnits="userSpaceOnUse">
<stop stop-color="#F7DD43"/>
<stop offset="1" stop-color="#F7DD43" stop-opacity="0"/>
</linearGradient>
<linearGradient id="paint86_linear_422_1261" x1="956.5" y1="66" x2="956.5" y2="364.818" gradientUnits="userSpaceOnUse">
<stop stop-color="#F7DD43"/>
<stop offset="1" stop-color="#F7DD43" stop-opacity="0"/>
</linearGradient>
<linearGradient id="paint87_linear_422_1261" x1="956.5" y1="66" x2="956.5" y2="364.818" gradientUnits="userSpaceOnUse">
<stop stop-color="#F7DD43"/>
<stop offset="1" stop-color="#F7DD43" stop-opacity="0"/>
</linearGradient>
<linearGradient id="paint88_linear_422_1261" x1="956.5" y1="66" x2="956.5" y2="364.818" gradientUnits="userSpaceOnUse">
<stop stop-color="#F7DD43"/>
<stop offset="1" stop-color="#F7DD43" stop-opacity="0"/>
</linearGradient>
<linearGradient id="paint89_linear_422_1261" x1="956.5" y1="66" x2="956.5" y2="364.818" gradientUnits="userSpaceOnUse">
<stop stop-color="#F7DD43"/>
<stop offset="1" stop-color="#F7DD43" stop-opacity="0"/>
</linearGradient>
<linearGradient id="paint90_linear_422_1261" x1="956.5" y1="66" x2="956.5" y2="364.818" gradientUnits="userSpaceOnUse">
<stop stop-color="#F7DD43"/>
<stop offset="1" stop-color="#F7DD43" stop-opacity="0"/>
</linearGradient>
<linearGradient id="paint91_linear_422_1261" x1="956.5" y1="66" x2="956.5" y2="364.818" gradientUnits="userSpaceOnUse">
<stop stop-color="#F7DD43"/>
<stop offset="1" stop-color="#F7DD43" stop-opacity="0"/>
</linearGradient>
<linearGradient id="paint92_linear_422_1261" x1="956.5" y1="66" x2="956.5" y2="364.818" gradientUnits="userSpaceOnUse">
<stop stop-color="#F7DD43"/>
<stop offset="1" stop-color="#F7DD43" stop-opacity="0"/>
</linearGradient>
<linearGradient id="paint93_linear_422_1261" x1="956.5" y1="66" x2="956.5" y2="364.818" gradientUnits="userSpaceOnUse">
<stop stop-color="#F7DD43"/>
<stop offset="1" stop-color="#F7DD43" stop-opacity="0"/>
</linearGradient>
<clipPath id="clip0_422_1261">
<rect width="1024" height="1440" fill="white"/>
</clipPath>
</defs>
</svg>
