<svg width="1024" height="753" viewBox="0 0 1024 753" fill="none" xmlns="http://www.w3.org/2000/svg">
<g opacity="0.2" filter="url(#filter0_f_175_198)">
<ellipse cx="512.5" cy="34" rx="670.5" ry="350" fill="#35875D"/>
</g>
<path d="M51.0349 270C52.5302 270 53.6622 270.63 54.4308 271.891C55.2134 273.138 55.6047 274.953 55.6047 277.336C55.6047 279.719 55.2134 281.541 54.4308 282.802C53.6622 284.063 52.5302 284.693 51.0349 284.693C49.5536 284.693 48.4216 284.063 47.639 282.802C46.8564 281.541 46.4651 279.719 46.4651 277.336C46.4651 274.967 46.8564 273.152 47.639 271.891C48.4216 270.63 49.5536 270 51.0349 270ZM47.9534 277.336C47.9534 279.026 48.1072 280.35 48.4146 281.306L53.0683 272.099C52.5791 271.448 51.9013 271.122 51.0349 271.122C50.0706 271.122 49.316 271.635 48.771 272.66C48.2259 273.672 47.9534 275.23 47.9534 277.336ZM51.0349 283.55C52.0131 283.55 52.7748 283.044 53.3198 282.033C53.8648 281.008 54.1373 279.442 54.1373 277.336C54.1373 275.549 53.9627 274.163 53.6133 273.18L48.9596 282.469C49.4627 283.19 50.1545 283.55 51.0349 283.55Z" fill="url(#paint0_linear_175_198)" fill-opacity="0.6"/>
<path d="M52.2926 307.135H55.3741V308.236H47.3874V307.135H50.9511V295.455L47.5551 297.471L46.9682 296.536L51.1607 293.959H52.2926V307.135Z" fill="url(#paint1_linear_175_198)" fill-opacity="0.6"/>
<path d="M51.0349 317.502C52.5302 317.502 53.6622 318.133 54.4308 319.393C55.2134 320.64 55.6047 322.455 55.6047 324.838C55.6047 327.221 55.2134 329.043 54.4308 330.304C53.6622 331.565 52.5302 332.195 51.0349 332.195C49.5536 332.195 48.4216 331.565 47.639 330.304C46.8564 329.043 46.4651 327.221 46.4651 324.838C46.4651 322.469 46.8564 320.654 47.639 319.393C48.4216 318.133 49.5536 317.502 51.0349 317.502ZM47.9534 324.838C47.9534 326.529 48.1072 327.852 48.4146 328.808L53.0683 319.601C52.5791 318.95 51.9013 318.624 51.0349 318.624C50.0706 318.624 49.316 319.137 48.771 320.162C48.2259 321.174 47.9534 322.732 47.9534 324.838ZM51.0349 331.052C52.0131 331.052 52.7748 330.546 53.3198 329.535C53.8648 328.51 54.1373 326.944 54.1373 324.838C54.1373 323.051 53.9627 321.665 53.6133 320.682L48.9596 329.971C49.4627 330.692 50.1545 331.052 51.0349 331.052Z" fill="url(#paint2_linear_175_198)" fill-opacity="0.6"/>
<path d="M52.2926 354.637H55.3741V355.738H47.3874V354.637H50.9511V342.957L47.5551 344.973L46.9682 344.038L51.1607 341.461H52.2926V354.637Z" fill="url(#paint3_linear_175_198)" fill-opacity="0.6"/>
<path d="M52.2926 378.388H55.3741V379.489H47.3874V378.388H50.9511V366.708L47.5551 368.724L46.9682 367.789L51.1607 365.212H52.2926V378.388Z" fill="url(#paint4_linear_175_198)" fill-opacity="0.6"/>
<path d="M51.0349 388.755C52.5302 388.755 53.6622 389.386 54.4308 390.646C55.2134 391.893 55.6047 393.708 55.6047 396.091C55.6047 398.474 55.2134 400.296 54.4308 401.557C53.6622 402.818 52.5302 403.448 51.0349 403.448C49.5536 403.448 48.4216 402.818 47.639 401.557C46.8564 400.296 46.4651 398.474 46.4651 396.091C46.4651 393.722 46.8564 391.907 47.639 390.646C48.4216 389.386 49.5536 388.755 51.0349 388.755ZM47.9534 396.091C47.9534 397.782 48.1072 399.105 48.4146 400.061L53.0683 390.854C52.5791 390.203 51.9013 389.878 51.0349 389.878C50.0706 389.878 49.316 390.39 48.771 391.415C48.2259 392.427 47.9534 393.985 47.9534 396.091ZM51.0349 402.305C52.0131 402.305 52.7748 401.8 53.3198 400.788C53.8648 399.763 54.1373 398.197 54.1373 396.091C54.1373 394.304 53.9627 392.919 53.6133 391.935L48.9596 401.225C49.4627 401.945 50.1545 402.305 51.0349 402.305Z" fill="url(#paint5_linear_175_198)" fill-opacity="0.6"/>
<path d="M52.2926 425.89H55.3741V426.992H47.3874V425.89H50.9511V414.21L47.5551 416.226L46.9682 415.291L51.1607 412.714H52.2926V425.89Z" fill="url(#paint6_linear_175_198)" fill-opacity="0.6"/>
<path d="M51.0349 436.257C52.5302 436.257 53.6622 436.888 54.4308 438.149C55.2134 439.396 55.6047 441.211 55.6047 443.594C55.6047 445.977 55.2134 447.798 54.4308 449.059C53.6622 450.32 52.5302 450.95 51.0349 450.95C49.5536 450.95 48.4216 450.32 47.639 449.059C46.8564 447.798 46.4651 445.977 46.4651 443.594C46.4651 441.224 46.8564 439.409 47.639 438.149C48.4216 436.888 49.5536 436.257 51.0349 436.257ZM47.9534 443.594C47.9534 445.284 48.1072 446.607 48.4146 447.563L53.0683 438.356C52.5791 437.705 51.9013 437.38 51.0349 437.38C50.0706 437.38 49.316 437.892 48.771 438.918C48.2259 439.929 47.9534 441.488 47.9534 443.594ZM51.0349 449.807C52.0131 449.807 52.7748 449.302 53.3198 448.29C53.8648 447.265 54.1373 445.699 54.1373 443.594C54.1373 441.806 53.9627 440.421 53.6133 439.437L48.9596 448.727C49.4627 449.447 50.1545 449.807 51.0349 449.807Z" fill="url(#paint7_linear_175_198)" fill-opacity="0.6"/>
<path d="M51.0349 460.008C52.5302 460.008 53.6622 460.639 54.4308 461.9C55.2134 463.147 55.6047 464.962 55.6047 467.345C55.6047 469.728 55.2134 471.549 54.4308 472.81C53.6622 474.071 52.5302 474.701 51.0349 474.701C49.5536 474.701 48.4216 474.071 47.639 472.81C46.8564 471.549 46.4651 469.728 46.4651 467.345C46.4651 464.975 46.8564 463.16 47.639 461.9C48.4216 460.639 49.5536 460.008 51.0349 460.008ZM47.9534 467.345C47.9534 469.035 48.1072 470.358 48.4146 471.314L53.0683 462.107C52.5791 461.456 51.9013 461.131 51.0349 461.131C50.0706 461.131 49.316 461.643 48.771 462.669C48.2259 463.68 47.9534 465.239 47.9534 467.345ZM51.0349 473.558C52.0131 473.558 52.7748 473.053 53.3198 472.041C53.8648 471.016 54.1373 469.451 54.1373 467.345C54.1373 465.557 53.9627 464.172 53.6133 463.188L48.9596 472.478C49.4627 473.198 50.1545 473.558 51.0349 473.558Z" fill="url(#paint8_linear_175_198)" fill-opacity="0.6"/>
<path d="M52.2926 497.143H55.3741V498.245H47.3874V497.143H50.9511V485.464L47.5551 487.48L46.9682 486.544L51.1607 483.967H52.2926V497.143Z" fill="url(#paint9_linear_175_198)" fill-opacity="0.6"/>
<path d="M51.0349 507.511C52.5302 507.511 53.6622 508.141 54.4308 509.402C55.2134 510.649 55.6047 512.464 55.6047 514.847C55.6047 517.23 55.2134 519.052 54.4308 520.312C53.6622 521.573 52.5302 522.204 51.0349 522.204C49.5536 522.204 48.4216 521.573 47.639 520.312C46.8564 519.052 46.4651 517.23 46.4651 514.847C46.4651 512.478 46.8564 510.663 47.639 509.402C48.4216 508.141 49.5536 507.511 51.0349 507.511ZM47.9534 514.847C47.9534 516.537 48.1072 517.86 48.4146 518.816L53.0683 509.61C52.5791 508.958 51.9013 508.633 51.0349 508.633C50.0706 508.633 49.316 509.145 48.771 510.171C48.2259 511.182 47.9534 512.741 47.9534 514.847ZM51.0349 521.061C52.0131 521.061 52.7748 520.555 53.3198 519.543C53.8648 518.518 54.1373 516.953 54.1373 514.847C54.1373 513.059 53.9627 511.674 53.6133 510.69L48.9596 519.98C49.4627 520.7 50.1545 521.061 51.0349 521.061Z" fill="url(#paint10_linear_175_198)" fill-opacity="0.6"/>
<path d="M52.2926 544.645H55.3741V545.747H47.3874V544.645H50.9511V532.966L47.5551 534.982L46.9682 534.046L51.1607 531.469H52.2926V544.645Z" fill="url(#paint11_linear_175_198)" fill-opacity="0.6"/>
<path d="M52.2926 568.396H55.3741V569.498H47.3874V568.396H50.9511V556.717L47.5551 558.733L46.9682 557.798L51.1607 555.221H52.2926V568.396Z" fill="url(#paint12_linear_175_198)" fill-opacity="0.6"/>
<path d="M89.9651 317.502C91.4604 317.502 92.5924 318.133 93.361 319.393C94.1436 320.64 94.5349 322.455 94.5349 324.838C94.5349 327.221 94.1436 329.043 93.361 330.304C92.5924 331.565 91.4604 332.195 89.9651 332.195C88.4838 332.195 87.3518 331.565 86.5692 330.304C85.7866 329.043 85.3953 327.221 85.3953 324.838C85.3953 322.469 85.7866 320.654 86.5692 319.393C87.3518 318.133 88.4838 317.502 89.9651 317.502ZM86.8836 324.838C86.8836 326.529 87.0374 327.852 87.3448 328.808L91.9985 319.601C91.5093 318.95 90.8315 318.624 89.9651 318.624C89.0008 318.624 88.2462 319.137 87.7012 320.162C87.1561 321.174 86.8836 322.732 86.8836 324.838ZM89.9651 331.052C90.9433 331.052 91.705 330.546 92.25 329.535C92.795 328.51 93.0675 326.944 93.0675 324.838C93.0675 323.051 92.8928 321.665 92.5435 320.682L87.8898 329.971C88.3929 330.692 89.0847 331.052 89.9651 331.052Z" fill="url(#paint13_linear_175_198)" fill-opacity="0.6"/>
<path d="M91.2228 354.637H94.3043V355.738H86.3176V354.637H89.8812V342.957L86.4853 344.973L85.8984 344.038L90.0909 341.461H91.2228V354.637Z" fill="url(#paint14_linear_175_198)" fill-opacity="0.6"/>
<path d="M89.9651 365.004C91.4604 365.004 92.5924 365.635 93.361 366.895C94.1436 368.142 94.5349 369.957 94.5349 372.34C94.5349 374.723 94.1436 376.545 93.361 377.806C92.5924 379.067 91.4604 379.697 89.9651 379.697C88.4838 379.697 87.3518 379.067 86.5692 377.806C85.7866 376.545 85.3953 374.723 85.3953 372.34C85.3953 369.971 85.7866 368.156 86.5692 366.895C87.3518 365.635 88.4838 365.004 89.9651 365.004ZM86.8836 372.34C86.8836 374.031 87.0374 375.354 87.3448 376.31L91.9985 367.103C91.5093 366.452 90.8315 366.126 89.9651 366.126C89.0008 366.126 88.2462 366.639 87.7012 367.664C87.1561 368.676 86.8836 370.234 86.8836 372.34ZM89.9651 378.554C90.9433 378.554 91.705 378.049 92.25 377.037C92.795 376.012 93.0675 374.446 93.0675 372.34C93.0675 370.553 92.8928 369.168 92.5435 368.184L87.8898 377.474C88.3929 378.194 89.0847 378.554 89.9651 378.554Z" fill="url(#paint15_linear_175_198)" fill-opacity="0.6"/>
<path d="M89.9651 388.755C91.4604 388.755 92.5924 389.386 93.361 390.646C94.1436 391.893 94.5349 393.708 94.5349 396.091C94.5349 398.474 94.1436 400.296 93.361 401.557C92.5924 402.818 91.4604 403.448 89.9651 403.448C88.4838 403.448 87.3518 402.818 86.5692 401.557C85.7866 400.296 85.3953 398.474 85.3953 396.091C85.3953 393.722 85.7866 391.907 86.5692 390.646C87.3518 389.386 88.4838 388.755 89.9651 388.755ZM86.8836 396.091C86.8836 397.782 87.0374 399.105 87.3448 400.061L91.9985 390.854C91.5093 390.203 90.8315 389.878 89.9651 389.878C89.0008 389.878 88.2462 390.39 87.7012 391.415C87.1561 392.427 86.8836 393.985 86.8836 396.091ZM89.9651 402.305C90.9433 402.305 91.705 401.8 92.25 400.788C92.795 399.763 93.0675 398.197 93.0675 396.091C93.0675 394.304 92.8928 392.919 92.5435 391.935L87.8898 401.225C88.3929 401.945 89.0847 402.305 89.9651 402.305Z" fill="url(#paint16_linear_175_198)" fill-opacity="0.6"/>
<path d="M91.2228 425.89H94.3043V426.992H86.3176V425.89H89.8812V414.21L86.4853 416.226L85.8984 415.291L90.0909 412.714H91.2228V425.89Z" fill="url(#paint17_linear_175_198)" fill-opacity="0.6"/>
<path d="M89.9651 436.257C91.4604 436.257 92.5924 436.888 93.361 438.149C94.1436 439.396 94.5349 441.211 94.5349 443.594C94.5349 445.977 94.1436 447.798 93.361 449.059C92.5924 450.32 91.4604 450.95 89.9651 450.95C88.4838 450.95 87.3518 450.32 86.5692 449.059C85.7866 447.798 85.3953 445.977 85.3953 443.594C85.3953 441.224 85.7866 439.409 86.5692 438.149C87.3518 436.888 88.4838 436.257 89.9651 436.257ZM86.8836 443.594C86.8836 445.284 87.0374 446.607 87.3448 447.563L91.9985 438.356C91.5093 437.705 90.8315 437.38 89.9651 437.38C89.0008 437.38 88.2462 437.892 87.7012 438.918C87.1561 439.929 86.8836 441.488 86.8836 443.594ZM89.9651 449.807C90.9433 449.807 91.705 449.302 92.25 448.29C92.795 447.265 93.0675 445.699 93.0675 443.594C93.0675 441.806 92.8928 440.421 92.5435 439.437L87.8898 448.727C88.3929 449.447 89.0847 449.807 89.9651 449.807Z" fill="url(#paint18_linear_175_198)" fill-opacity="0.6"/>
<path d="M91.2228 473.392H94.3043V474.494H86.3176V473.392H89.8812V461.713L86.4853 463.728L85.8984 462.793L90.0909 460.216H91.2228V473.392Z" fill="url(#paint19_linear_175_198)" fill-opacity="0.6"/>
<path d="M89.9651 483.76C91.4604 483.76 92.5924 484.39 93.361 485.651C94.1436 486.898 94.5349 488.713 94.5349 491.096C94.5349 493.479 94.1436 495.301 93.361 496.561C92.5924 497.822 91.4604 498.453 89.9651 498.453C88.4838 498.453 87.3518 497.822 86.5692 496.561C85.7866 495.301 85.3953 493.479 85.3953 491.096C85.3953 488.726 85.7866 486.911 86.5692 485.651C87.3518 484.39 88.4838 483.76 89.9651 483.76ZM86.8836 491.096C86.8836 492.786 87.0374 494.109 87.3448 495.065L91.9985 485.859C91.5093 485.207 90.8315 484.882 89.9651 484.882C89.0008 484.882 88.2462 485.394 87.7012 486.42C87.1561 487.431 86.8836 488.99 86.8836 491.096ZM89.9651 497.31C90.9433 497.31 91.705 496.804 92.25 495.792C92.795 494.767 93.0675 493.202 93.0675 491.096C93.0675 489.308 92.8928 487.923 92.5435 486.939L87.8898 496.229C88.3929 496.949 89.0847 497.31 89.9651 497.31Z" fill="url(#paint20_linear_175_198)" fill-opacity="0.6"/>
<path d="M89.9651 507.511C91.4604 507.511 92.5924 508.141 93.361 509.402C94.1436 510.649 94.5349 512.464 94.5349 514.847C94.5349 517.23 94.1436 519.052 93.361 520.312C92.5924 521.573 91.4604 522.204 89.9651 522.204C88.4838 522.204 87.3518 521.573 86.5692 520.312C85.7866 519.052 85.3953 517.23 85.3953 514.847C85.3953 512.478 85.7866 510.663 86.5692 509.402C87.3518 508.141 88.4838 507.511 89.9651 507.511ZM86.8836 514.847C86.8836 516.537 87.0374 517.86 87.3448 518.816L91.9985 509.61C91.5093 508.958 90.8315 508.633 89.9651 508.633C89.0008 508.633 88.2462 509.145 87.7012 510.171C87.1561 511.182 86.8836 512.741 86.8836 514.847ZM89.9651 521.061C90.9433 521.061 91.705 520.555 92.25 519.543C92.795 518.518 93.0675 516.953 93.0675 514.847C93.0675 513.059 92.8928 511.674 92.5435 510.69L87.8898 519.98C88.3929 520.7 89.0847 521.061 89.9651 521.061Z" fill="url(#paint21_linear_175_198)" fill-opacity="0.6"/>
<path d="M91.2228 544.645H94.3043V545.747H86.3176V544.645H89.8812V532.966L86.4853 534.982L85.8984 534.046L90.0909 531.469H91.2228V544.645Z" fill="url(#paint22_linear_175_198)" fill-opacity="0.6"/>
<path d="M89.9651 555.013C91.4604 555.013 92.5924 555.643 93.361 556.904C94.1436 558.151 94.5349 559.966 94.5349 562.349C94.5349 564.732 94.1436 566.554 93.361 567.815C92.5924 569.075 91.4604 569.706 89.9651 569.706C88.4838 569.706 87.3518 569.075 86.5692 567.815C85.7866 566.554 85.3953 564.732 85.3953 562.349C85.3953 559.98 85.7866 558.165 86.5692 556.904C87.3518 555.643 88.4838 555.013 89.9651 555.013ZM86.8836 562.349C86.8836 564.039 87.0374 565.362 87.3448 566.318L91.9985 557.112C91.5093 556.461 90.8315 556.135 89.9651 556.135C89.0008 556.135 88.2462 556.648 87.7012 557.673C87.1561 558.684 86.8836 560.243 86.8836 562.349ZM89.9651 568.563C90.9433 568.563 91.705 568.057 92.25 567.046C92.795 566.02 93.0675 564.455 93.0675 562.349C93.0675 560.562 92.8928 559.176 92.5435 558.192L87.8898 567.482C88.3929 568.202 89.0847 568.563 89.9651 568.563Z" fill="url(#paint23_linear_175_198)" fill-opacity="0.6"/>
<path d="M91.2228 592.148H94.3043V593.249H86.3176V592.148H89.8812V580.468L86.4853 582.484L85.8984 581.549L90.0909 578.972H91.2228V592.148Z" fill="url(#paint24_linear_175_198)" fill-opacity="0.6"/>
<path d="M91.2228 615.899H94.3043V617H86.3176V615.899H89.8812V604.219L86.4853 606.235L85.8984 605.3L90.0909 602.723H91.2228V615.899Z" fill="url(#paint25_linear_175_198)" fill-opacity="0.6"/>
<path d="M31.5698 341.253C33.0651 341.253 34.1971 341.884 34.9657 343.144C35.7483 344.391 36.1396 346.206 36.1396 348.589C36.1396 350.972 35.7483 352.794 34.9657 354.055C34.1971 355.316 33.0651 355.946 31.5698 355.946C30.0885 355.946 28.9565 355.316 28.1739 354.055C27.3913 352.794 27 350.972 27 348.589C27 346.22 27.3913 344.405 28.1739 343.144C28.9565 341.884 30.0885 341.253 31.5698 341.253ZM28.4883 348.589C28.4883 350.28 28.6421 351.603 28.9495 352.559L33.6032 343.352C33.114 342.701 32.4363 342.375 31.5698 342.375C30.6055 342.375 29.8509 342.888 29.3059 343.913C28.7608 344.925 28.4883 346.483 28.4883 348.589ZM31.5698 354.803C32.5481 354.803 33.3097 354.297 33.8547 353.286C34.3997 352.261 34.6722 350.695 34.6722 348.589C34.6722 346.802 34.4976 345.417 34.1482 344.433L29.4945 353.722C29.9976 354.443 30.6894 354.803 31.5698 354.803Z" fill="url(#paint26_linear_175_198)" fill-opacity="0.6"/>
<path d="M31.5698 365.004C33.0651 365.004 34.1971 365.635 34.9657 366.895C35.7483 368.142 36.1396 369.957 36.1396 372.34C36.1396 374.723 35.7483 376.545 34.9657 377.806C34.1971 379.067 33.0651 379.697 31.5698 379.697C30.0885 379.697 28.9565 379.067 28.1739 377.806C27.3913 376.545 27 374.723 27 372.34C27 369.971 27.3913 368.156 28.1739 366.895C28.9565 365.635 30.0885 365.004 31.5698 365.004ZM28.4883 372.34C28.4883 374.031 28.6421 375.354 28.9495 376.31L33.6032 367.103C33.114 366.452 32.4363 366.126 31.5698 366.126C30.6055 366.126 29.8509 366.639 29.3059 367.664C28.7608 368.676 28.4883 370.234 28.4883 372.34ZM31.5698 378.554C32.5481 378.554 33.3097 378.049 33.8547 377.037C34.3997 376.012 34.6722 374.446 34.6722 372.34C34.6722 370.553 34.4976 369.168 34.1482 368.184L29.4945 377.474C29.9976 378.194 30.6894 378.554 31.5698 378.554Z" fill="url(#paint27_linear_175_198)" fill-opacity="0.6"/>
<path d="M32.8276 402.139H35.909V403.24H27.9223V402.139H31.486V390.459L28.09 392.475L27.5031 391.54L31.6956 388.963H32.8276V402.139Z" fill="url(#paint28_linear_175_198)" fill-opacity="0.6"/>
<path d="M31.5698 412.506C33.0651 412.506 34.1971 413.137 34.9657 414.398C35.7483 415.644 36.1396 417.459 36.1396 419.842C36.1396 422.225 35.7483 424.047 34.9657 425.308C34.1971 426.569 33.0651 427.199 31.5698 427.199C30.0885 427.199 28.9565 426.569 28.1739 425.308C27.3913 424.047 27 422.225 27 419.842C27 417.473 27.3913 415.658 28.1739 414.398C28.9565 413.137 30.0885 412.506 31.5698 412.506ZM28.4883 419.842C28.4883 421.533 28.6421 422.856 28.9495 423.812L33.6032 414.605C33.114 413.954 32.4363 413.629 31.5698 413.629C30.6055 413.629 29.8509 414.141 29.3059 415.166C28.7608 416.178 28.4883 417.737 28.4883 419.842ZM31.5698 426.056C32.5481 426.056 33.3097 425.551 33.8547 424.539C34.3997 423.514 34.6722 421.948 34.6722 419.842C34.6722 418.055 34.4976 416.67 34.1482 415.686L29.4945 424.976C29.9976 425.696 30.6894 426.056 31.5698 426.056Z" fill="url(#paint29_linear_175_198)" fill-opacity="0.6"/>
<path d="M32.8276 449.641H35.909V450.743H27.9223V449.641H31.486V437.962L28.09 439.977L27.5031 439.042L31.6956 436.465H32.8276V449.641Z" fill="url(#paint30_linear_175_198)" fill-opacity="0.6"/>
<path d="M32.8276 473.392H35.909V474.494H27.9223V473.392H31.486V461.713L28.09 463.728L27.5031 462.793L31.6956 460.216H32.8276V473.392Z" fill="url(#paint31_linear_175_198)" fill-opacity="0.6"/>
<path d="M71.7577 307.135H74.8392V308.236H66.8525V307.135H70.4162V295.455L67.0202 297.471L66.4333 296.536L70.6258 293.959H71.7577V307.135Z" fill="url(#paint32_linear_175_198)" fill-opacity="0.6"/>
<path d="M70.5 317.502C71.9953 317.502 73.1273 318.133 73.8959 319.393C74.6785 320.64 75.0698 322.455 75.0698 324.838C75.0698 327.221 74.6785 329.043 73.8959 330.304C73.1273 331.565 71.9953 332.195 70.5 332.195C69.0187 332.195 67.8867 331.565 67.1041 330.304C66.3215 329.043 65.9302 327.221 65.9302 324.838C65.9302 322.469 66.3215 320.654 67.1041 319.393C67.8867 318.133 69.0187 317.502 70.5 317.502ZM67.4185 324.838C67.4185 326.529 67.5723 327.852 67.8797 328.808L72.5334 319.601C72.0442 318.95 71.3664 318.624 70.5 318.624C69.5357 318.624 68.7811 319.137 68.2361 320.162C67.691 321.174 67.4185 322.732 67.4185 324.838ZM70.5 331.052C71.4782 331.052 72.2399 330.546 72.7849 329.535C73.3299 328.51 73.6024 326.944 73.6024 324.838C73.6024 323.051 73.4277 321.665 73.0784 320.682L68.4247 329.971C68.9278 330.692 69.6196 331.052 70.5 331.052Z" fill="url(#paint33_linear_175_198)" fill-opacity="0.6"/>
<path d="M71.7577 354.637H74.8392V355.738H66.8525V354.637H70.4162V342.957L67.0202 344.973L66.4333 344.038L70.6258 341.461H71.7577V354.637Z" fill="url(#paint34_linear_175_198)" fill-opacity="0.6"/>
<path d="M71.7577 378.388H74.8392V379.489H66.8525V378.388H70.4162V366.708L67.0202 368.724L66.4333 367.789L70.6258 365.212H71.7577V378.388Z" fill="url(#paint35_linear_175_198)" fill-opacity="0.6"/>
<path d="M70.5 388.755C71.9953 388.755 73.1273 389.386 73.8959 390.646C74.6785 391.893 75.0698 393.708 75.0698 396.091C75.0698 398.474 74.6785 400.296 73.8959 401.557C73.1273 402.818 71.9953 403.448 70.5 403.448C69.0187 403.448 67.8867 402.818 67.1041 401.557C66.3215 400.296 65.9302 398.474 65.9302 396.091C65.9302 393.722 66.3215 391.907 67.1041 390.646C67.8867 389.386 69.0187 388.755 70.5 388.755ZM67.4185 396.091C67.4185 397.782 67.5723 399.105 67.8797 400.061L72.5334 390.854C72.0442 390.203 71.3664 389.878 70.5 389.878C69.5357 389.878 68.7811 390.39 68.2361 391.415C67.691 392.427 67.4185 393.985 67.4185 396.091ZM70.5 402.305C71.4782 402.305 72.2399 401.8 72.7849 400.788C73.3299 399.763 73.6024 398.197 73.6024 396.091C73.6024 394.304 73.4277 392.919 73.0784 391.935L68.4247 401.225C68.9278 401.945 69.6196 402.305 70.5 402.305Z" fill="url(#paint36_linear_175_198)" fill-opacity="0.6"/>
<path d="M71.7577 425.89H74.8392V426.992H66.8525V425.89H70.4162V414.21L67.0202 416.226L66.4333 415.291L70.6258 412.714H71.7577V425.89Z" fill="url(#paint37_linear_175_198)" fill-opacity="0.6"/>
<path d="M71.7577 449.641H74.8392V450.743H66.8525V449.641H70.4162V437.962L67.0202 439.977L66.4333 439.042L70.6258 436.465H71.7577V449.641Z" fill="url(#paint38_linear_175_198)" fill-opacity="0.6"/>
<path d="M70.5 460.008C71.9953 460.008 73.1273 460.639 73.8959 461.9C74.6785 463.147 75.0698 464.962 75.0698 467.345C75.0698 469.728 74.6785 471.549 73.8959 472.81C73.1273 474.071 71.9953 474.701 70.5 474.701C69.0187 474.701 67.8867 474.071 67.1041 472.81C66.3215 471.549 65.9302 469.728 65.9302 467.345C65.9302 464.975 66.3215 463.16 67.1041 461.9C67.8867 460.639 69.0187 460.008 70.5 460.008ZM67.4185 467.345C67.4185 469.035 67.5723 470.358 67.8797 471.314L72.5334 462.107C72.0442 461.456 71.3664 461.131 70.5 461.131C69.5357 461.131 68.7811 461.643 68.2361 462.669C67.691 463.68 67.4185 465.239 67.4185 467.345ZM70.5 473.558C71.4782 473.558 72.2399 473.053 72.7849 472.041C73.3299 471.016 73.6024 469.451 73.6024 467.345C73.6024 465.557 73.4277 464.172 73.0784 463.188L68.4247 472.478C68.9278 473.198 69.6196 473.558 70.5 473.558Z" fill="url(#paint39_linear_175_198)" fill-opacity="0.6"/>
<path d="M71.7577 497.143H74.8392V498.245H66.8525V497.143H70.4162V485.464L67.0202 487.48L66.4333 486.544L70.6258 483.967H71.7577V497.143Z" fill="url(#paint40_linear_175_198)" fill-opacity="0.6"/>
<path d="M70.5 507.511C71.9953 507.511 73.1273 508.141 73.8959 509.402C74.6785 510.649 75.0698 512.464 75.0698 514.847C75.0698 517.23 74.6785 519.052 73.8959 520.312C73.1273 521.573 71.9953 522.204 70.5 522.204C69.0187 522.204 67.8867 521.573 67.1041 520.312C66.3215 519.052 65.9302 517.23 65.9302 514.847C65.9302 512.478 66.3215 510.663 67.1041 509.402C67.8867 508.141 69.0187 507.511 70.5 507.511ZM67.4185 514.847C67.4185 516.537 67.5723 517.86 67.8797 518.816L72.5334 509.61C72.0442 508.958 71.3664 508.633 70.5 508.633C69.5357 508.633 68.7811 509.145 68.2361 510.171C67.691 511.182 67.4185 512.741 67.4185 514.847ZM70.5 521.061C71.4782 521.061 72.2399 520.555 72.7849 519.543C73.3299 518.518 73.6024 516.953 73.6024 514.847C73.6024 513.059 73.4277 511.674 73.0784 510.69L68.4247 519.98C68.9278 520.7 69.6196 521.061 70.5 521.061Z" fill="url(#paint41_linear_175_198)" fill-opacity="0.6"/>
<path d="M109.43 293.751C110.926 293.751 112.057 294.381 112.826 295.642C113.609 296.889 114 298.704 114 301.087C114 303.47 113.609 305.292 112.826 306.553C112.057 307.814 110.926 308.444 109.43 308.444C107.949 308.444 106.817 307.814 106.034 306.553C105.252 305.292 104.86 303.47 104.86 301.087C104.86 298.718 105.252 296.903 106.034 295.642C106.817 294.381 107.949 293.751 109.43 293.751ZM106.349 301.087C106.349 302.777 106.502 304.101 106.81 305.057L111.464 295.85C110.974 295.199 110.297 294.873 109.43 294.873C108.466 294.873 107.711 295.386 107.166 296.411C106.621 297.423 106.349 298.981 106.349 301.087ZM109.43 307.301C110.408 307.301 111.17 306.795 111.715 305.784C112.26 304.759 112.533 303.193 112.533 301.087C112.533 299.3 112.358 297.914 112.009 296.931L107.355 306.22C107.858 306.941 108.55 307.301 109.43 307.301Z" fill="url(#paint42_linear_175_198)" fill-opacity="0.6"/>
<path d="M110.688 330.886H113.769V331.987H105.783V330.886H109.346V319.206L105.95 321.222L105.363 320.287L109.556 317.71H110.688V330.886Z" fill="url(#paint43_linear_175_198)" fill-opacity="0.6"/>
<path d="M110.688 354.637H113.769V355.738H105.783V354.637H109.346V342.957L105.95 344.973L105.363 344.038L109.556 341.461H110.688V354.637Z" fill="url(#paint44_linear_175_198)" fill-opacity="0.6"/>
<path d="M109.43 365.004C110.926 365.004 112.057 365.635 112.826 366.895C113.609 368.142 114 369.957 114 372.34C114 374.723 113.609 376.545 112.826 377.806C112.057 379.067 110.926 379.697 109.43 379.697C107.949 379.697 106.817 379.067 106.034 377.806C105.252 376.545 104.86 374.723 104.86 372.34C104.86 369.971 105.252 368.156 106.034 366.895C106.817 365.635 107.949 365.004 109.43 365.004ZM106.349 372.34C106.349 374.031 106.502 375.354 106.81 376.31L111.464 367.103C110.974 366.452 110.297 366.126 109.43 366.126C108.466 366.126 107.711 366.639 107.166 367.664C106.621 368.676 106.349 370.234 106.349 372.34ZM109.43 378.554C110.408 378.554 111.17 378.049 111.715 377.037C112.26 376.012 112.533 374.446 112.533 372.34C112.533 370.553 112.358 369.168 112.009 368.184L107.355 377.474C107.858 378.194 108.55 378.554 109.43 378.554Z" fill="url(#paint45_linear_175_198)" fill-opacity="0.6"/>
<path d="M109.43 388.755C110.926 388.755 112.057 389.386 112.826 390.646C113.609 391.893 114 393.708 114 396.091C114 398.474 113.609 400.296 112.826 401.557C112.057 402.818 110.926 403.448 109.43 403.448C107.949 403.448 106.817 402.818 106.034 401.557C105.252 400.296 104.86 398.474 104.86 396.091C104.86 393.722 105.252 391.907 106.034 390.646C106.817 389.386 107.949 388.755 109.43 388.755ZM106.349 396.091C106.349 397.782 106.502 399.105 106.81 400.061L111.464 390.854C110.974 390.203 110.297 389.878 109.43 389.878C108.466 389.878 107.711 390.39 107.166 391.415C106.621 392.427 106.349 393.985 106.349 396.091ZM109.43 402.305C110.408 402.305 111.17 401.8 111.715 400.788C112.26 399.763 112.533 398.197 112.533 396.091C112.533 394.304 112.358 392.919 112.009 391.935L107.355 401.225C107.858 401.945 108.55 402.305 109.43 402.305Z" fill="url(#paint46_linear_175_198)" fill-opacity="0.6"/>
<g opacity="0.6">
<path d="M937.93 -31C939.356 -31 940.436 -30.395 941.17 -29.1851C941.916 -27.9885 942.29 -26.2468 942.29 -23.9599C942.29 -21.673 941.916 -19.9246 941.17 -18.7147C940.436 -17.5048 939.356 -16.8998 937.93 -16.8998C936.517 -16.8998 935.437 -17.5048 934.69 -18.7147C933.943 -19.9246 933.57 -21.673 933.57 -23.9599C933.57 -26.2335 933.943 -27.9752 934.69 -29.1851C935.437 -30.395 936.517 -31 937.93 -31ZM934.99 -23.9599C934.99 -22.3378 935.137 -21.068 935.43 -20.1506L939.87 -28.9857C939.403 -29.6106 938.756 -29.923 937.93 -29.923C937.01 -29.923 936.29 -29.4311 935.77 -28.4472C935.25 -27.4766 934.99 -25.9808 934.99 -23.9599ZM937.93 -17.9967C938.863 -17.9967 939.59 -18.482 940.11 -19.4526C940.63 -20.4365 940.89 -21.9389 940.89 -23.9599C940.89 -25.675 940.723 -27.0046 940.39 -27.9486L935.95 -19.0338C936.43 -18.3424 937.09 -17.9967 937.93 -17.9967Z" fill="url(#paint47_linear_175_198)"/>
<path d="M939.13 4.63655H942.07V5.69356H934.45V4.63655H937.85V-6.57181L934.61 -4.63727L934.05 -5.53474L938.05 -8.00776H939.13V4.63655Z" fill="url(#paint48_linear_175_198)"/>
<path d="M937.93 14.5856C939.356 14.5856 940.436 15.1906 941.17 16.4005C941.916 17.5971 942.29 19.3389 942.29 21.6257C942.29 23.9126 941.916 25.661 941.17 26.8709C940.436 28.0808 939.356 28.6858 937.93 28.6858C936.517 28.6858 935.437 28.0808 934.69 26.8709C933.943 25.661 933.57 23.9126 933.57 21.6257C933.57 19.3522 933.943 17.6104 934.69 16.4005C935.437 15.1906 936.517 14.5856 937.93 14.5856ZM934.99 21.6257C934.99 23.2478 935.137 24.5176 935.43 25.435L939.87 16.5999C939.403 15.975 938.756 15.6626 937.93 15.6626C937.01 15.6626 936.29 16.1545 935.77 17.1384C935.25 18.109 934.99 19.6048 934.99 21.6257ZM937.93 27.5889C938.863 27.5889 939.59 27.1036 940.11 26.133C940.63 25.1491 940.89 23.6467 940.89 21.6257C940.89 19.9106 940.723 18.581 940.39 17.637L935.95 26.5518C936.43 27.2432 937.09 27.5889 937.93 27.5889Z" fill="url(#paint49_linear_175_198)"/>
<path d="M939.13 50.2221H942.07V51.2792H934.45V50.2221H937.85V39.0138L934.61 40.9483L934.05 40.0509L938.05 37.5778H939.13V50.2221Z" fill="url(#paint50_linear_175_198)"/>
<path d="M939.13 73.015H942.07V74.072H934.45V73.015H937.85V61.8066L934.61 63.7411L934.05 62.8437L938.05 60.3706H939.13V73.015Z" fill="url(#paint51_linear_175_198)"/>
<path d="M937.93 82.964C939.356 82.964 940.436 83.569 941.17 84.7789C941.916 85.9755 942.29 87.7173 942.29 90.0041C942.29 92.291 941.916 94.0394 941.17 95.2493C940.436 96.4593 939.356 97.0642 937.93 97.0642C936.517 97.0642 935.437 96.4593 934.69 95.2493C933.943 94.0394 933.57 92.291 933.57 90.0041C933.57 87.7306 933.943 85.9888 934.69 84.7789C935.437 83.569 936.517 82.964 937.93 82.964ZM934.99 90.0041C934.99 91.6262 935.137 92.896 935.43 93.8134L939.87 84.9783C939.403 84.3534 938.756 84.041 937.93 84.041C937.01 84.041 936.29 84.5329 935.77 85.5168C935.25 86.4874 934.99 87.9832 934.99 90.0041ZM937.93 95.9673C938.863 95.9673 939.59 95.482 940.11 94.5114C940.63 93.5275 940.89 92.0251 940.89 90.0041C940.89 88.289 940.723 86.9594 940.39 86.0154L935.95 94.9302C936.43 95.6216 937.09 95.9673 937.93 95.9673Z" fill="url(#paint52_linear_175_198)"/>
<path d="M939.13 118.601H942.07V119.658H934.45V118.601H937.85V107.392L934.61 109.327L934.05 108.429L938.05 105.956H939.13V118.601Z" fill="url(#paint53_linear_175_198)"/>
<path d="M937.93 128.55C939.356 128.55 940.436 129.155 941.17 130.365C941.916 131.561 942.29 133.303 942.29 135.59C942.29 137.877 941.916 139.625 941.17 140.835C940.436 142.045 939.356 142.65 937.93 142.65C936.517 142.65 935.437 142.045 934.69 140.835C933.943 139.625 933.57 137.877 933.57 135.59C933.57 133.316 933.943 131.574 934.69 130.365C935.437 129.155 936.517 128.55 937.93 128.55ZM934.99 135.59C934.99 137.212 935.137 138.482 935.43 139.399L939.87 130.564C939.403 129.939 938.756 129.627 937.93 129.627C937.01 129.627 936.29 130.119 935.77 131.102C935.25 132.073 934.99 133.569 934.99 135.59ZM937.93 141.553C938.863 141.553 939.59 141.068 940.11 140.097C940.63 139.113 940.89 137.611 940.89 135.59C940.89 133.875 940.723 132.545 940.39 131.601L935.95 140.516C936.43 141.207 937.09 141.553 937.93 141.553Z" fill="url(#paint54_linear_175_198)"/>
<path d="M937.93 151.342C939.356 151.342 940.436 151.947 941.17 153.157C941.916 154.354 942.29 156.096 942.29 158.383C942.29 160.669 941.916 162.418 941.17 163.628C940.436 164.838 939.356 165.443 937.93 165.443C936.517 165.443 935.437 164.838 934.69 163.628C933.943 162.418 933.57 160.669 933.57 158.383C933.57 156.109 933.943 154.367 934.69 153.157C935.437 151.947 936.517 151.342 937.93 151.342ZM934.99 158.383C934.99 160.005 935.137 161.274 935.43 162.192L939.87 153.357C939.403 152.732 938.756 152.419 937.93 152.419C937.01 152.419 936.29 152.911 935.77 153.895C935.25 154.866 934.99 156.362 934.99 158.383ZM937.93 164.346C938.863 164.346 939.59 163.86 940.11 162.89C940.63 161.906 940.89 160.404 940.89 158.383C940.89 156.667 940.723 155.338 940.39 154.394L935.95 163.309C936.43 164 937.09 164.346 937.93 164.346Z" fill="url(#paint55_linear_175_198)"/>
<path d="M939.13 186.979H942.07V188.036H934.45V186.979H937.85V175.771L934.61 177.705L934.05 176.808L938.05 174.335H939.13V186.979Z" fill="url(#paint56_linear_175_198)"/>
<path d="M937.93 196.928C939.356 196.928 940.436 197.533 941.17 198.743C941.916 199.94 942.29 201.681 942.29 203.968C942.29 206.255 941.916 208.003 941.17 209.213C940.436 210.423 939.356 211.028 937.93 211.028C936.517 211.028 935.437 210.423 934.69 209.213C933.943 208.003 933.57 206.255 933.57 203.968C933.57 201.695 933.943 199.953 934.69 198.743C935.437 197.533 936.517 196.928 937.93 196.928ZM934.99 203.968C934.99 205.59 935.137 206.86 935.43 207.777L939.87 198.942C939.403 198.317 938.756 198.005 937.93 198.005C937.01 198.005 936.29 198.497 935.77 199.481C935.25 200.451 934.99 201.947 934.99 203.968ZM937.93 209.931C938.863 209.931 939.59 209.446 940.11 208.475C940.63 207.492 940.89 205.989 940.89 203.968C940.89 202.253 940.723 200.923 940.39 199.979L935.95 208.894C936.43 209.586 937.09 209.931 937.93 209.931Z" fill="url(#paint57_linear_175_198)"/>
<path d="M939.13 232.565H942.07V233.622H934.45V232.565H937.85V221.356L934.61 223.291L934.05 222.393L938.05 219.92H939.13V232.565Z" fill="url(#paint58_linear_175_198)"/>
<path d="M939.13 255.357H942.07V256.414H934.45V255.357H937.85V244.149L934.61 246.084L934.05 245.186L938.05 242.713H939.13V255.357Z" fill="url(#paint59_linear_175_198)"/>
<path d="M975.07 14.5856C976.497 14.5856 977.577 15.1906 978.31 16.4005C979.057 17.5971 979.43 19.3389 979.43 21.6257C979.43 23.9126 979.057 25.661 978.31 26.8709C977.577 28.0808 976.497 28.6858 975.07 28.6858C973.657 28.6858 972.577 28.0808 971.83 26.8709C971.084 25.661 970.71 23.9126 970.71 21.6257C970.71 19.3522 971.084 17.6104 971.83 16.4005C972.577 15.1906 973.657 14.5856 975.07 14.5856ZM972.13 21.6257C972.13 23.2478 972.277 24.5176 972.57 25.435L977.01 16.5999C976.543 15.975 975.897 15.6626 975.07 15.6626C974.15 15.6626 973.43 16.1545 972.91 17.1384C972.39 18.109 972.13 19.6048 972.13 21.6257ZM975.07 27.5889C976.003 27.5889 976.73 27.1036 977.25 26.133C977.77 25.1491 978.03 23.6467 978.03 21.6257C978.03 19.9106 977.863 18.581 977.53 17.637L973.09 26.5518C973.57 27.2432 974.23 27.5889 975.07 27.5889Z" fill="url(#paint60_linear_175_198)"/>
<path d="M976.27 50.2221H979.21V51.2792H971.59V50.2221H974.99V39.0138L971.75 40.9483L971.19 40.0509L975.19 37.5778H976.27V50.2221Z" fill="url(#paint61_linear_175_198)"/>
<path d="M975.07 60.1712C976.497 60.1712 977.577 60.7762 978.31 61.9861C979.057 63.1827 979.43 64.9245 979.43 67.2113C979.43 69.4982 979.057 71.2466 978.31 72.4565C977.577 73.6664 976.497 74.2714 975.07 74.2714C973.657 74.2714 972.577 73.6664 971.83 72.4565C971.084 71.2466 970.71 69.4982 970.71 67.2113C970.71 64.9378 971.084 63.196 971.83 61.9861C972.577 60.7762 973.657 60.1712 975.07 60.1712ZM972.13 67.2113C972.13 68.8334 972.277 70.1032 972.57 71.0206L977.01 62.1855C976.543 61.5606 975.897 61.2482 975.07 61.2482C974.15 61.2482 973.43 61.7401 972.91 62.724C972.39 63.6946 972.13 65.1904 972.13 67.2113ZM975.07 73.1745C976.003 73.1745 976.73 72.6892 977.25 71.7186C977.77 70.7347 978.03 69.2323 978.03 67.2113C978.03 65.4962 977.863 64.1666 977.53 63.2226L973.09 72.1374C973.57 72.8288 974.23 73.1745 975.07 73.1745Z" fill="url(#paint62_linear_175_198)"/>
<path d="M975.07 82.964C976.497 82.964 977.577 83.569 978.31 84.7789C979.057 85.9755 979.43 87.7173 979.43 90.0041C979.43 92.291 979.057 94.0394 978.31 95.2493C977.577 96.4593 976.497 97.0642 975.07 97.0642C973.657 97.0642 972.577 96.4593 971.83 95.2493C971.084 94.0394 970.71 92.291 970.71 90.0041C970.71 87.7306 971.084 85.9888 971.83 84.7789C972.577 83.569 973.657 82.964 975.07 82.964ZM972.13 90.0041C972.13 91.6262 972.277 92.896 972.57 93.8134L977.01 84.9783C976.543 84.3534 975.897 84.041 975.07 84.041C974.15 84.041 973.43 84.5329 972.91 85.5168C972.39 86.4874 972.13 87.9832 972.13 90.0041ZM975.07 95.9673C976.003 95.9673 976.73 95.482 977.25 94.5114C977.77 93.5275 978.03 92.0251 978.03 90.0041C978.03 88.289 977.863 86.9594 977.53 86.0154L973.09 94.9302C973.57 95.6216 974.23 95.9673 975.07 95.9673Z" fill="url(#paint63_linear_175_198)"/>
<path d="M976.27 118.601H979.21V119.658H971.59V118.601H974.99V107.392L971.75 109.327L971.19 108.429L975.19 105.956H976.27V118.601Z" fill="url(#paint64_linear_175_198)"/>
<path d="M975.07 128.55C976.497 128.55 977.577 129.155 978.31 130.365C979.057 131.561 979.43 133.303 979.43 135.59C979.43 137.877 979.057 139.625 978.31 140.835C977.577 142.045 976.497 142.65 975.07 142.65C973.657 142.65 972.577 142.045 971.83 140.835C971.084 139.625 970.71 137.877 970.71 135.59C970.71 133.316 971.084 131.574 971.83 130.365C972.577 129.155 973.657 128.55 975.07 128.55ZM972.13 135.59C972.13 137.212 972.277 138.482 972.57 139.399L977.01 130.564C976.543 129.939 975.897 129.627 975.07 129.627C974.15 129.627 973.43 130.119 972.91 131.102C972.39 132.073 972.13 133.569 972.13 135.59ZM975.07 141.553C976.003 141.553 976.73 141.068 977.25 140.097C977.77 139.113 978.03 137.611 978.03 135.59C978.03 133.875 977.863 132.545 977.53 131.601L973.09 140.516C973.57 141.207 974.23 141.553 975.07 141.553Z" fill="url(#paint65_linear_175_198)"/>
<path d="M976.27 164.186H979.21V165.243H971.59V164.186H974.99V152.978L971.75 154.912L971.19 154.015L975.19 151.542H976.27V164.186Z" fill="url(#paint66_linear_175_198)"/>
<path d="M975.07 174.135C976.497 174.135 977.577 174.74 978.31 175.95C979.057 177.147 979.43 178.888 979.43 181.175C979.43 183.462 979.057 185.211 978.31 186.421C977.577 187.63 976.497 188.235 975.07 188.235C973.657 188.235 972.577 187.63 971.83 186.421C971.084 185.211 970.71 183.462 970.71 181.175C970.71 178.902 971.084 177.16 971.83 175.95C972.577 174.74 973.657 174.135 975.07 174.135ZM972.13 181.175C972.13 182.797 972.277 184.067 972.57 184.985L977.01 176.15C976.543 175.525 975.897 175.212 975.07 175.212C974.15 175.212 973.43 175.704 972.91 176.688C972.39 177.659 972.13 179.154 972.13 181.175ZM975.07 187.139C976.003 187.139 976.73 186.653 977.25 185.683C977.77 184.699 978.03 183.196 978.03 181.175C978.03 179.46 977.863 178.131 977.53 177.187L973.09 186.101C973.57 186.793 974.23 187.139 975.07 187.139Z" fill="url(#paint67_linear_175_198)"/>
<path d="M975.07 196.928C976.497 196.928 977.577 197.533 978.31 198.743C979.057 199.94 979.43 201.681 979.43 203.968C979.43 206.255 979.057 208.003 978.31 209.213C977.577 210.423 976.497 211.028 975.07 211.028C973.657 211.028 972.577 210.423 971.83 209.213C971.084 208.003 970.71 206.255 970.71 203.968C970.71 201.695 971.084 199.953 971.83 198.743C972.577 197.533 973.657 196.928 975.07 196.928ZM972.13 203.968C972.13 205.59 972.277 206.86 972.57 207.777L977.01 198.942C976.543 198.317 975.897 198.005 975.07 198.005C974.15 198.005 973.43 198.497 972.91 199.481C972.39 200.451 972.13 201.947 972.13 203.968ZM975.07 209.931C976.003 209.931 976.73 209.446 977.25 208.475C977.77 207.492 978.03 205.989 978.03 203.968C978.03 202.253 977.863 200.923 977.53 199.979L973.09 208.894C973.57 209.586 974.23 209.931 975.07 209.931Z" fill="url(#paint68_linear_175_198)"/>
<path d="M976.27 232.565H979.21V233.622H971.59V232.565H974.99V221.356L971.75 223.291L971.19 222.393L975.19 219.92H976.27V232.565Z" fill="url(#paint69_linear_175_198)"/>
<path d="M975.07 242.514C976.497 242.514 977.577 243.119 978.31 244.329C979.057 245.525 979.43 247.267 979.43 249.554C979.43 251.841 979.057 253.589 978.31 254.799C977.577 256.009 976.497 256.614 975.07 256.614C973.657 256.614 972.577 256.009 971.83 254.799C971.084 253.589 970.71 251.841 970.71 249.554C970.71 247.28 971.084 245.538 971.83 244.329C972.577 243.119 973.657 242.514 975.07 242.514ZM972.13 249.554C972.13 251.176 972.277 252.446 972.57 253.363L977.01 244.528C976.543 243.903 975.897 243.591 975.07 243.591C974.15 243.591 973.43 244.083 972.91 245.066C972.39 246.037 972.13 247.533 972.13 249.554ZM975.07 255.517C976.003 255.517 976.73 255.032 977.25 254.061C977.77 253.077 978.03 251.575 978.03 249.554C978.03 247.839 977.863 246.509 977.53 245.565L973.09 254.48C973.57 255.171 974.23 255.517 975.07 255.517Z" fill="url(#paint70_linear_175_198)"/>
<path d="M976.27 278.15H979.21V279.207H971.59V278.15H974.99V266.942L971.75 268.876L971.19 267.979L975.19 265.506H976.27V278.15Z" fill="url(#paint71_linear_175_198)"/>
<path d="M976.27 300.943H979.21V302H971.59V300.943H974.99V289.735L971.75 291.669L971.19 290.772L975.19 288.299H976.27V300.943Z" fill="url(#paint72_linear_175_198)"/>
<path d="M919.36 37.3784C920.786 37.3784 921.866 37.9834 922.599 39.1933C923.346 40.3899 923.719 42.1317 923.719 44.4185C923.719 46.7054 923.346 48.4538 922.599 49.6637C921.866 50.8736 920.786 51.4786 919.36 51.4786C917.946 51.4786 916.867 50.8736 916.12 49.6637C915.373 48.4538 915 46.7054 915 44.4185C915 42.145 915.373 40.4032 916.12 39.1933C916.867 37.9834 917.946 37.3784 919.36 37.3784ZM916.42 44.4185C916.42 46.0406 916.567 47.3104 916.86 48.2278L921.3 39.3927C920.833 38.7678 920.186 38.4554 919.36 38.4554C918.44 38.4554 917.72 38.9473 917.2 39.9312C916.68 40.9018 916.42 42.3976 916.42 44.4185ZM919.36 50.3817C920.293 50.3817 921.02 49.8964 921.54 48.9258C922.06 47.9419 922.319 46.4395 922.319 44.4185C922.319 42.7034 922.153 41.3738 921.82 40.4298L917.38 49.3446C917.86 50.036 918.52 50.3817 919.36 50.3817Z" fill="url(#paint73_linear_175_198)"/>
<path d="M919.36 60.1712C920.786 60.1712 921.866 60.7762 922.599 61.9861C923.346 63.1827 923.719 64.9245 923.719 67.2113C923.719 69.4982 923.346 71.2466 922.599 72.4565C921.866 73.6664 920.786 74.2714 919.36 74.2714C917.946 74.2714 916.867 73.6664 916.12 72.4565C915.373 71.2466 915 69.4982 915 67.2113C915 64.9378 915.373 63.196 916.12 61.9861C916.867 60.7762 917.946 60.1712 919.36 60.1712ZM916.42 67.2113C916.42 68.8334 916.567 70.1032 916.86 71.0206L921.3 62.1855C920.833 61.5606 920.186 61.2482 919.36 61.2482C918.44 61.2482 917.72 61.7401 917.2 62.724C916.68 63.6946 916.42 65.1904 916.42 67.2113ZM919.36 73.1745C920.293 73.1745 921.02 72.6892 921.54 71.7186C922.06 70.7347 922.319 69.2323 922.319 67.2113C922.319 65.4962 922.153 64.1666 921.82 63.2226L917.38 72.1374C917.86 72.8288 918.52 73.1745 919.36 73.1745Z" fill="url(#paint74_linear_175_198)"/>
<path d="M920.56 95.8078H923.499V96.8648H915.88V95.8078H919.28V84.5994L916.04 86.5339L915.48 85.6365L919.48 83.1635H920.56V95.8078Z" fill="url(#paint75_linear_175_198)"/>
<path d="M919.36 105.757C920.786 105.757 921.866 106.362 922.599 107.572C923.346 108.768 923.719 110.51 923.719 112.797C923.719 115.084 923.346 116.832 922.599 118.042C921.866 119.252 920.786 119.857 919.36 119.857C917.946 119.857 916.867 119.252 916.12 118.042C915.373 116.832 915 115.084 915 112.797C915 110.523 915.373 108.782 916.12 107.572C916.867 106.362 917.946 105.757 919.36 105.757ZM916.42 112.797C916.42 114.419 916.567 115.689 916.86 116.606L921.3 107.771C920.833 107.146 920.186 106.834 919.36 106.834C918.44 106.834 917.72 107.326 917.2 108.31C916.68 109.28 916.42 110.776 916.42 112.797ZM919.36 118.76C920.293 118.76 921.02 118.275 921.54 117.304C922.06 116.32 922.319 114.818 922.319 112.797C922.319 111.082 922.153 109.752 921.82 108.808L917.38 117.723C917.86 118.414 918.52 118.76 919.36 118.76Z" fill="url(#paint76_linear_175_198)"/>
<path d="M920.56 141.393H923.499V142.45H915.88V141.393H919.28V130.185L916.04 132.12L915.48 131.222L919.48 128.749H920.56V141.393Z" fill="url(#paint77_linear_175_198)"/>
<path d="M920.56 164.186H923.499V165.243H915.88V164.186H919.28V152.978L916.04 154.912L915.48 154.015L919.48 151.542H920.56V164.186Z" fill="url(#paint78_linear_175_198)"/>
<path d="M957.7 4.63655H960.64V5.69356H953.02V4.63655H956.42V-6.57181L953.18 -4.63727L952.62 -5.53474L956.62 -8.00776H957.7V4.63655Z" fill="url(#paint79_linear_175_198)"/>
<path d="M956.5 14.5856C957.927 14.5856 959.006 15.1906 959.74 16.4005C960.486 17.5971 960.86 19.3389 960.86 21.6257C960.86 23.9126 960.486 25.661 959.74 26.8709C959.006 28.0808 957.927 28.6858 956.5 28.6858C955.087 28.6858 954.007 28.0808 953.26 26.8709C952.514 25.661 952.14 23.9126 952.14 21.6257C952.14 19.3522 952.514 17.6104 953.26 16.4005C954.007 15.1906 955.087 14.5856 956.5 14.5856ZM953.56 21.6257C953.56 23.2478 953.707 24.5176 954 25.435L958.44 16.5999C957.973 15.975 957.327 15.6626 956.5 15.6626C955.58 15.6626 954.86 16.1545 954.34 17.1384C953.82 18.109 953.56 19.6048 953.56 21.6257ZM956.5 27.5889C957.433 27.5889 958.16 27.1036 958.68 26.133C959.2 25.1491 959.46 23.6467 959.46 21.6257C959.46 19.9106 959.293 18.581 958.96 17.637L954.52 26.5518C955 27.2432 955.66 27.5889 956.5 27.5889Z" fill="url(#paint80_linear_175_198)"/>
<path d="M957.7 50.2221H960.64V51.2792H953.02V50.2221H956.42V39.0138L953.18 40.9483L952.62 40.0509L956.62 37.5778H957.7V50.2221Z" fill="url(#paint81_linear_175_198)"/>
<path d="M957.7 73.015H960.64V74.072H953.02V73.015H956.42V61.8066L953.18 63.7411L952.62 62.8437L956.62 60.3706H957.7V73.015Z" fill="url(#paint82_linear_175_198)"/>
<path d="M956.5 82.964C957.927 82.964 959.006 83.569 959.74 84.7789C960.486 85.9755 960.86 87.7173 960.86 90.0041C960.86 92.291 960.486 94.0394 959.74 95.2493C959.006 96.4593 957.927 97.0642 956.5 97.0642C955.087 97.0642 954.007 96.4593 953.26 95.2493C952.514 94.0394 952.14 92.291 952.14 90.0041C952.14 87.7306 952.514 85.9888 953.26 84.7789C954.007 83.569 955.087 82.964 956.5 82.964ZM953.56 90.0041C953.56 91.6262 953.707 92.896 954 93.8134L958.44 84.9783C957.973 84.3534 957.327 84.041 956.5 84.041C955.58 84.041 954.86 84.5329 954.34 85.5168C953.82 86.4874 953.56 87.9832 953.56 90.0041ZM956.5 95.9673C957.433 95.9673 958.16 95.482 958.68 94.5114C959.2 93.5275 959.46 92.0251 959.46 90.0041C959.46 88.289 959.293 86.9594 958.96 86.0154L954.52 94.9302C955 95.6216 955.66 95.9673 956.5 95.9673Z" fill="url(#paint83_linear_175_198)"/>
<path d="M957.7 118.601H960.64V119.658H953.02V118.601H956.42V107.392L953.18 109.327L952.62 108.429L956.62 105.956H957.7V118.601Z" fill="url(#paint84_linear_175_198)"/>
<path d="M957.7 141.393H960.64V142.45H953.02V141.393H956.42V130.185L953.18 132.12L952.62 131.222L956.62 128.749H957.7V141.393Z" fill="url(#paint85_linear_175_198)"/>
<path d="M956.5 151.342C957.927 151.342 959.006 151.947 959.74 153.157C960.486 154.354 960.86 156.096 960.86 158.383C960.86 160.669 960.486 162.418 959.74 163.628C959.006 164.838 957.927 165.443 956.5 165.443C955.087 165.443 954.007 164.838 953.26 163.628C952.514 162.418 952.14 160.669 952.14 158.383C952.14 156.109 952.514 154.367 953.26 153.157C954.007 151.947 955.087 151.342 956.5 151.342ZM953.56 158.383C953.56 160.005 953.707 161.274 954 162.192L958.44 153.357C957.973 152.732 957.327 152.419 956.5 152.419C955.58 152.419 954.86 152.911 954.34 153.895C953.82 154.866 953.56 156.362 953.56 158.383ZM956.5 164.346C957.433 164.346 958.16 163.86 958.68 162.89C959.2 161.906 959.46 160.404 959.46 158.383C959.46 156.667 959.293 155.338 958.96 154.394L954.52 163.309C955 164 955.66 164.346 956.5 164.346Z" fill="url(#paint86_linear_175_198)"/>
<path d="M957.7 186.979H960.64V188.036H953.02V186.979H956.42V175.771L953.18 177.705L952.62 176.808L956.62 174.335H957.7V186.979Z" fill="url(#paint87_linear_175_198)"/>
<path d="M956.5 196.928C957.927 196.928 959.006 197.533 959.74 198.743C960.486 199.94 960.86 201.681 960.86 203.968C960.86 206.255 960.486 208.003 959.74 209.213C959.006 210.423 957.927 211.028 956.5 211.028C955.087 211.028 954.007 210.423 953.26 209.213C952.514 208.003 952.14 206.255 952.14 203.968C952.14 201.695 952.514 199.953 953.26 198.743C954.007 197.533 955.087 196.928 956.5 196.928ZM953.56 203.968C953.56 205.59 953.707 206.86 954 207.777L958.44 198.942C957.973 198.317 957.327 198.005 956.5 198.005C955.58 198.005 954.86 198.497 954.34 199.481C953.82 200.451 953.56 201.947 953.56 203.968ZM956.5 209.931C957.433 209.931 958.16 209.446 958.68 208.475C959.2 207.492 959.46 205.989 959.46 203.968C959.46 202.253 959.293 200.923 958.96 199.979L954.52 208.894C955 209.586 955.66 209.931 956.5 209.931Z" fill="url(#paint88_linear_175_198)"/>
<path d="M993.64 -8.2072C995.067 -8.2072 996.147 -7.60224 996.88 -6.39232C997.627 -5.1957 998 -3.45395 998 -1.16707C998 1.11981 997.627 2.86821 996.88 4.07812C996.147 5.28804 995.067 5.893 993.64 5.893C992.227 5.893 991.147 5.28804 990.401 4.07812C989.654 2.86821 989.281 1.11981 989.281 -1.16707C989.281 -3.44065 989.654 -5.1824 990.401 -6.39232C991.147 -7.60224 992.227 -8.2072 993.64 -8.2072ZM990.7 -1.16707C990.7 0.455016 990.847 1.72477 991.14 2.64218L995.58 -6.19288C995.114 -6.81779 994.467 -7.13024 993.64 -7.13024C992.72 -7.13024 992 -6.63829 991.48 -5.6544C990.96 -4.68381 990.7 -3.18803 990.7 -1.16707ZM993.64 4.7961C994.574 4.7961 995.3 4.3108 995.82 3.34021C996.34 2.35632 996.6 0.85389 996.6 -1.16707C996.6 -2.88223 996.433 -4.21181 996.1 -5.15581L991.66 3.75902C992.14 4.4504 992.8 4.7961 993.64 4.7961Z" fill="url(#paint89_linear_175_198)"/>
<path d="M994.84 27.4293H997.78V28.4864H990.161V27.4293H993.56V16.221L990.321 18.1555L989.761 17.2581L993.76 14.785H994.84V27.4293Z" fill="url(#paint90_linear_175_198)"/>
<path d="M994.84 50.2221H997.78V51.2792H990.161V50.2221H993.56V39.0138L990.321 40.9483L989.761 40.0509L993.76 37.5778H994.84V50.2221Z" fill="url(#paint91_linear_175_198)"/>
<path d="M993.64 60.1712C995.067 60.1712 996.147 60.7762 996.88 61.9861C997.627 63.1827 998 64.9245 998 67.2113C998 69.4982 997.627 71.2466 996.88 72.4565C996.147 73.6664 995.067 74.2714 993.64 74.2714C992.227 74.2714 991.147 73.6664 990.401 72.4565C989.654 71.2466 989.281 69.4982 989.281 67.2113C989.281 64.9378 989.654 63.196 990.401 61.9861C991.147 60.7762 992.227 60.1712 993.64 60.1712ZM990.7 67.2113C990.7 68.8334 990.847 70.1032 991.14 71.0206L995.58 62.1855C995.114 61.5606 994.467 61.2482 993.64 61.2482C992.72 61.2482 992 61.7401 991.48 62.724C990.96 63.6946 990.7 65.1904 990.7 67.2113ZM993.64 73.1745C994.574 73.1745 995.3 72.6892 995.82 71.7186C996.34 70.7347 996.6 69.2323 996.6 67.2113C996.6 65.4962 996.433 64.1666 996.1 63.2226L991.66 72.1374C992.14 72.8288 992.8 73.1745 993.64 73.1745Z" fill="url(#paint92_linear_175_198)"/>
<path d="M993.64 82.964C995.067 82.964 996.147 83.569 996.88 84.7789C997.627 85.9755 998 87.7173 998 90.0041C998 92.291 997.627 94.0394 996.88 95.2493C996.147 96.4593 995.067 97.0642 993.64 97.0642C992.227 97.0642 991.147 96.4593 990.401 95.2493C989.654 94.0394 989.281 92.291 989.281 90.0041C989.281 87.7306 989.654 85.9888 990.401 84.7789C991.147 83.569 992.227 82.964 993.64 82.964ZM990.7 90.0041C990.7 91.6262 990.847 92.896 991.14 93.8134L995.58 84.9783C995.114 84.3534 994.467 84.041 993.64 84.041C992.72 84.041 992 84.5329 991.48 85.5168C990.96 86.4874 990.7 87.9832 990.7 90.0041ZM993.64 95.9673C994.574 95.9673 995.3 95.482 995.82 94.5114C996.34 93.5275 996.6 92.0251 996.6 90.0041C996.6 88.289 996.433 86.9594 996.1 86.0154L991.66 94.9302C992.14 95.6216 992.8 95.9673 993.64 95.9673Z" fill="url(#paint93_linear_175_198)"/>
</g>
<defs>
<filter id="filter0_f_175_198" x="-558.19" y="-716.19" width="2141.38" height="1500.38" filterUnits="userSpaceOnUse" color-interpolation-filters="sRGB">
<feFlood flood-opacity="0" result="BackgroundImageFix"/>
<feBlend mode="normal" in="SourceGraphic" in2="BackgroundImageFix" result="shape"/>
<feGaussianBlur stdDeviation="200.095" result="effect1_foregroundBlur_175_198"/>
</filter>
<linearGradient id="paint0_linear_175_198" x1="70.5" y1="270" x2="70.5" y2="581.381" gradientUnits="userSpaceOnUse">
<stop stop-color="#F7DD43"/>
<stop offset="1" stop-color="#F7DD43" stop-opacity="0"/>
</linearGradient>
<linearGradient id="paint1_linear_175_198" x1="70.5" y1="270" x2="70.5" y2="581.381" gradientUnits="userSpaceOnUse">
<stop stop-color="#F7DD43"/>
<stop offset="1" stop-color="#F7DD43" stop-opacity="0"/>
</linearGradient>
<linearGradient id="paint2_linear_175_198" x1="70.5" y1="270" x2="70.5" y2="581.381" gradientUnits="userSpaceOnUse">
<stop stop-color="#F7DD43"/>
<stop offset="1" stop-color="#F7DD43" stop-opacity="0"/>
</linearGradient>
<linearGradient id="paint3_linear_175_198" x1="70.5" y1="270" x2="70.5" y2="581.381" gradientUnits="userSpaceOnUse">
<stop stop-color="#F7DD43"/>
<stop offset="1" stop-color="#F7DD43" stop-opacity="0"/>
</linearGradient>
<linearGradient id="paint4_linear_175_198" x1="70.5" y1="270" x2="70.5" y2="581.381" gradientUnits="userSpaceOnUse">
<stop stop-color="#F7DD43"/>
<stop offset="1" stop-color="#F7DD43" stop-opacity="0"/>
</linearGradient>
<linearGradient id="paint5_linear_175_198" x1="70.5" y1="270" x2="70.5" y2="581.381" gradientUnits="userSpaceOnUse">
<stop stop-color="#F7DD43"/>
<stop offset="1" stop-color="#F7DD43" stop-opacity="0"/>
</linearGradient>
<linearGradient id="paint6_linear_175_198" x1="70.5" y1="270" x2="70.5" y2="581.381" gradientUnits="userSpaceOnUse">
<stop stop-color="#F7DD43"/>
<stop offset="1" stop-color="#F7DD43" stop-opacity="0"/>
</linearGradient>
<linearGradient id="paint7_linear_175_198" x1="70.5" y1="270" x2="70.5" y2="581.381" gradientUnits="userSpaceOnUse">
<stop stop-color="#F7DD43"/>
<stop offset="1" stop-color="#F7DD43" stop-opacity="0"/>
</linearGradient>
<linearGradient id="paint8_linear_175_198" x1="70.5" y1="270" x2="70.5" y2="581.381" gradientUnits="userSpaceOnUse">
<stop stop-color="#F7DD43"/>
<stop offset="1" stop-color="#F7DD43" stop-opacity="0"/>
</linearGradient>
<linearGradient id="paint9_linear_175_198" x1="70.5" y1="270" x2="70.5" y2="581.381" gradientUnits="userSpaceOnUse">
<stop stop-color="#F7DD43"/>
<stop offset="1" stop-color="#F7DD43" stop-opacity="0"/>
</linearGradient>
<linearGradient id="paint10_linear_175_198" x1="70.5" y1="270" x2="70.5" y2="581.381" gradientUnits="userSpaceOnUse">
<stop stop-color="#F7DD43"/>
<stop offset="1" stop-color="#F7DD43" stop-opacity="0"/>
</linearGradient>
<linearGradient id="paint11_linear_175_198" x1="70.5" y1="270" x2="70.5" y2="581.381" gradientUnits="userSpaceOnUse">
<stop stop-color="#F7DD43"/>
<stop offset="1" stop-color="#F7DD43" stop-opacity="0"/>
</linearGradient>
<linearGradient id="paint12_linear_175_198" x1="70.5" y1="270" x2="70.5" y2="581.381" gradientUnits="userSpaceOnUse">
<stop stop-color="#F7DD43"/>
<stop offset="1" stop-color="#F7DD43" stop-opacity="0"/>
</linearGradient>
<linearGradient id="paint13_linear_175_198" x1="70.5" y1="270" x2="70.5" y2="581.381" gradientUnits="userSpaceOnUse">
<stop stop-color="#F7DD43"/>
<stop offset="1" stop-color="#F7DD43" stop-opacity="0"/>
</linearGradient>
<linearGradient id="paint14_linear_175_198" x1="70.5" y1="270" x2="70.5" y2="581.381" gradientUnits="userSpaceOnUse">
<stop stop-color="#F7DD43"/>
<stop offset="1" stop-color="#F7DD43" stop-opacity="0"/>
</linearGradient>
<linearGradient id="paint15_linear_175_198" x1="70.5" y1="270" x2="70.5" y2="581.381" gradientUnits="userSpaceOnUse">
<stop stop-color="#F7DD43"/>
<stop offset="1" stop-color="#F7DD43" stop-opacity="0"/>
</linearGradient>
<linearGradient id="paint16_linear_175_198" x1="70.5" y1="270" x2="70.5" y2="581.381" gradientUnits="userSpaceOnUse">
<stop stop-color="#F7DD43"/>
<stop offset="1" stop-color="#F7DD43" stop-opacity="0"/>
</linearGradient>
<linearGradient id="paint17_linear_175_198" x1="70.5" y1="270" x2="70.5" y2="581.381" gradientUnits="userSpaceOnUse">
<stop stop-color="#F7DD43"/>
<stop offset="1" stop-color="#F7DD43" stop-opacity="0"/>
</linearGradient>
<linearGradient id="paint18_linear_175_198" x1="70.5" y1="270" x2="70.5" y2="581.381" gradientUnits="userSpaceOnUse">
<stop stop-color="#F7DD43"/>
<stop offset="1" stop-color="#F7DD43" stop-opacity="0"/>
</linearGradient>
<linearGradient id="paint19_linear_175_198" x1="70.5" y1="270" x2="70.5" y2="581.381" gradientUnits="userSpaceOnUse">
<stop stop-color="#F7DD43"/>
<stop offset="1" stop-color="#F7DD43" stop-opacity="0"/>
</linearGradient>
<linearGradient id="paint20_linear_175_198" x1="70.5" y1="270" x2="70.5" y2="581.381" gradientUnits="userSpaceOnUse">
<stop stop-color="#F7DD43"/>
<stop offset="1" stop-color="#F7DD43" stop-opacity="0"/>
</linearGradient>
<linearGradient id="paint21_linear_175_198" x1="70.5" y1="270" x2="70.5" y2="581.381" gradientUnits="userSpaceOnUse">
<stop stop-color="#F7DD43"/>
<stop offset="1" stop-color="#F7DD43" stop-opacity="0"/>
</linearGradient>
<linearGradient id="paint22_linear_175_198" x1="70.5" y1="270" x2="70.5" y2="581.381" gradientUnits="userSpaceOnUse">
<stop stop-color="#F7DD43"/>
<stop offset="1" stop-color="#F7DD43" stop-opacity="0"/>
</linearGradient>
<linearGradient id="paint23_linear_175_198" x1="70.5" y1="270" x2="70.5" y2="581.381" gradientUnits="userSpaceOnUse">
<stop stop-color="#F7DD43"/>
<stop offset="1" stop-color="#F7DD43" stop-opacity="0"/>
</linearGradient>
<linearGradient id="paint24_linear_175_198" x1="70.5" y1="270" x2="70.5" y2="581.381" gradientUnits="userSpaceOnUse">
<stop stop-color="#F7DD43"/>
<stop offset="1" stop-color="#F7DD43" stop-opacity="0"/>
</linearGradient>
<linearGradient id="paint25_linear_175_198" x1="70.5" y1="270" x2="70.5" y2="581.381" gradientUnits="userSpaceOnUse">
<stop stop-color="#F7DD43"/>
<stop offset="1" stop-color="#F7DD43" stop-opacity="0"/>
</linearGradient>
<linearGradient id="paint26_linear_175_198" x1="70.5" y1="270" x2="70.5" y2="581.381" gradientUnits="userSpaceOnUse">
<stop stop-color="#F7DD43"/>
<stop offset="1" stop-color="#F7DD43" stop-opacity="0"/>
</linearGradient>
<linearGradient id="paint27_linear_175_198" x1="70.5" y1="270" x2="70.5" y2="581.381" gradientUnits="userSpaceOnUse">
<stop stop-color="#F7DD43"/>
<stop offset="1" stop-color="#F7DD43" stop-opacity="0"/>
</linearGradient>
<linearGradient id="paint28_linear_175_198" x1="70.5" y1="270" x2="70.5" y2="581.381" gradientUnits="userSpaceOnUse">
<stop stop-color="#F7DD43"/>
<stop offset="1" stop-color="#F7DD43" stop-opacity="0"/>
</linearGradient>
<linearGradient id="paint29_linear_175_198" x1="70.5" y1="270" x2="70.5" y2="581.381" gradientUnits="userSpaceOnUse">
<stop stop-color="#F7DD43"/>
<stop offset="1" stop-color="#F7DD43" stop-opacity="0"/>
</linearGradient>
<linearGradient id="paint30_linear_175_198" x1="70.5" y1="270" x2="70.5" y2="581.381" gradientUnits="userSpaceOnUse">
<stop stop-color="#F7DD43"/>
<stop offset="1" stop-color="#F7DD43" stop-opacity="0"/>
</linearGradient>
<linearGradient id="paint31_linear_175_198" x1="70.5" y1="270" x2="70.5" y2="581.381" gradientUnits="userSpaceOnUse">
<stop stop-color="#F7DD43"/>
<stop offset="1" stop-color="#F7DD43" stop-opacity="0"/>
</linearGradient>
<linearGradient id="paint32_linear_175_198" x1="70.5" y1="270" x2="70.5" y2="581.381" gradientUnits="userSpaceOnUse">
<stop stop-color="#F7DD43"/>
<stop offset="1" stop-color="#F7DD43" stop-opacity="0"/>
</linearGradient>
<linearGradient id="paint33_linear_175_198" x1="70.5" y1="270" x2="70.5" y2="581.381" gradientUnits="userSpaceOnUse">
<stop stop-color="#F7DD43"/>
<stop offset="1" stop-color="#F7DD43" stop-opacity="0"/>
</linearGradient>
<linearGradient id="paint34_linear_175_198" x1="70.5" y1="270" x2="70.5" y2="581.381" gradientUnits="userSpaceOnUse">
<stop stop-color="#F7DD43"/>
<stop offset="1" stop-color="#F7DD43" stop-opacity="0"/>
</linearGradient>
<linearGradient id="paint35_linear_175_198" x1="70.5" y1="270" x2="70.5" y2="581.381" gradientUnits="userSpaceOnUse">
<stop stop-color="#F7DD43"/>
<stop offset="1" stop-color="#F7DD43" stop-opacity="0"/>
</linearGradient>
<linearGradient id="paint36_linear_175_198" x1="70.5" y1="270" x2="70.5" y2="581.381" gradientUnits="userSpaceOnUse">
<stop stop-color="#F7DD43"/>
<stop offset="1" stop-color="#F7DD43" stop-opacity="0"/>
</linearGradient>
<linearGradient id="paint37_linear_175_198" x1="70.5" y1="270" x2="70.5" y2="581.381" gradientUnits="userSpaceOnUse">
<stop stop-color="#F7DD43"/>
<stop offset="1" stop-color="#F7DD43" stop-opacity="0"/>
</linearGradient>
<linearGradient id="paint38_linear_175_198" x1="70.5" y1="270" x2="70.5" y2="581.381" gradientUnits="userSpaceOnUse">
<stop stop-color="#F7DD43"/>
<stop offset="1" stop-color="#F7DD43" stop-opacity="0"/>
</linearGradient>
<linearGradient id="paint39_linear_175_198" x1="70.5" y1="270" x2="70.5" y2="581.381" gradientUnits="userSpaceOnUse">
<stop stop-color="#F7DD43"/>
<stop offset="1" stop-color="#F7DD43" stop-opacity="0"/>
</linearGradient>
<linearGradient id="paint40_linear_175_198" x1="70.5" y1="270" x2="70.5" y2="581.381" gradientUnits="userSpaceOnUse">
<stop stop-color="#F7DD43"/>
<stop offset="1" stop-color="#F7DD43" stop-opacity="0"/>
</linearGradient>
<linearGradient id="paint41_linear_175_198" x1="70.5" y1="270" x2="70.5" y2="581.381" gradientUnits="userSpaceOnUse">
<stop stop-color="#F7DD43"/>
<stop offset="1" stop-color="#F7DD43" stop-opacity="0"/>
</linearGradient>
<linearGradient id="paint42_linear_175_198" x1="70.5" y1="270" x2="70.5" y2="581.381" gradientUnits="userSpaceOnUse">
<stop stop-color="#F7DD43"/>
<stop offset="1" stop-color="#F7DD43" stop-opacity="0"/>
</linearGradient>
<linearGradient id="paint43_linear_175_198" x1="70.5" y1="270" x2="70.5" y2="581.381" gradientUnits="userSpaceOnUse">
<stop stop-color="#F7DD43"/>
<stop offset="1" stop-color="#F7DD43" stop-opacity="0"/>
</linearGradient>
<linearGradient id="paint44_linear_175_198" x1="70.5" y1="270" x2="70.5" y2="581.381" gradientUnits="userSpaceOnUse">
<stop stop-color="#F7DD43"/>
<stop offset="1" stop-color="#F7DD43" stop-opacity="0"/>
</linearGradient>
<linearGradient id="paint45_linear_175_198" x1="70.5" y1="270" x2="70.5" y2="581.381" gradientUnits="userSpaceOnUse">
<stop stop-color="#F7DD43"/>
<stop offset="1" stop-color="#F7DD43" stop-opacity="0"/>
</linearGradient>
<linearGradient id="paint46_linear_175_198" x1="70.5" y1="270" x2="70.5" y2="581.381" gradientUnits="userSpaceOnUse">
<stop stop-color="#F7DD43"/>
<stop offset="1" stop-color="#F7DD43" stop-opacity="0"/>
</linearGradient>
<linearGradient id="paint47_linear_175_198" x1="956.5" y1="-31" x2="956.5" y2="267.818" gradientUnits="userSpaceOnUse">
<stop stop-color="#F7DD43"/>
<stop offset="1" stop-color="#F7DD43" stop-opacity="0"/>
</linearGradient>
<linearGradient id="paint48_linear_175_198" x1="956.5" y1="-31" x2="956.5" y2="267.818" gradientUnits="userSpaceOnUse">
<stop stop-color="#F7DD43"/>
<stop offset="1" stop-color="#F7DD43" stop-opacity="0"/>
</linearGradient>
<linearGradient id="paint49_linear_175_198" x1="956.5" y1="-31" x2="956.5" y2="267.818" gradientUnits="userSpaceOnUse">
<stop stop-color="#F7DD43"/>
<stop offset="1" stop-color="#F7DD43" stop-opacity="0"/>
</linearGradient>
<linearGradient id="paint50_linear_175_198" x1="956.5" y1="-31" x2="956.5" y2="267.818" gradientUnits="userSpaceOnUse">
<stop stop-color="#F7DD43"/>
<stop offset="1" stop-color="#F7DD43" stop-opacity="0"/>
</linearGradient>
<linearGradient id="paint51_linear_175_198" x1="956.5" y1="-31" x2="956.5" y2="267.818" gradientUnits="userSpaceOnUse">
<stop stop-color="#F7DD43"/>
<stop offset="1" stop-color="#F7DD43" stop-opacity="0"/>
</linearGradient>
<linearGradient id="paint52_linear_175_198" x1="956.5" y1="-31" x2="956.5" y2="267.818" gradientUnits="userSpaceOnUse">
<stop stop-color="#F7DD43"/>
<stop offset="1" stop-color="#F7DD43" stop-opacity="0"/>
</linearGradient>
<linearGradient id="paint53_linear_175_198" x1="956.5" y1="-31" x2="956.5" y2="267.818" gradientUnits="userSpaceOnUse">
<stop stop-color="#F7DD43"/>
<stop offset="1" stop-color="#F7DD43" stop-opacity="0"/>
</linearGradient>
<linearGradient id="paint54_linear_175_198" x1="956.5" y1="-31" x2="956.5" y2="267.818" gradientUnits="userSpaceOnUse">
<stop stop-color="#F7DD43"/>
<stop offset="1" stop-color="#F7DD43" stop-opacity="0"/>
</linearGradient>
<linearGradient id="paint55_linear_175_198" x1="956.5" y1="-31" x2="956.5" y2="267.818" gradientUnits="userSpaceOnUse">
<stop stop-color="#F7DD43"/>
<stop offset="1" stop-color="#F7DD43" stop-opacity="0"/>
</linearGradient>
<linearGradient id="paint56_linear_175_198" x1="956.5" y1="-31" x2="956.5" y2="267.818" gradientUnits="userSpaceOnUse">
<stop stop-color="#F7DD43"/>
<stop offset="1" stop-color="#F7DD43" stop-opacity="0"/>
</linearGradient>
<linearGradient id="paint57_linear_175_198" x1="956.5" y1="-31" x2="956.5" y2="267.818" gradientUnits="userSpaceOnUse">
<stop stop-color="#F7DD43"/>
<stop offset="1" stop-color="#F7DD43" stop-opacity="0"/>
</linearGradient>
<linearGradient id="paint58_linear_175_198" x1="956.5" y1="-31" x2="956.5" y2="267.818" gradientUnits="userSpaceOnUse">
<stop stop-color="#F7DD43"/>
<stop offset="1" stop-color="#F7DD43" stop-opacity="0"/>
</linearGradient>
<linearGradient id="paint59_linear_175_198" x1="956.5" y1="-31" x2="956.5" y2="267.818" gradientUnits="userSpaceOnUse">
<stop stop-color="#F7DD43"/>
<stop offset="1" stop-color="#F7DD43" stop-opacity="0"/>
</linearGradient>
<linearGradient id="paint60_linear_175_198" x1="956.5" y1="-31" x2="956.5" y2="267.818" gradientUnits="userSpaceOnUse">
<stop stop-color="#F7DD43"/>
<stop offset="1" stop-color="#F7DD43" stop-opacity="0"/>
</linearGradient>
<linearGradient id="paint61_linear_175_198" x1="956.5" y1="-31" x2="956.5" y2="267.818" gradientUnits="userSpaceOnUse">
<stop stop-color="#F7DD43"/>
<stop offset="1" stop-color="#F7DD43" stop-opacity="0"/>
</linearGradient>
<linearGradient id="paint62_linear_175_198" x1="956.5" y1="-31" x2="956.5" y2="267.818" gradientUnits="userSpaceOnUse">
<stop stop-color="#F7DD43"/>
<stop offset="1" stop-color="#F7DD43" stop-opacity="0"/>
</linearGradient>
<linearGradient id="paint63_linear_175_198" x1="956.5" y1="-31" x2="956.5" y2="267.818" gradientUnits="userSpaceOnUse">
<stop stop-color="#F7DD43"/>
<stop offset="1" stop-color="#F7DD43" stop-opacity="0"/>
</linearGradient>
<linearGradient id="paint64_linear_175_198" x1="956.5" y1="-31" x2="956.5" y2="267.818" gradientUnits="userSpaceOnUse">
<stop stop-color="#F7DD43"/>
<stop offset="1" stop-color="#F7DD43" stop-opacity="0"/>
</linearGradient>
<linearGradient id="paint65_linear_175_198" x1="956.5" y1="-31" x2="956.5" y2="267.818" gradientUnits="userSpaceOnUse">
<stop stop-color="#F7DD43"/>
<stop offset="1" stop-color="#F7DD43" stop-opacity="0"/>
</linearGradient>
<linearGradient id="paint66_linear_175_198" x1="956.5" y1="-31" x2="956.5" y2="267.818" gradientUnits="userSpaceOnUse">
<stop stop-color="#F7DD43"/>
<stop offset="1" stop-color="#F7DD43" stop-opacity="0"/>
</linearGradient>
<linearGradient id="paint67_linear_175_198" x1="956.5" y1="-31" x2="956.5" y2="267.818" gradientUnits="userSpaceOnUse">
<stop stop-color="#F7DD43"/>
<stop offset="1" stop-color="#F7DD43" stop-opacity="0"/>
</linearGradient>
<linearGradient id="paint68_linear_175_198" x1="956.5" y1="-31" x2="956.5" y2="267.818" gradientUnits="userSpaceOnUse">
<stop stop-color="#F7DD43"/>
<stop offset="1" stop-color="#F7DD43" stop-opacity="0"/>
</linearGradient>
<linearGradient id="paint69_linear_175_198" x1="956.5" y1="-31" x2="956.5" y2="267.818" gradientUnits="userSpaceOnUse">
<stop stop-color="#F7DD43"/>
<stop offset="1" stop-color="#F7DD43" stop-opacity="0"/>
</linearGradient>
<linearGradient id="paint70_linear_175_198" x1="956.5" y1="-31" x2="956.5" y2="267.818" gradientUnits="userSpaceOnUse">
<stop stop-color="#F7DD43"/>
<stop offset="1" stop-color="#F7DD43" stop-opacity="0"/>
</linearGradient>
<linearGradient id="paint71_linear_175_198" x1="956.5" y1="-31" x2="956.5" y2="267.818" gradientUnits="userSpaceOnUse">
<stop stop-color="#F7DD43"/>
<stop offset="1" stop-color="#F7DD43" stop-opacity="0"/>
</linearGradient>
<linearGradient id="paint72_linear_175_198" x1="956.5" y1="-31" x2="956.5" y2="267.818" gradientUnits="userSpaceOnUse">
<stop stop-color="#F7DD43"/>
<stop offset="1" stop-color="#F7DD43" stop-opacity="0"/>
</linearGradient>
<linearGradient id="paint73_linear_175_198" x1="956.5" y1="-31" x2="956.5" y2="267.818" gradientUnits="userSpaceOnUse">
<stop stop-color="#F7DD43"/>
<stop offset="1" stop-color="#F7DD43" stop-opacity="0"/>
</linearGradient>
<linearGradient id="paint74_linear_175_198" x1="956.5" y1="-31" x2="956.5" y2="267.818" gradientUnits="userSpaceOnUse">
<stop stop-color="#F7DD43"/>
<stop offset="1" stop-color="#F7DD43" stop-opacity="0"/>
</linearGradient>
<linearGradient id="paint75_linear_175_198" x1="956.5" y1="-31" x2="956.5" y2="267.818" gradientUnits="userSpaceOnUse">
<stop stop-color="#F7DD43"/>
<stop offset="1" stop-color="#F7DD43" stop-opacity="0"/>
</linearGradient>
<linearGradient id="paint76_linear_175_198" x1="956.5" y1="-31" x2="956.5" y2="267.818" gradientUnits="userSpaceOnUse">
<stop stop-color="#F7DD43"/>
<stop offset="1" stop-color="#F7DD43" stop-opacity="0"/>
</linearGradient>
<linearGradient id="paint77_linear_175_198" x1="956.5" y1="-31" x2="956.5" y2="267.818" gradientUnits="userSpaceOnUse">
<stop stop-color="#F7DD43"/>
<stop offset="1" stop-color="#F7DD43" stop-opacity="0"/>
</linearGradient>
<linearGradient id="paint78_linear_175_198" x1="956.5" y1="-31" x2="956.5" y2="267.818" gradientUnits="userSpaceOnUse">
<stop stop-color="#F7DD43"/>
<stop offset="1" stop-color="#F7DD43" stop-opacity="0"/>
</linearGradient>
<linearGradient id="paint79_linear_175_198" x1="956.5" y1="-31" x2="956.5" y2="267.818" gradientUnits="userSpaceOnUse">
<stop stop-color="#F7DD43"/>
<stop offset="1" stop-color="#F7DD43" stop-opacity="0"/>
</linearGradient>
<linearGradient id="paint80_linear_175_198" x1="956.5" y1="-31" x2="956.5" y2="267.818" gradientUnits="userSpaceOnUse">
<stop stop-color="#F7DD43"/>
<stop offset="1" stop-color="#F7DD43" stop-opacity="0"/>
</linearGradient>
<linearGradient id="paint81_linear_175_198" x1="956.5" y1="-31" x2="956.5" y2="267.818" gradientUnits="userSpaceOnUse">
<stop stop-color="#F7DD43"/>
<stop offset="1" stop-color="#F7DD43" stop-opacity="0"/>
</linearGradient>
<linearGradient id="paint82_linear_175_198" x1="956.5" y1="-31" x2="956.5" y2="267.818" gradientUnits="userSpaceOnUse">
<stop stop-color="#F7DD43"/>
<stop offset="1" stop-color="#F7DD43" stop-opacity="0"/>
</linearGradient>
<linearGradient id="paint83_linear_175_198" x1="956.5" y1="-31" x2="956.5" y2="267.818" gradientUnits="userSpaceOnUse">
<stop stop-color="#F7DD43"/>
<stop offset="1" stop-color="#F7DD43" stop-opacity="0"/>
</linearGradient>
<linearGradient id="paint84_linear_175_198" x1="956.5" y1="-31" x2="956.5" y2="267.818" gradientUnits="userSpaceOnUse">
<stop stop-color="#F7DD43"/>
<stop offset="1" stop-color="#F7DD43" stop-opacity="0"/>
</linearGradient>
<linearGradient id="paint85_linear_175_198" x1="956.5" y1="-31" x2="956.5" y2="267.818" gradientUnits="userSpaceOnUse">
<stop stop-color="#F7DD43"/>
<stop offset="1" stop-color="#F7DD43" stop-opacity="0"/>
</linearGradient>
<linearGradient id="paint86_linear_175_198" x1="956.5" y1="-31" x2="956.5" y2="267.818" gradientUnits="userSpaceOnUse">
<stop stop-color="#F7DD43"/>
<stop offset="1" stop-color="#F7DD43" stop-opacity="0"/>
</linearGradient>
<linearGradient id="paint87_linear_175_198" x1="956.5" y1="-31" x2="956.5" y2="267.818" gradientUnits="userSpaceOnUse">
<stop stop-color="#F7DD43"/>
<stop offset="1" stop-color="#F7DD43" stop-opacity="0"/>
</linearGradient>
<linearGradient id="paint88_linear_175_198" x1="956.5" y1="-31" x2="956.5" y2="267.818" gradientUnits="userSpaceOnUse">
<stop stop-color="#F7DD43"/>
<stop offset="1" stop-color="#F7DD43" stop-opacity="0"/>
</linearGradient>
<linearGradient id="paint89_linear_175_198" x1="956.5" y1="-31" x2="956.5" y2="267.818" gradientUnits="userSpaceOnUse">
<stop stop-color="#F7DD43"/>
<stop offset="1" stop-color="#F7DD43" stop-opacity="0"/>
</linearGradient>
<linearGradient id="paint90_linear_175_198" x1="956.5" y1="-31" x2="956.5" y2="267.818" gradientUnits="userSpaceOnUse">
<stop stop-color="#F7DD43"/>
<stop offset="1" stop-color="#F7DD43" stop-opacity="0"/>
</linearGradient>
<linearGradient id="paint91_linear_175_198" x1="956.5" y1="-31" x2="956.5" y2="267.818" gradientUnits="userSpaceOnUse">
<stop stop-color="#F7DD43"/>
<stop offset="1" stop-color="#F7DD43" stop-opacity="0"/>
</linearGradient>
<linearGradient id="paint92_linear_175_198" x1="956.5" y1="-31" x2="956.5" y2="267.818" gradientUnits="userSpaceOnUse">
<stop stop-color="#F7DD43"/>
<stop offset="1" stop-color="#F7DD43" stop-opacity="0"/>
</linearGradient>
<linearGradient id="paint93_linear_175_198" x1="956.5" y1="-31" x2="956.5" y2="267.818" gradientUnits="userSpaceOnUse">
<stop stop-color="#F7DD43"/>
<stop offset="1" stop-color="#F7DD43" stop-opacity="0"/>
</linearGradient>
</defs>
</svg>
