<svg width="1024" height="1440" viewBox="0 0 1024 1440" fill="none" xmlns="http://www.w3.org/2000/svg">
<g clip-path="url(#clip0_422_1261)">
<rect width="1024" height="1440" fill="#121214"/>
<g opacity="0.2" filter="url(#filter0_f_422_1261)">
<ellipse cx="512.5" cy="34" rx="670.5" ry="350" fill="#EDC7D1"/>
</g>
<path d="M51.0349 377C52.5302 377 53.6622 377.63 54.4308 378.891C55.2134 380.138 55.6047 381.953 55.6047 384.336C55.6047 386.719 55.2134 388.541 54.4308 389.802C53.6622 391.063 52.5302 391.693 51.0349 391.693C49.5536 391.693 48.4216 391.063 47.639 389.802C46.8564 388.541 46.4651 386.719 46.4651 384.336C46.4651 381.967 46.8564 380.152 47.639 378.891C48.4216 377.63 49.5536 377 51.0349 377ZM47.9534 384.336C47.9534 386.026 48.1072 387.35 48.4146 388.306L53.0683 379.099C52.5791 378.448 51.9013 378.122 51.0349 378.122C50.0706 378.122 49.316 378.635 48.771 379.66C48.2259 380.672 47.9534 382.23 47.9534 384.336ZM51.0349 390.55C52.0131 390.55 52.7748 390.044 53.3198 389.033C53.8648 388.008 54.1373 386.442 54.1373 384.336C54.1373 382.549 53.9627 381.163 53.6133 380.18L48.9596 389.469C49.4627 390.19 50.1545 390.55 51.0349 390.55Z" fill="url(#paint0_linear_422_1261)"/>
<path d="M52.2926 414.135H55.3741V415.236H47.3874V414.135H50.9511V402.455L47.5551 404.471L46.9682 403.536L51.1607 400.959H52.2926V414.135Z" fill="url(#paint1_linear_422_1261)"/>
<path d="M51.0349 424.502C52.5302 424.502 53.6622 425.133 54.4308 426.393C55.2134 427.64 55.6047 429.455 55.6047 431.838C55.6047 434.221 55.2134 436.043 54.4308 437.304C53.6622 438.565 52.5302 439.195 51.0349 439.195C49.5536 439.195 48.4216 438.565 47.639 437.304C46.8564 436.043 46.4651 434.221 46.4651 431.838C46.4651 429.469 46.8564 427.654 47.639 426.393C48.4216 425.133 49.5536 424.502 51.0349 424.502ZM47.9534 431.838C47.9534 433.529 48.1072 434.852 48.4146 435.808L53.0683 426.601C52.5791 425.95 51.9013 425.624 51.0349 425.624C50.0706 425.624 49.316 426.137 48.771 427.162C48.2259 428.174 47.9534 429.732 47.9534 431.838ZM51.0349 438.052C52.0131 438.052 52.7748 437.546 53.3198 436.535C53.8648 435.51 54.1373 433.944 54.1373 431.838C54.1373 430.051 53.9627 428.665 53.6133 427.682L48.9596 436.971C49.4627 437.692 50.1545 438.052 51.0349 438.052Z" fill="url(#paint2_linear_422_1261)"/>
<path d="M52.2926 461.637H55.3741V462.738H47.3874V461.637H50.9511V449.957L47.5551 451.973L46.9682 451.038L51.1607 448.461H52.2926V461.637Z" fill="url(#paint3_linear_422_1261)"/>
<path d="M52.2926 485.388H55.3741V486.489H47.3874V485.388H50.9511V473.708L47.5551 475.724L46.9682 474.789L51.1607 472.212H52.2926V485.388Z" fill="url(#paint4_linear_422_1261)"/>
<path d="M51.0349 495.755C52.5302 495.755 53.6622 496.386 54.4308 497.646C55.2134 498.893 55.6047 500.708 55.6047 503.091C55.6047 505.474 55.2134 507.296 54.4308 508.557C53.6622 509.818 52.5302 510.448 51.0349 510.448C49.5536 510.448 48.4216 509.818 47.639 508.557C46.8564 507.296 46.4651 505.474 46.4651 503.091C46.4651 500.722 46.8564 498.907 47.639 497.646C48.4216 496.386 49.5536 495.755 51.0349 495.755ZM47.9534 503.091C47.9534 504.782 48.1072 506.105 48.4146 507.061L53.0683 497.854C52.5791 497.203 51.9013 496.878 51.0349 496.878C50.0706 496.878 49.316 497.39 48.771 498.415C48.2259 499.427 47.9534 500.985 47.9534 503.091ZM51.0349 509.305C52.0131 509.305 52.7748 508.8 53.3198 507.788C53.8648 506.763 54.1373 505.197 54.1373 503.091C54.1373 501.304 53.9627 499.919 53.6133 498.935L48.9596 508.225C49.4627 508.945 50.1545 509.305 51.0349 509.305Z" fill="url(#paint5_linear_422_1261)"/>
<path d="M52.2926 532.89H55.3741V533.992H47.3874V532.89H50.9511V521.21L47.5551 523.226L46.9682 522.291L51.1607 519.714H52.2926V532.89Z" fill="url(#paint6_linear_422_1261)"/>
<path d="M51.0349 543.257C52.5302 543.257 53.6622 543.888 54.4308 545.149C55.2134 546.396 55.6047 548.21 55.6047 550.594C55.6047 552.977 55.2134 554.798 54.4308 556.059C53.6622 557.32 52.5302 557.95 51.0349 557.95C49.5536 557.95 48.4216 557.32 47.639 556.059C46.8564 554.798 46.4651 552.977 46.4651 550.594C46.4651 548.224 46.8564 546.409 47.639 545.149C48.4216 543.888 49.5536 543.257 51.0349 543.257ZM47.9534 550.594C47.9534 552.284 48.1072 553.607 48.4146 554.563L53.0683 545.356C52.5791 544.705 51.9013 544.38 51.0349 544.38C50.0706 544.38 49.316 544.892 48.771 545.918C48.2259 546.929 47.9534 548.488 47.9534 550.594ZM51.0349 556.807C52.0131 556.807 52.7748 556.302 53.3198 555.29C53.8648 554.265 54.1373 552.699 54.1373 550.594C54.1373 548.806 53.9627 547.421 53.6133 546.437L48.9596 555.727C49.4627 556.447 50.1545 556.807 51.0349 556.807Z" fill="url(#paint7_linear_422_1261)"/>
<path d="M51.0349 567.008C52.5302 567.008 53.6622 567.639 54.4308 568.9C55.2134 570.147 55.6047 571.962 55.6047 574.345C55.6047 576.728 55.2134 578.549 54.4308 579.81C53.6622 581.071 52.5302 581.701 51.0349 581.701C49.5536 581.701 48.4216 581.071 47.639 579.81C46.8564 578.549 46.4651 576.728 46.4651 574.345C46.4651 571.975 46.8564 570.16 47.639 568.9C48.4216 567.639 49.5536 567.008 51.0349 567.008ZM47.9534 574.345C47.9534 576.035 48.1072 577.358 48.4146 578.314L53.0683 569.107C52.5791 568.456 51.9013 568.131 51.0349 568.131C50.0706 568.131 49.316 568.643 48.771 569.669C48.2259 570.68 47.9534 572.239 47.9534 574.345ZM51.0349 580.558C52.0131 580.558 52.7748 580.053 53.3198 579.041C53.8648 578.016 54.1373 576.451 54.1373 574.345C54.1373 572.557 53.9627 571.172 53.6133 570.188L48.9596 579.478C49.4627 580.198 50.1545 580.558 51.0349 580.558Z" fill="url(#paint8_linear_422_1261)"/>
<path d="M52.2926 604.143H55.3741V605.245H47.3874V604.143H50.9511V592.464L47.5551 594.48L46.9682 593.544L51.1607 590.967H52.2926V604.143Z" fill="url(#paint9_linear_422_1261)"/>
<path d="M51.0349 614.511C52.5302 614.511 53.6622 615.141 54.4308 616.402C55.2134 617.649 55.6047 619.464 55.6047 621.847C55.6047 624.23 55.2134 626.052 54.4308 627.312C53.6622 628.573 52.5302 629.204 51.0349 629.204C49.5536 629.204 48.4216 628.573 47.639 627.312C46.8564 626.052 46.4651 624.23 46.4651 621.847C46.4651 619.478 46.8564 617.663 47.639 616.402C48.4216 615.141 49.5536 614.511 51.0349 614.511ZM47.9534 621.847C47.9534 623.537 48.1072 624.86 48.4146 625.816L53.0683 616.61C52.5791 615.958 51.9013 615.633 51.0349 615.633C50.0706 615.633 49.316 616.145 48.771 617.171C48.2259 618.182 47.9534 619.741 47.9534 621.847ZM51.0349 628.061C52.0131 628.061 52.7748 627.555 53.3198 626.543C53.8648 625.518 54.1373 623.953 54.1373 621.847C54.1373 620.059 53.9627 618.674 53.6133 617.69L48.9596 626.98C49.4627 627.7 50.1545 628.061 51.0349 628.061Z" fill="url(#paint10_linear_422_1261)"/>
<path d="M52.2926 651.645H55.3741V652.747H47.3874V651.645H50.9511V639.966L47.5551 641.982L46.9682 641.046L51.1607 638.469H52.2926V651.645Z" fill="url(#paint11_linear_422_1261)"/>
<path d="M52.2926 675.396H55.3741V676.498H47.3874V675.396H50.9511V663.717L47.5551 665.733L46.9682 664.798L51.1607 662.221H52.2926V675.396Z" fill="url(#paint12_linear_422_1261)"/>
<path d="M89.9651 424.502C91.4604 424.502 92.5924 425.133 93.361 426.393C94.1436 427.64 94.5349 429.455 94.5349 431.838C94.5349 434.221 94.1436 436.043 93.361 437.304C92.5924 438.565 91.4604 439.195 89.9651 439.195C88.4838 439.195 87.3518 438.565 86.5692 437.304C85.7866 436.043 85.3953 434.221 85.3953 431.838C85.3953 429.469 85.7866 427.654 86.5692 426.393C87.3518 425.133 88.4838 424.502 89.9651 424.502ZM86.8836 431.838C86.8836 433.529 87.0374 434.852 87.3448 435.808L91.9985 426.601C91.5093 425.95 90.8315 425.624 89.9651 425.624C89.0008 425.624 88.2462 426.137 87.7012 427.162C87.1561 428.174 86.8836 429.732 86.8836 431.838ZM89.9651 438.052C90.9433 438.052 91.705 437.546 92.25 436.535C92.795 435.51 93.0675 433.944 93.0675 431.838C93.0675 430.051 92.8928 428.665 92.5435 427.682L87.8898 436.971C88.3929 437.692 89.0847 438.052 89.9651 438.052Z" fill="url(#paint13_linear_422_1261)"/>
<path d="M91.2228 461.637H94.3043V462.738H86.3176V461.637H89.8812V449.957L86.4853 451.973L85.8984 451.038L90.0909 448.461H91.2228V461.637Z" fill="url(#paint14_linear_422_1261)"/>
<path d="M89.9651 472.004C91.4604 472.004 92.5924 472.635 93.361 473.895C94.1436 475.142 94.5349 476.957 94.5349 479.34C94.5349 481.723 94.1436 483.545 93.361 484.806C92.5924 486.067 91.4604 486.697 89.9651 486.697C88.4838 486.697 87.3518 486.067 86.5692 484.806C85.7866 483.545 85.3953 481.723 85.3953 479.34C85.3953 476.971 85.7866 475.156 86.5692 473.895C87.3518 472.635 88.4838 472.004 89.9651 472.004ZM86.8836 479.34C86.8836 481.031 87.0374 482.354 87.3448 483.31L91.9985 474.103C91.5093 473.452 90.8315 473.126 89.9651 473.126C89.0008 473.126 88.2462 473.639 87.7012 474.664C87.1561 475.676 86.8836 477.234 86.8836 479.34ZM89.9651 485.554C90.9433 485.554 91.705 485.049 92.25 484.037C92.795 483.012 93.0675 481.446 93.0675 479.34C93.0675 477.553 92.8928 476.168 92.5435 475.184L87.8898 484.474C88.3929 485.194 89.0847 485.554 89.9651 485.554Z" fill="url(#paint15_linear_422_1261)"/>
<path d="M89.9651 495.755C91.4604 495.755 92.5924 496.386 93.361 497.646C94.1436 498.893 94.5349 500.708 94.5349 503.091C94.5349 505.474 94.1436 507.296 93.361 508.557C92.5924 509.818 91.4604 510.448 89.9651 510.448C88.4838 510.448 87.3518 509.818 86.5692 508.557C85.7866 507.296 85.3953 505.474 85.3953 503.091C85.3953 500.722 85.7866 498.907 86.5692 497.646C87.3518 496.386 88.4838 495.755 89.9651 495.755ZM86.8836 503.091C86.8836 504.782 87.0374 506.105 87.3448 507.061L91.9985 497.854C91.5093 497.203 90.8315 496.878 89.9651 496.878C89.0008 496.878 88.2462 497.39 87.7012 498.415C87.1561 499.427 86.8836 500.985 86.8836 503.091ZM89.9651 509.305C90.9433 509.305 91.705 508.8 92.25 507.788C92.795 506.763 93.0675 505.197 93.0675 503.091C93.0675 501.304 92.8928 499.919 92.5435 498.935L87.8898 508.225C88.3929 508.945 89.0847 509.305 89.9651 509.305Z" fill="url(#paint16_linear_422_1261)"/>
<path d="M91.2228 532.89H94.3043V533.992H86.3176V532.89H89.8812V521.21L86.4853 523.226L85.8984 522.291L90.0909 519.714H91.2228V532.89Z" fill="url(#paint17_linear_422_1261)"/>
<path d="M89.9651 543.257C91.4604 543.257 92.5924 543.888 93.361 545.149C94.1436 546.396 94.5349 548.21 94.5349 550.594C94.5349 552.977 94.1436 554.798 93.361 556.059C92.5924 557.32 91.4604 557.95 89.9651 557.95C88.4838 557.95 87.3518 557.32 86.5692 556.059C85.7866 554.798 85.3953 552.977 85.3953 550.594C85.3953 548.224 85.7866 546.409 86.5692 545.149C87.3518 543.888 88.4838 543.257 89.9651 543.257ZM86.8836 550.594C86.8836 552.284 87.0374 553.607 87.3448 554.563L91.9985 545.356C91.5093 544.705 90.8315 544.38 89.9651 544.38C89.0008 544.38 88.2462 544.892 87.7012 545.918C87.1561 546.929 86.8836 548.488 86.8836 550.594ZM89.9651 556.807C90.9433 556.807 91.705 556.302 92.25 555.29C92.795 554.265 93.0675 552.699 93.0675 550.594C93.0675 548.806 92.8928 547.421 92.5435 546.437L87.8898 555.727C88.3929 556.447 89.0847 556.807 89.9651 556.807Z" fill="url(#paint18_linear_422_1261)"/>
<path d="M91.2228 580.392H94.3043V581.494H86.3176V580.392H89.8812V568.713L86.4853 570.728L85.8984 569.793L90.0909 567.216H91.2228V580.392Z" fill="url(#paint19_linear_422_1261)"/>
<path d="M89.9651 590.76C91.4604 590.76 92.5924 591.39 93.361 592.651C94.1436 593.898 94.5349 595.713 94.5349 598.096C94.5349 600.479 94.1436 602.301 93.361 603.561C92.5924 604.822 91.4604 605.453 89.9651 605.453C88.4838 605.453 87.3518 604.822 86.5692 603.561C85.7866 602.301 85.3953 600.479 85.3953 598.096C85.3953 595.726 85.7866 593.911 86.5692 592.651C87.3518 591.39 88.4838 590.76 89.9651 590.76ZM86.8836 598.096C86.8836 599.786 87.0374 601.109 87.3448 602.065L91.9985 592.859C91.5093 592.207 90.8315 591.882 89.9651 591.882C89.0008 591.882 88.2462 592.394 87.7012 593.42C87.1561 594.431 86.8836 595.99 86.8836 598.096ZM89.9651 604.31C90.9433 604.31 91.705 603.804 92.25 602.792C92.795 601.767 93.0675 600.202 93.0675 598.096C93.0675 596.308 92.8928 594.923 92.5435 593.939L87.8898 603.229C88.3929 603.949 89.0847 604.31 89.9651 604.31Z" fill="url(#paint20_linear_422_1261)"/>
<path d="M89.9651 614.511C91.4604 614.511 92.5924 615.141 93.361 616.402C94.1436 617.649 94.5349 619.464 94.5349 621.847C94.5349 624.23 94.1436 626.052 93.361 627.312C92.5924 628.573 91.4604 629.204 89.9651 629.204C88.4838 629.204 87.3518 628.573 86.5692 627.312C85.7866 626.052 85.3953 624.23 85.3953 621.847C85.3953 619.478 85.7866 617.663 86.5692 616.402C87.3518 615.141 88.4838 614.511 89.9651 614.511ZM86.8836 621.847C86.8836 623.537 87.0374 624.86 87.3448 625.816L91.9985 616.61C91.5093 615.958 90.8315 615.633 89.9651 615.633C89.0008 615.633 88.2462 616.145 87.7012 617.171C87.1561 618.182 86.8836 619.741 86.8836 621.847ZM89.9651 628.061C90.9433 628.061 91.705 627.555 92.25 626.543C92.795 625.518 93.0675 623.953 93.0675 621.847C93.0675 620.059 92.8928 618.674 92.5435 617.69L87.8898 626.98C88.3929 627.7 89.0847 628.061 89.9651 628.061Z" fill="url(#paint21_linear_422_1261)"/>
<path d="M91.2228 651.645H94.3043V652.747H86.3176V651.645H89.8812V639.966L86.4853 641.982L85.8984 641.046L90.0909 638.469H91.2228V651.645Z" fill="url(#paint22_linear_422_1261)"/>
<path d="M89.9651 662.013C91.4604 662.013 92.5924 662.643 93.361 663.904C94.1436 665.151 94.5349 666.966 94.5349 669.349C94.5349 671.732 94.1436 673.554 93.361 674.815C92.5924 676.075 91.4604 676.706 89.9651 676.706C88.4838 676.706 87.3518 676.075 86.5692 674.815C85.7866 673.554 85.3953 671.732 85.3953 669.349C85.3953 666.98 85.7866 665.165 86.5692 663.904C87.3518 662.643 88.4838 662.013 89.9651 662.013ZM86.8836 669.349C86.8836 671.039 87.0374 672.362 87.3448 673.318L91.9985 664.112C91.5093 663.461 90.8315 663.135 89.9651 663.135C89.0008 663.135 88.2462 663.648 87.7012 664.673C87.1561 665.684 86.8836 667.243 86.8836 669.349ZM89.9651 675.563C90.9433 675.563 91.705 675.057 92.25 674.046C92.795 673.02 93.0675 671.455 93.0675 669.349C93.0675 667.562 92.8928 666.176 92.5435 665.192L87.8898 674.482C88.3929 675.202 89.0847 675.563 89.9651 675.563Z" fill="url(#paint23_linear_422_1261)"/>
<path d="M91.2228 699.147H94.3043V700.249H86.3176V699.147H89.8812V687.468L86.4853 689.484L85.8984 688.549L90.0909 685.972H91.2228V699.147Z" fill="url(#paint24_linear_422_1261)"/>
<path d="M91.2228 722.899H94.3043V724H86.3176V722.899H89.8812V711.219L86.4853 713.235L85.8984 712.3L90.0909 709.723H91.2228V722.899Z" fill="url(#paint25_linear_422_1261)"/>
<path d="M31.5698 448.253C33.0651 448.253 34.1971 448.884 34.9657 450.144C35.7483 451.391 36.1396 453.206 36.1396 455.589C36.1396 457.972 35.7483 459.794 34.9657 461.055C34.1971 462.316 33.0651 462.946 31.5698 462.946C30.0885 462.946 28.9565 462.316 28.1739 461.055C27.3913 459.794 27 457.972 27 455.589C27 453.22 27.3913 451.405 28.1739 450.144C28.9565 448.884 30.0885 448.253 31.5698 448.253ZM28.4883 455.589C28.4883 457.28 28.6421 458.603 28.9495 459.559L33.6032 450.352C33.114 449.701 32.4363 449.375 31.5698 449.375C30.6055 449.375 29.8509 449.888 29.3059 450.913C28.7608 451.925 28.4883 453.483 28.4883 455.589ZM31.5698 461.803C32.5481 461.803 33.3097 461.297 33.8547 460.286C34.3997 459.261 34.6722 457.695 34.6722 455.589C34.6722 453.802 34.4976 452.417 34.1482 451.433L29.4945 460.722C29.9976 461.443 30.6894 461.803 31.5698 461.803Z" fill="url(#paint26_linear_422_1261)"/>
<path d="M31.5698 472.004C33.0651 472.004 34.1971 472.635 34.9657 473.895C35.7483 475.142 36.1396 476.957 36.1396 479.34C36.1396 481.723 35.7483 483.545 34.9657 484.806C34.1971 486.067 33.0651 486.697 31.5698 486.697C30.0885 486.697 28.9565 486.067 28.1739 484.806C27.3913 483.545 27 481.723 27 479.34C27 476.971 27.3913 475.156 28.1739 473.895C28.9565 472.635 30.0885 472.004 31.5698 472.004ZM28.4883 479.34C28.4883 481.031 28.6421 482.354 28.9495 483.31L33.6032 474.103C33.114 473.452 32.4363 473.126 31.5698 473.126C30.6055 473.126 29.8509 473.639 29.3059 474.664C28.7608 475.676 28.4883 477.234 28.4883 479.34ZM31.5698 485.554C32.5481 485.554 33.3097 485.049 33.8547 484.037C34.3997 483.012 34.6722 481.446 34.6722 479.34C34.6722 477.553 34.4976 476.168 34.1482 475.184L29.4945 484.474C29.9976 485.194 30.6894 485.554 31.5698 485.554Z" fill="url(#paint27_linear_422_1261)"/>
<path d="M32.8276 509.139H35.909V510.24H27.9223V509.139H31.486V497.459L28.09 499.475L27.5031 498.54L31.6956 495.963H32.8276V509.139Z" fill="url(#paint28_linear_422_1261)"/>
<path d="M31.5698 519.506C33.0651 519.506 34.1971 520.137 34.9657 521.398C35.7483 522.644 36.1396 524.459 36.1396 526.842C36.1396 529.225 35.7483 531.047 34.9657 532.308C34.1971 533.569 33.0651 534.199 31.5698 534.199C30.0885 534.199 28.9565 533.569 28.1739 532.308C27.3913 531.047 27 529.225 27 526.842C27 524.473 27.3913 522.658 28.1739 521.398C28.9565 520.137 30.0885 519.506 31.5698 519.506ZM28.4883 526.842C28.4883 528.533 28.6421 529.856 28.9495 530.812L33.6032 521.605C33.114 520.954 32.4363 520.629 31.5698 520.629C30.6055 520.629 29.8509 521.141 29.3059 522.166C28.7608 523.178 28.4883 524.737 28.4883 526.842ZM31.5698 533.056C32.5481 533.056 33.3097 532.551 33.8547 531.539C34.3997 530.514 34.6722 528.948 34.6722 526.842C34.6722 525.055 34.4976 523.67 34.1482 522.686L29.4945 531.976C29.9976 532.696 30.6894 533.056 31.5698 533.056Z" fill="url(#paint29_linear_422_1261)"/>
<path d="M32.8276 556.641H35.909V557.743H27.9223V556.641H31.486V544.962L28.09 546.977L27.5031 546.042L31.6956 543.465H32.8276V556.641Z" fill="url(#paint30_linear_422_1261)"/>
<path d="M32.8276 580.392H35.909V581.494H27.9223V580.392H31.486V568.713L28.09 570.728L27.5031 569.793L31.6956 567.216H32.8276V580.392Z" fill="url(#paint31_linear_422_1261)"/>
<path d="M71.7577 414.135H74.8392V415.236H66.8525V414.135H70.4162V402.455L67.0202 404.471L66.4333 403.536L70.6258 400.959H71.7577V414.135Z" fill="url(#paint32_linear_422_1261)"/>
<path d="M70.5 424.502C71.9953 424.502 73.1273 425.133 73.8959 426.393C74.6785 427.64 75.0698 429.455 75.0698 431.838C75.0698 434.221 74.6785 436.043 73.8959 437.304C73.1273 438.565 71.9953 439.195 70.5 439.195C69.0187 439.195 67.8867 438.565 67.1041 437.304C66.3215 436.043 65.9302 434.221 65.9302 431.838C65.9302 429.469 66.3215 427.654 67.1041 426.393C67.8867 425.133 69.0187 424.502 70.5 424.502ZM67.4185 431.838C67.4185 433.529 67.5723 434.852 67.8797 435.808L72.5334 426.601C72.0442 425.95 71.3664 425.624 70.5 425.624C69.5357 425.624 68.7811 426.137 68.2361 427.162C67.691 428.174 67.4185 429.732 67.4185 431.838ZM70.5 438.052C71.4782 438.052 72.2399 437.546 72.7849 436.535C73.3299 435.51 73.6024 433.944 73.6024 431.838C73.6024 430.051 73.4278 428.665 73.0784 427.682L68.4247 436.971C68.9278 437.692 69.6196 438.052 70.5 438.052Z" fill="url(#paint33_linear_422_1261)"/>
<path d="M71.7577 461.637H74.8392V462.738H66.8525V461.637H70.4162V449.957L67.0202 451.973L66.4333 451.038L70.6258 448.461H71.7577V461.637Z" fill="url(#paint34_linear_422_1261)"/>
<path d="M71.7577 485.388H74.8392V486.489H66.8525V485.388H70.4162V473.708L67.0202 475.724L66.4333 474.789L70.6258 472.212H71.7577V485.388Z" fill="url(#paint35_linear_422_1261)"/>
<path d="M70.5 495.755C71.9953 495.755 73.1273 496.386 73.8959 497.646C74.6785 498.893 75.0698 500.708 75.0698 503.091C75.0698 505.474 74.6785 507.296 73.8959 508.557C73.1273 509.818 71.9953 510.448 70.5 510.448C69.0187 510.448 67.8867 509.818 67.1041 508.557C66.3215 507.296 65.9302 505.474 65.9302 503.091C65.9302 500.722 66.3215 498.907 67.1041 497.646C67.8867 496.386 69.0187 495.755 70.5 495.755ZM67.4185 503.091C67.4185 504.782 67.5723 506.105 67.8797 507.061L72.5334 497.854C72.0442 497.203 71.3664 496.878 70.5 496.878C69.5357 496.878 68.7811 497.39 68.2361 498.415C67.691 499.427 67.4185 500.985 67.4185 503.091ZM70.5 509.305C71.4782 509.305 72.2399 508.8 72.7849 507.788C73.3299 506.763 73.6024 505.197 73.6024 503.091C73.6024 501.304 73.4278 499.919 73.0784 498.935L68.4247 508.225C68.9278 508.945 69.6196 509.305 70.5 509.305Z" fill="url(#paint36_linear_422_1261)"/>
<path d="M71.7577 532.89H74.8392V533.992H66.8525V532.89H70.4162V521.21L67.0202 523.226L66.4333 522.291L70.6258 519.714H71.7577V532.89Z" fill="url(#paint37_linear_422_1261)"/>
<path d="M71.7577 556.641H74.8392V557.743H66.8525V556.641H70.4162V544.962L67.0202 546.977L66.4333 546.042L70.6258 543.465H71.7577V556.641Z" fill="url(#paint38_linear_422_1261)"/>
<path d="M70.5 567.008C71.9953 567.008 73.1273 567.639 73.8959 568.9C74.6785 570.147 75.0698 571.962 75.0698 574.345C75.0698 576.728 74.6785 578.549 73.8959 579.81C73.1273 581.071 71.9953 581.701 70.5 581.701C69.0187 581.701 67.8867 581.071 67.1041 579.81C66.3215 578.549 65.9302 576.728 65.9302 574.345C65.9302 571.975 66.3215 570.16 67.1041 568.9C67.8867 567.639 69.0187 567.008 70.5 567.008ZM67.4185 574.345C67.4185 576.035 67.5723 577.358 67.8797 578.314L72.5334 569.107C72.0442 568.456 71.3664 568.131 70.5 568.131C69.5357 568.131 68.7811 568.643 68.2361 569.669C67.691 570.68 67.4185 572.239 67.4185 574.345ZM70.5 580.558C71.4782 580.558 72.2399 580.053 72.7849 579.041C73.3299 578.016 73.6024 576.451 73.6024 574.345C73.6024 572.557 73.4278 571.172 73.0784 570.188L68.4247 579.478C68.9278 580.198 69.6196 580.558 70.5 580.558Z" fill="url(#paint39_linear_422_1261)"/>
<path d="M71.7577 604.143H74.8392V605.245H66.8525V604.143H70.4162V592.464L67.0202 594.48L66.4333 593.544L70.6258 590.967H71.7577V604.143Z" fill="url(#paint40_linear_422_1261)"/>
<path d="M70.5 614.511C71.9953 614.511 73.1273 615.141 73.8959 616.402C74.6785 617.649 75.0698 619.464 75.0698 621.847C75.0698 624.23 74.6785 626.052 73.8959 627.312C73.1273 628.573 71.9953 629.204 70.5 629.204C69.0187 629.204 67.8867 628.573 67.1041 627.312C66.3215 626.052 65.9302 624.23 65.9302 621.847C65.9302 619.478 66.3215 617.663 67.1041 616.402C67.8867 615.141 69.0187 614.511 70.5 614.511ZM67.4185 621.847C67.4185 623.537 67.5723 624.86 67.8797 625.816L72.5334 616.61C72.0442 615.958 71.3664 615.633 70.5 615.633C69.5357 615.633 68.7811 616.145 68.2361 617.171C67.691 618.182 67.4185 619.741 67.4185 621.847ZM70.5 628.061C71.4782 628.061 72.2399 627.555 72.7849 626.543C73.3299 625.518 73.6024 623.953 73.6024 621.847C73.6024 620.059 73.4278 618.674 73.0784 617.69L68.4247 626.98C68.9278 627.7 69.6196 628.061 70.5 628.061Z" fill="url(#paint41_linear_422_1261)"/>
<path d="M109.43 400.751C110.926 400.751 112.057 401.381 112.826 402.642C113.609 403.889 114 405.704 114 408.087C114 410.47 113.609 412.292 112.826 413.553C112.057 414.814 110.926 415.444 109.43 415.444C107.949 415.444 106.817 414.814 106.034 413.553C105.252 412.292 104.86 410.47 104.86 408.087C104.86 405.718 105.252 403.903 106.034 402.642C106.817 401.381 107.949 400.751 109.43 400.751ZM106.349 408.087C106.349 409.777 106.502 411.101 106.81 412.057L111.464 402.85C110.974 402.199 110.297 401.873 109.43 401.873C108.466 401.873 107.711 402.386 107.166 403.411C106.621 404.423 106.349 405.981 106.349 408.087ZM109.43 414.301C110.408 414.301 111.17 413.795 111.715 412.784C112.26 411.759 112.533 410.193 112.533 408.087C112.533 406.3 112.358 404.914 112.009 403.931L107.355 413.22C107.858 413.941 108.55 414.301 109.43 414.301Z" fill="url(#paint42_linear_422_1261)"/>
<path d="M110.688 437.886H113.769V438.987H105.783V437.886H109.346V426.206L105.95 428.222L105.363 427.287L109.556 424.71H110.688V437.886Z" fill="url(#paint43_linear_422_1261)"/>
<path d="M110.688 461.637H113.769V462.738H105.783V461.637H109.346V449.957L105.95 451.973L105.363 451.038L109.556 448.461H110.688V461.637Z" fill="url(#paint44_linear_422_1261)"/>
<path d="M109.43 472.004C110.926 472.004 112.057 472.635 112.826 473.895C113.609 475.142 114 476.957 114 479.34C114 481.723 113.609 483.545 112.826 484.806C112.057 486.067 110.926 486.697 109.43 486.697C107.949 486.697 106.817 486.067 106.034 484.806C105.252 483.545 104.86 481.723 104.86 479.34C104.86 476.971 105.252 475.156 106.034 473.895C106.817 472.635 107.949 472.004 109.43 472.004ZM106.349 479.34C106.349 481.031 106.502 482.354 106.81 483.31L111.464 474.103C110.974 473.452 110.297 473.126 109.43 473.126C108.466 473.126 107.711 473.639 107.166 474.664C106.621 475.676 106.349 477.234 106.349 479.34ZM109.43 485.554C110.408 485.554 111.17 485.049 111.715 484.037C112.26 483.012 112.533 481.446 112.533 479.34C112.533 477.553 112.358 476.168 112.009 475.184L107.355 484.474C107.858 485.194 108.55 485.554 109.43 485.554Z" fill="url(#paint45_linear_422_1261)"/>
<path d="M109.43 495.755C110.926 495.755 112.057 496.386 112.826 497.646C113.609 498.893 114 500.708 114 503.091C114 505.474 113.609 507.296 112.826 508.557C112.057 509.818 110.926 510.448 109.43 510.448C107.949 510.448 106.817 509.818 106.034 508.557C105.252 507.296 104.86 505.474 104.86 503.091C104.86 500.722 105.252 498.907 106.034 497.646C106.817 496.386 107.949 495.755 109.43 495.755ZM106.349 503.091C106.349 504.782 106.502 506.105 106.81 507.061L111.464 497.854C110.974 497.203 110.297 496.878 109.43 496.878C108.466 496.878 107.711 497.39 107.166 498.415C106.621 499.427 106.349 500.985 106.349 503.091ZM109.43 509.305C110.408 509.305 111.17 508.8 111.715 507.788C112.26 506.763 112.533 505.197 112.533 503.091C112.533 501.304 112.358 499.919 112.009 498.935L107.355 508.225C107.858 508.945 108.55 509.305 109.43 509.305Z" fill="url(#paint46_linear_422_1261)"/>
<g opacity="0.6">
<path d="M937.93 66C939.356 66 940.436 66.6031 941.17 67.8094C941.916 69.0025 942.29 70.739 942.29 73.019C942.29 75.299 941.916 77.0421 941.17 78.2484C940.436 79.4547 939.356 80.0579 937.93 80.0579C936.517 80.0579 935.437 79.4547 934.69 78.2484C933.943 77.0421 933.57 75.299 933.57 73.019C933.57 70.7522 933.943 69.0157 934.69 67.8094C935.437 66.6031 936.517 66 937.93 66ZM934.99 73.019C934.99 74.6362 935.137 75.9021 935.43 76.8168L939.87 68.0083C939.403 67.3852 938.756 67.0737 937.93 67.0737C937.01 67.0737 936.29 67.5642 935.77 68.5451C935.25 69.5128 934.99 71.0041 934.99 73.019ZM937.93 78.9642C938.863 78.9642 939.59 78.4804 940.11 77.5127C940.63 76.5318 940.89 75.0339 940.89 73.019C940.89 71.309 940.723 69.9834 940.39 69.0422L935.95 77.9303C936.43 78.6196 937.09 78.9642 937.93 78.9642Z" fill="url(#paint47_linear_422_1261)"/>
<path d="M939.13 101.53H942.07V102.583H934.45V101.53H937.85V90.3548L934.61 92.2836L934.05 91.3888L938.05 88.9232H939.13V101.53Z" fill="url(#paint48_linear_422_1261)"/>
<path d="M937.93 111.449C939.356 111.449 940.436 112.052 941.17 113.258C941.916 114.451 942.29 116.188 942.29 118.468C942.29 120.748 941.916 122.491 941.17 123.697C940.436 124.903 939.356 125.507 937.93 125.507C936.517 125.507 935.437 124.903 934.69 123.697C933.943 122.491 933.57 120.748 933.57 118.468C933.57 116.201 933.943 114.464 934.69 113.258C935.437 112.052 936.517 111.449 937.93 111.449ZM934.99 118.468C934.99 120.085 935.137 121.351 935.43 122.266L939.87 113.457C939.403 112.834 938.756 112.522 937.93 112.522C937.01 112.522 936.29 113.013 935.77 113.994C935.25 114.962 934.99 116.453 934.99 118.468ZM937.93 124.413C938.863 124.413 939.59 123.929 940.11 122.961C940.63 121.981 940.89 120.483 940.89 118.468C940.89 116.758 940.723 115.432 940.39 114.491L935.95 123.379C936.43 124.068 937.09 124.413 937.93 124.413Z" fill="url(#paint49_linear_422_1261)"/>
<path d="M939.13 146.978H942.07V148.032H934.45V146.978H937.85V135.804L934.61 137.732L934.05 136.838L938.05 134.372H939.13V146.978Z" fill="url(#paint50_linear_422_1261)"/>
<path d="M939.13 169.703H942.07V170.756H934.45V169.703H937.85V158.528L934.61 160.457L934.05 159.562L938.05 157.096H939.13V169.703Z" fill="url(#paint51_linear_422_1261)"/>
<path d="M937.93 179.622C939.356 179.622 940.436 180.225 941.17 181.431C941.916 182.624 942.29 184.361 942.29 186.641C942.29 188.921 941.916 190.664 941.17 191.87C940.436 193.077 939.356 193.68 937.93 193.68C936.517 193.68 935.437 193.077 934.69 191.87C933.943 190.664 933.57 188.921 933.57 186.641C933.57 184.374 933.943 182.637 934.69 181.431C935.437 180.225 936.517 179.622 937.93 179.622ZM934.99 186.641C934.99 188.258 935.137 189.524 935.43 190.439L939.87 181.63C939.403 181.007 938.756 180.696 937.93 180.696C937.01 180.696 936.29 181.186 935.77 182.167C935.25 183.135 934.99 184.626 934.99 186.641ZM937.93 192.586C938.863 192.586 939.59 192.102 940.11 191.135C940.63 190.154 940.89 188.656 940.89 186.641C940.89 184.931 940.723 183.605 940.39 182.664L935.95 191.552C936.43 192.241 937.09 192.586 937.93 192.586Z" fill="url(#paint52_linear_422_1261)"/>
<path d="M939.13 215.151H942.07V216.205H934.45V215.151H937.85V203.977L934.61 205.905L934.05 205.011L938.05 202.545H939.13V215.151Z" fill="url(#paint53_linear_422_1261)"/>
<path d="M937.93 225.07C939.356 225.07 940.436 225.674 941.17 226.88C941.916 228.073 942.29 229.809 942.29 232.089C942.29 234.37 941.916 236.113 941.17 237.319C940.436 238.525 939.356 239.128 937.93 239.128C936.517 239.128 935.437 238.525 934.69 237.319C933.943 236.113 933.57 234.37 933.57 232.089C933.57 229.823 933.943 228.086 934.69 226.88C935.437 225.674 936.517 225.07 937.93 225.07ZM934.99 232.089C934.99 233.707 935.137 234.973 935.43 235.887L939.87 227.079C939.403 226.456 938.756 226.144 937.93 226.144C937.01 226.144 936.29 226.635 935.77 227.616C935.25 228.583 934.99 230.075 934.99 232.089ZM937.93 238.035C938.863 238.035 939.59 237.551 940.11 236.583C940.63 235.602 940.89 234.104 940.89 232.089C940.89 230.379 940.723 229.054 940.39 228.113L935.95 237.001C936.43 237.69 937.09 238.035 937.93 238.035Z" fill="url(#paint54_linear_422_1261)"/>
<path d="M937.93 247.795C939.356 247.795 940.436 248.398 941.17 249.604C941.916 250.797 942.29 252.534 942.29 254.814C942.29 257.094 941.916 258.837 941.17 260.043C940.436 261.25 939.356 261.853 937.93 261.853C936.517 261.853 935.437 261.25 934.69 260.043C933.943 258.837 933.57 257.094 933.57 254.814C933.57 252.547 933.943 250.811 934.69 249.604C935.437 248.398 936.517 247.795 937.93 247.795ZM934.99 254.814C934.99 256.431 935.137 257.697 935.43 258.612L939.87 249.803C939.403 249.18 938.756 248.869 937.93 248.869C937.01 248.869 936.29 249.359 935.77 250.34C935.25 251.308 934.99 252.799 934.99 254.814ZM937.93 260.759C938.863 260.759 939.59 260.275 940.11 259.308C940.63 258.327 940.89 256.829 940.89 254.814C940.89 253.104 940.723 251.778 940.39 250.837L935.95 259.725C936.43 260.414 937.09 260.759 937.93 260.759Z" fill="url(#paint55_linear_422_1261)"/>
<path d="M939.13 283.324H942.07V284.378H934.45V283.324H937.85V272.15L934.61 274.078L934.05 273.184L938.05 270.718H939.13V283.324Z" fill="url(#paint56_linear_422_1261)"/>
<path d="M937.93 293.244C939.356 293.244 940.436 293.847 941.17 295.053C941.916 296.246 942.29 297.983 942.29 300.263C942.29 302.543 941.916 304.286 941.17 305.492C940.436 306.698 939.356 307.301 937.93 307.301C936.517 307.301 935.437 306.698 934.69 305.492C933.943 304.286 933.57 302.543 933.57 300.263C933.57 297.996 933.943 296.259 934.69 295.053C935.437 293.847 936.517 293.244 937.93 293.244ZM934.99 300.263C934.99 301.88 935.137 303.146 935.43 304.06L939.87 295.252C939.403 294.629 938.756 294.317 937.93 294.317C937.01 294.317 936.29 294.808 935.77 295.789C935.25 296.756 934.99 298.248 934.99 300.263ZM937.93 306.208C938.863 306.208 939.59 305.724 940.11 304.756C940.63 303.775 940.89 302.277 940.89 300.263C940.89 298.553 940.723 297.227 940.39 296.286L935.95 305.174C936.43 305.863 937.09 306.208 937.93 306.208Z" fill="url(#paint57_linear_422_1261)"/>
<path d="M939.13 328.773H942.07V329.827H934.45V328.773H937.85V317.598L934.61 319.527L934.05 318.632L938.05 316.167H939.13V328.773Z" fill="url(#paint58_linear_422_1261)"/>
<path d="M939.13 351.497H942.07V352.551H934.45V351.497H937.85V340.323L934.61 342.251L934.05 341.357L938.05 338.891H939.13V351.497Z" fill="url(#paint59_linear_422_1261)"/>
<path d="M975.07 111.449C976.497 111.449 977.577 112.052 978.31 113.258C979.057 114.451 979.43 116.188 979.43 118.468C979.43 120.748 979.057 122.491 978.31 123.697C977.577 124.903 976.497 125.507 975.07 125.507C973.657 125.507 972.577 124.903 971.83 123.697C971.084 122.491 970.71 120.748 970.71 118.468C970.71 116.201 971.084 114.464 971.83 113.258C972.577 112.052 973.657 111.449 975.07 111.449ZM972.13 118.468C972.13 120.085 972.277 121.351 972.57 122.266L977.01 113.457C976.543 112.834 975.897 112.522 975.07 112.522C974.15 112.522 973.43 113.013 972.91 113.994C972.39 114.962 972.13 116.453 972.13 118.468ZM975.07 124.413C976.003 124.413 976.73 123.929 977.25 122.961C977.77 121.981 978.03 120.483 978.03 118.468C978.03 116.758 977.863 115.432 977.53 114.491L973.09 123.379C973.57 124.068 974.23 124.413 975.07 124.413Z" fill="url(#paint60_linear_422_1261)"/>
<path d="M976.27 146.978H979.21V148.032H971.59V146.978H974.99V135.804L971.75 137.732L971.19 136.838L975.19 134.372H976.27V146.978Z" fill="url(#paint61_linear_422_1261)"/>
<path d="M975.07 156.897C976.497 156.897 977.577 157.501 978.31 158.707C979.057 159.9 979.43 161.636 979.43 163.916C979.43 166.196 979.057 167.94 978.31 169.146C977.577 170.352 976.497 170.955 975.07 170.955C973.657 170.955 972.577 170.352 971.83 169.146C971.084 167.94 970.71 166.196 970.71 163.916C970.71 161.65 971.084 159.913 971.83 158.707C972.577 157.501 973.657 156.897 975.07 156.897ZM972.13 163.916C972.13 165.534 972.277 166.8 972.57 167.714L977.01 158.906C976.543 158.283 975.897 157.971 975.07 157.971C974.15 157.971 973.43 158.462 972.91 159.443C972.39 160.41 972.13 161.902 972.13 163.916ZM975.07 169.862C976.003 169.862 976.73 169.378 977.25 168.41C977.77 167.429 978.03 165.931 978.03 163.916C978.03 162.206 977.863 160.881 977.53 159.94L973.09 168.828C973.57 169.517 974.23 169.862 975.07 169.862Z" fill="url(#paint62_linear_422_1261)"/>
<path d="M975.07 179.622C976.497 179.622 977.577 180.225 978.31 181.431C979.057 182.624 979.43 184.361 979.43 186.641C979.43 188.921 979.057 190.664 978.31 191.87C977.577 193.077 976.497 193.68 975.07 193.68C973.657 193.68 972.577 193.077 971.83 191.87C971.084 190.664 970.71 188.921 970.71 186.641C970.71 184.374 971.084 182.637 971.83 181.431C972.577 180.225 973.657 179.622 975.07 179.622ZM972.13 186.641C972.13 188.258 972.277 189.524 972.57 190.439L977.01 181.63C976.543 181.007 975.897 180.696 975.07 180.696C974.15 180.696 973.43 181.186 972.91 182.167C972.39 183.135 972.13 184.626 972.13 186.641ZM975.07 192.586C976.003 192.586 976.73 192.102 977.25 191.135C977.77 190.154 978.03 188.656 978.03 186.641C978.03 184.931 977.863 183.605 977.53 182.664L973.09 191.552C973.57 192.241 974.23 192.586 975.07 192.586Z" fill="url(#paint63_linear_422_1261)"/>
<path d="M976.27 215.151H979.21V216.205H971.59V215.151H974.99V203.977L971.75 205.905L971.19 205.011L975.19 202.545H976.27V215.151Z" fill="url(#paint64_linear_422_1261)"/>
<path d="M975.07 225.07C976.497 225.07 977.577 225.674 978.31 226.88C979.057 228.073 979.43 229.809 979.43 232.089C979.43 234.37 979.057 236.113 978.31 237.319C977.577 238.525 976.497 239.128 975.07 239.128C973.657 239.128 972.577 238.525 971.83 237.319C971.084 236.113 970.71 234.37 970.71 232.089C970.71 229.823 971.084 228.086 971.83 226.88C972.577 225.674 973.657 225.07 975.07 225.07ZM972.13 232.089C972.13 233.707 972.277 234.973 972.57 235.887L977.01 227.079C976.543 226.456 975.897 226.144 975.07 226.144C974.15 226.144 973.43 226.635 972.91 227.616C972.39 228.583 972.13 230.075 972.13 232.089ZM975.07 238.035C976.003 238.035 976.73 237.551 977.25 236.583C977.77 235.602 978.03 234.104 978.03 232.089C978.03 230.379 977.863 229.054 977.53 228.113L973.09 237.001C973.57 237.69 974.23 238.035 975.07 238.035Z" fill="url(#paint65_linear_422_1261)"/>
<path d="M976.27 260.6H979.21V261.654H971.59V260.6H974.99V249.425L971.75 251.354L971.19 250.459L975.19 247.994H976.27V260.6Z" fill="url(#paint66_linear_422_1261)"/>
<path d="M975.07 270.519C976.497 270.519 977.577 271.122 978.31 272.329C979.057 273.522 979.43 275.258 979.43 277.538C979.43 279.818 979.057 281.561 978.31 282.768C977.577 283.974 976.497 284.577 975.07 284.577C973.657 284.577 972.577 283.974 971.83 282.768C971.084 281.561 970.71 279.818 970.71 277.538C970.71 275.271 971.084 273.535 971.83 272.329C972.577 271.122 973.657 270.519 975.07 270.519ZM972.13 277.538C972.13 279.155 972.277 280.421 972.57 281.336L977.01 272.527C976.543 271.904 975.897 271.593 975.07 271.593C974.15 271.593 973.43 272.083 972.91 273.064C972.39 274.032 972.13 275.523 972.13 277.538ZM975.07 283.483C976.003 283.483 976.73 283 977.25 282.032C977.77 281.051 978.03 279.553 978.03 277.538C978.03 275.828 977.863 274.503 977.53 273.561L973.09 282.449C973.57 283.139 974.23 283.483 975.07 283.483Z" fill="url(#paint67_linear_422_1261)"/>
<path d="M975.07 293.244C976.497 293.244 977.577 293.847 978.31 295.053C979.057 296.246 979.43 297.983 979.43 300.263C979.43 302.543 979.057 304.286 978.31 305.492C977.577 306.698 976.497 307.301 975.07 307.301C973.657 307.301 972.577 306.698 971.83 305.492C971.084 304.286 970.71 302.543 970.71 300.263C970.71 297.996 971.084 296.259 971.83 295.053C972.577 293.847 973.657 293.244 975.07 293.244ZM972.13 300.263C972.13 301.88 972.277 303.146 972.57 304.06L977.01 295.252C976.543 294.629 975.897 294.317 975.07 294.317C974.15 294.317 973.43 294.808 972.91 295.789C972.39 296.756 972.13 298.248 972.13 300.263ZM975.07 306.208C976.003 306.208 976.73 305.724 977.25 304.756C977.77 303.775 978.03 302.277 978.03 300.263C978.03 298.553 977.863 297.227 977.53 296.286L973.09 305.174C973.57 305.863 974.23 306.208 975.07 306.208Z" fill="url(#paint68_linear_422_1261)"/>
<path d="M976.27 328.773H979.21V329.827H971.59V328.773H974.99V317.598L971.75 319.527L971.19 318.632L975.19 316.167H976.27V328.773Z" fill="url(#paint69_linear_422_1261)"/>
<path d="M975.07 338.692C976.497 338.692 977.577 339.295 978.31 340.502C979.057 341.695 979.43 343.431 979.43 345.711C979.43 347.991 979.057 349.734 978.31 350.941C977.577 352.147 976.497 352.75 975.07 352.75C973.657 352.75 972.577 352.147 971.83 350.941C971.084 349.734 970.71 347.991 970.71 345.711C970.71 343.445 971.084 341.708 971.83 340.502C972.577 339.295 973.657 338.692 975.07 338.692ZM972.13 345.711C972.13 347.328 972.277 348.594 972.57 349.509L977.01 340.701C976.543 340.078 975.897 339.766 975.07 339.766C974.15 339.766 973.43 340.256 972.91 341.237C972.39 342.205 972.13 343.696 972.13 345.711ZM975.07 351.657C976.003 351.657 976.73 351.173 977.25 350.205C977.77 349.224 978.03 347.726 978.03 345.711C978.03 344.001 977.863 342.676 977.53 341.734L973.09 350.623C973.57 351.312 974.23 351.657 975.07 351.657Z" fill="url(#paint70_linear_422_1261)"/>
<path d="M976.27 374.222H979.21V375.276H971.59V374.222H974.99V363.047L971.75 364.976L971.19 364.081L975.19 361.615H976.27V374.222Z" fill="url(#paint71_linear_422_1261)"/>
<path d="M976.27 396.946H979.21V398H971.59V396.946H974.99V385.771L971.75 387.7L971.19 386.805L975.19 384.34H976.27V396.946Z" fill="url(#paint72_linear_422_1261)"/>
<path d="M919.36 134.173C920.786 134.173 921.866 134.776 922.599 135.982C923.346 137.176 923.719 138.912 923.719 141.192C923.719 143.472 923.346 145.215 922.599 146.421C921.866 147.628 920.786 148.231 919.36 148.231C917.946 148.231 916.867 147.628 916.12 146.421C915.373 145.215 915 143.472 915 141.192C915 138.925 915.373 137.189 916.12 135.982C916.867 134.776 917.946 134.173 919.36 134.173ZM916.42 141.192C916.42 142.809 916.567 144.075 916.86 144.99L921.3 136.181C920.833 135.558 920.186 135.247 919.36 135.247C918.44 135.247 917.72 135.737 917.2 136.718C916.68 137.686 916.42 139.177 916.42 141.192ZM919.36 147.137C920.293 147.137 921.02 146.653 921.54 145.686C922.06 144.705 922.319 143.207 922.319 141.192C922.319 139.482 922.153 138.156 921.82 137.215L917.38 146.103C917.86 146.793 918.52 147.137 919.36 147.137Z" fill="url(#paint73_linear_422_1261)"/>
<path d="M919.36 156.897C920.786 156.897 921.866 157.501 922.599 158.707C923.346 159.9 923.719 161.636 923.719 163.916C923.719 166.196 923.346 167.94 922.599 169.146C921.866 170.352 920.786 170.955 919.36 170.955C917.946 170.955 916.867 170.352 916.12 169.146C915.373 167.94 915 166.196 915 163.916C915 161.65 915.373 159.913 916.12 158.707C916.867 157.501 917.946 156.897 919.36 156.897ZM916.42 163.916C916.42 165.534 916.567 166.8 916.86 167.714L921.3 158.906C920.833 158.283 920.186 157.971 919.36 157.971C918.44 157.971 917.72 158.462 917.2 159.443C916.68 160.41 916.42 161.902 916.42 163.916ZM919.36 169.862C920.293 169.862 921.02 169.378 921.54 168.41C922.06 167.429 922.319 165.931 922.319 163.916C922.319 162.206 922.153 160.881 921.82 159.94L917.38 168.828C917.86 169.517 918.52 169.862 919.36 169.862Z" fill="url(#paint74_linear_422_1261)"/>
<path d="M920.56 192.427H923.499V193.481H915.88V192.427H919.28V181.252L916.04 183.181L915.48 182.286L919.48 179.821H920.56V192.427Z" fill="url(#paint75_linear_422_1261)"/>
<path d="M919.36 202.346C920.786 202.346 921.866 202.949 922.599 204.156C923.346 205.349 923.719 207.085 923.719 209.365C923.719 211.645 923.346 213.388 922.599 214.595C921.866 215.801 920.786 216.404 919.36 216.404C917.946 216.404 916.867 215.801 916.12 214.595C915.373 213.388 915 211.645 915 209.365C915 207.098 915.373 205.362 916.12 204.156C916.867 202.949 917.946 202.346 919.36 202.346ZM916.42 209.365C916.42 210.982 916.567 212.248 916.86 213.163L921.3 204.354C920.833 203.731 920.186 203.42 919.36 203.42C918.44 203.42 917.72 203.91 917.2 204.891C916.68 205.859 916.42 207.35 916.42 209.365ZM919.36 215.31C920.293 215.31 921.02 214.827 921.54 213.859C922.06 212.878 922.319 211.38 922.319 209.365C922.319 207.655 922.153 206.33 921.82 205.388L917.38 214.276C917.86 214.966 918.52 215.31 919.36 215.31Z" fill="url(#paint76_linear_422_1261)"/>
<path d="M920.56 237.876H923.499V238.93H915.88V237.876H919.28V226.701L916.04 228.63L915.48 227.735L919.48 225.269H920.56V237.876Z" fill="url(#paint77_linear_422_1261)"/>
<path d="M920.56 260.6H923.499V261.654H915.88V260.6H919.28V249.425L916.04 251.354L915.48 250.459L919.48 247.994H920.56V260.6Z" fill="url(#paint78_linear_422_1261)"/>
<path d="M957.7 101.53H960.64V102.583H953.02V101.53H956.42V90.3548L953.18 92.2836L952.62 91.3888L956.62 88.9232H957.7V101.53Z" fill="url(#paint79_linear_422_1261)"/>
<path d="M956.5 111.449C957.927 111.449 959.006 112.052 959.74 113.258C960.486 114.451 960.86 116.188 960.86 118.468C960.86 120.748 960.486 122.491 959.74 123.697C959.006 124.903 957.927 125.507 956.5 125.507C955.087 125.507 954.007 124.903 953.26 123.697C952.514 122.491 952.14 120.748 952.14 118.468C952.14 116.201 952.514 114.464 953.26 113.258C954.007 112.052 955.087 111.449 956.5 111.449ZM953.56 118.468C953.56 120.085 953.707 121.351 954 122.266L958.44 113.457C957.973 112.834 957.327 112.522 956.5 112.522C955.58 112.522 954.86 113.013 954.34 113.994C953.82 114.962 953.56 116.453 953.56 118.468ZM956.5 124.413C957.433 124.413 958.16 123.929 958.68 122.961C959.2 121.981 959.46 120.483 959.46 118.468C959.46 116.758 959.293 115.432 958.96 114.491L954.52 123.379C955 124.068 955.66 124.413 956.5 124.413Z" fill="url(#paint80_linear_422_1261)"/>
<path d="M957.7 146.978H960.64V148.032H953.02V146.978H956.42V135.804L953.18 137.732L952.62 136.838L956.62 134.372H957.7V146.978Z" fill="url(#paint81_linear_422_1261)"/>
<path d="M957.7 169.703H960.64V170.756H953.02V169.703H956.42V158.528L953.18 160.457L952.62 159.562L956.62 157.096H957.7V169.703Z" fill="url(#paint82_linear_422_1261)"/>
<path d="M956.5 179.622C957.927 179.622 959.006 180.225 959.74 181.431C960.486 182.624 960.86 184.361 960.86 186.641C960.86 188.921 960.486 190.664 959.74 191.87C959.006 193.077 957.927 193.68 956.5 193.68C955.087 193.68 954.007 193.077 953.26 191.87C952.514 190.664 952.14 188.921 952.14 186.641C952.14 184.374 952.514 182.637 953.26 181.431C954.007 180.225 955.087 179.622 956.5 179.622ZM953.56 186.641C953.56 188.258 953.707 189.524 954 190.439L958.44 181.63C957.973 181.007 957.327 180.696 956.5 180.696C955.58 180.696 954.86 181.186 954.34 182.167C953.82 183.135 953.56 184.626 953.56 186.641ZM956.5 192.586C957.433 192.586 958.16 192.102 958.68 191.135C959.2 190.154 959.46 188.656 959.46 186.641C959.46 184.931 959.293 183.605 958.96 182.664L954.52 191.552C955 192.241 955.66 192.586 956.5 192.586Z" fill="url(#paint83_linear_422_1261)"/>
<path d="M957.7 215.151H960.64V216.205H953.02V215.151H956.42V203.977L953.18 205.905L952.62 205.011L956.62 202.545H957.7V215.151Z" fill="url(#paint84_linear_422_1261)"/>
<path d="M957.7 237.876H960.64V238.93H953.02V237.876H956.42V226.701L953.18 228.63L952.62 227.735L956.62 225.269H957.7V237.876Z" fill="url(#paint85_linear_422_1261)"/>
<path d="M956.5 247.795C957.927 247.795 959.006 248.398 959.74 249.604C960.486 250.797 960.86 252.534 960.86 254.814C960.86 257.094 960.486 258.837 959.74 260.043C959.006 261.25 957.927 261.853 956.5 261.853C955.087 261.853 954.007 261.25 953.26 260.043C952.514 258.837 952.14 257.094 952.14 254.814C952.14 252.547 952.514 250.811 953.26 249.604C954.007 248.398 955.087 247.795 956.5 247.795ZM953.56 254.814C953.56 256.431 953.707 257.697 954 258.612L958.44 249.803C957.973 249.18 957.327 248.869 956.5 248.869C955.58 248.869 954.86 249.359 954.34 250.34C953.82 251.308 953.56 252.799 953.56 254.814ZM956.5 260.759C957.433 260.759 958.16 260.275 958.68 259.308C959.2 258.327 959.46 256.829 959.46 254.814C959.46 253.104 959.293 251.778 958.96 250.837L954.52 259.725C955 260.414 955.66 260.759 956.5 260.759Z" fill="url(#paint86_linear_422_1261)"/>
<path d="M957.7 283.324H960.64V284.378H953.02V283.324H956.42V272.15L953.18 274.078L952.62 273.184L956.62 270.718H957.7V283.324Z" fill="url(#paint87_linear_422_1261)"/>
<path d="M956.5 293.244C957.927 293.244 959.006 293.847 959.74 295.053C960.486 296.246 960.86 297.983 960.86 300.263C960.86 302.543 960.486 304.286 959.74 305.492C959.006 306.698 957.927 307.301 956.5 307.301C955.087 307.301 954.007 306.698 953.26 305.492C952.514 304.286 952.14 302.543 952.14 300.263C952.14 297.996 952.514 296.259 953.26 295.053C954.007 293.847 955.087 293.244 956.5 293.244ZM953.56 300.263C953.56 301.88 953.707 303.146 954 304.06L958.44 295.252C957.973 294.629 957.327 294.317 956.5 294.317C955.58 294.317 954.86 294.808 954.34 295.789C953.82 296.756 953.56 298.248 953.56 300.263ZM956.5 306.208C957.433 306.208 958.16 305.724 958.68 304.756C959.2 303.775 959.46 302.277 959.46 300.263C959.46 298.553 959.293 297.227 958.96 296.286L954.52 305.174C955 305.863 955.66 306.208 956.5 306.208Z" fill="url(#paint88_linear_422_1261)"/>
<path d="M993.64 88.7244C995.067 88.7244 996.147 89.3275 996.88 90.5338C997.627 91.7268 998 93.4633 998 95.7433C998 98.0234 997.627 99.7665 996.88 100.973C996.147 102.179 995.067 102.782 993.64 102.782C992.227 102.782 991.147 102.179 990.401 100.973C989.654 99.7665 989.281 98.0234 989.281 95.7433C989.281 93.4766 989.654 91.7401 990.401 90.5338C991.147 89.3275 992.227 88.7244 993.64 88.7244ZM990.701 95.7433C990.701 97.3606 990.847 98.6265 991.14 99.5412L995.58 90.7326C995.114 90.1096 994.467 89.7981 993.64 89.7981C992.72 89.7981 992 90.2885 991.48 91.2695C990.96 92.2372 990.701 93.7284 990.701 95.7433ZM993.64 101.689C994.574 101.689 995.3 101.205 995.82 100.237C996.34 99.2561 996.6 97.7582 996.6 95.7433C996.6 94.0333 996.433 92.7077 996.1 91.7666L991.66 100.655C992.14 101.344 992.8 101.689 993.64 101.689Z" fill="url(#paint89_linear_422_1261)"/>
<path d="M994.84 124.254H997.78V125.308H990.161V124.254H993.56V113.079L990.321 115.008L989.761 114.113L993.76 111.648H994.84V124.254Z" fill="url(#paint90_linear_422_1261)"/>
<path d="M994.84 146.978H997.78V148.032H990.161V146.978H993.56V135.804L990.321 137.732L989.761 136.838L993.76 134.372H994.84V146.978Z" fill="url(#paint91_linear_422_1261)"/>
<path d="M993.64 156.897C995.067 156.897 996.147 157.501 996.88 158.707C997.627 159.9 998 161.636 998 163.916C998 166.196 997.627 167.94 996.88 169.146C996.147 170.352 995.067 170.955 993.64 170.955C992.227 170.955 991.147 170.352 990.401 169.146C989.654 167.94 989.281 166.196 989.281 163.916C989.281 161.65 989.654 159.913 990.401 158.707C991.147 157.501 992.227 156.897 993.64 156.897ZM990.701 163.916C990.701 165.534 990.847 166.8 991.14 167.714L995.58 158.906C995.114 158.283 994.467 157.971 993.64 157.971C992.72 157.971 992 158.462 991.48 159.443C990.96 160.41 990.701 161.902 990.701 163.916ZM993.64 169.862C994.574 169.862 995.3 169.378 995.82 168.41C996.34 167.429 996.6 165.931 996.6 163.916C996.6 162.206 996.433 160.881 996.1 159.94L991.66 168.828C992.14 169.517 992.8 169.862 993.64 169.862Z" fill="url(#paint92_linear_422_1261)"/>
<path d="M993.64 179.622C995.067 179.622 996.147 180.225 996.88 181.431C997.627 182.624 998 184.361 998 186.641C998 188.921 997.627 190.664 996.88 191.87C996.147 193.077 995.067 193.68 993.64 193.68C992.227 193.68 991.147 193.077 990.401 191.87C989.654 190.664 989.281 188.921 989.281 186.641C989.281 184.374 989.654 182.637 990.401 181.431C991.147 180.225 992.227 179.622 993.64 179.622ZM990.701 186.641C990.701 188.258 990.847 189.524 991.14 190.439L995.58 181.63C995.114 181.007 994.467 180.696 993.64 180.696C992.72 180.696 992 181.186 991.48 182.167C990.96 183.135 990.701 184.626 990.701 186.641ZM993.64 192.586C994.574 192.586 995.3 192.102 995.82 191.135C996.34 190.154 996.6 188.656 996.6 186.641C996.6 184.931 996.433 183.605 996.1 182.664L991.66 191.552C992.14 192.241 992.8 192.586 993.64 192.586Z" fill="url(#paint93_linear_422_1261)"/>
</g>
</g>
<defs>
<filter id="filter0_f_422_1261" x="-608" y="-766" width="2241" height="1600" filterUnits="userSpaceOnUse" color-interpolation-filters="sRGB">
<feFlood flood-opacity="0" result="BackgroundImageFix"/>
<feBlend mode="normal" in="SourceGraphic" in2="BackgroundImageFix" result="shape"/>
<feGaussianBlur stdDeviation="225" result="effect1_foregroundBlur_422_1261"/>
</filter>
<linearGradient id="paint0_linear_422_1261" x1="70.5" y1="377" x2="70.5" y2="688.381" gradientUnits="userSpaceOnUse">
<stop stop-color="#F743E5"/>
<stop offset="0.5" stop-color="#F7869F" stop-opacity="0.307671"/>
<stop offset="1" stop-color="#9A1032"/>
</linearGradient>
<linearGradient id="paint1_linear_422_1261" x1="70.5" y1="377" x2="70.5" y2="688.381" gradientUnits="userSpaceOnUse">
<stop stop-color="#F743E5"/>
<stop offset="0.5" stop-color="#F7869F" stop-opacity="0.307671"/>
<stop offset="1" stop-color="#9A1032"/>
</linearGradient>
<linearGradient id="paint2_linear_422_1261" x1="70.5" y1="377" x2="70.5" y2="688.381" gradientUnits="userSpaceOnUse">
<stop stop-color="#F743E5"/>
<stop offset="0.5" stop-color="#F7869F" stop-opacity="0.307671"/>
<stop offset="1" stop-color="#9A1032"/>
</linearGradient>
<linearGradient id="paint3_linear_422_1261" x1="70.5" y1="377" x2="70.5" y2="688.381" gradientUnits="userSpaceOnUse">
<stop stop-color="#F743E5"/>
<stop offset="0.5" stop-color="#F7869F" stop-opacity="0.307671"/>
<stop offset="1" stop-color="#9A1032"/>
</linearGradient>
<linearGradient id="paint4_linear_422_1261" x1="70.5" y1="377" x2="70.5" y2="688.381" gradientUnits="userSpaceOnUse">
<stop stop-color="#F743E5"/>
<stop offset="0.5" stop-color="#F7869F" stop-opacity="0.307671"/>
<stop offset="1" stop-color="#9A1032"/>
</linearGradient>
<linearGradient id="paint5_linear_422_1261" x1="70.5" y1="377" x2="70.5" y2="688.381" gradientUnits="userSpaceOnUse">
<stop stop-color="#F743E5"/>
<stop offset="0.5" stop-color="#F7869F" stop-opacity="0.307671"/>
<stop offset="1" stop-color="#9A1032"/>
</linearGradient>
<linearGradient id="paint6_linear_422_1261" x1="70.5" y1="377" x2="70.5" y2="688.381" gradientUnits="userSpaceOnUse">
<stop stop-color="#F743E5"/>
<stop offset="0.5" stop-color="#F7869F" stop-opacity="0.307671"/>
<stop offset="1" stop-color="#9A1032"/>
</linearGradient>
<linearGradient id="paint7_linear_422_1261" x1="70.5" y1="377" x2="70.5" y2="688.381" gradientUnits="userSpaceOnUse">
<stop stop-color="#F743E5"/>
<stop offset="0.5" stop-color="#F7869F" stop-opacity="0.307671"/>
<stop offset="1" stop-color="#9A1032"/>
</linearGradient>
<linearGradient id="paint8_linear_422_1261" x1="70.5" y1="377" x2="70.5" y2="688.381" gradientUnits="userSpaceOnUse">
<stop stop-color="#F743E5"/>
<stop offset="0.5" stop-color="#F7869F" stop-opacity="0.307671"/>
<stop offset="1" stop-color="#9A1032"/>
</linearGradient>
<linearGradient id="paint9_linear_422_1261" x1="70.5" y1="377" x2="70.5" y2="688.381" gradientUnits="userSpaceOnUse">
<stop stop-color="#F743E5"/>
<stop offset="0.5" stop-color="#F7869F" stop-opacity="0.307671"/>
<stop offset="1" stop-color="#9A1032"/>
</linearGradient>
<linearGradient id="paint10_linear_422_1261" x1="70.5" y1="377" x2="70.5" y2="688.381" gradientUnits="userSpaceOnUse">
<stop stop-color="#F743E5"/>
<stop offset="0.5" stop-color="#F7869F" stop-opacity="0.307671"/>
<stop offset="1" stop-color="#9A1032"/>
</linearGradient>
<linearGradient id="paint11_linear_422_1261" x1="70.5" y1="377" x2="70.5" y2="688.381" gradientUnits="userSpaceOnUse">
<stop stop-color="#F743E5"/>
<stop offset="0.5" stop-color="#F7869F" stop-opacity="0.307671"/>
<stop offset="1" stop-color="#9A1032"/>
</linearGradient>
<linearGradient id="paint12_linear_422_1261" x1="70.5" y1="377" x2="70.5" y2="688.381" gradientUnits="userSpaceOnUse">
<stop stop-color="#F743E5"/>
<stop offset="0.5" stop-color="#F7869F" stop-opacity="0.307671"/>
<stop offset="1" stop-color="#9A1032"/>
</linearGradient>
<linearGradient id="paint13_linear_422_1261" x1="70.5" y1="377" x2="70.5" y2="688.381" gradientUnits="userSpaceOnUse">
<stop stop-color="#F743E5"/>
<stop offset="0.5" stop-color="#F7869F" stop-opacity="0.307671"/>
<stop offset="1" stop-color="#9A1032"/>
</linearGradient>
<linearGradient id="paint14_linear_422_1261" x1="70.5" y1="377" x2="70.5" y2="688.381" gradientUnits="userSpaceOnUse">
<stop stop-color="#F743E5"/>
<stop offset="0.5" stop-color="#F7869F" stop-opacity="0.307671"/>
<stop offset="1" stop-color="#9A1032"/>
</linearGradient>
<linearGradient id="paint15_linear_422_1261" x1="70.5" y1="377" x2="70.5" y2="688.381" gradientUnits="userSpaceOnUse">
<stop stop-color="#F743E5"/>
<stop offset="0.5" stop-color="#F7869F" stop-opacity="0.307671"/>
<stop offset="1" stop-color="#9A1032"/>
</linearGradient>
<linearGradient id="paint16_linear_422_1261" x1="70.5" y1="377" x2="70.5" y2="688.381" gradientUnits="userSpaceOnUse">
<stop stop-color="#F743E5"/>
<stop offset="0.5" stop-color="#F7869F" stop-opacity="0.307671"/>
<stop offset="1" stop-color="#9A1032"/>
</linearGradient>
<linearGradient id="paint17_linear_422_1261" x1="70.5" y1="377" x2="70.5" y2="688.381" gradientUnits="userSpaceOnUse">
<stop stop-color="#F743E5"/>
<stop offset="0.5" stop-color="#F7869F" stop-opacity="0.307671"/>
<stop offset="1" stop-color="#9A1032"/>
</linearGradient>
<linearGradient id="paint18_linear_422_1261" x1="70.5" y1="377" x2="70.5" y2="688.381" gradientUnits="userSpaceOnUse">
<stop stop-color="#F743E5"/>
<stop offset="0.5" stop-color="#F7869F" stop-opacity="0.307671"/>
<stop offset="1" stop-color="#9A1032"/>
</linearGradient>
<linearGradient id="paint19_linear_422_1261" x1="70.5" y1="377" x2="70.5" y2="688.381" gradientUnits="userSpaceOnUse">
<stop stop-color="#F743E5"/>
<stop offset="0.5" stop-color="#F7869F" stop-opacity="0.307671"/>
<stop offset="1" stop-color="#9A1032"/>
</linearGradient>
<linearGradient id="paint20_linear_422_1261" x1="70.5" y1="377" x2="70.5" y2="688.381" gradientUnits="userSpaceOnUse">
<stop stop-color="#F743E5"/>
<stop offset="0.5" stop-color="#F7869F" stop-opacity="0.307671"/>
<stop offset="1" stop-color="#9A1032"/>
</linearGradient>
<linearGradient id="paint21_linear_422_1261" x1="70.5" y1="377" x2="70.5" y2="688.381" gradientUnits="userSpaceOnUse">
<stop stop-color="#F743E5"/>
<stop offset="0.5" stop-color="#F7869F" stop-opacity="0.307671"/>
<stop offset="1" stop-color="#9A1032"/>
</linearGradient>
<linearGradient id="paint22_linear_422_1261" x1="70.5" y1="377" x2="70.5" y2="688.381" gradientUnits="userSpaceOnUse">
<stop stop-color="#F743E5"/>
<stop offset="0.5" stop-color="#F7869F" stop-opacity="0.307671"/>
<stop offset="1" stop-color="#9A1032"/>
</linearGradient>
<linearGradient id="paint23_linear_422_1261" x1="70.5" y1="377" x2="70.5" y2="688.381" gradientUnits="userSpaceOnUse">
<stop stop-color="#F743E5"/>
<stop offset="0.5" stop-color="#F7869F" stop-opacity="0.307671"/>
<stop offset="1" stop-color="#9A1032"/>
</linearGradient>
<linearGradient id="paint24_linear_422_1261" x1="70.5" y1="377" x2="70.5" y2="688.381" gradientUnits="userSpaceOnUse">
<stop stop-color="#F743E5"/>
<stop offset="0.5" stop-color="#F7869F" stop-opacity="0.307671"/>
<stop offset="1" stop-color="#9A1032"/>
</linearGradient>
<linearGradient id="paint25_linear_422_1261" x1="70.5" y1="377" x2="70.5" y2="688.381" gradientUnits="userSpaceOnUse">
<stop stop-color="#F743E5"/>
<stop offset="0.5" stop-color="#F7869F" stop-opacity="0.307671"/>
<stop offset="1" stop-color="#9A1032"/>
</linearGradient>
<linearGradient id="paint26_linear_422_1261" x1="70.5" y1="377" x2="70.5" y2="688.381" gradientUnits="userSpaceOnUse">
<stop stop-color="#F743E5"/>
<stop offset="0.5" stop-color="#F7869F" stop-opacity="0.307671"/>
<stop offset="1" stop-color="#9A1032"/>
</linearGradient>
<linearGradient id="paint27_linear_422_1261" x1="70.5" y1="377" x2="70.5" y2="688.381" gradientUnits="userSpaceOnUse">
<stop stop-color="#F743E5"/>
<stop offset="0.5" stop-color="#F7869F" stop-opacity="0.307671"/>
<stop offset="1" stop-color="#9A1032"/>
</linearGradient>
<linearGradient id="paint28_linear_422_1261" x1="70.5" y1="377" x2="70.5" y2="688.381" gradientUnits="userSpaceOnUse">
<stop stop-color="#F743E5"/>
<stop offset="0.5" stop-color="#F7869F" stop-opacity="0.307671"/>
<stop offset="1" stop-color="#9A1032"/>
</linearGradient>
<linearGradient id="paint29_linear_422_1261" x1="70.5" y1="377" x2="70.5" y2="688.381" gradientUnits="userSpaceOnUse">
<stop stop-color="#F743E5"/>
<stop offset="0.5" stop-color="#F7869F" stop-opacity="0.307671"/>
<stop offset="1" stop-color="#9A1032"/>
</linearGradient>
<linearGradient id="paint30_linear_422_1261" x1="70.5" y1="377" x2="70.5" y2="688.381" gradientUnits="userSpaceOnUse">
<stop stop-color="#F743E5"/>
<stop offset="0.5" stop-color="#F7869F" stop-opacity="0.307671"/>
<stop offset="1" stop-color="#9A1032"/>
</linearGradient>
<linearGradient id="paint31_linear_422_1261" x1="70.5" y1="377" x2="70.5" y2="688.381" gradientUnits="userSpaceOnUse">
<stop stop-color="#F743E5"/>
<stop offset="0.5" stop-color="#F7869F" stop-opacity="0.307671"/>
<stop offset="1" stop-color="#9A1032"/>
</linearGradient>
<linearGradient id="paint32_linear_422_1261" x1="70.5" y1="377" x2="70.5" y2="688.381" gradientUnits="userSpaceOnUse">
<stop stop-color="#F743E5"/>
<stop offset="0.5" stop-color="#F7869F" stop-opacity="0.307671"/>
<stop offset="1" stop-color="#9A1032"/>
</linearGradient>
<linearGradient id="paint33_linear_422_1261" x1="70.5" y1="377" x2="70.5" y2="688.381" gradientUnits="userSpaceOnUse">
<stop stop-color="#F743E5"/>
<stop offset="0.5" stop-color="#F7869F" stop-opacity="0.307671"/>
<stop offset="1" stop-color="#9A1032"/>
</linearGradient>
<linearGradient id="paint34_linear_422_1261" x1="70.5" y1="377" x2="70.5" y2="688.381" gradientUnits="userSpaceOnUse">
<stop stop-color="#F743E5"/>
<stop offset="0.5" stop-color="#F7869F" stop-opacity="0.307671"/>
<stop offset="1" stop-color="#9A1032"/>
</linearGradient>
<linearGradient id="paint35_linear_422_1261" x1="70.5" y1="377" x2="70.5" y2="688.381" gradientUnits="userSpaceOnUse">
<stop stop-color="#F743E5"/>
<stop offset="0.5" stop-color="#F7869F" stop-opacity="0.307671"/>
<stop offset="1" stop-color="#9A1032"/>
</linearGradient>
<linearGradient id="paint36_linear_422_1261" x1="70.5" y1="377" x2="70.5" y2="688.381" gradientUnits="userSpaceOnUse">
<stop stop-color="#F743E5"/>
<stop offset="0.5" stop-color="#F7869F" stop-opacity="0.307671"/>
<stop offset="1" stop-color="#9A1032"/>
</linearGradient>
<linearGradient id="paint37_linear_422_1261" x1="70.5" y1="377" x2="70.5" y2="688.381" gradientUnits="userSpaceOnUse">
<stop stop-color="#F743E5"/>
<stop offset="0.5" stop-color="#F7869F" stop-opacity="0.307671"/>
<stop offset="1" stop-color="#9A1032"/>
</linearGradient>
<linearGradient id="paint38_linear_422_1261" x1="70.5" y1="377" x2="70.5" y2="688.381" gradientUnits="userSpaceOnUse">
<stop stop-color="#F743E5"/>
<stop offset="0.5" stop-color="#F7869F" stop-opacity="0.307671"/>
<stop offset="1" stop-color="#9A1032"/>
</linearGradient>
<linearGradient id="paint39_linear_422_1261" x1="70.5" y1="377" x2="70.5" y2="688.381" gradientUnits="userSpaceOnUse">
<stop stop-color="#F743E5"/>
<stop offset="0.5" stop-color="#F7869F" stop-opacity="0.307671"/>
<stop offset="1" stop-color="#9A1032"/>
</linearGradient>
<linearGradient id="paint40_linear_422_1261" x1="70.5" y1="377" x2="70.5" y2="688.381" gradientUnits="userSpaceOnUse">
<stop stop-color="#F743E5"/>
<stop offset="0.5" stop-color="#F7869F" stop-opacity="0.307671"/>
<stop offset="1" stop-color="#9A1032"/>
</linearGradient>
<linearGradient id="paint41_linear_422_1261" x1="70.5" y1="377" x2="70.5" y2="688.381" gradientUnits="userSpaceOnUse">
<stop stop-color="#F743E5"/>
<stop offset="0.5" stop-color="#F7869F" stop-opacity="0.307671"/>
<stop offset="1" stop-color="#9A1032"/>
</linearGradient>
<linearGradient id="paint42_linear_422_1261" x1="70.5" y1="377" x2="70.5" y2="688.381" gradientUnits="userSpaceOnUse">
<stop stop-color="#F743E5"/>
<stop offset="0.5" stop-color="#F7869F" stop-opacity="0.307671"/>
<stop offset="1" stop-color="#9A1032"/>
</linearGradient>
<linearGradient id="paint43_linear_422_1261" x1="70.5" y1="377" x2="70.5" y2="688.381" gradientUnits="userSpaceOnUse">
<stop stop-color="#F743E5"/>
<stop offset="0.5" stop-color="#F7869F" stop-opacity="0.307671"/>
<stop offset="1" stop-color="#9A1032"/>
</linearGradient>
<linearGradient id="paint44_linear_422_1261" x1="70.5" y1="377" x2="70.5" y2="688.381" gradientUnits="userSpaceOnUse">
<stop stop-color="#F743E5"/>
<stop offset="0.5" stop-color="#F7869F" stop-opacity="0.307671"/>
<stop offset="1" stop-color="#9A1032"/>
</linearGradient>
<linearGradient id="paint45_linear_422_1261" x1="70.5" y1="377" x2="70.5" y2="688.381" gradientUnits="userSpaceOnUse">
<stop stop-color="#F743E5"/>
<stop offset="0.5" stop-color="#F7869F" stop-opacity="0.307671"/>
<stop offset="1" stop-color="#9A1032"/>
</linearGradient>
<linearGradient id="paint46_linear_422_1261" x1="70.5" y1="377" x2="70.5" y2="688.381" gradientUnits="userSpaceOnUse">
<stop stop-color="#F743E5"/>
<stop offset="0.5" stop-color="#F7869F" stop-opacity="0.307671"/>
<stop offset="1" stop-color="#9A1032"/>
</linearGradient>
<linearGradient id="paint47_linear_422_1261" x1="956.5" y1="66" x2="956.5" y2="363.921" gradientUnits="userSpaceOnUse">
<stop stop-color="#9A1032"/>
<stop offset="0.484375" stop-color="#F7869F" stop-opacity="0.567708"/>
<stop offset="1" stop-color="#F743E5"/>
</linearGradient>
<linearGradient id="paint48_linear_422_1261" x1="956.5" y1="66" x2="956.5" y2="363.921" gradientUnits="userSpaceOnUse">
<stop stop-color="#9A1032"/>
<stop offset="0.484375" stop-color="#F7869F" stop-opacity="0.567708"/>
<stop offset="1" stop-color="#F743E5"/>
</linearGradient>
<linearGradient id="paint49_linear_422_1261" x1="956.5" y1="66" x2="956.5" y2="363.921" gradientUnits="userSpaceOnUse">
<stop stop-color="#9A1032"/>
<stop offset="0.484375" stop-color="#F7869F" stop-opacity="0.567708"/>
<stop offset="1" stop-color="#F743E5"/>
</linearGradient>
<linearGradient id="paint50_linear_422_1261" x1="956.5" y1="66" x2="956.5" y2="363.921" gradientUnits="userSpaceOnUse">
<stop stop-color="#9A1032"/>
<stop offset="0.484375" stop-color="#F7869F" stop-opacity="0.567708"/>
<stop offset="1" stop-color="#F743E5"/>
</linearGradient>
<linearGradient id="paint51_linear_422_1261" x1="956.5" y1="66" x2="956.5" y2="363.921" gradientUnits="userSpaceOnUse">
<stop stop-color="#9A1032"/>
<stop offset="0.484375" stop-color="#F7869F" stop-opacity="0.567708"/>
<stop offset="1" stop-color="#F743E5"/>
</linearGradient>
<linearGradient id="paint52_linear_422_1261" x1="956.5" y1="66" x2="956.5" y2="363.921" gradientUnits="userSpaceOnUse">
<stop stop-color="#9A1032"/>
<stop offset="0.484375" stop-color="#F7869F" stop-opacity="0.567708"/>
<stop offset="1" stop-color="#F743E5"/>
</linearGradient>
<linearGradient id="paint53_linear_422_1261" x1="956.5" y1="66" x2="956.5" y2="363.921" gradientUnits="userSpaceOnUse">
<stop stop-color="#9A1032"/>
<stop offset="0.484375" stop-color="#F7869F" stop-opacity="0.567708"/>
<stop offset="1" stop-color="#F743E5"/>
</linearGradient>
<linearGradient id="paint54_linear_422_1261" x1="956.5" y1="66" x2="956.5" y2="363.921" gradientUnits="userSpaceOnUse">
<stop stop-color="#9A1032"/>
<stop offset="0.484375" stop-color="#F7869F" stop-opacity="0.567708"/>
<stop offset="1" stop-color="#F743E5"/>
</linearGradient>
<linearGradient id="paint55_linear_422_1261" x1="956.5" y1="66" x2="956.5" y2="363.921" gradientUnits="userSpaceOnUse">
<stop stop-color="#9A1032"/>
<stop offset="0.484375" stop-color="#F7869F" stop-opacity="0.567708"/>
<stop offset="1" stop-color="#F743E5"/>
</linearGradient>
<linearGradient id="paint56_linear_422_1261" x1="956.5" y1="66" x2="956.5" y2="363.921" gradientUnits="userSpaceOnUse">
<stop stop-color="#9A1032"/>
<stop offset="0.484375" stop-color="#F7869F" stop-opacity="0.567708"/>
<stop offset="1" stop-color="#F743E5"/>
</linearGradient>
<linearGradient id="paint57_linear_422_1261" x1="956.5" y1="66" x2="956.5" y2="363.921" gradientUnits="userSpaceOnUse">
<stop stop-color="#9A1032"/>
<stop offset="0.484375" stop-color="#F7869F" stop-opacity="0.567708"/>
<stop offset="1" stop-color="#F743E5"/>
</linearGradient>
<linearGradient id="paint58_linear_422_1261" x1="956.5" y1="66" x2="956.5" y2="363.921" gradientUnits="userSpaceOnUse">
<stop stop-color="#9A1032"/>
<stop offset="0.484375" stop-color="#F7869F" stop-opacity="0.567708"/>
<stop offset="1" stop-color="#F743E5"/>
</linearGradient>
<linearGradient id="paint59_linear_422_1261" x1="956.5" y1="66" x2="956.5" y2="363.921" gradientUnits="userSpaceOnUse">
<stop stop-color="#9A1032"/>
<stop offset="0.484375" stop-color="#F7869F" stop-opacity="0.567708"/>
<stop offset="1" stop-color="#F743E5"/>
</linearGradient>
<linearGradient id="paint60_linear_422_1261" x1="956.5" y1="66" x2="956.5" y2="363.921" gradientUnits="userSpaceOnUse">
<stop stop-color="#9A1032"/>
<stop offset="0.484375" stop-color="#F7869F" stop-opacity="0.567708"/>
<stop offset="1" stop-color="#F743E5"/>
</linearGradient>
<linearGradient id="paint61_linear_422_1261" x1="956.5" y1="66" x2="956.5" y2="363.921" gradientUnits="userSpaceOnUse">
<stop stop-color="#9A1032"/>
<stop offset="0.484375" stop-color="#F7869F" stop-opacity="0.567708"/>
<stop offset="1" stop-color="#F743E5"/>
</linearGradient>
<linearGradient id="paint62_linear_422_1261" x1="956.5" y1="66" x2="956.5" y2="363.921" gradientUnits="userSpaceOnUse">
<stop stop-color="#9A1032"/>
<stop offset="0.484375" stop-color="#F7869F" stop-opacity="0.567708"/>
<stop offset="1" stop-color="#F743E5"/>
</linearGradient>
<linearGradient id="paint63_linear_422_1261" x1="956.5" y1="66" x2="956.5" y2="363.921" gradientUnits="userSpaceOnUse">
<stop stop-color="#9A1032"/>
<stop offset="0.484375" stop-color="#F7869F" stop-opacity="0.567708"/>
<stop offset="1" stop-color="#F743E5"/>
</linearGradient>
<linearGradient id="paint64_linear_422_1261" x1="956.5" y1="66" x2="956.5" y2="363.921" gradientUnits="userSpaceOnUse">
<stop stop-color="#9A1032"/>
<stop offset="0.484375" stop-color="#F7869F" stop-opacity="0.567708"/>
<stop offset="1" stop-color="#F743E5"/>
</linearGradient>
<linearGradient id="paint65_linear_422_1261" x1="956.5" y1="66" x2="956.5" y2="363.921" gradientUnits="userSpaceOnUse">
<stop stop-color="#9A1032"/>
<stop offset="0.484375" stop-color="#F7869F" stop-opacity="0.567708"/>
<stop offset="1" stop-color="#F743E5"/>
</linearGradient>
<linearGradient id="paint66_linear_422_1261" x1="956.5" y1="66" x2="956.5" y2="363.921" gradientUnits="userSpaceOnUse">
<stop stop-color="#9A1032"/>
<stop offset="0.484375" stop-color="#F7869F" stop-opacity="0.567708"/>
<stop offset="1" stop-color="#F743E5"/>
</linearGradient>
<linearGradient id="paint67_linear_422_1261" x1="956.5" y1="66" x2="956.5" y2="363.921" gradientUnits="userSpaceOnUse">
<stop stop-color="#9A1032"/>
<stop offset="0.484375" stop-color="#F7869F" stop-opacity="0.567708"/>
<stop offset="1" stop-color="#F743E5"/>
</linearGradient>
<linearGradient id="paint68_linear_422_1261" x1="956.5" y1="66" x2="956.5" y2="363.921" gradientUnits="userSpaceOnUse">
<stop stop-color="#9A1032"/>
<stop offset="0.484375" stop-color="#F7869F" stop-opacity="0.567708"/>
<stop offset="1" stop-color="#F743E5"/>
</linearGradient>
<linearGradient id="paint69_linear_422_1261" x1="956.5" y1="66" x2="956.5" y2="363.921" gradientUnits="userSpaceOnUse">
<stop stop-color="#9A1032"/>
<stop offset="0.484375" stop-color="#F7869F" stop-opacity="0.567708"/>
<stop offset="1" stop-color="#F743E5"/>
</linearGradient>
<linearGradient id="paint70_linear_422_1261" x1="956.5" y1="66" x2="956.5" y2="363.921" gradientUnits="userSpaceOnUse">
<stop stop-color="#9A1032"/>
<stop offset="0.484375" stop-color="#F7869F" stop-opacity="0.567708"/>
<stop offset="1" stop-color="#F743E5"/>
</linearGradient>
<linearGradient id="paint71_linear_422_1261" x1="956.5" y1="66" x2="956.5" y2="363.921" gradientUnits="userSpaceOnUse">
<stop stop-color="#9A1032"/>
<stop offset="0.484375" stop-color="#F7869F" stop-opacity="0.567708"/>
<stop offset="1" stop-color="#F743E5"/>
</linearGradient>
<linearGradient id="paint72_linear_422_1261" x1="956.5" y1="66" x2="956.5" y2="363.921" gradientUnits="userSpaceOnUse">
<stop stop-color="#9A1032"/>
<stop offset="0.484375" stop-color="#F7869F" stop-opacity="0.567708"/>
<stop offset="1" stop-color="#F743E5"/>
</linearGradient>
<linearGradient id="paint73_linear_422_1261" x1="956.5" y1="66" x2="956.5" y2="363.921" gradientUnits="userSpaceOnUse">
<stop stop-color="#9A1032"/>
<stop offset="0.484375" stop-color="#F7869F" stop-opacity="0.567708"/>
<stop offset="1" stop-color="#F743E5"/>
</linearGradient>
<linearGradient id="paint74_linear_422_1261" x1="956.5" y1="66" x2="956.5" y2="363.921" gradientUnits="userSpaceOnUse">
<stop stop-color="#9A1032"/>
<stop offset="0.484375" stop-color="#F7869F" stop-opacity="0.567708"/>
<stop offset="1" stop-color="#F743E5"/>
</linearGradient>
<linearGradient id="paint75_linear_422_1261" x1="956.5" y1="66" x2="956.5" y2="363.921" gradientUnits="userSpaceOnUse">
<stop stop-color="#9A1032"/>
<stop offset="0.484375" stop-color="#F7869F" stop-opacity="0.567708"/>
<stop offset="1" stop-color="#F743E5"/>
</linearGradient>
<linearGradient id="paint76_linear_422_1261" x1="956.5" y1="66" x2="956.5" y2="363.921" gradientUnits="userSpaceOnUse">
<stop stop-color="#9A1032"/>
<stop offset="0.484375" stop-color="#F7869F" stop-opacity="0.567708"/>
<stop offset="1" stop-color="#F743E5"/>
</linearGradient>
<linearGradient id="paint77_linear_422_1261" x1="956.5" y1="66" x2="956.5" y2="363.921" gradientUnits="userSpaceOnUse">
<stop stop-color="#9A1032"/>
<stop offset="0.484375" stop-color="#F7869F" stop-opacity="0.567708"/>
<stop offset="1" stop-color="#F743E5"/>
</linearGradient>
<linearGradient id="paint78_linear_422_1261" x1="956.5" y1="66" x2="956.5" y2="363.921" gradientUnits="userSpaceOnUse">
<stop stop-color="#9A1032"/>
<stop offset="0.484375" stop-color="#F7869F" stop-opacity="0.567708"/>
<stop offset="1" stop-color="#F743E5"/>
</linearGradient>
<linearGradient id="paint79_linear_422_1261" x1="956.5" y1="66" x2="956.5" y2="363.921" gradientUnits="userSpaceOnUse">
<stop stop-color="#9A1032"/>
<stop offset="0.484375" stop-color="#F7869F" stop-opacity="0.567708"/>
<stop offset="1" stop-color="#F743E5"/>
</linearGradient>
<linearGradient id="paint80_linear_422_1261" x1="956.5" y1="66" x2="956.5" y2="363.921" gradientUnits="userSpaceOnUse">
<stop stop-color="#9A1032"/>
<stop offset="0.484375" stop-color="#F7869F" stop-opacity="0.567708"/>
<stop offset="1" stop-color="#F743E5"/>
</linearGradient>
<linearGradient id="paint81_linear_422_1261" x1="956.5" y1="66" x2="956.5" y2="363.921" gradientUnits="userSpaceOnUse">
<stop stop-color="#9A1032"/>
<stop offset="0.484375" stop-color="#F7869F" stop-opacity="0.567708"/>
<stop offset="1" stop-color="#F743E5"/>
</linearGradient>
<linearGradient id="paint82_linear_422_1261" x1="956.5" y1="66" x2="956.5" y2="363.921" gradientUnits="userSpaceOnUse">
<stop stop-color="#9A1032"/>
<stop offset="0.484375" stop-color="#F7869F" stop-opacity="0.567708"/>
<stop offset="1" stop-color="#F743E5"/>
</linearGradient>
<linearGradient id="paint83_linear_422_1261" x1="956.5" y1="66" x2="956.5" y2="363.921" gradientUnits="userSpaceOnUse">
<stop stop-color="#9A1032"/>
<stop offset="0.484375" stop-color="#F7869F" stop-opacity="0.567708"/>
<stop offset="1" stop-color="#F743E5"/>
</linearGradient>
<linearGradient id="paint84_linear_422_1261" x1="956.5" y1="66" x2="956.5" y2="363.921" gradientUnits="userSpaceOnUse">
<stop stop-color="#9A1032"/>
<stop offset="0.484375" stop-color="#F7869F" stop-opacity="0.567708"/>
<stop offset="1" stop-color="#F743E5"/>
</linearGradient>
<linearGradient id="paint85_linear_422_1261" x1="956.5" y1="66" x2="956.5" y2="363.921" gradientUnits="userSpaceOnUse">
<stop stop-color="#9A1032"/>
<stop offset="0.484375" stop-color="#F7869F" stop-opacity="0.567708"/>
<stop offset="1" stop-color="#F743E5"/>
</linearGradient>
<linearGradient id="paint86_linear_422_1261" x1="956.5" y1="66" x2="956.5" y2="363.921" gradientUnits="userSpaceOnUse">
<stop stop-color="#9A1032"/>
<stop offset="0.484375" stop-color="#F7869F" stop-opacity="0.567708"/>
<stop offset="1" stop-color="#F743E5"/>
</linearGradient>
<linearGradient id="paint87_linear_422_1261" x1="956.5" y1="66" x2="956.5" y2="363.921" gradientUnits="userSpaceOnUse">
<stop stop-color="#9A1032"/>
<stop offset="0.484375" stop-color="#F7869F" stop-opacity="0.567708"/>
<stop offset="1" stop-color="#F743E5"/>
</linearGradient>
<linearGradient id="paint88_linear_422_1261" x1="956.5" y1="66" x2="956.5" y2="363.921" gradientUnits="userSpaceOnUse">
<stop stop-color="#9A1032"/>
<stop offset="0.484375" stop-color="#F7869F" stop-opacity="0.567708"/>
<stop offset="1" stop-color="#F743E5"/>
</linearGradient>
<linearGradient id="paint89_linear_422_1261" x1="956.5" y1="66" x2="956.5" y2="363.921" gradientUnits="userSpaceOnUse">
<stop stop-color="#9A1032"/>
<stop offset="0.484375" stop-color="#F7869F" stop-opacity="0.567708"/>
<stop offset="1" stop-color="#F743E5"/>
</linearGradient>
<linearGradient id="paint90_linear_422_1261" x1="956.5" y1="66" x2="956.5" y2="363.921" gradientUnits="userSpaceOnUse">
<stop stop-color="#9A1032"/>
<stop offset="0.484375" stop-color="#F7869F" stop-opacity="0.567708"/>
<stop offset="1" stop-color="#F743E5"/>
</linearGradient>
<linearGradient id="paint91_linear_422_1261" x1="956.5" y1="66" x2="956.5" y2="363.921" gradientUnits="userSpaceOnUse">
<stop stop-color="#9A1032"/>
<stop offset="0.484375" stop-color="#F7869F" stop-opacity="0.567708"/>
<stop offset="1" stop-color="#F743E5"/>
</linearGradient>
<linearGradient id="paint92_linear_422_1261" x1="956.5" y1="66" x2="956.5" y2="363.921" gradientUnits="userSpaceOnUse">
<stop stop-color="#9A1032"/>
<stop offset="0.484375" stop-color="#F7869F" stop-opacity="0.567708"/>
<stop offset="1" stop-color="#F743E5"/>
</linearGradient>
<linearGradient id="paint93_linear_422_1261" x1="956.5" y1="66" x2="956.5" y2="363.921" gradientUnits="userSpaceOnUse">
<stop stop-color="#9A1032"/>
<stop offset="0.484375" stop-color="#F7869F" stop-opacity="0.567708"/>
<stop offset="1" stop-color="#F743E5"/>
</linearGradient>
<clipPath id="clip0_422_1261">
<rect width="1024" height="1440" fill="white"/>
</clipPath>
</defs>
</svg>
