<svg width="1024" height="753" viewBox="0 0 1024 753" fill="none" xmlns="http://www.w3.org/2000/svg">
<g opacity="0.2" filter="url(#filter0_f_175_198)">
<ellipse cx="512.5" cy="34" rx="670.5" ry="350" fill="#EDC7D1"/>
</g>
<path d="M51.0349 341C52.5302 341 53.6622 341.63 54.4308 342.891C55.2134 344.138 55.6047 345.953 55.6047 348.336C55.6047 350.719 55.2134 352.541 54.4308 353.802C53.6622 355.063 52.5302 355.693 51.0349 355.693C49.5536 355.693 48.4216 355.063 47.639 353.802C46.8564 352.541 46.4651 350.719 46.4651 348.336C46.4651 345.967 46.8564 344.152 47.639 342.891C48.4216 341.63 49.5536 341 51.0349 341ZM47.9534 348.336C47.9534 350.026 48.1072 351.35 48.4146 352.306L53.0683 343.099C52.5791 342.448 51.9013 342.122 51.0349 342.122C50.0706 342.122 49.316 342.635 48.771 343.66C48.2259 344.672 47.9534 346.23 47.9534 348.336ZM51.0349 354.55C52.0131 354.55 52.7748 354.044 53.3198 353.033C53.8648 352.008 54.1373 350.442 54.1373 348.336C54.1373 346.549 53.9627 345.163 53.6133 344.18L48.9596 353.469C49.4627 354.19 50.1545 354.55 51.0349 354.55Z" fill="url(#paint0_linear_175_198)"/>
<path d="M52.2926 378.135H55.3741V379.236H47.3874V378.135H50.9511V366.455L47.5551 368.471L46.9682 367.536L51.1607 364.959H52.2926V378.135Z" fill="url(#paint1_linear_175_198)"/>
<path d="M51.0349 388.502C52.5302 388.502 53.6622 389.133 54.4308 390.393C55.2134 391.64 55.6047 393.455 55.6047 395.838C55.6047 398.221 55.2134 400.043 54.4308 401.304C53.6622 402.565 52.5302 403.195 51.0349 403.195C49.5536 403.195 48.4216 402.565 47.639 401.304C46.8564 400.043 46.4651 398.221 46.4651 395.838C46.4651 393.469 46.8564 391.654 47.639 390.393C48.4216 389.133 49.5536 388.502 51.0349 388.502ZM47.9534 395.838C47.9534 397.529 48.1072 398.852 48.4146 399.808L53.0683 390.601C52.5791 389.95 51.9013 389.624 51.0349 389.624C50.0706 389.624 49.316 390.137 48.771 391.162C48.2259 392.174 47.9534 393.732 47.9534 395.838ZM51.0349 402.052C52.0131 402.052 52.7748 401.546 53.3198 400.535C53.8648 399.51 54.1373 397.944 54.1373 395.838C54.1373 394.051 53.9627 392.665 53.6133 391.682L48.9596 400.971C49.4627 401.692 50.1545 402.052 51.0349 402.052Z" fill="url(#paint2_linear_175_198)"/>
<path d="M52.2926 425.637H55.3741V426.738H47.3874V425.637H50.9511V413.957L47.5551 415.973L46.9682 415.038L51.1607 412.461H52.2926V425.637Z" fill="url(#paint3_linear_175_198)"/>
<path d="M52.2926 449.388H55.3741V450.489H47.3874V449.388H50.9511V437.708L47.5551 439.724L46.9682 438.789L51.1607 436.212H52.2926V449.388Z" fill="url(#paint4_linear_175_198)"/>
<path d="M51.0349 459.755C52.5302 459.755 53.6622 460.386 54.4308 461.646C55.2134 462.893 55.6047 464.708 55.6047 467.091C55.6047 469.474 55.2134 471.296 54.4308 472.557C53.6622 473.818 52.5302 474.448 51.0349 474.448C49.5536 474.448 48.4216 473.818 47.639 472.557C46.8564 471.296 46.4651 469.474 46.4651 467.091C46.4651 464.722 46.8564 462.907 47.639 461.646C48.4216 460.386 49.5536 459.755 51.0349 459.755ZM47.9534 467.091C47.9534 468.782 48.1072 470.105 48.4146 471.061L53.0683 461.854C52.5791 461.203 51.9013 460.878 51.0349 460.878C50.0706 460.878 49.316 461.39 48.771 462.415C48.2259 463.427 47.9534 464.985 47.9534 467.091ZM51.0349 473.305C52.0131 473.305 52.7748 472.8 53.3198 471.788C53.8648 470.763 54.1373 469.197 54.1373 467.091C54.1373 465.304 53.9627 463.919 53.6133 462.935L48.9596 472.225C49.4627 472.945 50.1545 473.305 51.0349 473.305Z" fill="url(#paint5_linear_175_198)"/>
<path d="M52.2926 496.89H55.3741V497.992H47.3874V496.89H50.9511V485.21L47.5551 487.226L46.9682 486.291L51.1607 483.714H52.2926V496.89Z" fill="url(#paint6_linear_175_198)"/>
<path d="M51.0349 507.257C52.5302 507.257 53.6622 507.888 54.4308 509.149C55.2134 510.396 55.6047 512.21 55.6047 514.594C55.6047 516.977 55.2134 518.798 54.4308 520.059C53.6622 521.32 52.5302 521.95 51.0349 521.95C49.5536 521.95 48.4216 521.32 47.639 520.059C46.8564 518.798 46.4651 516.977 46.4651 514.594C46.4651 512.224 46.8564 510.409 47.639 509.149C48.4216 507.888 49.5536 507.257 51.0349 507.257ZM47.9534 514.594C47.9534 516.284 48.1072 517.607 48.4146 518.563L53.0683 509.356C52.5791 508.705 51.9013 508.38 51.0349 508.38C50.0706 508.38 49.316 508.892 48.771 509.918C48.2259 510.929 47.9534 512.488 47.9534 514.594ZM51.0349 520.807C52.0131 520.807 52.7748 520.302 53.3198 519.29C53.8648 518.265 54.1373 516.699 54.1373 514.594C54.1373 512.806 53.9627 511.421 53.6133 510.437L48.9596 519.727C49.4627 520.447 50.1545 520.807 51.0349 520.807Z" fill="url(#paint7_linear_175_198)"/>
<path d="M51.0349 531.008C52.5302 531.008 53.6622 531.639 54.4308 532.9C55.2134 534.147 55.6047 535.962 55.6047 538.345C55.6047 540.728 55.2134 542.549 54.4308 543.81C53.6622 545.071 52.5302 545.701 51.0349 545.701C49.5536 545.701 48.4216 545.071 47.639 543.81C46.8564 542.549 46.4651 540.728 46.4651 538.345C46.4651 535.975 46.8564 534.16 47.639 532.9C48.4216 531.639 49.5536 531.008 51.0349 531.008ZM47.9534 538.345C47.9534 540.035 48.1072 541.358 48.4146 542.314L53.0683 533.107C52.5791 532.456 51.9013 532.131 51.0349 532.131C50.0706 532.131 49.316 532.643 48.771 533.669C48.2259 534.68 47.9534 536.239 47.9534 538.345ZM51.0349 544.558C52.0131 544.558 52.7748 544.053 53.3198 543.041C53.8648 542.016 54.1373 540.451 54.1373 538.345C54.1373 536.557 53.9627 535.172 53.6133 534.188L48.9596 543.478C49.4627 544.198 50.1545 544.558 51.0349 544.558Z" fill="url(#paint8_linear_175_198)"/>
<path d="M52.2926 568.143H55.3741V569.245H47.3874V568.143H50.9511V556.464L47.5551 558.48L46.9682 557.544L51.1607 554.967H52.2926V568.143Z" fill="url(#paint9_linear_175_198)"/>
<path d="M51.0349 578.511C52.5302 578.511 53.6622 579.141 54.4308 580.402C55.2134 581.649 55.6047 583.464 55.6047 585.847C55.6047 588.23 55.2134 590.052 54.4308 591.312C53.6622 592.573 52.5302 593.204 51.0349 593.204C49.5536 593.204 48.4216 592.573 47.639 591.312C46.8564 590.052 46.4651 588.23 46.4651 585.847C46.4651 583.478 46.8564 581.663 47.639 580.402C48.4216 579.141 49.5536 578.511 51.0349 578.511ZM47.9534 585.847C47.9534 587.537 48.1072 588.86 48.4146 589.816L53.0683 580.61C52.5791 579.958 51.9013 579.633 51.0349 579.633C50.0706 579.633 49.316 580.145 48.771 581.171C48.2259 582.182 47.9534 583.741 47.9534 585.847ZM51.0349 592.061C52.0131 592.061 52.7748 591.555 53.3198 590.543C53.8648 589.518 54.1373 587.953 54.1373 585.847C54.1373 584.059 53.9627 582.674 53.6133 581.69L48.9596 590.98C49.4627 591.7 50.1545 592.061 51.0349 592.061Z" fill="url(#paint10_linear_175_198)"/>
<path d="M52.2926 615.645H55.3741V616.747H47.3874V615.645H50.9511V603.966L47.5551 605.982L46.9682 605.046L51.1607 602.469H52.2926V615.645Z" fill="url(#paint11_linear_175_198)"/>
<path d="M52.2926 639.396H55.3741V640.498H47.3874V639.396H50.9511V627.717L47.5551 629.733L46.9682 628.798L51.1607 626.221H52.2926V639.396Z" fill="url(#paint12_linear_175_198)"/>
<path d="M89.9651 388.502C91.4604 388.502 92.5924 389.133 93.361 390.393C94.1436 391.64 94.5349 393.455 94.5349 395.838C94.5349 398.221 94.1436 400.043 93.361 401.304C92.5924 402.565 91.4604 403.195 89.9651 403.195C88.4838 403.195 87.3518 402.565 86.5692 401.304C85.7866 400.043 85.3953 398.221 85.3953 395.838C85.3953 393.469 85.7866 391.654 86.5692 390.393C87.3518 389.133 88.4838 388.502 89.9651 388.502ZM86.8836 395.838C86.8836 397.529 87.0374 398.852 87.3448 399.808L91.9985 390.601C91.5093 389.95 90.8315 389.624 89.9651 389.624C89.0008 389.624 88.2462 390.137 87.7012 391.162C87.1561 392.174 86.8836 393.732 86.8836 395.838ZM89.9651 402.052C90.9433 402.052 91.705 401.546 92.25 400.535C92.795 399.51 93.0675 397.944 93.0675 395.838C93.0675 394.051 92.8928 392.665 92.5435 391.682L87.8898 400.971C88.3929 401.692 89.0847 402.052 89.9651 402.052Z" fill="url(#paint13_linear_175_198)"/>
<path d="M91.2228 425.637H94.3043V426.738H86.3176V425.637H89.8812V413.957L86.4853 415.973L85.8984 415.038L90.0909 412.461H91.2228V425.637Z" fill="url(#paint14_linear_175_198)"/>
<path d="M89.9651 436.004C91.4604 436.004 92.5924 436.635 93.361 437.895C94.1436 439.142 94.5349 440.957 94.5349 443.34C94.5349 445.723 94.1436 447.545 93.361 448.806C92.5924 450.067 91.4604 450.697 89.9651 450.697C88.4838 450.697 87.3518 450.067 86.5692 448.806C85.7866 447.545 85.3953 445.723 85.3953 443.34C85.3953 440.971 85.7866 439.156 86.5692 437.895C87.3518 436.635 88.4838 436.004 89.9651 436.004ZM86.8836 443.34C86.8836 445.031 87.0374 446.354 87.3448 447.31L91.9985 438.103C91.5093 437.452 90.8315 437.126 89.9651 437.126C89.0008 437.126 88.2462 437.639 87.7012 438.664C87.1561 439.676 86.8836 441.234 86.8836 443.34ZM89.9651 449.554C90.9433 449.554 91.705 449.049 92.25 448.037C92.795 447.012 93.0675 445.446 93.0675 443.34C93.0675 441.553 92.8928 440.168 92.5435 439.184L87.8898 448.474C88.3929 449.194 89.0847 449.554 89.9651 449.554Z" fill="url(#paint15_linear_175_198)"/>
<path d="M89.9651 459.755C91.4604 459.755 92.5924 460.386 93.361 461.646C94.1436 462.893 94.5349 464.708 94.5349 467.091C94.5349 469.474 94.1436 471.296 93.361 472.557C92.5924 473.818 91.4604 474.448 89.9651 474.448C88.4838 474.448 87.3518 473.818 86.5692 472.557C85.7866 471.296 85.3953 469.474 85.3953 467.091C85.3953 464.722 85.7866 462.907 86.5692 461.646C87.3518 460.386 88.4838 459.755 89.9651 459.755ZM86.8836 467.091C86.8836 468.782 87.0374 470.105 87.3448 471.061L91.9985 461.854C91.5093 461.203 90.8315 460.878 89.9651 460.878C89.0008 460.878 88.2462 461.39 87.7012 462.415C87.1561 463.427 86.8836 464.985 86.8836 467.091ZM89.9651 473.305C90.9433 473.305 91.705 472.8 92.25 471.788C92.795 470.763 93.0675 469.197 93.0675 467.091C93.0675 465.304 92.8928 463.919 92.5435 462.935L87.8898 472.225C88.3929 472.945 89.0847 473.305 89.9651 473.305Z" fill="url(#paint16_linear_175_198)"/>
<path d="M91.2228 496.89H94.3043V497.992H86.3176V496.89H89.8812V485.21L86.4853 487.226L85.8984 486.291L90.0909 483.714H91.2228V496.89Z" fill="url(#paint17_linear_175_198)"/>
<path d="M89.9651 507.257C91.4604 507.257 92.5924 507.888 93.361 509.149C94.1436 510.396 94.5349 512.21 94.5349 514.594C94.5349 516.977 94.1436 518.798 93.361 520.059C92.5924 521.32 91.4604 521.95 89.9651 521.95C88.4838 521.95 87.3518 521.32 86.5692 520.059C85.7866 518.798 85.3953 516.977 85.3953 514.594C85.3953 512.224 85.7866 510.409 86.5692 509.149C87.3518 507.888 88.4838 507.257 89.9651 507.257ZM86.8836 514.594C86.8836 516.284 87.0374 517.607 87.3448 518.563L91.9985 509.356C91.5093 508.705 90.8315 508.38 89.9651 508.38C89.0008 508.38 88.2462 508.892 87.7012 509.918C87.1561 510.929 86.8836 512.488 86.8836 514.594ZM89.9651 520.807C90.9433 520.807 91.705 520.302 92.25 519.29C92.795 518.265 93.0675 516.699 93.0675 514.594C93.0675 512.806 92.8928 511.421 92.5435 510.437L87.8898 519.727C88.3929 520.447 89.0847 520.807 89.9651 520.807Z" fill="url(#paint18_linear_175_198)"/>
<path d="M91.2228 544.392H94.3043V545.494H86.3176V544.392H89.8812V532.713L86.4853 534.728L85.8984 533.793L90.0909 531.216H91.2228V544.392Z" fill="url(#paint19_linear_175_198)"/>
<path d="M89.9651 554.76C91.4604 554.76 92.5924 555.39 93.361 556.651C94.1436 557.898 94.5349 559.713 94.5349 562.096C94.5349 564.479 94.1436 566.301 93.361 567.561C92.5924 568.822 91.4604 569.453 89.9651 569.453C88.4838 569.453 87.3518 568.822 86.5692 567.561C85.7866 566.301 85.3953 564.479 85.3953 562.096C85.3953 559.726 85.7866 557.911 86.5692 556.651C87.3518 555.39 88.4838 554.76 89.9651 554.76ZM86.8836 562.096C86.8836 563.786 87.0374 565.109 87.3448 566.065L91.9985 556.859C91.5093 556.207 90.8315 555.882 89.9651 555.882C89.0008 555.882 88.2462 556.394 87.7012 557.42C87.1561 558.431 86.8836 559.99 86.8836 562.096ZM89.9651 568.31C90.9433 568.31 91.705 567.804 92.25 566.792C92.795 565.767 93.0675 564.202 93.0675 562.096C93.0675 560.308 92.8928 558.923 92.5435 557.939L87.8898 567.229C88.3929 567.949 89.0847 568.31 89.9651 568.31Z" fill="url(#paint20_linear_175_198)"/>
<path d="M89.9651 578.511C91.4604 578.511 92.5924 579.141 93.361 580.402C94.1436 581.649 94.5349 583.464 94.5349 585.847C94.5349 588.23 94.1436 590.052 93.361 591.312C92.5924 592.573 91.4604 593.204 89.9651 593.204C88.4838 593.204 87.3518 592.573 86.5692 591.312C85.7866 590.052 85.3953 588.23 85.3953 585.847C85.3953 583.478 85.7866 581.663 86.5692 580.402C87.3518 579.141 88.4838 578.511 89.9651 578.511ZM86.8836 585.847C86.8836 587.537 87.0374 588.86 87.3448 589.816L91.9985 580.61C91.5093 579.958 90.8315 579.633 89.9651 579.633C89.0008 579.633 88.2462 580.145 87.7012 581.171C87.1561 582.182 86.8836 583.741 86.8836 585.847ZM89.9651 592.061C90.9433 592.061 91.705 591.555 92.25 590.543C92.795 589.518 93.0675 587.953 93.0675 585.847C93.0675 584.059 92.8928 582.674 92.5435 581.69L87.8898 590.98C88.3929 591.7 89.0847 592.061 89.9651 592.061Z" fill="url(#paint21_linear_175_198)"/>
<path d="M91.2228 615.645H94.3043V616.747H86.3176V615.645H89.8812V603.966L86.4853 605.982L85.8984 605.046L90.0909 602.469H91.2228V615.645Z" fill="url(#paint22_linear_175_198)"/>
<path d="M89.9651 626.013C91.4604 626.013 92.5924 626.643 93.361 627.904C94.1436 629.151 94.5349 630.966 94.5349 633.349C94.5349 635.732 94.1436 637.554 93.361 638.815C92.5924 640.075 91.4604 640.706 89.9651 640.706C88.4838 640.706 87.3518 640.075 86.5692 638.815C85.7866 637.554 85.3953 635.732 85.3953 633.349C85.3953 630.98 85.7866 629.165 86.5692 627.904C87.3518 626.643 88.4838 626.013 89.9651 626.013ZM86.8836 633.349C86.8836 635.039 87.0374 636.362 87.3448 637.318L91.9985 628.112C91.5093 627.461 90.8315 627.135 89.9651 627.135C89.0008 627.135 88.2462 627.648 87.7012 628.673C87.1561 629.684 86.8836 631.243 86.8836 633.349ZM89.9651 639.563C90.9433 639.563 91.705 639.057 92.25 638.046C92.795 637.02 93.0675 635.455 93.0675 633.349C93.0675 631.562 92.8928 630.176 92.5435 629.192L87.8898 638.482C88.3929 639.202 89.0847 639.563 89.9651 639.563Z" fill="url(#paint23_linear_175_198)"/>
<path d="M91.2228 663.147H94.3043V664.249H86.3176V663.147H89.8812V651.468L86.4853 653.484L85.8984 652.549L90.0909 649.972H91.2228V663.147Z" fill="url(#paint24_linear_175_198)"/>
<path d="M91.2228 686.899H94.3043V688H86.3176V686.899H89.8812V675.219L86.4853 677.235L85.8984 676.3L90.0909 673.723H91.2228V686.899Z" fill="url(#paint25_linear_175_198)"/>
<path d="M31.5698 412.253C33.0651 412.253 34.1971 412.884 34.9657 414.144C35.7483 415.391 36.1396 417.206 36.1396 419.589C36.1396 421.972 35.7483 423.794 34.9657 425.055C34.1971 426.316 33.0651 426.946 31.5698 426.946C30.0885 426.946 28.9565 426.316 28.1739 425.055C27.3913 423.794 27 421.972 27 419.589C27 417.22 27.3913 415.405 28.1739 414.144C28.9565 412.884 30.0885 412.253 31.5698 412.253ZM28.4883 419.589C28.4883 421.28 28.6421 422.603 28.9495 423.559L33.6032 414.352C33.114 413.701 32.4363 413.375 31.5698 413.375C30.6055 413.375 29.8509 413.888 29.3059 414.913C28.7608 415.925 28.4883 417.483 28.4883 419.589ZM31.5698 425.803C32.5481 425.803 33.3097 425.297 33.8547 424.286C34.3997 423.261 34.6722 421.695 34.6722 419.589C34.6722 417.802 34.4976 416.417 34.1482 415.433L29.4945 424.722C29.9976 425.443 30.6894 425.803 31.5698 425.803Z" fill="url(#paint26_linear_175_198)"/>
<path d="M31.5698 436.004C33.0651 436.004 34.1971 436.635 34.9657 437.895C35.7483 439.142 36.1396 440.957 36.1396 443.34C36.1396 445.723 35.7483 447.545 34.9657 448.806C34.1971 450.067 33.0651 450.697 31.5698 450.697C30.0885 450.697 28.9565 450.067 28.1739 448.806C27.3913 447.545 27 445.723 27 443.34C27 440.971 27.3913 439.156 28.1739 437.895C28.9565 436.635 30.0885 436.004 31.5698 436.004ZM28.4883 443.34C28.4883 445.031 28.6421 446.354 28.9495 447.31L33.6032 438.103C33.114 437.452 32.4363 437.126 31.5698 437.126C30.6055 437.126 29.8509 437.639 29.3059 438.664C28.7608 439.676 28.4883 441.234 28.4883 443.34ZM31.5698 449.554C32.5481 449.554 33.3097 449.049 33.8547 448.037C34.3997 447.012 34.6722 445.446 34.6722 443.34C34.6722 441.553 34.4976 440.168 34.1482 439.184L29.4945 448.474C29.9976 449.194 30.6894 449.554 31.5698 449.554Z" fill="url(#paint27_linear_175_198)"/>
<path d="M32.8276 473.139H35.909V474.24H27.9223V473.139H31.486V461.459L28.09 463.475L27.5031 462.54L31.6956 459.963H32.8276V473.139Z" fill="url(#paint28_linear_175_198)"/>
<path d="M31.5698 483.506C33.0651 483.506 34.1971 484.137 34.9657 485.398C35.7483 486.644 36.1396 488.459 36.1396 490.842C36.1396 493.225 35.7483 495.047 34.9657 496.308C34.1971 497.569 33.0651 498.199 31.5698 498.199C30.0885 498.199 28.9565 497.569 28.1739 496.308C27.3913 495.047 27 493.225 27 490.842C27 488.473 27.3913 486.658 28.1739 485.398C28.9565 484.137 30.0885 483.506 31.5698 483.506ZM28.4883 490.842C28.4883 492.533 28.6421 493.856 28.9495 494.812L33.6032 485.605C33.114 484.954 32.4363 484.629 31.5698 484.629C30.6055 484.629 29.8509 485.141 29.3059 486.166C28.7608 487.178 28.4883 488.737 28.4883 490.842ZM31.5698 497.056C32.5481 497.056 33.3097 496.551 33.8547 495.539C34.3997 494.514 34.6722 492.948 34.6722 490.842C34.6722 489.055 34.4976 487.67 34.1482 486.686L29.4945 495.976C29.9976 496.696 30.6894 497.056 31.5698 497.056Z" fill="url(#paint29_linear_175_198)"/>
<path d="M32.8276 520.641H35.909V521.743H27.9223V520.641H31.486V508.962L28.09 510.977L27.5031 510.042L31.6956 507.465H32.8276V520.641Z" fill="url(#paint30_linear_175_198)"/>
<path d="M32.8276 544.392H35.909V545.494H27.9223V544.392H31.486V532.713L28.09 534.728L27.5031 533.793L31.6956 531.216H32.8276V544.392Z" fill="url(#paint31_linear_175_198)"/>
<path d="M71.7577 378.135H74.8392V379.236H66.8525V378.135H70.4162V366.455L67.0202 368.471L66.4333 367.536L70.6258 364.959H71.7577V378.135Z" fill="url(#paint32_linear_175_198)"/>
<path d="M70.5 388.502C71.9953 388.502 73.1273 389.133 73.8959 390.393C74.6785 391.64 75.0698 393.455 75.0698 395.838C75.0698 398.221 74.6785 400.043 73.8959 401.304C73.1273 402.565 71.9953 403.195 70.5 403.195C69.0187 403.195 67.8867 402.565 67.1041 401.304C66.3215 400.043 65.9302 398.221 65.9302 395.838C65.9302 393.469 66.3215 391.654 67.1041 390.393C67.8867 389.133 69.0187 388.502 70.5 388.502ZM67.4185 395.838C67.4185 397.529 67.5723 398.852 67.8797 399.808L72.5334 390.601C72.0442 389.95 71.3664 389.624 70.5 389.624C69.5357 389.624 68.7811 390.137 68.2361 391.162C67.691 392.174 67.4185 393.732 67.4185 395.838ZM70.5 402.052C71.4782 402.052 72.2399 401.546 72.7849 400.535C73.3299 399.51 73.6024 397.944 73.6024 395.838C73.6024 394.051 73.4278 392.665 73.0784 391.682L68.4247 400.971C68.9278 401.692 69.6196 402.052 70.5 402.052Z" fill="url(#paint33_linear_175_198)"/>
<path d="M71.7577 425.637H74.8392V426.738H66.8525V425.637H70.4162V413.957L67.0202 415.973L66.4333 415.038L70.6258 412.461H71.7577V425.637Z" fill="url(#paint34_linear_175_198)"/>
<path d="M71.7577 449.388H74.8392V450.489H66.8525V449.388H70.4162V437.708L67.0202 439.724L66.4333 438.789L70.6258 436.212H71.7577V449.388Z" fill="url(#paint35_linear_175_198)"/>
<path d="M70.5 459.755C71.9953 459.755 73.1273 460.386 73.8959 461.646C74.6785 462.893 75.0698 464.708 75.0698 467.091C75.0698 469.474 74.6785 471.296 73.8959 472.557C73.1273 473.818 71.9953 474.448 70.5 474.448C69.0187 474.448 67.8867 473.818 67.1041 472.557C66.3215 471.296 65.9302 469.474 65.9302 467.091C65.9302 464.722 66.3215 462.907 67.1041 461.646C67.8867 460.386 69.0187 459.755 70.5 459.755ZM67.4185 467.091C67.4185 468.782 67.5723 470.105 67.8797 471.061L72.5334 461.854C72.0442 461.203 71.3664 460.878 70.5 460.878C69.5357 460.878 68.7811 461.39 68.2361 462.415C67.691 463.427 67.4185 464.985 67.4185 467.091ZM70.5 473.305C71.4782 473.305 72.2399 472.8 72.7849 471.788C73.3299 470.763 73.6024 469.197 73.6024 467.091C73.6024 465.304 73.4278 463.919 73.0784 462.935L68.4247 472.225C68.9278 472.945 69.6196 473.305 70.5 473.305Z" fill="url(#paint36_linear_175_198)"/>
<path d="M71.7577 496.89H74.8392V497.992H66.8525V496.89H70.4162V485.21L67.0202 487.226L66.4333 486.291L70.6258 483.714H71.7577V496.89Z" fill="url(#paint37_linear_175_198)"/>
<path d="M71.7577 520.641H74.8392V521.743H66.8525V520.641H70.4162V508.962L67.0202 510.977L66.4333 510.042L70.6258 507.465H71.7577V520.641Z" fill="url(#paint38_linear_175_198)"/>
<path d="M70.5 531.008C71.9953 531.008 73.1273 531.639 73.8959 532.9C74.6785 534.147 75.0698 535.962 75.0698 538.345C75.0698 540.728 74.6785 542.549 73.8959 543.81C73.1273 545.071 71.9953 545.701 70.5 545.701C69.0187 545.701 67.8867 545.071 67.1041 543.81C66.3215 542.549 65.9302 540.728 65.9302 538.345C65.9302 535.975 66.3215 534.16 67.1041 532.9C67.8867 531.639 69.0187 531.008 70.5 531.008ZM67.4185 538.345C67.4185 540.035 67.5723 541.358 67.8797 542.314L72.5334 533.107C72.0442 532.456 71.3664 532.131 70.5 532.131C69.5357 532.131 68.7811 532.643 68.2361 533.669C67.691 534.68 67.4185 536.239 67.4185 538.345ZM70.5 544.558C71.4782 544.558 72.2399 544.053 72.7849 543.041C73.3299 542.016 73.6024 540.451 73.6024 538.345C73.6024 536.557 73.4278 535.172 73.0784 534.188L68.4247 543.478C68.9278 544.198 69.6196 544.558 70.5 544.558Z" fill="url(#paint39_linear_175_198)"/>
<path d="M71.7577 568.143H74.8392V569.245H66.8525V568.143H70.4162V556.464L67.0202 558.48L66.4333 557.544L70.6258 554.967H71.7577V568.143Z" fill="url(#paint40_linear_175_198)"/>
<path d="M70.5 578.511C71.9953 578.511 73.1273 579.141 73.8959 580.402C74.6785 581.649 75.0698 583.464 75.0698 585.847C75.0698 588.23 74.6785 590.052 73.8959 591.312C73.1273 592.573 71.9953 593.204 70.5 593.204C69.0187 593.204 67.8867 592.573 67.1041 591.312C66.3215 590.052 65.9302 588.23 65.9302 585.847C65.9302 583.478 66.3215 581.663 67.1041 580.402C67.8867 579.141 69.0187 578.511 70.5 578.511ZM67.4185 585.847C67.4185 587.537 67.5723 588.86 67.8797 589.816L72.5334 580.61C72.0442 579.958 71.3664 579.633 70.5 579.633C69.5357 579.633 68.7811 580.145 68.2361 581.171C67.691 582.182 67.4185 583.741 67.4185 585.847ZM70.5 592.061C71.4782 592.061 72.2399 591.555 72.7849 590.543C73.3299 589.518 73.6024 587.953 73.6024 585.847C73.6024 584.059 73.4278 582.674 73.0784 581.69L68.4247 590.98C68.9278 591.7 69.6196 592.061 70.5 592.061Z" fill="url(#paint41_linear_175_198)"/>
<path d="M109.43 364.751C110.926 364.751 112.057 365.381 112.826 366.642C113.609 367.889 114 369.704 114 372.087C114 374.47 113.609 376.292 112.826 377.553C112.057 378.814 110.926 379.444 109.43 379.444C107.949 379.444 106.817 378.814 106.034 377.553C105.252 376.292 104.86 374.47 104.86 372.087C104.86 369.718 105.252 367.903 106.034 366.642C106.817 365.381 107.949 364.751 109.43 364.751ZM106.349 372.087C106.349 373.777 106.502 375.101 106.81 376.057L111.464 366.85C110.974 366.199 110.297 365.873 109.43 365.873C108.466 365.873 107.711 366.386 107.166 367.411C106.621 368.423 106.349 369.981 106.349 372.087ZM109.43 378.301C110.408 378.301 111.17 377.795 111.715 376.784C112.26 375.759 112.533 374.193 112.533 372.087C112.533 370.3 112.358 368.914 112.009 367.931L107.355 377.22C107.858 377.941 108.55 378.301 109.43 378.301Z" fill="url(#paint42_linear_175_198)"/>
<path d="M110.688 401.886H113.769V402.987H105.783V401.886H109.346V390.206L105.95 392.222L105.363 391.287L109.556 388.71H110.688V401.886Z" fill="url(#paint43_linear_175_198)"/>
<path d="M110.688 425.637H113.769V426.738H105.783V425.637H109.346V413.957L105.95 415.973L105.363 415.038L109.556 412.461H110.688V425.637Z" fill="url(#paint44_linear_175_198)"/>
<path d="M109.43 436.004C110.926 436.004 112.057 436.635 112.826 437.895C113.609 439.142 114 440.957 114 443.34C114 445.723 113.609 447.545 112.826 448.806C112.057 450.067 110.926 450.697 109.43 450.697C107.949 450.697 106.817 450.067 106.034 448.806C105.252 447.545 104.86 445.723 104.86 443.34C104.86 440.971 105.252 439.156 106.034 437.895C106.817 436.635 107.949 436.004 109.43 436.004ZM106.349 443.34C106.349 445.031 106.502 446.354 106.81 447.31L111.464 438.103C110.974 437.452 110.297 437.126 109.43 437.126C108.466 437.126 107.711 437.639 107.166 438.664C106.621 439.676 106.349 441.234 106.349 443.34ZM109.43 449.554C110.408 449.554 111.17 449.049 111.715 448.037C112.26 447.012 112.533 445.446 112.533 443.34C112.533 441.553 112.358 440.168 112.009 439.184L107.355 448.474C107.858 449.194 108.55 449.554 109.43 449.554Z" fill="url(#paint45_linear_175_198)"/>
<path d="M109.43 459.755C110.926 459.755 112.057 460.386 112.826 461.646C113.609 462.893 114 464.708 114 467.091C114 469.474 113.609 471.296 112.826 472.557C112.057 473.818 110.926 474.448 109.43 474.448C107.949 474.448 106.817 473.818 106.034 472.557C105.252 471.296 104.86 469.474 104.86 467.091C104.86 464.722 105.252 462.907 106.034 461.646C106.817 460.386 107.949 459.755 109.43 459.755ZM106.349 467.091C106.349 468.782 106.502 470.105 106.81 471.061L111.464 461.854C110.974 461.203 110.297 460.878 109.43 460.878C108.466 460.878 107.711 461.39 107.166 462.415C106.621 463.427 106.349 464.985 106.349 467.091ZM109.43 473.305C110.408 473.305 111.17 472.8 111.715 471.788C112.26 470.763 112.533 469.197 112.533 467.091C112.533 465.304 112.358 463.919 112.009 462.935L107.355 472.225C107.858 472.945 108.55 473.305 109.43 473.305Z" fill="url(#paint46_linear_175_198)"/>
<g opacity="0.6">
<path d="M937.93 -30C939.356 -30 940.436 -29.3969 941.17 -28.1906C941.916 -26.9975 942.29 -25.261 942.29 -22.981C942.29 -20.701 941.916 -18.9579 941.17 -17.7516C940.436 -16.5453 939.356 -15.9421 937.93 -15.9421C936.517 -15.9421 935.437 -16.5453 934.69 -17.7516C933.943 -18.9579 933.57 -20.701 933.57 -22.981C933.57 -25.2478 933.943 -26.9843 934.69 -28.1906C935.437 -29.3969 936.517 -30 937.93 -30ZM934.99 -22.981C934.99 -21.3638 935.137 -20.0979 935.43 -19.1832L939.87 -27.9917C939.403 -28.6148 938.756 -28.9263 937.93 -28.9263C937.01 -28.9263 936.29 -28.4358 935.77 -27.4549C935.25 -26.4872 934.99 -24.9959 934.99 -22.981ZM937.93 -17.0358C938.863 -17.0358 939.59 -17.5196 940.11 -18.4873C940.63 -19.4682 940.89 -20.9661 940.89 -22.981C940.89 -24.691 940.723 -26.0166 940.39 -26.9578L935.95 -18.0697C936.43 -17.3804 937.09 -17.0358 937.93 -17.0358Z" fill="url(#paint47_linear_175_198)"/>
<path d="M939.13 5.52953H942.07V6.58337H934.45V5.52953H937.85V-5.64517L934.61 -3.71644L934.05 -4.61121L938.05 -7.07681H939.13V5.52953Z" fill="url(#paint48_linear_175_198)"/>
<path d="M937.93 15.4487C939.356 15.4487 940.436 16.0519 941.17 17.2581C941.916 18.4512 942.29 20.1877 942.29 22.4677C942.29 24.7477 941.916 26.4909 941.17 27.6971C940.436 28.9034 939.356 29.5066 937.93 29.5066C936.517 29.5066 935.437 28.9034 934.69 27.6971C933.943 26.4909 933.57 24.7477 933.57 22.4677C933.57 20.2009 933.943 18.4644 934.69 17.2581C935.437 16.0519 936.517 15.4487 937.93 15.4487ZM934.99 22.4677C934.99 24.0849 935.137 25.3509 935.43 26.2655L939.87 17.457C939.403 16.834 938.756 16.5224 937.93 16.5224C937.01 16.5224 936.29 17.0129 935.77 17.9938C935.25 18.9615 934.99 20.4528 934.99 22.4677ZM937.93 28.413C938.863 28.413 939.59 27.9291 940.11 26.9614C940.63 25.9805 940.89 24.4826 940.89 22.4677C940.89 20.7577 940.723 19.4321 940.39 18.4909L935.95 27.379C936.43 28.0683 937.09 28.413 937.93 28.413Z" fill="url(#paint49_linear_175_198)"/>
<path d="M939.13 50.9782H942.07V52.0321H934.45V50.9782H937.85V39.8035L934.61 41.7323L934.05 40.8375L938.05 38.3719H939.13V50.9782Z" fill="url(#paint50_linear_175_198)"/>
<path d="M939.13 73.7026H942.07V74.7564H934.45V73.7026H937.85V62.5279L934.61 64.4566L934.05 63.5619L938.05 61.0963H939.13V73.7026Z" fill="url(#paint51_linear_175_198)"/>
<path d="M937.93 83.6218C939.356 83.6218 940.436 84.2249 941.17 85.4312C941.916 86.6242 942.29 88.3608 942.29 90.6408C942.29 92.9208 941.916 94.6639 941.17 95.8702C940.436 97.0765 939.356 97.6796 937.93 97.6796C936.517 97.6796 935.437 97.0765 934.69 95.8702C933.943 94.6639 933.57 92.9208 933.57 90.6408C933.57 88.374 933.943 86.6375 934.69 85.4312C935.437 84.2249 936.517 83.6218 937.93 83.6218ZM934.99 90.6408C934.99 92.258 935.137 93.5239 935.43 94.4386L939.87 85.6301C939.403 85.007 938.756 84.6955 937.93 84.6955C937.01 84.6955 936.29 85.186 935.77 86.1669C935.25 87.1346 934.99 88.6259 934.99 90.6408ZM937.93 96.586C938.863 96.586 939.59 96.1022 940.11 95.1345C940.63 94.1536 940.89 92.6557 940.89 90.6408C940.89 88.9308 940.723 87.6052 940.39 86.664L935.95 95.5521C936.43 96.2414 937.09 96.586 937.93 96.586Z" fill="url(#paint52_linear_175_198)"/>
<path d="M939.13 119.151H942.07V120.205H934.45V119.151H937.85V107.977L934.61 109.905L934.05 109.011L938.05 106.545H939.13V119.151Z" fill="url(#paint53_linear_175_198)"/>
<path d="M937.93 129.07C939.356 129.07 940.436 129.674 941.17 130.88C941.916 132.073 942.29 133.809 942.29 136.089C942.29 138.37 941.916 140.113 941.17 141.319C940.436 142.525 939.356 143.128 937.93 143.128C936.517 143.128 935.437 142.525 934.69 141.319C933.943 140.113 933.57 138.37 933.57 136.089C933.57 133.823 933.943 132.086 934.69 130.88C935.437 129.674 936.517 129.07 937.93 129.07ZM934.99 136.089C934.99 137.707 935.137 138.973 935.43 139.887L939.87 131.079C939.403 130.456 938.756 130.144 937.93 130.144C937.01 130.144 936.29 130.635 935.77 131.616C935.25 132.583 934.99 134.075 934.99 136.089ZM937.93 142.035C938.863 142.035 939.59 141.551 940.11 140.583C940.63 139.602 940.89 138.104 940.89 136.089C940.89 134.379 940.723 133.054 940.39 132.113L935.95 141.001C936.43 141.69 937.09 142.035 937.93 142.035Z" fill="url(#paint54_linear_175_198)"/>
<path d="M937.93 151.795C939.356 151.795 940.436 152.398 941.17 153.604C941.916 154.797 942.29 156.534 942.29 158.814C942.29 161.094 941.916 162.837 941.17 164.043C940.436 165.25 939.356 165.853 937.93 165.853C936.517 165.853 935.437 165.25 934.69 164.043C933.943 162.837 933.57 161.094 933.57 158.814C933.57 156.547 933.943 154.811 934.69 153.604C935.437 152.398 936.517 151.795 937.93 151.795ZM934.99 158.814C934.99 160.431 935.137 161.697 935.43 162.612L939.87 153.803C939.403 153.18 938.756 152.869 937.93 152.869C937.01 152.869 936.29 153.359 935.77 154.34C935.25 155.308 934.99 156.799 934.99 158.814ZM937.93 164.759C938.863 164.759 939.59 164.275 940.11 163.308C940.63 162.327 940.89 160.829 940.89 158.814C940.89 157.104 940.723 155.778 940.39 154.837L935.95 163.725C936.43 164.414 937.09 164.759 937.93 164.759Z" fill="url(#paint55_linear_175_198)"/>
<path d="M939.13 187.324H942.07V188.378H934.45V187.324H937.85V176.15L934.61 178.078L934.05 177.184L938.05 174.718H939.13V187.324Z" fill="url(#paint56_linear_175_198)"/>
<path d="M937.93 197.244C939.356 197.244 940.436 197.847 941.17 199.053C941.916 200.246 942.29 201.983 942.29 204.263C942.29 206.543 941.916 208.286 941.17 209.492C940.436 210.698 939.356 211.301 937.93 211.301C936.517 211.301 935.437 210.698 934.69 209.492C933.943 208.286 933.57 206.543 933.57 204.263C933.57 201.996 933.943 200.259 934.69 199.053C935.437 197.847 936.517 197.244 937.93 197.244ZM934.99 204.263C934.99 205.88 935.137 207.146 935.43 208.06L939.87 199.252C939.403 198.629 938.756 198.317 937.93 198.317C937.01 198.317 936.29 198.808 935.77 199.789C935.25 200.756 934.99 202.248 934.99 204.263ZM937.93 210.208C938.863 210.208 939.59 209.724 940.11 208.756C940.63 207.775 940.89 206.277 940.89 204.263C940.89 202.553 940.723 201.227 940.39 200.286L935.95 209.174C936.43 209.863 937.09 210.208 937.93 210.208Z" fill="url(#paint57_linear_175_198)"/>
<path d="M939.13 232.773H942.07V233.827H934.45V232.773H937.85V221.598L934.61 223.527L934.05 222.632L938.05 220.167H939.13V232.773Z" fill="url(#paint58_linear_175_198)"/>
<path d="M939.13 255.497H942.07V256.551H934.45V255.497H937.85V244.323L934.61 246.251L934.05 245.357L938.05 242.891H939.13V255.497Z" fill="url(#paint59_linear_175_198)"/>
<path d="M975.07 15.4487C976.497 15.4487 977.577 16.0519 978.31 17.2581C979.057 18.4512 979.43 20.1877 979.43 22.4677C979.43 24.7477 979.057 26.4909 978.31 27.6971C977.577 28.9034 976.497 29.5066 975.07 29.5066C973.657 29.5066 972.577 28.9034 971.83 27.6971C971.084 26.4909 970.71 24.7477 970.71 22.4677C970.71 20.2009 971.084 18.4644 971.83 17.2581C972.577 16.0519 973.657 15.4487 975.07 15.4487ZM972.13 22.4677C972.13 24.0849 972.277 25.3509 972.57 26.2655L977.01 17.457C976.543 16.834 975.897 16.5224 975.07 16.5224C974.15 16.5224 973.43 17.0129 972.91 17.9938C972.39 18.9615 972.13 20.4528 972.13 22.4677ZM975.07 28.413C976.003 28.413 976.73 27.9291 977.25 26.9614C977.77 25.9805 978.03 24.4826 978.03 22.4677C978.03 20.7577 977.863 19.4321 977.53 18.4909L973.09 27.379C973.57 28.0683 974.23 28.413 975.07 28.413Z" fill="url(#paint60_linear_175_198)"/>
<path d="M976.27 50.9782H979.21V52.0321H971.59V50.9782H974.99V39.8035L971.75 41.7323L971.19 40.8375L975.19 38.3719H976.27V50.9782Z" fill="url(#paint61_linear_175_198)"/>
<path d="M975.07 60.8974C976.497 60.8974 977.577 61.5006 978.31 62.7069C979.057 63.8999 979.43 65.6364 979.43 67.9164C979.43 70.1964 979.057 71.9396 978.31 73.1459C977.577 74.3521 976.497 74.9553 975.07 74.9553C973.657 74.9553 972.577 74.3521 971.83 73.1459C971.084 71.9396 970.71 70.1964 970.71 67.9164C970.71 65.6497 971.084 63.9131 971.83 62.7069C972.577 61.5006 973.657 60.8974 975.07 60.8974ZM972.13 67.9164C972.13 69.5336 972.277 70.7996 972.57 71.7142L977.01 62.9057C976.543 62.2827 975.897 61.9712 975.07 61.9712C974.15 61.9712 973.43 62.4616 972.91 63.4426C972.39 64.4102 972.13 65.9015 972.13 67.9164ZM975.07 73.8617C976.003 73.8617 976.73 73.3778 977.25 72.4102C977.77 71.4292 978.03 69.9313 978.03 67.9164C978.03 66.2064 977.863 64.8808 977.53 63.9397L973.09 72.8277C973.57 73.517 974.23 73.8617 975.07 73.8617Z" fill="url(#paint62_linear_175_198)"/>
<path d="M975.07 83.6218C976.497 83.6218 977.577 84.2249 978.31 85.4312C979.057 86.6242 979.43 88.3608 979.43 90.6408C979.43 92.9208 979.057 94.6639 978.31 95.8702C977.577 97.0765 976.497 97.6796 975.07 97.6796C973.657 97.6796 972.577 97.0765 971.83 95.8702C971.084 94.6639 970.71 92.9208 970.71 90.6408C970.71 88.374 971.084 86.6375 971.83 85.4312C972.577 84.2249 973.657 83.6218 975.07 83.6218ZM972.13 90.6408C972.13 92.258 972.277 93.5239 972.57 94.4386L977.01 85.6301C976.543 85.007 975.897 84.6955 975.07 84.6955C974.15 84.6955 973.43 85.186 972.91 86.1669C972.39 87.1346 972.13 88.6259 972.13 90.6408ZM975.07 96.586C976.003 96.586 976.73 96.1022 977.25 95.1345C977.77 94.1536 978.03 92.6557 978.03 90.6408C978.03 88.9308 977.863 87.6052 977.53 86.664L973.09 95.5521C973.57 96.2414 974.23 96.586 975.07 96.586Z" fill="url(#paint63_linear_175_198)"/>
<path d="M976.27 119.151H979.21V120.205H971.59V119.151H974.99V107.977L971.75 109.905L971.19 109.011L975.19 106.545H976.27V119.151Z" fill="url(#paint64_linear_175_198)"/>
<path d="M975.07 129.07C976.497 129.07 977.577 129.674 978.31 130.88C979.057 132.073 979.43 133.809 979.43 136.089C979.43 138.37 979.057 140.113 978.31 141.319C977.577 142.525 976.497 143.128 975.07 143.128C973.657 143.128 972.577 142.525 971.83 141.319C971.084 140.113 970.71 138.37 970.71 136.089C970.71 133.823 971.084 132.086 971.83 130.88C972.577 129.674 973.657 129.07 975.07 129.07ZM972.13 136.089C972.13 137.707 972.277 138.973 972.57 139.887L977.01 131.079C976.543 130.456 975.897 130.144 975.07 130.144C974.15 130.144 973.43 130.635 972.91 131.616C972.39 132.583 972.13 134.075 972.13 136.089ZM975.07 142.035C976.003 142.035 976.73 141.551 977.25 140.583C977.77 139.602 978.03 138.104 978.03 136.089C978.03 134.379 977.863 133.054 977.53 132.113L973.09 141.001C973.57 141.69 974.23 142.035 975.07 142.035Z" fill="url(#paint65_linear_175_198)"/>
<path d="M976.27 164.6H979.21V165.654H971.59V164.6H974.99V153.425L971.75 155.354L971.19 154.459L975.19 151.994H976.27V164.6Z" fill="url(#paint66_linear_175_198)"/>
<path d="M975.07 174.519C976.497 174.519 977.577 175.122 978.31 176.329C979.057 177.522 979.43 179.258 979.43 181.538C979.43 183.818 979.057 185.561 978.31 186.768C977.577 187.974 976.497 188.577 975.07 188.577C973.657 188.577 972.577 187.974 971.83 186.768C971.084 185.561 970.71 183.818 970.71 181.538C970.71 179.271 971.084 177.535 971.83 176.329C972.577 175.122 973.657 174.519 975.07 174.519ZM972.13 181.538C972.13 183.155 972.277 184.421 972.57 185.336L977.01 176.527C976.543 175.904 975.897 175.593 975.07 175.593C974.15 175.593 973.43 176.083 972.91 177.064C972.39 178.032 972.13 179.523 972.13 181.538ZM975.07 187.483C976.003 187.483 976.73 187 977.25 186.032C977.77 185.051 978.03 183.553 978.03 181.538C978.03 179.828 977.863 178.503 977.53 177.561L973.09 186.449C973.57 187.139 974.23 187.483 975.07 187.483Z" fill="url(#paint67_linear_175_198)"/>
<path d="M975.07 197.244C976.497 197.244 977.577 197.847 978.31 199.053C979.057 200.246 979.43 201.983 979.43 204.263C979.43 206.543 979.057 208.286 978.31 209.492C977.577 210.698 976.497 211.301 975.07 211.301C973.657 211.301 972.577 210.698 971.83 209.492C971.084 208.286 970.71 206.543 970.71 204.263C970.71 201.996 971.084 200.259 971.83 199.053C972.577 197.847 973.657 197.244 975.07 197.244ZM972.13 204.263C972.13 205.88 972.277 207.146 972.57 208.06L977.01 199.252C976.543 198.629 975.897 198.317 975.07 198.317C974.15 198.317 973.43 198.808 972.91 199.789C972.39 200.756 972.13 202.248 972.13 204.263ZM975.07 210.208C976.003 210.208 976.73 209.724 977.25 208.756C977.77 207.775 978.03 206.277 978.03 204.263C978.03 202.553 977.863 201.227 977.53 200.286L973.09 209.174C973.57 209.863 974.23 210.208 975.07 210.208Z" fill="url(#paint68_linear_175_198)"/>
<path d="M976.27 232.773H979.21V233.827H971.59V232.773H974.99V221.598L971.75 223.527L971.19 222.632L975.19 220.167H976.27V232.773Z" fill="url(#paint69_linear_175_198)"/>
<path d="M975.07 242.692C976.497 242.692 977.577 243.295 978.31 244.502C979.057 245.695 979.43 247.431 979.43 249.711C979.43 251.991 979.057 253.734 978.31 254.941C977.577 256.147 976.497 256.75 975.07 256.75C973.657 256.75 972.577 256.147 971.83 254.941C971.084 253.734 970.71 251.991 970.71 249.711C970.71 247.445 971.084 245.708 971.83 244.502C972.577 243.295 973.657 242.692 975.07 242.692ZM972.13 249.711C972.13 251.328 972.277 252.594 972.57 253.509L977.01 244.701C976.543 244.078 975.897 243.766 975.07 243.766C974.15 243.766 973.43 244.256 972.91 245.237C972.39 246.205 972.13 247.696 972.13 249.711ZM975.07 255.657C976.003 255.657 976.73 255.173 977.25 254.205C977.77 253.224 978.03 251.726 978.03 249.711C978.03 248.001 977.863 246.676 977.53 245.734L973.09 254.623C973.57 255.312 974.23 255.657 975.07 255.657Z" fill="url(#paint70_linear_175_198)"/>
<path d="M976.27 278.222H979.21V279.276H971.59V278.222H974.99V267.047L971.75 268.976L971.19 268.081L975.19 265.615H976.27V278.222Z" fill="url(#paint71_linear_175_198)"/>
<path d="M976.27 300.946H979.21V302H971.59V300.946H974.99V289.771L971.75 291.7L971.19 290.805L975.19 288.34H976.27V300.946Z" fill="url(#paint72_linear_175_198)"/>
<path d="M919.36 38.1731C920.786 38.1731 921.866 38.7762 922.599 39.9825C923.346 41.1755 923.719 42.9121 923.719 45.1921C923.719 47.4721 923.346 49.2152 922.599 50.4215C921.866 51.6278 920.786 52.2309 919.36 52.2309C917.946 52.2309 916.867 51.6278 916.12 50.4215C915.373 49.2152 915 47.4721 915 45.1921C915 42.9253 915.373 41.1888 916.12 39.9825C916.867 38.7762 917.946 38.1731 919.36 38.1731ZM916.42 45.1921C916.42 46.8093 916.567 48.0752 916.86 48.9899L921.3 40.1813C920.833 39.5583 920.186 39.2468 919.36 39.2468C918.44 39.2468 917.72 39.7373 917.2 40.7182C916.68 41.6859 916.42 43.1772 916.42 45.1921ZM919.36 51.1373C920.293 51.1373 921.02 50.6535 921.54 49.6858C922.06 48.7049 922.319 47.207 922.319 45.1921C922.319 43.4821 922.153 42.1565 921.82 41.2153L917.38 50.1034C917.86 50.7927 918.52 51.1373 919.36 51.1373Z" fill="url(#paint73_linear_175_198)"/>
<path d="M919.36 60.8974C920.786 60.8974 921.866 61.5006 922.599 62.7069C923.346 63.8999 923.719 65.6364 923.719 67.9164C923.719 70.1964 923.346 71.9396 922.599 73.1459C921.866 74.3521 920.786 74.9553 919.36 74.9553C917.946 74.9553 916.867 74.3521 916.12 73.1459C915.373 71.9396 915 70.1964 915 67.9164C915 65.6497 915.373 63.9131 916.12 62.7069C916.867 61.5006 917.946 60.8974 919.36 60.8974ZM916.42 67.9164C916.42 69.5336 916.567 70.7996 916.86 71.7142L921.3 62.9057C920.833 62.2827 920.186 61.9712 919.36 61.9712C918.44 61.9712 917.72 62.4616 917.2 63.4426C916.68 64.4102 916.42 65.9015 916.42 67.9164ZM919.36 73.8617C920.293 73.8617 921.02 73.3778 921.54 72.4102C922.06 71.4292 922.319 69.9313 922.319 67.9164C922.319 66.2064 922.153 64.8808 921.82 63.9397L917.38 72.8277C917.86 73.517 918.52 73.8617 919.36 73.8617Z" fill="url(#paint74_linear_175_198)"/>
<path d="M920.56 96.427H923.499V97.4808H915.88V96.427H919.28V85.2523L916.04 87.181L915.48 86.2862L919.48 83.8206H920.56V96.427Z" fill="url(#paint75_linear_175_198)"/>
<path d="M919.36 106.346C920.786 106.346 921.866 106.949 922.599 108.156C923.346 109.349 923.719 111.085 923.719 113.365C923.719 115.645 923.346 117.388 922.599 118.595C921.866 119.801 920.786 120.404 919.36 120.404C917.946 120.404 916.867 119.801 916.12 118.595C915.373 117.388 915 115.645 915 113.365C915 111.098 915.373 109.362 916.12 108.156C916.867 106.949 917.946 106.346 919.36 106.346ZM916.42 113.365C916.42 114.982 916.567 116.248 916.86 117.163L921.3 108.354C920.833 107.731 920.186 107.42 919.36 107.42C918.44 107.42 917.72 107.91 917.2 108.891C916.68 109.859 916.42 111.35 916.42 113.365ZM919.36 119.31C920.293 119.31 921.02 118.827 921.54 117.859C922.06 116.878 922.319 115.38 922.319 113.365C922.319 111.655 922.153 110.33 921.82 109.388L917.38 118.276C917.86 118.966 918.52 119.31 919.36 119.31Z" fill="url(#paint76_linear_175_198)"/>
<path d="M920.56 141.876H923.499V142.93H915.88V141.876H919.28V130.701L916.04 132.63L915.48 131.735L919.48 129.269H920.56V141.876Z" fill="url(#paint77_linear_175_198)"/>
<path d="M920.56 164.6H923.499V165.654H915.88V164.6H919.28V153.425L916.04 155.354L915.48 154.459L919.48 151.994H920.56V164.6Z" fill="url(#paint78_linear_175_198)"/>
<path d="M957.7 5.52953H960.64V6.58337H953.02V5.52953H956.42V-5.64517L953.18 -3.71644L952.62 -4.61121L956.62 -7.07681H957.7V5.52953Z" fill="url(#paint79_linear_175_198)"/>
<path d="M956.5 15.4487C957.927 15.4487 959.006 16.0519 959.74 17.2581C960.486 18.4512 960.86 20.1877 960.86 22.4677C960.86 24.7477 960.486 26.4909 959.74 27.6971C959.006 28.9034 957.927 29.5066 956.5 29.5066C955.087 29.5066 954.007 28.9034 953.26 27.6971C952.514 26.4909 952.14 24.7477 952.14 22.4677C952.14 20.2009 952.514 18.4644 953.26 17.2581C954.007 16.0519 955.087 15.4487 956.5 15.4487ZM953.56 22.4677C953.56 24.0849 953.707 25.3509 954 26.2655L958.44 17.457C957.973 16.834 957.327 16.5224 956.5 16.5224C955.58 16.5224 954.86 17.0129 954.34 17.9938C953.82 18.9615 953.56 20.4528 953.56 22.4677ZM956.5 28.413C957.433 28.413 958.16 27.9291 958.68 26.9614C959.2 25.9805 959.46 24.4826 959.46 22.4677C959.46 20.7577 959.293 19.4321 958.96 18.4909L954.52 27.379C955 28.0683 955.66 28.413 956.5 28.413Z" fill="url(#paint80_linear_175_198)"/>
<path d="M957.7 50.9782H960.64V52.0321H953.02V50.9782H956.42V39.8035L953.18 41.7323L952.62 40.8375L956.62 38.3719H957.7V50.9782Z" fill="url(#paint81_linear_175_198)"/>
<path d="M957.7 73.7026H960.64V74.7564H953.02V73.7026H956.42V62.5279L953.18 64.4566L952.62 63.5619L956.62 61.0963H957.7V73.7026Z" fill="url(#paint82_linear_175_198)"/>
<path d="M956.5 83.6218C957.927 83.6218 959.006 84.2249 959.74 85.4312C960.486 86.6242 960.86 88.3608 960.86 90.6408C960.86 92.9208 960.486 94.6639 959.74 95.8702C959.006 97.0765 957.927 97.6796 956.5 97.6796C955.087 97.6796 954.007 97.0765 953.26 95.8702C952.514 94.6639 952.14 92.9208 952.14 90.6408C952.14 88.374 952.514 86.6375 953.26 85.4312C954.007 84.2249 955.087 83.6218 956.5 83.6218ZM953.56 90.6408C953.56 92.258 953.707 93.5239 954 94.4386L958.44 85.6301C957.973 85.007 957.327 84.6955 956.5 84.6955C955.58 84.6955 954.86 85.186 954.34 86.1669C953.82 87.1346 953.56 88.6259 953.56 90.6408ZM956.5 96.586C957.433 96.586 958.16 96.1022 958.68 95.1345C959.2 94.1536 959.46 92.6557 959.46 90.6408C959.46 88.9308 959.293 87.6052 958.96 86.664L954.52 95.5521C955 96.2414 955.66 96.586 956.5 96.586Z" fill="url(#paint83_linear_175_198)"/>
<path d="M957.7 119.151H960.64V120.205H953.02V119.151H956.42V107.977L953.18 109.905L952.62 109.011L956.62 106.545H957.7V119.151Z" fill="url(#paint84_linear_175_198)"/>
<path d="M957.7 141.876H960.64V142.93H953.02V141.876H956.42V130.701L953.18 132.63L952.62 131.735L956.62 129.269H957.7V141.876Z" fill="url(#paint85_linear_175_198)"/>
<path d="M956.5 151.795C957.927 151.795 959.006 152.398 959.74 153.604C960.486 154.797 960.86 156.534 960.86 158.814C960.86 161.094 960.486 162.837 959.74 164.043C959.006 165.25 957.927 165.853 956.5 165.853C955.087 165.853 954.007 165.25 953.26 164.043C952.514 162.837 952.14 161.094 952.14 158.814C952.14 156.547 952.514 154.811 953.26 153.604C954.007 152.398 955.087 151.795 956.5 151.795ZM953.56 158.814C953.56 160.431 953.707 161.697 954 162.612L958.44 153.803C957.973 153.18 957.327 152.869 956.5 152.869C955.58 152.869 954.86 153.359 954.34 154.34C953.82 155.308 953.56 156.799 953.56 158.814ZM956.5 164.759C957.433 164.759 958.16 164.275 958.68 163.308C959.2 162.327 959.46 160.829 959.46 158.814C959.46 157.104 959.293 155.778 958.96 154.837L954.52 163.725C955 164.414 955.66 164.759 956.5 164.759Z" fill="url(#paint86_linear_175_198)"/>
<path d="M957.7 187.324H960.64V188.378H953.02V187.324H956.42V176.15L953.18 178.078L952.62 177.184L956.62 174.718H957.7V187.324Z" fill="url(#paint87_linear_175_198)"/>
<path d="M956.5 197.244C957.927 197.244 959.006 197.847 959.74 199.053C960.486 200.246 960.86 201.983 960.86 204.263C960.86 206.543 960.486 208.286 959.74 209.492C959.006 210.698 957.927 211.301 956.5 211.301C955.087 211.301 954.007 210.698 953.26 209.492C952.514 208.286 952.14 206.543 952.14 204.263C952.14 201.996 952.514 200.259 953.26 199.053C954.007 197.847 955.087 197.244 956.5 197.244ZM953.56 204.263C953.56 205.88 953.707 207.146 954 208.06L958.44 199.252C957.973 198.629 957.327 198.317 956.5 198.317C955.58 198.317 954.86 198.808 954.34 199.789C953.82 200.756 953.56 202.248 953.56 204.263ZM956.5 210.208C957.433 210.208 958.16 209.724 958.68 208.756C959.2 207.775 959.46 206.277 959.46 204.263C959.46 202.553 959.293 201.227 958.96 200.286L954.52 209.174C955 209.863 955.66 210.208 956.5 210.208Z" fill="url(#paint88_linear_175_198)"/>
<path d="M993.64 -7.27564C995.067 -7.27564 996.147 -6.6725 996.88 -5.46622C997.627 -4.27319 998 -2.53667 998 -0.256659C998 2.02335 997.627 3.7665 996.88 4.97279C996.147 6.17907 995.067 6.78221 993.64 6.78221C992.227 6.78221 991.147 6.17907 990.401 4.97279C989.654 3.7665 989.281 2.02335 989.281 -0.256659C989.281 -2.52341 989.654 -4.25993 990.401 -5.46622C991.147 -6.6725 992.227 -7.27564 993.64 -7.27564ZM990.701 -0.256659C990.701 1.36056 990.847 2.6265 991.14 3.54115L995.58 -5.26738C995.114 -5.89041 994.467 -6.20192 993.64 -6.20192C992.72 -6.20192 992 -5.71145 991.48 -4.73052C990.96 -3.76284 990.701 -2.27155 990.701 -0.256659ZM993.64 5.6886C994.574 5.6886 995.3 5.20476 995.82 4.23708C996.34 3.25615 996.6 1.75823 996.6 -0.256659C996.6 -1.96667 996.433 -3.29225 996.1 -4.23342L991.66 4.65464C992.14 5.34395 992.8 5.6886 993.64 5.6886Z" fill="url(#paint89_linear_175_198)"/>
<path d="M994.84 28.2539H997.78V29.3077H990.161V28.2539H993.56V17.0792L990.321 19.0079L989.761 18.1131L993.76 15.6475H994.84V28.2539Z" fill="url(#paint90_linear_175_198)"/>
<path d="M994.84 50.9782H997.78V52.0321H990.161V50.9782H993.56V39.8035L990.321 41.7323L989.761 40.8375L993.76 38.3719H994.84V50.9782Z" fill="url(#paint91_linear_175_198)"/>
<path d="M993.64 60.8974C995.067 60.8974 996.147 61.5006 996.88 62.7069C997.627 63.8999 998 65.6364 998 67.9164C998 70.1964 997.627 71.9396 996.88 73.1459C996.147 74.3521 995.067 74.9553 993.64 74.9553C992.227 74.9553 991.147 74.3521 990.401 73.1459C989.654 71.9396 989.281 70.1964 989.281 67.9164C989.281 65.6497 989.654 63.9131 990.401 62.7069C991.147 61.5006 992.227 60.8974 993.64 60.8974ZM990.701 67.9164C990.701 69.5336 990.847 70.7996 991.14 71.7142L995.58 62.9057C995.114 62.2827 994.467 61.9712 993.64 61.9712C992.72 61.9712 992 62.4616 991.48 63.4426C990.96 64.4102 990.701 65.9015 990.701 67.9164ZM993.64 73.8617C994.574 73.8617 995.3 73.3778 995.82 72.4102C996.34 71.4292 996.6 69.9313 996.6 67.9164C996.6 66.2064 996.433 64.8808 996.1 63.9397L991.66 72.8277C992.14 73.517 992.8 73.8617 993.64 73.8617Z" fill="url(#paint92_linear_175_198)"/>
<path d="M993.64 83.6218C995.067 83.6218 996.147 84.2249 996.88 85.4312C997.627 86.6242 998 88.3608 998 90.6408C998 92.9208 997.627 94.6639 996.88 95.8702C996.147 97.0765 995.067 97.6796 993.64 97.6796C992.227 97.6796 991.147 97.0765 990.401 95.8702C989.654 94.6639 989.281 92.9208 989.281 90.6408C989.281 88.374 989.654 86.6375 990.401 85.4312C991.147 84.2249 992.227 83.6218 993.64 83.6218ZM990.701 90.6408C990.701 92.258 990.847 93.5239 991.14 94.4386L995.58 85.6301C995.114 85.007 994.467 84.6955 993.64 84.6955C992.72 84.6955 992 85.186 991.48 86.1669C990.96 87.1346 990.701 88.6259 990.701 90.6408ZM993.64 96.586C994.574 96.586 995.3 96.1022 995.82 95.1345C996.34 94.1536 996.6 92.6557 996.6 90.6408C996.6 88.9308 996.433 87.6052 996.1 86.664L991.66 95.5521C992.14 96.2414 992.8 96.586 993.64 96.586Z" fill="url(#paint93_linear_175_198)"/>
</g>
<defs>
<filter id="filter0_f_175_198" x="-608" y="-766" width="2241" height="1600" filterUnits="userSpaceOnUse" color-interpolation-filters="sRGB">
<feFlood flood-opacity="0" result="BackgroundImageFix"/>
<feBlend mode="normal" in="SourceGraphic" in2="BackgroundImageFix" result="shape"/>
<feGaussianBlur stdDeviation="225" result="effect1_foregroundBlur_175_198"/>
</filter>
<linearGradient id="paint0_linear_175_198" x1="70.5" y1="341" x2="70.5" y2="652.381" gradientUnits="userSpaceOnUse">
<stop stop-color="#F743E5"/>
<stop offset="0.5" stop-color="#F7869F" stop-opacity="0.307671"/>
<stop offset="1" stop-color="#9A1032"/>
</linearGradient>
<linearGradient id="paint1_linear_175_198" x1="70.5" y1="341" x2="70.5" y2="652.381" gradientUnits="userSpaceOnUse">
<stop stop-color="#F743E5"/>
<stop offset="0.5" stop-color="#F7869F" stop-opacity="0.307671"/>
<stop offset="1" stop-color="#9A1032"/>
</linearGradient>
<linearGradient id="paint2_linear_175_198" x1="70.5" y1="341" x2="70.5" y2="652.381" gradientUnits="userSpaceOnUse">
<stop stop-color="#F743E5"/>
<stop offset="0.5" stop-color="#F7869F" stop-opacity="0.307671"/>
<stop offset="1" stop-color="#9A1032"/>
</linearGradient>
<linearGradient id="paint3_linear_175_198" x1="70.5" y1="341" x2="70.5" y2="652.381" gradientUnits="userSpaceOnUse">
<stop stop-color="#F743E5"/>
<stop offset="0.5" stop-color="#F7869F" stop-opacity="0.307671"/>
<stop offset="1" stop-color="#9A1032"/>
</linearGradient>
<linearGradient id="paint4_linear_175_198" x1="70.5" y1="341" x2="70.5" y2="652.381" gradientUnits="userSpaceOnUse">
<stop stop-color="#F743E5"/>
<stop offset="0.5" stop-color="#F7869F" stop-opacity="0.307671"/>
<stop offset="1" stop-color="#9A1032"/>
</linearGradient>
<linearGradient id="paint5_linear_175_198" x1="70.5" y1="341" x2="70.5" y2="652.381" gradientUnits="userSpaceOnUse">
<stop stop-color="#F743E5"/>
<stop offset="0.5" stop-color="#F7869F" stop-opacity="0.307671"/>
<stop offset="1" stop-color="#9A1032"/>
</linearGradient>
<linearGradient id="paint6_linear_175_198" x1="70.5" y1="341" x2="70.5" y2="652.381" gradientUnits="userSpaceOnUse">
<stop stop-color="#F743E5"/>
<stop offset="0.5" stop-color="#F7869F" stop-opacity="0.307671"/>
<stop offset="1" stop-color="#9A1032"/>
</linearGradient>
<linearGradient id="paint7_linear_175_198" x1="70.5" y1="341" x2="70.5" y2="652.381" gradientUnits="userSpaceOnUse">
<stop stop-color="#F743E5"/>
<stop offset="0.5" stop-color="#F7869F" stop-opacity="0.307671"/>
<stop offset="1" stop-color="#9A1032"/>
</linearGradient>
<linearGradient id="paint8_linear_175_198" x1="70.5" y1="341" x2="70.5" y2="652.381" gradientUnits="userSpaceOnUse">
<stop stop-color="#F743E5"/>
<stop offset="0.5" stop-color="#F7869F" stop-opacity="0.307671"/>
<stop offset="1" stop-color="#9A1032"/>
</linearGradient>
<linearGradient id="paint9_linear_175_198" x1="70.5" y1="341" x2="70.5" y2="652.381" gradientUnits="userSpaceOnUse">
<stop stop-color="#F743E5"/>
<stop offset="0.5" stop-color="#F7869F" stop-opacity="0.307671"/>
<stop offset="1" stop-color="#9A1032"/>
</linearGradient>
<linearGradient id="paint10_linear_175_198" x1="70.5" y1="341" x2="70.5" y2="652.381" gradientUnits="userSpaceOnUse">
<stop stop-color="#F743E5"/>
<stop offset="0.5" stop-color="#F7869F" stop-opacity="0.307671"/>
<stop offset="1" stop-color="#9A1032"/>
</linearGradient>
<linearGradient id="paint11_linear_175_198" x1="70.5" y1="341" x2="70.5" y2="652.381" gradientUnits="userSpaceOnUse">
<stop stop-color="#F743E5"/>
<stop offset="0.5" stop-color="#F7869F" stop-opacity="0.307671"/>
<stop offset="1" stop-color="#9A1032"/>
</linearGradient>
<linearGradient id="paint12_linear_175_198" x1="70.5" y1="341" x2="70.5" y2="652.381" gradientUnits="userSpaceOnUse">
<stop stop-color="#F743E5"/>
<stop offset="0.5" stop-color="#F7869F" stop-opacity="0.307671"/>
<stop offset="1" stop-color="#9A1032"/>
</linearGradient>
<linearGradient id="paint13_linear_175_198" x1="70.5" y1="341" x2="70.5" y2="652.381" gradientUnits="userSpaceOnUse">
<stop stop-color="#F743E5"/>
<stop offset="0.5" stop-color="#F7869F" stop-opacity="0.307671"/>
<stop offset="1" stop-color="#9A1032"/>
</linearGradient>
<linearGradient id="paint14_linear_175_198" x1="70.5" y1="341" x2="70.5" y2="652.381" gradientUnits="userSpaceOnUse">
<stop stop-color="#F743E5"/>
<stop offset="0.5" stop-color="#F7869F" stop-opacity="0.307671"/>
<stop offset="1" stop-color="#9A1032"/>
</linearGradient>
<linearGradient id="paint15_linear_175_198" x1="70.5" y1="341" x2="70.5" y2="652.381" gradientUnits="userSpaceOnUse">
<stop stop-color="#F743E5"/>
<stop offset="0.5" stop-color="#F7869F" stop-opacity="0.307671"/>
<stop offset="1" stop-color="#9A1032"/>
</linearGradient>
<linearGradient id="paint16_linear_175_198" x1="70.5" y1="341" x2="70.5" y2="652.381" gradientUnits="userSpaceOnUse">
<stop stop-color="#F743E5"/>
<stop offset="0.5" stop-color="#F7869F" stop-opacity="0.307671"/>
<stop offset="1" stop-color="#9A1032"/>
</linearGradient>
<linearGradient id="paint17_linear_175_198" x1="70.5" y1="341" x2="70.5" y2="652.381" gradientUnits="userSpaceOnUse">
<stop stop-color="#F743E5"/>
<stop offset="0.5" stop-color="#F7869F" stop-opacity="0.307671"/>
<stop offset="1" stop-color="#9A1032"/>
</linearGradient>
<linearGradient id="paint18_linear_175_198" x1="70.5" y1="341" x2="70.5" y2="652.381" gradientUnits="userSpaceOnUse">
<stop stop-color="#F743E5"/>
<stop offset="0.5" stop-color="#F7869F" stop-opacity="0.307671"/>
<stop offset="1" stop-color="#9A1032"/>
</linearGradient>
<linearGradient id="paint19_linear_175_198" x1="70.5" y1="341" x2="70.5" y2="652.381" gradientUnits="userSpaceOnUse">
<stop stop-color="#F743E5"/>
<stop offset="0.5" stop-color="#F7869F" stop-opacity="0.307671"/>
<stop offset="1" stop-color="#9A1032"/>
</linearGradient>
<linearGradient id="paint20_linear_175_198" x1="70.5" y1="341" x2="70.5" y2="652.381" gradientUnits="userSpaceOnUse">
<stop stop-color="#F743E5"/>
<stop offset="0.5" stop-color="#F7869F" stop-opacity="0.307671"/>
<stop offset="1" stop-color="#9A1032"/>
</linearGradient>
<linearGradient id="paint21_linear_175_198" x1="70.5" y1="341" x2="70.5" y2="652.381" gradientUnits="userSpaceOnUse">
<stop stop-color="#F743E5"/>
<stop offset="0.5" stop-color="#F7869F" stop-opacity="0.307671"/>
<stop offset="1" stop-color="#9A1032"/>
</linearGradient>
<linearGradient id="paint22_linear_175_198" x1="70.5" y1="341" x2="70.5" y2="652.381" gradientUnits="userSpaceOnUse">
<stop stop-color="#F743E5"/>
<stop offset="0.5" stop-color="#F7869F" stop-opacity="0.307671"/>
<stop offset="1" stop-color="#9A1032"/>
</linearGradient>
<linearGradient id="paint23_linear_175_198" x1="70.5" y1="341" x2="70.5" y2="652.381" gradientUnits="userSpaceOnUse">
<stop stop-color="#F743E5"/>
<stop offset="0.5" stop-color="#F7869F" stop-opacity="0.307671"/>
<stop offset="1" stop-color="#9A1032"/>
</linearGradient>
<linearGradient id="paint24_linear_175_198" x1="70.5" y1="341" x2="70.5" y2="652.381" gradientUnits="userSpaceOnUse">
<stop stop-color="#F743E5"/>
<stop offset="0.5" stop-color="#F7869F" stop-opacity="0.307671"/>
<stop offset="1" stop-color="#9A1032"/>
</linearGradient>
<linearGradient id="paint25_linear_175_198" x1="70.5" y1="341" x2="70.5" y2="652.381" gradientUnits="userSpaceOnUse">
<stop stop-color="#F743E5"/>
<stop offset="0.5" stop-color="#F7869F" stop-opacity="0.307671"/>
<stop offset="1" stop-color="#9A1032"/>
</linearGradient>
<linearGradient id="paint26_linear_175_198" x1="70.5" y1="341" x2="70.5" y2="652.381" gradientUnits="userSpaceOnUse">
<stop stop-color="#F743E5"/>
<stop offset="0.5" stop-color="#F7869F" stop-opacity="0.307671"/>
<stop offset="1" stop-color="#9A1032"/>
</linearGradient>
<linearGradient id="paint27_linear_175_198" x1="70.5" y1="341" x2="70.5" y2="652.381" gradientUnits="userSpaceOnUse">
<stop stop-color="#F743E5"/>
<stop offset="0.5" stop-color="#F7869F" stop-opacity="0.307671"/>
<stop offset="1" stop-color="#9A1032"/>
</linearGradient>
<linearGradient id="paint28_linear_175_198" x1="70.5" y1="341" x2="70.5" y2="652.381" gradientUnits="userSpaceOnUse">
<stop stop-color="#F743E5"/>
<stop offset="0.5" stop-color="#F7869F" stop-opacity="0.307671"/>
<stop offset="1" stop-color="#9A1032"/>
</linearGradient>
<linearGradient id="paint29_linear_175_198" x1="70.5" y1="341" x2="70.5" y2="652.381" gradientUnits="userSpaceOnUse">
<stop stop-color="#F743E5"/>
<stop offset="0.5" stop-color="#F7869F" stop-opacity="0.307671"/>
<stop offset="1" stop-color="#9A1032"/>
</linearGradient>
<linearGradient id="paint30_linear_175_198" x1="70.5" y1="341" x2="70.5" y2="652.381" gradientUnits="userSpaceOnUse">
<stop stop-color="#F743E5"/>
<stop offset="0.5" stop-color="#F7869F" stop-opacity="0.307671"/>
<stop offset="1" stop-color="#9A1032"/>
</linearGradient>
<linearGradient id="paint31_linear_175_198" x1="70.5" y1="341" x2="70.5" y2="652.381" gradientUnits="userSpaceOnUse">
<stop stop-color="#F743E5"/>
<stop offset="0.5" stop-color="#F7869F" stop-opacity="0.307671"/>
<stop offset="1" stop-color="#9A1032"/>
</linearGradient>
<linearGradient id="paint32_linear_175_198" x1="70.5" y1="341" x2="70.5" y2="652.381" gradientUnits="userSpaceOnUse">
<stop stop-color="#F743E5"/>
<stop offset="0.5" stop-color="#F7869F" stop-opacity="0.307671"/>
<stop offset="1" stop-color="#9A1032"/>
</linearGradient>
<linearGradient id="paint33_linear_175_198" x1="70.5" y1="341" x2="70.5" y2="652.381" gradientUnits="userSpaceOnUse">
<stop stop-color="#F743E5"/>
<stop offset="0.5" stop-color="#F7869F" stop-opacity="0.307671"/>
<stop offset="1" stop-color="#9A1032"/>
</linearGradient>
<linearGradient id="paint34_linear_175_198" x1="70.5" y1="341" x2="70.5" y2="652.381" gradientUnits="userSpaceOnUse">
<stop stop-color="#F743E5"/>
<stop offset="0.5" stop-color="#F7869F" stop-opacity="0.307671"/>
<stop offset="1" stop-color="#9A1032"/>
</linearGradient>
<linearGradient id="paint35_linear_175_198" x1="70.5" y1="341" x2="70.5" y2="652.381" gradientUnits="userSpaceOnUse">
<stop stop-color="#F743E5"/>
<stop offset="0.5" stop-color="#F7869F" stop-opacity="0.307671"/>
<stop offset="1" stop-color="#9A1032"/>
</linearGradient>
<linearGradient id="paint36_linear_175_198" x1="70.5" y1="341" x2="70.5" y2="652.381" gradientUnits="userSpaceOnUse">
<stop stop-color="#F743E5"/>
<stop offset="0.5" stop-color="#F7869F" stop-opacity="0.307671"/>
<stop offset="1" stop-color="#9A1032"/>
</linearGradient>
<linearGradient id="paint37_linear_175_198" x1="70.5" y1="341" x2="70.5" y2="652.381" gradientUnits="userSpaceOnUse">
<stop stop-color="#F743E5"/>
<stop offset="0.5" stop-color="#F7869F" stop-opacity="0.307671"/>
<stop offset="1" stop-color="#9A1032"/>
</linearGradient>
<linearGradient id="paint38_linear_175_198" x1="70.5" y1="341" x2="70.5" y2="652.381" gradientUnits="userSpaceOnUse">
<stop stop-color="#F743E5"/>
<stop offset="0.5" stop-color="#F7869F" stop-opacity="0.307671"/>
<stop offset="1" stop-color="#9A1032"/>
</linearGradient>
<linearGradient id="paint39_linear_175_198" x1="70.5" y1="341" x2="70.5" y2="652.381" gradientUnits="userSpaceOnUse">
<stop stop-color="#F743E5"/>
<stop offset="0.5" stop-color="#F7869F" stop-opacity="0.307671"/>
<stop offset="1" stop-color="#9A1032"/>
</linearGradient>
<linearGradient id="paint40_linear_175_198" x1="70.5" y1="341" x2="70.5" y2="652.381" gradientUnits="userSpaceOnUse">
<stop stop-color="#F743E5"/>
<stop offset="0.5" stop-color="#F7869F" stop-opacity="0.307671"/>
<stop offset="1" stop-color="#9A1032"/>
</linearGradient>
<linearGradient id="paint41_linear_175_198" x1="70.5" y1="341" x2="70.5" y2="652.381" gradientUnits="userSpaceOnUse">
<stop stop-color="#F743E5"/>
<stop offset="0.5" stop-color="#F7869F" stop-opacity="0.307671"/>
<stop offset="1" stop-color="#9A1032"/>
</linearGradient>
<linearGradient id="paint42_linear_175_198" x1="70.5" y1="341" x2="70.5" y2="652.381" gradientUnits="userSpaceOnUse">
<stop stop-color="#F743E5"/>
<stop offset="0.5" stop-color="#F7869F" stop-opacity="0.307671"/>
<stop offset="1" stop-color="#9A1032"/>
</linearGradient>
<linearGradient id="paint43_linear_175_198" x1="70.5" y1="341" x2="70.5" y2="652.381" gradientUnits="userSpaceOnUse">
<stop stop-color="#F743E5"/>
<stop offset="0.5" stop-color="#F7869F" stop-opacity="0.307671"/>
<stop offset="1" stop-color="#9A1032"/>
</linearGradient>
<linearGradient id="paint44_linear_175_198" x1="70.5" y1="341" x2="70.5" y2="652.381" gradientUnits="userSpaceOnUse">
<stop stop-color="#F743E5"/>
<stop offset="0.5" stop-color="#F7869F" stop-opacity="0.307671"/>
<stop offset="1" stop-color="#9A1032"/>
</linearGradient>
<linearGradient id="paint45_linear_175_198" x1="70.5" y1="341" x2="70.5" y2="652.381" gradientUnits="userSpaceOnUse">
<stop stop-color="#F743E5"/>
<stop offset="0.5" stop-color="#F7869F" stop-opacity="0.307671"/>
<stop offset="1" stop-color="#9A1032"/>
</linearGradient>
<linearGradient id="paint46_linear_175_198" x1="70.5" y1="341" x2="70.5" y2="652.381" gradientUnits="userSpaceOnUse">
<stop stop-color="#F743E5"/>
<stop offset="0.5" stop-color="#F7869F" stop-opacity="0.307671"/>
<stop offset="1" stop-color="#9A1032"/>
</linearGradient>
<linearGradient id="paint47_linear_175_198" x1="956.5" y1="-30" x2="956.5" y2="267.921" gradientUnits="userSpaceOnUse">
<stop stop-color="#9A1032"/>
<stop offset="0.484375" stop-color="#F7869F" stop-opacity="0.567708"/>
<stop offset="1" stop-color="#F743E5"/>
</linearGradient>
<linearGradient id="paint48_linear_175_198" x1="956.5" y1="-30" x2="956.5" y2="267.921" gradientUnits="userSpaceOnUse">
<stop stop-color="#9A1032"/>
<stop offset="0.484375" stop-color="#F7869F" stop-opacity="0.567708"/>
<stop offset="1" stop-color="#F743E5"/>
</linearGradient>
<linearGradient id="paint49_linear_175_198" x1="956.5" y1="-30" x2="956.5" y2="267.921" gradientUnits="userSpaceOnUse">
<stop stop-color="#9A1032"/>
<stop offset="0.484375" stop-color="#F7869F" stop-opacity="0.567708"/>
<stop offset="1" stop-color="#F743E5"/>
</linearGradient>
<linearGradient id="paint50_linear_175_198" x1="956.5" y1="-30" x2="956.5" y2="267.921" gradientUnits="userSpaceOnUse">
<stop stop-color="#9A1032"/>
<stop offset="0.484375" stop-color="#F7869F" stop-opacity="0.567708"/>
<stop offset="1" stop-color="#F743E5"/>
</linearGradient>
<linearGradient id="paint51_linear_175_198" x1="956.5" y1="-30" x2="956.5" y2="267.921" gradientUnits="userSpaceOnUse">
<stop stop-color="#9A1032"/>
<stop offset="0.484375" stop-color="#F7869F" stop-opacity="0.567708"/>
<stop offset="1" stop-color="#F743E5"/>
</linearGradient>
<linearGradient id="paint52_linear_175_198" x1="956.5" y1="-30" x2="956.5" y2="267.921" gradientUnits="userSpaceOnUse">
<stop stop-color="#9A1032"/>
<stop offset="0.484375" stop-color="#F7869F" stop-opacity="0.567708"/>
<stop offset="1" stop-color="#F743E5"/>
</linearGradient>
<linearGradient id="paint53_linear_175_198" x1="956.5" y1="-30" x2="956.5" y2="267.921" gradientUnits="userSpaceOnUse">
<stop stop-color="#9A1032"/>
<stop offset="0.484375" stop-color="#F7869F" stop-opacity="0.567708"/>
<stop offset="1" stop-color="#F743E5"/>
</linearGradient>
<linearGradient id="paint54_linear_175_198" x1="956.5" y1="-30" x2="956.5" y2="267.921" gradientUnits="userSpaceOnUse">
<stop stop-color="#9A1032"/>
<stop offset="0.484375" stop-color="#F7869F" stop-opacity="0.567708"/>
<stop offset="1" stop-color="#F743E5"/>
</linearGradient>
<linearGradient id="paint55_linear_175_198" x1="956.5" y1="-30" x2="956.5" y2="267.921" gradientUnits="userSpaceOnUse">
<stop stop-color="#9A1032"/>
<stop offset="0.484375" stop-color="#F7869F" stop-opacity="0.567708"/>
<stop offset="1" stop-color="#F743E5"/>
</linearGradient>
<linearGradient id="paint56_linear_175_198" x1="956.5" y1="-30" x2="956.5" y2="267.921" gradientUnits="userSpaceOnUse">
<stop stop-color="#9A1032"/>
<stop offset="0.484375" stop-color="#F7869F" stop-opacity="0.567708"/>
<stop offset="1" stop-color="#F743E5"/>
</linearGradient>
<linearGradient id="paint57_linear_175_198" x1="956.5" y1="-30" x2="956.5" y2="267.921" gradientUnits="userSpaceOnUse">
<stop stop-color="#9A1032"/>
<stop offset="0.484375" stop-color="#F7869F" stop-opacity="0.567708"/>
<stop offset="1" stop-color="#F743E5"/>
</linearGradient>
<linearGradient id="paint58_linear_175_198" x1="956.5" y1="-30" x2="956.5" y2="267.921" gradientUnits="userSpaceOnUse">
<stop stop-color="#9A1032"/>
<stop offset="0.484375" stop-color="#F7869F" stop-opacity="0.567708"/>
<stop offset="1" stop-color="#F743E5"/>
</linearGradient>
<linearGradient id="paint59_linear_175_198" x1="956.5" y1="-30" x2="956.5" y2="267.921" gradientUnits="userSpaceOnUse">
<stop stop-color="#9A1032"/>
<stop offset="0.484375" stop-color="#F7869F" stop-opacity="0.567708"/>
<stop offset="1" stop-color="#F743E5"/>
</linearGradient>
<linearGradient id="paint60_linear_175_198" x1="956.5" y1="-30" x2="956.5" y2="267.921" gradientUnits="userSpaceOnUse">
<stop stop-color="#9A1032"/>
<stop offset="0.484375" stop-color="#F7869F" stop-opacity="0.567708"/>
<stop offset="1" stop-color="#F743E5"/>
</linearGradient>
<linearGradient id="paint61_linear_175_198" x1="956.5" y1="-30" x2="956.5" y2="267.921" gradientUnits="userSpaceOnUse">
<stop stop-color="#9A1032"/>
<stop offset="0.484375" stop-color="#F7869F" stop-opacity="0.567708"/>
<stop offset="1" stop-color="#F743E5"/>
</linearGradient>
<linearGradient id="paint62_linear_175_198" x1="956.5" y1="-30" x2="956.5" y2="267.921" gradientUnits="userSpaceOnUse">
<stop stop-color="#9A1032"/>
<stop offset="0.484375" stop-color="#F7869F" stop-opacity="0.567708"/>
<stop offset="1" stop-color="#F743E5"/>
</linearGradient>
<linearGradient id="paint63_linear_175_198" x1="956.5" y1="-30" x2="956.5" y2="267.921" gradientUnits="userSpaceOnUse">
<stop stop-color="#9A1032"/>
<stop offset="0.484375" stop-color="#F7869F" stop-opacity="0.567708"/>
<stop offset="1" stop-color="#F743E5"/>
</linearGradient>
<linearGradient id="paint64_linear_175_198" x1="956.5" y1="-30" x2="956.5" y2="267.921" gradientUnits="userSpaceOnUse">
<stop stop-color="#9A1032"/>
<stop offset="0.484375" stop-color="#F7869F" stop-opacity="0.567708"/>
<stop offset="1" stop-color="#F743E5"/>
</linearGradient>
<linearGradient id="paint65_linear_175_198" x1="956.5" y1="-30" x2="956.5" y2="267.921" gradientUnits="userSpaceOnUse">
<stop stop-color="#9A1032"/>
<stop offset="0.484375" stop-color="#F7869F" stop-opacity="0.567708"/>
<stop offset="1" stop-color="#F743E5"/>
</linearGradient>
<linearGradient id="paint66_linear_175_198" x1="956.5" y1="-30" x2="956.5" y2="267.921" gradientUnits="userSpaceOnUse">
<stop stop-color="#9A1032"/>
<stop offset="0.484375" stop-color="#F7869F" stop-opacity="0.567708"/>
<stop offset="1" stop-color="#F743E5"/>
</linearGradient>
<linearGradient id="paint67_linear_175_198" x1="956.5" y1="-30" x2="956.5" y2="267.921" gradientUnits="userSpaceOnUse">
<stop stop-color="#9A1032"/>
<stop offset="0.484375" stop-color="#F7869F" stop-opacity="0.567708"/>
<stop offset="1" stop-color="#F743E5"/>
</linearGradient>
<linearGradient id="paint68_linear_175_198" x1="956.5" y1="-30" x2="956.5" y2="267.921" gradientUnits="userSpaceOnUse">
<stop stop-color="#9A1032"/>
<stop offset="0.484375" stop-color="#F7869F" stop-opacity="0.567708"/>
<stop offset="1" stop-color="#F743E5"/>
</linearGradient>
<linearGradient id="paint69_linear_175_198" x1="956.5" y1="-30" x2="956.5" y2="267.921" gradientUnits="userSpaceOnUse">
<stop stop-color="#9A1032"/>
<stop offset="0.484375" stop-color="#F7869F" stop-opacity="0.567708"/>
<stop offset="1" stop-color="#F743E5"/>
</linearGradient>
<linearGradient id="paint70_linear_175_198" x1="956.5" y1="-30" x2="956.5" y2="267.921" gradientUnits="userSpaceOnUse">
<stop stop-color="#9A1032"/>
<stop offset="0.484375" stop-color="#F7869F" stop-opacity="0.567708"/>
<stop offset="1" stop-color="#F743E5"/>
</linearGradient>
<linearGradient id="paint71_linear_175_198" x1="956.5" y1="-30" x2="956.5" y2="267.921" gradientUnits="userSpaceOnUse">
<stop stop-color="#9A1032"/>
<stop offset="0.484375" stop-color="#F7869F" stop-opacity="0.567708"/>
<stop offset="1" stop-color="#F743E5"/>
</linearGradient>
<linearGradient id="paint72_linear_175_198" x1="956.5" y1="-30" x2="956.5" y2="267.921" gradientUnits="userSpaceOnUse">
<stop stop-color="#9A1032"/>
<stop offset="0.484375" stop-color="#F7869F" stop-opacity="0.567708"/>
<stop offset="1" stop-color="#F743E5"/>
</linearGradient>
<linearGradient id="paint73_linear_175_198" x1="956.5" y1="-30" x2="956.5" y2="267.921" gradientUnits="userSpaceOnUse">
<stop stop-color="#9A1032"/>
<stop offset="0.484375" stop-color="#F7869F" stop-opacity="0.567708"/>
<stop offset="1" stop-color="#F743E5"/>
</linearGradient>
<linearGradient id="paint74_linear_175_198" x1="956.5" y1="-30" x2="956.5" y2="267.921" gradientUnits="userSpaceOnUse">
<stop stop-color="#9A1032"/>
<stop offset="0.484375" stop-color="#F7869F" stop-opacity="0.567708"/>
<stop offset="1" stop-color="#F743E5"/>
</linearGradient>
<linearGradient id="paint75_linear_175_198" x1="956.5" y1="-30" x2="956.5" y2="267.921" gradientUnits="userSpaceOnUse">
<stop stop-color="#9A1032"/>
<stop offset="0.484375" stop-color="#F7869F" stop-opacity="0.567708"/>
<stop offset="1" stop-color="#F743E5"/>
</linearGradient>
<linearGradient id="paint76_linear_175_198" x1="956.5" y1="-30" x2="956.5" y2="267.921" gradientUnits="userSpaceOnUse">
<stop stop-color="#9A1032"/>
<stop offset="0.484375" stop-color="#F7869F" stop-opacity="0.567708"/>
<stop offset="1" stop-color="#F743E5"/>
</linearGradient>
<linearGradient id="paint77_linear_175_198" x1="956.5" y1="-30" x2="956.5" y2="267.921" gradientUnits="userSpaceOnUse">
<stop stop-color="#9A1032"/>
<stop offset="0.484375" stop-color="#F7869F" stop-opacity="0.567708"/>
<stop offset="1" stop-color="#F743E5"/>
</linearGradient>
<linearGradient id="paint78_linear_175_198" x1="956.5" y1="-30" x2="956.5" y2="267.921" gradientUnits="userSpaceOnUse">
<stop stop-color="#9A1032"/>
<stop offset="0.484375" stop-color="#F7869F" stop-opacity="0.567708"/>
<stop offset="1" stop-color="#F743E5"/>
</linearGradient>
<linearGradient id="paint79_linear_175_198" x1="956.5" y1="-30" x2="956.5" y2="267.921" gradientUnits="userSpaceOnUse">
<stop stop-color="#9A1032"/>
<stop offset="0.484375" stop-color="#F7869F" stop-opacity="0.567708"/>
<stop offset="1" stop-color="#F743E5"/>
</linearGradient>
<linearGradient id="paint80_linear_175_198" x1="956.5" y1="-30" x2="956.5" y2="267.921" gradientUnits="userSpaceOnUse">
<stop stop-color="#9A1032"/>
<stop offset="0.484375" stop-color="#F7869F" stop-opacity="0.567708"/>
<stop offset="1" stop-color="#F743E5"/>
</linearGradient>
<linearGradient id="paint81_linear_175_198" x1="956.5" y1="-30" x2="956.5" y2="267.921" gradientUnits="userSpaceOnUse">
<stop stop-color="#9A1032"/>
<stop offset="0.484375" stop-color="#F7869F" stop-opacity="0.567708"/>
<stop offset="1" stop-color="#F743E5"/>
</linearGradient>
<linearGradient id="paint82_linear_175_198" x1="956.5" y1="-30" x2="956.5" y2="267.921" gradientUnits="userSpaceOnUse">
<stop stop-color="#9A1032"/>
<stop offset="0.484375" stop-color="#F7869F" stop-opacity="0.567708"/>
<stop offset="1" stop-color="#F743E5"/>
</linearGradient>
<linearGradient id="paint83_linear_175_198" x1="956.5" y1="-30" x2="956.5" y2="267.921" gradientUnits="userSpaceOnUse">
<stop stop-color="#9A1032"/>
<stop offset="0.484375" stop-color="#F7869F" stop-opacity="0.567708"/>
<stop offset="1" stop-color="#F743E5"/>
</linearGradient>
<linearGradient id="paint84_linear_175_198" x1="956.5" y1="-30" x2="956.5" y2="267.921" gradientUnits="userSpaceOnUse">
<stop stop-color="#9A1032"/>
<stop offset="0.484375" stop-color="#F7869F" stop-opacity="0.567708"/>
<stop offset="1" stop-color="#F743E5"/>
</linearGradient>
<linearGradient id="paint85_linear_175_198" x1="956.5" y1="-30" x2="956.5" y2="267.921" gradientUnits="userSpaceOnUse">
<stop stop-color="#9A1032"/>
<stop offset="0.484375" stop-color="#F7869F" stop-opacity="0.567708"/>
<stop offset="1" stop-color="#F743E5"/>
</linearGradient>
<linearGradient id="paint86_linear_175_198" x1="956.5" y1="-30" x2="956.5" y2="267.921" gradientUnits="userSpaceOnUse">
<stop stop-color="#9A1032"/>
<stop offset="0.484375" stop-color="#F7869F" stop-opacity="0.567708"/>
<stop offset="1" stop-color="#F743E5"/>
</linearGradient>
<linearGradient id="paint87_linear_175_198" x1="956.5" y1="-30" x2="956.5" y2="267.921" gradientUnits="userSpaceOnUse">
<stop stop-color="#9A1032"/>
<stop offset="0.484375" stop-color="#F7869F" stop-opacity="0.567708"/>
<stop offset="1" stop-color="#F743E5"/>
</linearGradient>
<linearGradient id="paint88_linear_175_198" x1="956.5" y1="-30" x2="956.5" y2="267.921" gradientUnits="userSpaceOnUse">
<stop stop-color="#9A1032"/>
<stop offset="0.484375" stop-color="#F7869F" stop-opacity="0.567708"/>
<stop offset="1" stop-color="#F743E5"/>
</linearGradient>
<linearGradient id="paint89_linear_175_198" x1="956.5" y1="-30" x2="956.5" y2="267.921" gradientUnits="userSpaceOnUse">
<stop stop-color="#9A1032"/>
<stop offset="0.484375" stop-color="#F7869F" stop-opacity="0.567708"/>
<stop offset="1" stop-color="#F743E5"/>
</linearGradient>
<linearGradient id="paint90_linear_175_198" x1="956.5" y1="-30" x2="956.5" y2="267.921" gradientUnits="userSpaceOnUse">
<stop stop-color="#9A1032"/>
<stop offset="0.484375" stop-color="#F7869F" stop-opacity="0.567708"/>
<stop offset="1" stop-color="#F743E5"/>
</linearGradient>
<linearGradient id="paint91_linear_175_198" x1="956.5" y1="-30" x2="956.5" y2="267.921" gradientUnits="userSpaceOnUse">
<stop stop-color="#9A1032"/>
<stop offset="0.484375" stop-color="#F7869F" stop-opacity="0.567708"/>
<stop offset="1" stop-color="#F743E5"/>
</linearGradient>
<linearGradient id="paint92_linear_175_198" x1="956.5" y1="-30" x2="956.5" y2="267.921" gradientUnits="userSpaceOnUse">
<stop stop-color="#9A1032"/>
<stop offset="0.484375" stop-color="#F7869F" stop-opacity="0.567708"/>
<stop offset="1" stop-color="#F743E5"/>
</linearGradient>
<linearGradient id="paint93_linear_175_198" x1="956.5" y1="-30" x2="956.5" y2="267.921" gradientUnits="userSpaceOnUse">
<stop stop-color="#9A1032"/>
<stop offset="0.484375" stop-color="#F7869F" stop-opacity="0.567708"/>
<stop offset="1" stop-color="#F743E5"/>
</linearGradient>
</defs>
</svg>
