<svg width="1381" height="1272" viewBox="0 0 1381 1272" fill="none" xmlns="http://www.w3.org/2000/svg">
<g opacity="0.2" filter="url(#filter0_f_415_2104)">
<ellipse cx="690.5" cy="800" rx="670.5" ry="350" fill="#EDC7D1"/>
</g>
<path d="M229.035 867C230.53 867 231.662 867.63 232.431 868.891C233.213 870.138 233.605 871.953 233.605 874.336C233.605 876.719 233.213 878.541 232.431 879.802C231.662 881.063 230.53 881.693 229.035 881.693C227.554 881.693 226.422 881.063 225.639 879.802C224.856 878.541 224.465 876.719 224.465 874.336C224.465 871.967 224.856 870.152 225.639 868.891C226.422 867.63 227.554 867 229.035 867ZM225.953 874.336C225.953 876.026 226.107 877.35 226.415 878.306L231.068 869.099C230.579 868.448 229.901 868.122 229.035 868.122C228.071 868.122 227.316 868.635 226.771 869.66C226.226 870.672 225.953 872.23 225.953 874.336ZM229.035 880.55C230.013 880.55 230.775 880.044 231.32 879.033C231.865 878.008 232.137 876.442 232.137 874.336C232.137 872.549 231.963 871.163 231.613 870.18L226.96 879.469C227.463 880.19 228.154 880.55 229.035 880.55Z" fill="url(#paint0_linear_415_2104)"/>
<path d="M230.293 904.135H233.374V905.236H225.387V904.135H228.951V892.455L225.555 894.471L224.968 893.536L229.161 890.959H230.293V904.135Z" fill="url(#paint1_linear_415_2104)"/>
<path d="M229.035 914.502C230.53 914.502 231.662 915.133 232.431 916.393C233.213 917.64 233.605 919.455 233.605 921.838C233.605 924.221 233.213 926.043 232.431 927.304C231.662 928.565 230.53 929.195 229.035 929.195C227.554 929.195 226.422 928.565 225.639 927.304C224.856 926.043 224.465 924.221 224.465 921.838C224.465 919.469 224.856 917.654 225.639 916.393C226.422 915.133 227.554 914.502 229.035 914.502ZM225.953 921.838C225.953 923.529 226.107 924.852 226.415 925.808L231.068 916.601C230.579 915.95 229.901 915.624 229.035 915.624C228.071 915.624 227.316 916.137 226.771 917.162C226.226 918.174 225.953 919.732 225.953 921.838ZM229.035 928.052C230.013 928.052 230.775 927.546 231.32 926.535C231.865 925.51 232.137 923.944 232.137 921.838C232.137 920.051 231.963 918.665 231.613 917.682L226.96 926.971C227.463 927.692 228.154 928.052 229.035 928.052Z" fill="url(#paint2_linear_415_2104)"/>
<path d="M230.293 951.637H233.374V952.738H225.387V951.637H228.951V939.957L225.555 941.973L224.968 941.038L229.161 938.461H230.293V951.637Z" fill="url(#paint3_linear_415_2104)"/>
<path d="M230.293 975.388H233.374V976.489H225.387V975.388H228.951V963.708L225.555 965.724L224.968 964.789L229.161 962.212H230.293V975.388Z" fill="url(#paint4_linear_415_2104)"/>
<path d="M229.035 985.755C230.53 985.755 231.662 986.386 232.431 987.646C233.213 988.893 233.605 990.708 233.605 993.091C233.605 995.474 233.213 997.296 232.431 998.557C231.662 999.818 230.53 1000.45 229.035 1000.45C227.554 1000.45 226.422 999.818 225.639 998.557C224.856 997.296 224.465 995.474 224.465 993.091C224.465 990.722 224.856 988.907 225.639 987.646C226.422 986.386 227.554 985.755 229.035 985.755ZM225.953 993.091C225.953 994.782 226.107 996.105 226.415 997.061L231.068 987.854C230.579 987.203 229.901 986.878 229.035 986.878C228.071 986.878 227.316 987.39 226.771 988.415C226.226 989.427 225.953 990.985 225.953 993.091ZM229.035 999.305C230.013 999.305 230.775 998.8 231.32 997.788C231.865 996.763 232.137 995.197 232.137 993.091C232.137 991.304 231.963 989.919 231.613 988.935L226.96 998.225C227.463 998.945 228.154 999.305 229.035 999.305Z" fill="url(#paint5_linear_415_2104)"/>
<path d="M230.293 1022.89H233.374V1023.99H225.387V1022.89H228.951V1011.21L225.555 1013.23L224.968 1012.29L229.161 1009.71H230.293V1022.89Z" fill="url(#paint6_linear_415_2104)"/>
<path d="M229.035 1033.26C230.53 1033.26 231.662 1033.89 232.431 1035.15C233.213 1036.4 233.605 1038.21 233.605 1040.59C233.605 1042.98 233.213 1044.8 232.431 1046.06C231.662 1047.32 230.53 1047.95 229.035 1047.95C227.554 1047.95 226.422 1047.32 225.639 1046.06C224.856 1044.8 224.465 1042.98 224.465 1040.59C224.465 1038.22 224.856 1036.41 225.639 1035.15C226.422 1033.89 227.554 1033.26 229.035 1033.26ZM225.953 1040.59C225.953 1042.28 226.107 1043.61 226.415 1044.56L231.068 1035.36C230.579 1034.71 229.901 1034.38 229.035 1034.38C228.071 1034.38 227.316 1034.89 226.771 1035.92C226.226 1036.93 225.953 1038.49 225.953 1040.59ZM229.035 1046.81C230.013 1046.81 230.775 1046.3 231.32 1045.29C231.865 1044.27 232.137 1042.7 232.137 1040.59C232.137 1038.81 231.963 1037.42 231.613 1036.44L226.96 1045.73C227.463 1046.45 228.154 1046.81 229.035 1046.81Z" fill="url(#paint7_linear_415_2104)"/>
<path d="M229.035 1057.01C230.53 1057.01 231.662 1057.64 232.431 1058.9C233.213 1060.15 233.605 1061.96 233.605 1064.34C233.605 1066.73 233.213 1068.55 232.431 1069.81C231.662 1071.07 230.53 1071.7 229.035 1071.7C227.554 1071.7 226.422 1071.07 225.639 1069.81C224.856 1068.55 224.465 1066.73 224.465 1064.34C224.465 1061.98 224.856 1060.16 225.639 1058.9C226.422 1057.64 227.554 1057.01 229.035 1057.01ZM225.953 1064.34C225.953 1066.03 226.107 1067.36 226.415 1068.31L231.068 1059.11C230.579 1058.46 229.901 1058.13 229.035 1058.13C228.071 1058.13 227.316 1058.64 226.771 1059.67C226.226 1060.68 225.953 1062.24 225.953 1064.34ZM229.035 1070.56C230.013 1070.56 230.775 1070.05 231.32 1069.04C231.865 1068.02 232.137 1066.45 232.137 1064.34C232.137 1062.56 231.963 1061.17 231.613 1060.19L226.96 1069.48C227.463 1070.2 228.154 1070.56 229.035 1070.56Z" fill="url(#paint8_linear_415_2104)"/>
<path d="M230.293 1094.14H233.374V1095.24H225.387V1094.14H228.951V1082.46L225.555 1084.48L224.968 1083.54L229.161 1080.97H230.293V1094.14Z" fill="url(#paint9_linear_415_2104)"/>
<path d="M229.035 1104.51C230.53 1104.51 231.662 1105.14 232.431 1106.4C233.213 1107.65 233.605 1109.46 233.605 1111.85C233.605 1114.23 233.213 1116.05 232.431 1117.31C231.662 1118.57 230.53 1119.2 229.035 1119.2C227.554 1119.2 226.422 1118.57 225.639 1117.31C224.856 1116.05 224.465 1114.23 224.465 1111.85C224.465 1109.48 224.856 1107.66 225.639 1106.4C226.422 1105.14 227.554 1104.51 229.035 1104.51ZM225.953 1111.85C225.953 1113.54 226.107 1114.86 226.415 1115.82L231.068 1106.61C230.579 1105.96 229.901 1105.63 229.035 1105.63C228.071 1105.63 227.316 1106.15 226.771 1107.17C226.226 1108.18 225.953 1109.74 225.953 1111.85ZM229.035 1118.06C230.013 1118.06 230.775 1117.55 231.32 1116.54C231.865 1115.52 232.137 1113.95 232.137 1111.85C232.137 1110.06 231.963 1108.67 231.613 1107.69L226.96 1116.98C227.463 1117.7 228.154 1118.06 229.035 1118.06Z" fill="url(#paint10_linear_415_2104)"/>
<path d="M230.293 1141.65H233.374V1142.75H225.387V1141.65H228.951V1129.97L225.555 1131.98L224.968 1131.05L229.161 1128.47H230.293V1141.65Z" fill="url(#paint11_linear_415_2104)"/>
<path d="M230.293 1165.4H233.374V1166.5H225.387V1165.4H228.951V1153.72L225.555 1155.73L224.968 1154.8L229.161 1152.22H230.293V1165.4Z" fill="url(#paint12_linear_415_2104)"/>
<path d="M267.965 914.502C269.46 914.502 270.592 915.133 271.361 916.393C272.144 917.64 272.535 919.455 272.535 921.838C272.535 924.221 272.144 926.043 271.361 927.304C270.592 928.565 269.46 929.195 267.965 929.195C266.484 929.195 265.352 928.565 264.569 927.304C263.787 926.043 263.395 924.221 263.395 921.838C263.395 919.469 263.787 917.654 264.569 916.393C265.352 915.133 266.484 914.502 267.965 914.502ZM264.884 921.838C264.884 923.529 265.037 924.852 265.345 925.808L269.998 916.601C269.509 915.95 268.832 915.624 267.965 915.624C267.001 915.624 266.246 916.137 265.701 917.162C265.156 918.174 264.884 919.732 264.884 921.838ZM267.965 928.052C268.943 928.052 269.705 927.546 270.25 926.535C270.795 925.51 271.068 923.944 271.068 921.838C271.068 920.051 270.893 918.665 270.543 917.682L265.89 926.971C266.393 927.692 267.085 928.052 267.965 928.052Z" fill="url(#paint13_linear_415_2104)"/>
<path d="M269.223 951.637H272.304V952.738H264.318V951.637H267.881V939.957L264.485 941.973L263.898 941.038L268.091 938.461H269.223V951.637Z" fill="url(#paint14_linear_415_2104)"/>
<path d="M267.965 962.004C269.46 962.004 270.592 962.635 271.361 963.895C272.144 965.142 272.535 966.957 272.535 969.34C272.535 971.723 272.144 973.545 271.361 974.806C270.592 976.067 269.46 976.697 267.965 976.697C266.484 976.697 265.352 976.067 264.569 974.806C263.787 973.545 263.395 971.723 263.395 969.34C263.395 966.971 263.787 965.156 264.569 963.895C265.352 962.635 266.484 962.004 267.965 962.004ZM264.884 969.34C264.884 971.031 265.037 972.354 265.345 973.31L269.998 964.103C269.509 963.452 268.832 963.126 267.965 963.126C267.001 963.126 266.246 963.639 265.701 964.664C265.156 965.676 264.884 967.234 264.884 969.34ZM267.965 975.554C268.943 975.554 269.705 975.049 270.25 974.037C270.795 973.012 271.068 971.446 271.068 969.34C271.068 967.553 270.893 966.168 270.543 965.184L265.89 974.474C266.393 975.194 267.085 975.554 267.965 975.554Z" fill="url(#paint15_linear_415_2104)"/>
<path d="M267.965 985.755C269.46 985.755 270.592 986.386 271.361 987.646C272.144 988.893 272.535 990.708 272.535 993.091C272.535 995.474 272.144 997.296 271.361 998.557C270.592 999.818 269.46 1000.45 267.965 1000.45C266.484 1000.45 265.352 999.818 264.569 998.557C263.787 997.296 263.395 995.474 263.395 993.091C263.395 990.722 263.787 988.907 264.569 987.646C265.352 986.386 266.484 985.755 267.965 985.755ZM264.884 993.091C264.884 994.782 265.037 996.105 265.345 997.061L269.998 987.854C269.509 987.203 268.832 986.878 267.965 986.878C267.001 986.878 266.246 987.39 265.701 988.415C265.156 989.427 264.884 990.985 264.884 993.091ZM267.965 999.305C268.943 999.305 269.705 998.8 270.25 997.788C270.795 996.763 271.068 995.197 271.068 993.091C271.068 991.304 270.893 989.919 270.543 988.935L265.89 998.225C266.393 998.945 267.085 999.305 267.965 999.305Z" fill="url(#paint16_linear_415_2104)"/>
<path d="M269.223 1022.89H272.304V1023.99H264.318V1022.89H267.881V1011.21L264.485 1013.23L263.898 1012.29L268.091 1009.71H269.223V1022.89Z" fill="url(#paint17_linear_415_2104)"/>
<path d="M267.965 1033.26C269.46 1033.26 270.592 1033.89 271.361 1035.15C272.144 1036.4 272.535 1038.21 272.535 1040.59C272.535 1042.98 272.144 1044.8 271.361 1046.06C270.592 1047.32 269.46 1047.95 267.965 1047.95C266.484 1047.95 265.352 1047.32 264.569 1046.06C263.787 1044.8 263.395 1042.98 263.395 1040.59C263.395 1038.22 263.787 1036.41 264.569 1035.15C265.352 1033.89 266.484 1033.26 267.965 1033.26ZM264.884 1040.59C264.884 1042.28 265.037 1043.61 265.345 1044.56L269.998 1035.36C269.509 1034.71 268.832 1034.38 267.965 1034.38C267.001 1034.38 266.246 1034.89 265.701 1035.92C265.156 1036.93 264.884 1038.49 264.884 1040.59ZM267.965 1046.81C268.943 1046.81 269.705 1046.3 270.25 1045.29C270.795 1044.27 271.068 1042.7 271.068 1040.59C271.068 1038.81 270.893 1037.42 270.543 1036.44L265.89 1045.73C266.393 1046.45 267.085 1046.81 267.965 1046.81Z" fill="url(#paint18_linear_415_2104)"/>
<path d="M269.223 1070.39H272.304V1071.49H264.318V1070.39H267.881V1058.71L264.485 1060.73L263.898 1059.79L268.091 1057.22H269.223V1070.39Z" fill="url(#paint19_linear_415_2104)"/>
<path d="M267.965 1080.76C269.46 1080.76 270.592 1081.39 271.361 1082.65C272.144 1083.9 272.535 1085.71 272.535 1088.1C272.535 1090.48 272.144 1092.3 271.361 1093.56C270.592 1094.82 269.46 1095.45 267.965 1095.45C266.484 1095.45 265.352 1094.82 264.569 1093.56C263.787 1092.3 263.395 1090.48 263.395 1088.1C263.395 1085.73 263.787 1083.91 264.569 1082.65C265.352 1081.39 266.484 1080.76 267.965 1080.76ZM264.884 1088.1C264.884 1089.79 265.037 1091.11 265.345 1092.07L269.998 1082.86C269.509 1082.21 268.832 1081.88 267.965 1081.88C267.001 1081.88 266.246 1082.39 265.701 1083.42C265.156 1084.43 264.884 1085.99 264.884 1088.1ZM267.965 1094.31C268.943 1094.31 269.705 1093.8 270.25 1092.79C270.795 1091.77 271.068 1090.2 271.068 1088.1C271.068 1086.31 270.893 1084.92 270.543 1083.94L265.89 1093.23C266.393 1093.95 267.085 1094.31 267.965 1094.31Z" fill="url(#paint20_linear_415_2104)"/>
<path d="M267.965 1104.51C269.46 1104.51 270.592 1105.14 271.361 1106.4C272.144 1107.65 272.535 1109.46 272.535 1111.85C272.535 1114.23 272.144 1116.05 271.361 1117.31C270.592 1118.57 269.46 1119.2 267.965 1119.2C266.484 1119.2 265.352 1118.57 264.569 1117.31C263.787 1116.05 263.395 1114.23 263.395 1111.85C263.395 1109.48 263.787 1107.66 264.569 1106.4C265.352 1105.14 266.484 1104.51 267.965 1104.51ZM264.884 1111.85C264.884 1113.54 265.037 1114.86 265.345 1115.82L269.998 1106.61C269.509 1105.96 268.832 1105.63 267.965 1105.63C267.001 1105.63 266.246 1106.15 265.701 1107.17C265.156 1108.18 264.884 1109.74 264.884 1111.85ZM267.965 1118.06C268.943 1118.06 269.705 1117.55 270.25 1116.54C270.795 1115.52 271.068 1113.95 271.068 1111.85C271.068 1110.06 270.893 1108.67 270.543 1107.69L265.89 1116.98C266.393 1117.7 267.085 1118.06 267.965 1118.06Z" fill="url(#paint21_linear_415_2104)"/>
<path d="M269.223 1141.65H272.304V1142.75H264.318V1141.65H267.881V1129.97L264.485 1131.98L263.898 1131.05L268.091 1128.47H269.223V1141.65Z" fill="url(#paint22_linear_415_2104)"/>
<path d="M267.965 1152.01C269.46 1152.01 270.592 1152.64 271.361 1153.9C272.144 1155.15 272.535 1156.97 272.535 1159.35C272.535 1161.73 272.144 1163.55 271.361 1164.81C270.592 1166.08 269.46 1166.71 267.965 1166.71C266.484 1166.71 265.352 1166.08 264.569 1164.81C263.787 1163.55 263.395 1161.73 263.395 1159.35C263.395 1156.98 263.787 1155.16 264.569 1153.9C265.352 1152.64 266.484 1152.01 267.965 1152.01ZM264.884 1159.35C264.884 1161.04 265.037 1162.36 265.345 1163.32L269.998 1154.11C269.509 1153.46 268.832 1153.13 267.965 1153.13C267.001 1153.13 266.246 1153.65 265.701 1154.67C265.156 1155.68 264.884 1157.24 264.884 1159.35ZM267.965 1165.56C268.943 1165.56 269.705 1165.06 270.25 1164.05C270.795 1163.02 271.068 1161.45 271.068 1159.35C271.068 1157.56 270.893 1156.18 270.543 1155.19L265.89 1164.48C266.393 1165.2 267.085 1165.56 267.965 1165.56Z" fill="url(#paint23_linear_415_2104)"/>
<path d="M269.223 1189.15H272.304V1190.25H264.318V1189.15H267.881V1177.47L264.485 1179.48L263.898 1178.55L268.091 1175.97H269.223V1189.15Z" fill="url(#paint24_linear_415_2104)"/>
<path d="M269.223 1212.9H272.304V1214H264.318V1212.9H267.881V1201.22L264.485 1203.23L263.898 1202.3L268.091 1199.72H269.223V1212.9Z" fill="url(#paint25_linear_415_2104)"/>
<path d="M209.57 938.253C211.065 938.253 212.197 938.884 212.966 940.144C213.748 941.391 214.14 943.206 214.14 945.589C214.14 947.972 213.748 949.794 212.966 951.055C212.197 952.316 211.065 952.946 209.57 952.946C208.088 952.946 206.956 952.316 206.174 951.055C205.391 949.794 205 947.972 205 945.589C205 943.22 205.391 941.405 206.174 940.144C206.956 938.884 208.088 938.253 209.57 938.253ZM206.488 945.589C206.488 947.28 206.642 948.603 206.95 949.559L211.603 940.352C211.114 939.701 210.436 939.375 209.57 939.375C208.606 939.375 207.851 939.888 207.306 940.913C206.761 941.925 206.488 943.483 206.488 945.589ZM209.57 951.803C210.548 951.803 211.31 951.297 211.855 950.286C212.4 949.261 212.672 947.695 212.672 945.589C212.672 943.802 212.498 942.417 212.148 941.433L207.495 950.722C207.998 951.443 208.689 951.803 209.57 951.803Z" fill="url(#paint26_linear_415_2104)"/>
<path d="M209.57 962.004C211.065 962.004 212.197 962.635 212.966 963.895C213.748 965.142 214.14 966.957 214.14 969.34C214.14 971.723 213.748 973.545 212.966 974.806C212.197 976.067 211.065 976.697 209.57 976.697C208.088 976.697 206.956 976.067 206.174 974.806C205.391 973.545 205 971.723 205 969.34C205 966.971 205.391 965.156 206.174 963.895C206.956 962.635 208.088 962.004 209.57 962.004ZM206.488 969.34C206.488 971.031 206.642 972.354 206.95 973.31L211.603 964.103C211.114 963.452 210.436 963.126 209.57 963.126C208.606 963.126 207.851 963.639 207.306 964.664C206.761 965.676 206.488 967.234 206.488 969.34ZM209.57 975.554C210.548 975.554 211.31 975.049 211.855 974.037C212.4 973.012 212.672 971.446 212.672 969.34C212.672 967.553 212.498 966.168 212.148 965.184L207.495 974.474C207.998 975.194 208.689 975.554 209.57 975.554Z" fill="url(#paint27_linear_415_2104)"/>
<path d="M210.828 999.139H213.909V1000.24H205.922V999.139H209.486V987.459L206.09 989.475L205.503 988.54L209.696 985.963H210.828V999.139Z" fill="url(#paint28_linear_415_2104)"/>
<path d="M209.57 1009.51C211.065 1009.51 212.197 1010.14 212.966 1011.4C213.748 1012.64 214.14 1014.46 214.14 1016.84C214.14 1019.23 213.748 1021.05 212.966 1022.31C212.197 1023.57 211.065 1024.2 209.57 1024.2C208.088 1024.2 206.956 1023.57 206.174 1022.31C205.391 1021.05 205 1019.23 205 1016.84C205 1014.47 205.391 1012.66 206.174 1011.4C206.956 1010.14 208.088 1009.51 209.57 1009.51ZM206.488 1016.84C206.488 1018.53 206.642 1019.86 206.95 1020.81L211.603 1011.61C211.114 1010.95 210.436 1010.63 209.57 1010.63C208.606 1010.63 207.851 1011.14 207.306 1012.17C206.761 1013.18 206.488 1014.74 206.488 1016.84ZM209.57 1023.06C210.548 1023.06 211.31 1022.55 211.855 1021.54C212.4 1020.51 212.672 1018.95 212.672 1016.84C212.672 1015.06 212.498 1013.67 212.148 1012.69L207.495 1021.98C207.998 1022.7 208.689 1023.06 209.57 1023.06Z" fill="url(#paint29_linear_415_2104)"/>
<path d="M210.828 1046.64H213.909V1047.74H205.922V1046.64H209.486V1034.96L206.09 1036.98L205.503 1036.04L209.696 1033.47H210.828V1046.64Z" fill="url(#paint30_linear_415_2104)"/>
<path d="M210.828 1070.39H213.909V1071.49H205.922V1070.39H209.486V1058.71L206.09 1060.73L205.503 1059.79L209.696 1057.22H210.828V1070.39Z" fill="url(#paint31_linear_415_2104)"/>
<path d="M249.758 904.135H252.839V905.236H244.853V904.135H248.416V892.455L245.02 894.471L244.433 893.536L248.626 890.959H249.758V904.135Z" fill="url(#paint32_linear_415_2104)"/>
<path d="M248.5 914.502C249.995 914.502 251.127 915.133 251.896 916.393C252.679 917.64 253.07 919.455 253.07 921.838C253.07 924.221 252.679 926.043 251.896 927.304C251.127 928.565 249.995 929.195 248.5 929.195C247.019 929.195 245.887 928.565 245.104 927.304C244.321 926.043 243.93 924.221 243.93 921.838C243.93 919.469 244.321 917.654 245.104 916.393C245.887 915.133 247.019 914.502 248.5 914.502ZM245.419 921.838C245.419 923.529 245.572 924.852 245.88 925.808L250.533 916.601C250.044 915.95 249.366 915.624 248.5 915.624C247.536 915.624 246.781 916.137 246.236 917.162C245.691 918.174 245.419 919.732 245.419 921.838ZM248.5 928.052C249.478 928.052 250.24 927.546 250.785 926.535C251.33 925.51 251.602 923.944 251.602 921.838C251.602 920.051 251.428 918.665 251.078 917.682L246.425 926.971C246.928 927.692 247.62 928.052 248.5 928.052Z" fill="url(#paint33_linear_415_2104)"/>
<path d="M249.758 951.637H252.839V952.738H244.853V951.637H248.416V939.957L245.02 941.973L244.433 941.038L248.626 938.461H249.758V951.637Z" fill="url(#paint34_linear_415_2104)"/>
<path d="M249.758 975.388H252.839V976.489H244.853V975.388H248.416V963.708L245.02 965.724L244.433 964.789L248.626 962.212H249.758V975.388Z" fill="url(#paint35_linear_415_2104)"/>
<path d="M248.5 985.755C249.995 985.755 251.127 986.386 251.896 987.646C252.679 988.893 253.07 990.708 253.07 993.091C253.07 995.474 252.679 997.296 251.896 998.557C251.127 999.818 249.995 1000.45 248.5 1000.45C247.019 1000.45 245.887 999.818 245.104 998.557C244.321 997.296 243.93 995.474 243.93 993.091C243.93 990.722 244.321 988.907 245.104 987.646C245.887 986.386 247.019 985.755 248.5 985.755ZM245.419 993.091C245.419 994.782 245.572 996.105 245.88 997.061L250.533 987.854C250.044 987.203 249.366 986.878 248.5 986.878C247.536 986.878 246.781 987.39 246.236 988.415C245.691 989.427 245.419 990.985 245.419 993.091ZM248.5 999.305C249.478 999.305 250.24 998.8 250.785 997.788C251.33 996.763 251.602 995.197 251.602 993.091C251.602 991.304 251.428 989.919 251.078 988.935L246.425 998.225C246.928 998.945 247.62 999.305 248.5 999.305Z" fill="url(#paint36_linear_415_2104)"/>
<path d="M249.758 1022.89H252.839V1023.99H244.853V1022.89H248.416V1011.21L245.02 1013.23L244.433 1012.29L248.626 1009.71H249.758V1022.89Z" fill="url(#paint37_linear_415_2104)"/>
<path d="M249.758 1046.64H252.839V1047.74H244.853V1046.64H248.416V1034.96L245.02 1036.98L244.433 1036.04L248.626 1033.47H249.758V1046.64Z" fill="url(#paint38_linear_415_2104)"/>
<path d="M248.5 1057.01C249.995 1057.01 251.127 1057.64 251.896 1058.9C252.679 1060.15 253.07 1061.96 253.07 1064.34C253.07 1066.73 252.679 1068.55 251.896 1069.81C251.127 1071.07 249.995 1071.7 248.5 1071.7C247.019 1071.7 245.887 1071.07 245.104 1069.81C244.321 1068.55 243.93 1066.73 243.93 1064.34C243.93 1061.98 244.321 1060.16 245.104 1058.9C245.887 1057.64 247.019 1057.01 248.5 1057.01ZM245.419 1064.34C245.419 1066.03 245.572 1067.36 245.88 1068.31L250.533 1059.11C250.044 1058.46 249.366 1058.13 248.5 1058.13C247.536 1058.13 246.781 1058.64 246.236 1059.67C245.691 1060.68 245.419 1062.24 245.419 1064.34ZM248.5 1070.56C249.478 1070.56 250.24 1070.05 250.785 1069.04C251.33 1068.02 251.602 1066.45 251.602 1064.34C251.602 1062.56 251.428 1061.17 251.078 1060.19L246.425 1069.48C246.928 1070.2 247.62 1070.56 248.5 1070.56Z" fill="url(#paint39_linear_415_2104)"/>
<path d="M249.758 1094.14H252.839V1095.24H244.853V1094.14H248.416V1082.46L245.02 1084.48L244.433 1083.54L248.626 1080.97H249.758V1094.14Z" fill="url(#paint40_linear_415_2104)"/>
<path d="M248.5 1104.51C249.995 1104.51 251.127 1105.14 251.896 1106.4C252.679 1107.65 253.07 1109.46 253.07 1111.85C253.07 1114.23 252.679 1116.05 251.896 1117.31C251.127 1118.57 249.995 1119.2 248.5 1119.2C247.019 1119.2 245.887 1118.57 245.104 1117.31C244.321 1116.05 243.93 1114.23 243.93 1111.85C243.93 1109.48 244.321 1107.66 245.104 1106.4C245.887 1105.14 247.019 1104.51 248.5 1104.51ZM245.419 1111.85C245.419 1113.54 245.572 1114.86 245.88 1115.82L250.533 1106.61C250.044 1105.96 249.366 1105.63 248.5 1105.63C247.536 1105.63 246.781 1106.15 246.236 1107.17C245.691 1108.18 245.419 1109.74 245.419 1111.85ZM248.5 1118.06C249.478 1118.06 250.24 1117.55 250.785 1116.54C251.33 1115.52 251.602 1113.95 251.602 1111.85C251.602 1110.06 251.428 1108.67 251.078 1107.69L246.425 1116.98C246.928 1117.7 247.62 1118.06 248.5 1118.06Z" fill="url(#paint41_linear_415_2104)"/>
<path d="M287.43 890.751C288.926 890.751 290.057 891.381 290.826 892.642C291.609 893.889 292 895.704 292 898.087C292 900.47 291.609 902.292 290.826 903.553C290.057 904.814 288.926 905.444 287.43 905.444C285.949 905.444 284.817 904.814 284.034 903.553C283.252 902.292 282.86 900.47 282.86 898.087C282.86 895.718 283.252 893.903 284.034 892.642C284.817 891.381 285.949 890.751 287.43 890.751ZM284.349 898.087C284.349 899.777 284.502 901.101 284.81 902.057L289.464 892.85C288.974 892.199 288.297 891.873 287.43 891.873C286.466 891.873 285.711 892.386 285.166 893.411C284.621 894.423 284.349 895.981 284.349 898.087ZM287.43 904.301C288.408 904.301 289.17 903.795 289.715 902.784C290.26 901.759 290.533 900.193 290.533 898.087C290.533 896.3 290.358 894.914 290.009 893.931L285.355 903.22C285.858 903.941 286.55 904.301 287.43 904.301Z" fill="url(#paint42_linear_415_2104)"/>
<path d="M288.688 927.886H291.769V928.987H283.783V927.886H287.346V916.206L283.95 918.222L283.363 917.287L287.556 914.71H288.688V927.886Z" fill="url(#paint43_linear_415_2104)"/>
<path d="M288.688 951.637H291.769V952.738H283.783V951.637H287.346V939.957L283.95 941.973L283.363 941.038L287.556 938.461H288.688V951.637Z" fill="url(#paint44_linear_415_2104)"/>
<path d="M287.43 962.004C288.926 962.004 290.057 962.635 290.826 963.895C291.609 965.142 292 966.957 292 969.34C292 971.723 291.609 973.545 290.826 974.806C290.057 976.067 288.926 976.697 287.43 976.697C285.949 976.697 284.817 976.067 284.034 974.806C283.252 973.545 282.86 971.723 282.86 969.34C282.86 966.971 283.252 965.156 284.034 963.895C284.817 962.635 285.949 962.004 287.43 962.004ZM284.349 969.34C284.349 971.031 284.502 972.354 284.81 973.31L289.464 964.103C288.974 963.452 288.297 963.126 287.43 963.126C286.466 963.126 285.711 963.639 285.166 964.664C284.621 965.676 284.349 967.234 284.349 969.34ZM287.43 975.554C288.408 975.554 289.17 975.049 289.715 974.037C290.26 973.012 290.533 971.446 290.533 969.34C290.533 967.553 290.358 966.168 290.009 965.184L285.355 974.474C285.858 975.194 286.55 975.554 287.43 975.554Z" fill="url(#paint45_linear_415_2104)"/>
<path d="M287.43 985.755C288.926 985.755 290.057 986.386 290.826 987.646C291.609 988.893 292 990.708 292 993.091C292 995.474 291.609 997.296 290.826 998.557C290.057 999.818 288.926 1000.45 287.43 1000.45C285.949 1000.45 284.817 999.818 284.034 998.557C283.252 997.296 282.86 995.474 282.86 993.091C282.86 990.722 283.252 988.907 284.034 987.646C284.817 986.386 285.949 985.755 287.43 985.755ZM284.349 993.091C284.349 994.782 284.502 996.105 284.81 997.061L289.464 987.854C288.974 987.203 288.297 986.878 287.43 986.878C286.466 986.878 285.711 987.39 285.166 988.415C284.621 989.427 284.349 990.985 284.349 993.091ZM287.43 999.305C288.408 999.305 289.17 998.8 289.715 997.788C290.26 996.763 290.533 995.197 290.533 993.091C290.533 991.304 290.358 989.919 290.009 988.935L285.355 998.225C285.858 998.945 286.55 999.305 287.43 999.305Z" fill="url(#paint46_linear_415_2104)"/>
<g opacity="0.6">
<path d="M1115.93 496C1117.36 496 1118.44 496.603 1119.17 497.809C1119.92 499.002 1120.29 500.739 1120.29 503.019C1120.29 505.299 1119.92 507.042 1119.17 508.248C1118.44 509.455 1117.36 510.058 1115.93 510.058C1114.52 510.058 1113.44 509.455 1112.69 508.248C1111.94 507.042 1111.57 505.299 1111.57 503.019C1111.57 500.752 1111.94 499.016 1112.69 497.809C1113.44 496.603 1114.52 496 1115.93 496ZM1112.99 503.019C1112.99 504.636 1113.14 505.902 1113.43 506.817L1117.87 498.008C1117.4 497.385 1116.76 497.074 1115.93 497.074C1115.01 497.074 1114.29 497.564 1113.77 498.545C1113.25 499.513 1112.99 501.004 1112.99 503.019ZM1115.93 508.964C1116.86 508.964 1117.59 508.48 1118.11 507.513C1118.63 506.532 1118.89 505.034 1118.89 503.019C1118.89 501.309 1118.72 499.983 1118.39 499.042L1113.95 507.93C1114.43 508.62 1115.09 508.964 1115.93 508.964Z" fill="url(#paint47_linear_415_2104)"/>
<path d="M1117.13 531.53H1120.07V532.583H1112.45V531.53H1115.85V520.355L1112.61 522.284L1112.05 521.389L1116.05 518.923H1117.13V531.53Z" fill="url(#paint48_linear_415_2104)"/>
<path d="M1115.93 541.449C1117.36 541.449 1118.44 542.052 1119.17 543.258C1119.92 544.451 1120.29 546.188 1120.29 548.468C1120.29 550.748 1119.92 552.491 1119.17 553.697C1118.44 554.903 1117.36 555.507 1115.93 555.507C1114.52 555.507 1113.44 554.903 1112.69 553.697C1111.94 552.491 1111.57 550.748 1111.57 548.468C1111.57 546.201 1111.94 544.464 1112.69 543.258C1113.44 542.052 1114.52 541.449 1115.93 541.449ZM1112.99 548.468C1112.99 550.085 1113.14 551.351 1113.43 552.266L1117.87 543.457C1117.4 542.834 1116.76 542.522 1115.93 542.522C1115.01 542.522 1114.29 543.013 1113.77 543.994C1113.25 544.962 1112.99 546.453 1112.99 548.468ZM1115.93 554.413C1116.86 554.413 1117.59 553.929 1118.11 552.961C1118.63 551.981 1118.89 550.483 1118.89 548.468C1118.89 546.758 1118.72 545.432 1118.39 544.491L1113.95 553.379C1114.43 554.068 1115.09 554.413 1115.93 554.413Z" fill="url(#paint49_linear_415_2104)"/>
<path d="M1117.13 576.978H1120.07V578.032H1112.45V576.978H1115.85V565.804L1112.61 567.732L1112.05 566.838L1116.05 564.372H1117.13V576.978Z" fill="url(#paint50_linear_415_2104)"/>
<path d="M1117.13 599.703H1120.07V600.756H1112.45V599.703H1115.85V588.528L1112.61 590.457L1112.05 589.562L1116.05 587.096H1117.13V599.703Z" fill="url(#paint51_linear_415_2104)"/>
<path d="M1115.93 609.622C1117.36 609.622 1118.44 610.225 1119.17 611.431C1119.92 612.624 1120.29 614.361 1120.29 616.641C1120.29 618.921 1119.92 620.664 1119.17 621.87C1118.44 623.077 1117.36 623.68 1115.93 623.68C1114.52 623.68 1113.44 623.077 1112.69 621.87C1111.94 620.664 1111.57 618.921 1111.57 616.641C1111.57 614.374 1111.94 612.637 1112.69 611.431C1113.44 610.225 1114.52 609.622 1115.93 609.622ZM1112.99 616.641C1112.99 618.258 1113.14 619.524 1113.43 620.439L1117.87 611.63C1117.4 611.007 1116.76 610.696 1115.93 610.696C1115.01 610.696 1114.29 611.186 1113.77 612.167C1113.25 613.135 1112.99 614.626 1112.99 616.641ZM1115.93 622.586C1116.86 622.586 1117.59 622.102 1118.11 621.135C1118.63 620.154 1118.89 618.656 1118.89 616.641C1118.89 614.931 1118.72 613.605 1118.39 612.664L1113.95 621.552C1114.43 622.241 1115.09 622.586 1115.93 622.586Z" fill="url(#paint52_linear_415_2104)"/>
<path d="M1117.13 645.151H1120.07V646.205H1112.45V645.151H1115.85V633.977L1112.61 635.905L1112.05 635.011L1116.05 632.545H1117.13V645.151Z" fill="url(#paint53_linear_415_2104)"/>
<path d="M1115.93 655.07C1117.36 655.07 1118.44 655.674 1119.17 656.88C1119.92 658.073 1120.29 659.809 1120.29 662.089C1120.29 664.37 1119.92 666.113 1119.17 667.319C1118.44 668.525 1117.36 669.128 1115.93 669.128C1114.52 669.128 1113.44 668.525 1112.69 667.319C1111.94 666.113 1111.57 664.37 1111.57 662.089C1111.57 659.823 1111.94 658.086 1112.69 656.88C1113.44 655.674 1114.52 655.07 1115.93 655.07ZM1112.99 662.089C1112.99 663.707 1113.14 664.973 1113.43 665.887L1117.87 657.079C1117.4 656.456 1116.76 656.144 1115.93 656.144C1115.01 656.144 1114.29 656.635 1113.77 657.616C1113.25 658.583 1112.99 660.075 1112.99 662.089ZM1115.93 668.035C1116.86 668.035 1117.59 667.551 1118.11 666.583C1118.63 665.602 1118.89 664.104 1118.89 662.089C1118.89 660.379 1118.72 659.054 1118.39 658.113L1113.95 667.001C1114.43 667.69 1115.09 668.035 1115.93 668.035Z" fill="url(#paint54_linear_415_2104)"/>
<path d="M1115.93 677.795C1117.36 677.795 1118.44 678.398 1119.17 679.604C1119.92 680.797 1120.29 682.534 1120.29 684.814C1120.29 687.094 1119.92 688.837 1119.17 690.043C1118.44 691.25 1117.36 691.853 1115.93 691.853C1114.52 691.853 1113.44 691.25 1112.69 690.043C1111.94 688.837 1111.57 687.094 1111.57 684.814C1111.57 682.547 1111.94 680.811 1112.69 679.604C1113.44 678.398 1114.52 677.795 1115.93 677.795ZM1112.99 684.814C1112.99 686.431 1113.14 687.697 1113.43 688.612L1117.87 679.803C1117.4 679.18 1116.76 678.869 1115.93 678.869C1115.01 678.869 1114.29 679.359 1113.77 680.34C1113.25 681.308 1112.99 682.799 1112.99 684.814ZM1115.93 690.759C1116.86 690.759 1117.59 690.275 1118.11 689.308C1118.63 688.327 1118.89 686.829 1118.89 684.814C1118.89 683.104 1118.72 681.778 1118.39 680.837L1113.95 689.725C1114.43 690.414 1115.09 690.759 1115.93 690.759Z" fill="url(#paint55_linear_415_2104)"/>
<path d="M1117.13 713.324H1120.07V714.378H1112.45V713.324H1115.85V702.15L1112.61 704.078L1112.05 703.184L1116.05 700.718H1117.13V713.324Z" fill="url(#paint56_linear_415_2104)"/>
<path d="M1115.93 723.244C1117.36 723.244 1118.44 723.847 1119.17 725.053C1119.92 726.246 1120.29 727.983 1120.29 730.263C1120.29 732.543 1119.92 734.286 1119.17 735.492C1118.44 736.698 1117.36 737.301 1115.93 737.301C1114.52 737.301 1113.44 736.698 1112.69 735.492C1111.94 734.286 1111.57 732.543 1111.57 730.263C1111.57 727.996 1111.94 726.259 1112.69 725.053C1113.44 723.847 1114.52 723.244 1115.93 723.244ZM1112.99 730.263C1112.99 731.88 1113.14 733.146 1113.43 734.06L1117.87 725.252C1117.4 724.629 1116.76 724.317 1115.93 724.317C1115.01 724.317 1114.29 724.808 1113.77 725.789C1113.25 726.756 1112.99 728.248 1112.99 730.263ZM1115.93 736.208C1116.86 736.208 1117.59 735.724 1118.11 734.756C1118.63 733.775 1118.89 732.277 1118.89 730.263C1118.89 728.553 1118.72 727.227 1118.39 726.286L1113.95 735.174C1114.43 735.863 1115.09 736.208 1115.93 736.208Z" fill="url(#paint57_linear_415_2104)"/>
<path d="M1117.13 758.773H1120.07V759.827H1112.45V758.773H1115.85V747.598L1112.61 749.527L1112.05 748.632L1116.05 746.167H1117.13V758.773Z" fill="url(#paint58_linear_415_2104)"/>
<path d="M1117.13 781.497H1120.07V782.551H1112.45V781.497H1115.85V770.323L1112.61 772.251L1112.05 771.357L1116.05 768.891H1117.13V781.497Z" fill="url(#paint59_linear_415_2104)"/>
<path d="M1153.07 541.449C1154.5 541.449 1155.58 542.052 1156.31 543.258C1157.06 544.451 1157.43 546.188 1157.43 548.468C1157.43 550.748 1157.06 552.491 1156.31 553.697C1155.58 554.903 1154.5 555.507 1153.07 555.507C1151.66 555.507 1150.58 554.903 1149.83 553.697C1149.08 552.491 1148.71 550.748 1148.71 548.468C1148.71 546.201 1149.08 544.464 1149.83 543.258C1150.58 542.052 1151.66 541.449 1153.07 541.449ZM1150.13 548.468C1150.13 550.085 1150.28 551.351 1150.57 552.266L1155.01 543.457C1154.54 542.834 1153.9 542.522 1153.07 542.522C1152.15 542.522 1151.43 543.013 1150.91 543.994C1150.39 544.962 1150.13 546.453 1150.13 548.468ZM1153.07 554.413C1154 554.413 1154.73 553.929 1155.25 552.961C1155.77 551.981 1156.03 550.483 1156.03 548.468C1156.03 546.758 1155.86 545.432 1155.53 544.491L1151.09 553.379C1151.57 554.068 1152.23 554.413 1153.07 554.413Z" fill="url(#paint60_linear_415_2104)"/>
<path d="M1154.27 576.978H1157.21V578.032H1149.59V576.978H1152.99V565.804L1149.75 567.732L1149.19 566.838L1153.19 564.372H1154.27V576.978Z" fill="url(#paint61_linear_415_2104)"/>
<path d="M1153.07 586.897C1154.5 586.897 1155.58 587.501 1156.31 588.707C1157.06 589.9 1157.43 591.636 1157.43 593.916C1157.43 596.196 1157.06 597.94 1156.31 599.146C1155.58 600.352 1154.5 600.955 1153.07 600.955C1151.66 600.955 1150.58 600.352 1149.83 599.146C1149.08 597.94 1148.71 596.196 1148.71 593.916C1148.71 591.65 1149.08 589.913 1149.83 588.707C1150.58 587.501 1151.66 586.897 1153.07 586.897ZM1150.13 593.916C1150.13 595.534 1150.28 596.8 1150.57 597.714L1155.01 588.906C1154.54 588.283 1153.9 587.971 1153.07 587.971C1152.15 587.971 1151.43 588.462 1150.91 589.443C1150.39 590.41 1150.13 591.902 1150.13 593.916ZM1153.07 599.862C1154 599.862 1154.73 599.378 1155.25 598.41C1155.77 597.429 1156.03 595.931 1156.03 593.916C1156.03 592.206 1155.86 590.881 1155.53 589.94L1151.09 598.828C1151.57 599.517 1152.23 599.862 1153.07 599.862Z" fill="url(#paint62_linear_415_2104)"/>
<path d="M1153.07 609.622C1154.5 609.622 1155.58 610.225 1156.31 611.431C1157.06 612.624 1157.43 614.361 1157.43 616.641C1157.43 618.921 1157.06 620.664 1156.31 621.87C1155.58 623.077 1154.5 623.68 1153.07 623.68C1151.66 623.68 1150.58 623.077 1149.83 621.87C1149.08 620.664 1148.71 618.921 1148.71 616.641C1148.71 614.374 1149.08 612.637 1149.83 611.431C1150.58 610.225 1151.66 609.622 1153.07 609.622ZM1150.13 616.641C1150.13 618.258 1150.28 619.524 1150.57 620.439L1155.01 611.63C1154.54 611.007 1153.9 610.696 1153.07 610.696C1152.15 610.696 1151.43 611.186 1150.91 612.167C1150.39 613.135 1150.13 614.626 1150.13 616.641ZM1153.07 622.586C1154 622.586 1154.73 622.102 1155.25 621.135C1155.77 620.154 1156.03 618.656 1156.03 616.641C1156.03 614.931 1155.86 613.605 1155.53 612.664L1151.09 621.552C1151.57 622.241 1152.23 622.586 1153.07 622.586Z" fill="url(#paint63_linear_415_2104)"/>
<path d="M1154.27 645.151H1157.21V646.205H1149.59V645.151H1152.99V633.977L1149.75 635.905L1149.19 635.011L1153.19 632.545H1154.27V645.151Z" fill="url(#paint64_linear_415_2104)"/>
<path d="M1153.07 655.07C1154.5 655.07 1155.58 655.674 1156.31 656.88C1157.06 658.073 1157.43 659.809 1157.43 662.089C1157.43 664.37 1157.06 666.113 1156.31 667.319C1155.58 668.525 1154.5 669.128 1153.07 669.128C1151.66 669.128 1150.58 668.525 1149.83 667.319C1149.08 666.113 1148.71 664.37 1148.71 662.089C1148.71 659.823 1149.08 658.086 1149.83 656.88C1150.58 655.674 1151.66 655.07 1153.07 655.07ZM1150.13 662.089C1150.13 663.707 1150.28 664.973 1150.57 665.887L1155.01 657.079C1154.54 656.456 1153.9 656.144 1153.07 656.144C1152.15 656.144 1151.43 656.635 1150.91 657.616C1150.39 658.583 1150.13 660.075 1150.13 662.089ZM1153.07 668.035C1154 668.035 1154.73 667.551 1155.25 666.583C1155.77 665.602 1156.03 664.104 1156.03 662.089C1156.03 660.379 1155.86 659.054 1155.53 658.113L1151.09 667.001C1151.57 667.69 1152.23 668.035 1153.07 668.035Z" fill="url(#paint65_linear_415_2104)"/>
<path d="M1154.27 690.6H1157.21V691.654H1149.59V690.6H1152.99V679.425L1149.75 681.354L1149.19 680.459L1153.19 677.994H1154.27V690.6Z" fill="url(#paint66_linear_415_2104)"/>
<path d="M1153.07 700.519C1154.5 700.519 1155.58 701.122 1156.31 702.329C1157.06 703.522 1157.43 705.258 1157.43 707.538C1157.43 709.818 1157.06 711.561 1156.31 712.768C1155.58 713.974 1154.5 714.577 1153.07 714.577C1151.66 714.577 1150.58 713.974 1149.83 712.768C1149.08 711.561 1148.71 709.818 1148.71 707.538C1148.71 705.271 1149.08 703.535 1149.83 702.329C1150.58 701.122 1151.66 700.519 1153.07 700.519ZM1150.13 707.538C1150.13 709.155 1150.28 710.421 1150.57 711.336L1155.01 702.527C1154.54 701.904 1153.9 701.593 1153.07 701.593C1152.15 701.593 1151.43 702.083 1150.91 703.064C1150.39 704.032 1150.13 705.523 1150.13 707.538ZM1153.07 713.483C1154 713.483 1154.73 713 1155.25 712.032C1155.77 711.051 1156.03 709.553 1156.03 707.538C1156.03 705.828 1155.86 704.503 1155.53 703.561L1151.09 712.449C1151.57 713.139 1152.23 713.483 1153.07 713.483Z" fill="url(#paint67_linear_415_2104)"/>
<path d="M1153.07 723.244C1154.5 723.244 1155.58 723.847 1156.31 725.053C1157.06 726.246 1157.43 727.983 1157.43 730.263C1157.43 732.543 1157.06 734.286 1156.31 735.492C1155.58 736.698 1154.5 737.301 1153.07 737.301C1151.66 737.301 1150.58 736.698 1149.83 735.492C1149.08 734.286 1148.71 732.543 1148.71 730.263C1148.71 727.996 1149.08 726.259 1149.83 725.053C1150.58 723.847 1151.66 723.244 1153.07 723.244ZM1150.13 730.263C1150.13 731.88 1150.28 733.146 1150.57 734.06L1155.01 725.252C1154.54 724.629 1153.9 724.317 1153.07 724.317C1152.15 724.317 1151.43 724.808 1150.91 725.789C1150.39 726.756 1150.13 728.248 1150.13 730.263ZM1153.07 736.208C1154 736.208 1154.73 735.724 1155.25 734.756C1155.77 733.775 1156.03 732.277 1156.03 730.263C1156.03 728.553 1155.86 727.227 1155.53 726.286L1151.09 735.174C1151.57 735.863 1152.23 736.208 1153.07 736.208Z" fill="url(#paint68_linear_415_2104)"/>
<path d="M1154.27 758.773H1157.21V759.827H1149.59V758.773H1152.99V747.598L1149.75 749.527L1149.19 748.632L1153.19 746.167H1154.27V758.773Z" fill="url(#paint69_linear_415_2104)"/>
<path d="M1153.07 768.692C1154.5 768.692 1155.58 769.295 1156.31 770.502C1157.06 771.695 1157.43 773.431 1157.43 775.711C1157.43 777.991 1157.06 779.734 1156.31 780.941C1155.58 782.147 1154.5 782.75 1153.07 782.75C1151.66 782.75 1150.58 782.147 1149.83 780.941C1149.08 779.734 1148.71 777.991 1148.71 775.711C1148.71 773.445 1149.08 771.708 1149.83 770.502C1150.58 769.295 1151.66 768.692 1153.07 768.692ZM1150.13 775.711C1150.13 777.328 1150.28 778.594 1150.57 779.509L1155.01 770.701C1154.54 770.078 1153.9 769.766 1153.07 769.766C1152.15 769.766 1151.43 770.256 1150.91 771.237C1150.39 772.205 1150.13 773.696 1150.13 775.711ZM1153.07 781.657C1154 781.657 1154.73 781.173 1155.25 780.205C1155.77 779.224 1156.03 777.726 1156.03 775.711C1156.03 774.001 1155.86 772.676 1155.53 771.734L1151.09 780.623C1151.57 781.312 1152.23 781.657 1153.07 781.657Z" fill="url(#paint70_linear_415_2104)"/>
<path d="M1154.27 804.222H1157.21V805.276H1149.59V804.222H1152.99V793.047L1149.75 794.976L1149.19 794.081L1153.19 791.615H1154.27V804.222Z" fill="url(#paint71_linear_415_2104)"/>
<path d="M1154.27 826.946H1157.21V828H1149.59V826.946H1152.99V815.771L1149.75 817.7L1149.19 816.805L1153.19 814.34H1154.27V826.946Z" fill="url(#paint72_linear_415_2104)"/>
<path d="M1097.36 564.173C1098.79 564.173 1099.87 564.776 1100.6 565.982C1101.35 567.176 1101.72 568.912 1101.72 571.192C1101.72 573.472 1101.35 575.215 1100.6 576.421C1099.87 577.628 1098.79 578.231 1097.36 578.231C1095.95 578.231 1094.87 577.628 1094.12 576.421C1093.37 575.215 1093 573.472 1093 571.192C1093 568.925 1093.37 567.189 1094.12 565.982C1094.87 564.776 1095.95 564.173 1097.36 564.173ZM1094.42 571.192C1094.42 572.809 1094.57 574.075 1094.86 574.99L1099.3 566.181C1098.83 565.558 1098.19 565.247 1097.36 565.247C1096.44 565.247 1095.72 565.737 1095.2 566.718C1094.68 567.686 1094.42 569.177 1094.42 571.192ZM1097.36 577.137C1098.29 577.137 1099.02 576.653 1099.54 575.686C1100.06 574.705 1100.32 573.207 1100.32 571.192C1100.32 569.482 1100.15 568.156 1099.82 567.215L1095.38 576.103C1095.86 576.793 1096.52 577.137 1097.36 577.137Z" fill="url(#paint73_linear_415_2104)"/>
<path d="M1097.36 586.897C1098.79 586.897 1099.87 587.501 1100.6 588.707C1101.35 589.9 1101.72 591.636 1101.72 593.916C1101.72 596.196 1101.35 597.94 1100.6 599.146C1099.87 600.352 1098.79 600.955 1097.36 600.955C1095.95 600.955 1094.87 600.352 1094.12 599.146C1093.37 597.94 1093 596.196 1093 593.916C1093 591.65 1093.37 589.913 1094.12 588.707C1094.87 587.501 1095.95 586.897 1097.36 586.897ZM1094.42 593.916C1094.42 595.534 1094.57 596.8 1094.86 597.714L1099.3 588.906C1098.83 588.283 1098.19 587.971 1097.36 587.971C1096.44 587.971 1095.72 588.462 1095.2 589.443C1094.68 590.41 1094.42 591.902 1094.42 593.916ZM1097.36 599.862C1098.29 599.862 1099.02 599.378 1099.54 598.41C1100.06 597.429 1100.32 595.931 1100.32 593.916C1100.32 592.206 1100.15 590.881 1099.82 589.94L1095.38 598.828C1095.86 599.517 1096.52 599.862 1097.36 599.862Z" fill="url(#paint74_linear_415_2104)"/>
<path d="M1098.56 622.427H1101.5V623.481H1093.88V622.427H1097.28V611.252L1094.04 613.181L1093.48 612.286L1097.48 609.821H1098.56V622.427Z" fill="url(#paint75_linear_415_2104)"/>
<path d="M1097.36 632.346C1098.79 632.346 1099.87 632.949 1100.6 634.156C1101.35 635.349 1101.72 637.085 1101.72 639.365C1101.72 641.645 1101.35 643.388 1100.6 644.595C1099.87 645.801 1098.79 646.404 1097.36 646.404C1095.95 646.404 1094.87 645.801 1094.12 644.595C1093.37 643.388 1093 641.645 1093 639.365C1093 637.098 1093.37 635.362 1094.12 634.156C1094.87 632.949 1095.95 632.346 1097.36 632.346ZM1094.42 639.365C1094.42 640.982 1094.57 642.248 1094.86 643.163L1099.3 634.354C1098.83 633.731 1098.19 633.42 1097.36 633.42C1096.44 633.42 1095.72 633.91 1095.2 634.891C1094.68 635.859 1094.42 637.35 1094.42 639.365ZM1097.36 645.31C1098.29 645.31 1099.02 644.827 1099.54 643.859C1100.06 642.878 1100.32 641.38 1100.32 639.365C1100.32 637.655 1100.15 636.33 1099.82 635.388L1095.38 644.276C1095.86 644.966 1096.52 645.31 1097.36 645.31Z" fill="url(#paint76_linear_415_2104)"/>
<path d="M1098.56 667.876H1101.5V668.93H1093.88V667.876H1097.28V656.701L1094.04 658.63L1093.48 657.735L1097.48 655.269H1098.56V667.876Z" fill="url(#paint77_linear_415_2104)"/>
<path d="M1098.56 690.6H1101.5V691.654H1093.88V690.6H1097.28V679.425L1094.04 681.354L1093.48 680.459L1097.48 677.994H1098.56V690.6Z" fill="url(#paint78_linear_415_2104)"/>
<path d="M1135.7 531.53H1138.64V532.583H1131.02V531.53H1134.42V520.355L1131.18 522.284L1130.62 521.389L1134.62 518.923H1135.7V531.53Z" fill="url(#paint79_linear_415_2104)"/>
<path d="M1134.5 541.449C1135.93 541.449 1137.01 542.052 1137.74 543.258C1138.49 544.451 1138.86 546.188 1138.86 548.468C1138.86 550.748 1138.49 552.491 1137.74 553.697C1137.01 554.903 1135.93 555.507 1134.5 555.507C1133.09 555.507 1132.01 554.903 1131.26 553.697C1130.51 552.491 1130.14 550.748 1130.14 548.468C1130.14 546.201 1130.51 544.464 1131.26 543.258C1132.01 542.052 1133.09 541.449 1134.5 541.449ZM1131.56 548.468C1131.56 550.085 1131.71 551.351 1132 552.266L1136.44 543.457C1135.97 542.834 1135.33 542.522 1134.5 542.522C1133.58 542.522 1132.86 543.013 1132.34 543.994C1131.82 544.962 1131.56 546.453 1131.56 548.468ZM1134.5 554.413C1135.43 554.413 1136.16 553.929 1136.68 552.961C1137.2 551.981 1137.46 550.483 1137.46 548.468C1137.46 546.758 1137.29 545.432 1136.96 544.491L1132.52 553.379C1133 554.068 1133.66 554.413 1134.5 554.413Z" fill="url(#paint80_linear_415_2104)"/>
<path d="M1135.7 576.978H1138.64V578.032H1131.02V576.978H1134.42V565.804L1131.18 567.732L1130.62 566.838L1134.62 564.372H1135.7V576.978Z" fill="url(#paint81_linear_415_2104)"/>
<path d="M1135.7 599.703H1138.64V600.756H1131.02V599.703H1134.42V588.528L1131.18 590.457L1130.62 589.562L1134.62 587.096H1135.7V599.703Z" fill="url(#paint82_linear_415_2104)"/>
<path d="M1134.5 609.622C1135.93 609.622 1137.01 610.225 1137.74 611.431C1138.49 612.624 1138.86 614.361 1138.86 616.641C1138.86 618.921 1138.49 620.664 1137.74 621.87C1137.01 623.077 1135.93 623.68 1134.5 623.68C1133.09 623.68 1132.01 623.077 1131.26 621.87C1130.51 620.664 1130.14 618.921 1130.14 616.641C1130.14 614.374 1130.51 612.637 1131.26 611.431C1132.01 610.225 1133.09 609.622 1134.5 609.622ZM1131.56 616.641C1131.56 618.258 1131.71 619.524 1132 620.439L1136.44 611.63C1135.97 611.007 1135.33 610.696 1134.5 610.696C1133.58 610.696 1132.86 611.186 1132.34 612.167C1131.82 613.135 1131.56 614.626 1131.56 616.641ZM1134.5 622.586C1135.43 622.586 1136.16 622.102 1136.68 621.135C1137.2 620.154 1137.46 618.656 1137.46 616.641C1137.46 614.931 1137.29 613.605 1136.96 612.664L1132.52 621.552C1133 622.241 1133.66 622.586 1134.5 622.586Z" fill="url(#paint83_linear_415_2104)"/>
<path d="M1135.7 645.151H1138.64V646.205H1131.02V645.151H1134.42V633.977L1131.18 635.905L1130.62 635.011L1134.62 632.545H1135.7V645.151Z" fill="url(#paint84_linear_415_2104)"/>
<path d="M1135.7 667.876H1138.64V668.93H1131.02V667.876H1134.42V656.701L1131.18 658.63L1130.62 657.735L1134.62 655.269H1135.7V667.876Z" fill="url(#paint85_linear_415_2104)"/>
<path d="M1134.5 677.795C1135.93 677.795 1137.01 678.398 1137.74 679.604C1138.49 680.797 1138.86 682.534 1138.86 684.814C1138.86 687.094 1138.49 688.837 1137.74 690.043C1137.01 691.25 1135.93 691.853 1134.5 691.853C1133.09 691.853 1132.01 691.25 1131.26 690.043C1130.51 688.837 1130.14 687.094 1130.14 684.814C1130.14 682.547 1130.51 680.811 1131.26 679.604C1132.01 678.398 1133.09 677.795 1134.5 677.795ZM1131.56 684.814C1131.56 686.431 1131.71 687.697 1132 688.612L1136.44 679.803C1135.97 679.18 1135.33 678.869 1134.5 678.869C1133.58 678.869 1132.86 679.359 1132.34 680.34C1131.82 681.308 1131.56 682.799 1131.56 684.814ZM1134.5 690.759C1135.43 690.759 1136.16 690.275 1136.68 689.308C1137.2 688.327 1137.46 686.829 1137.46 684.814C1137.46 683.104 1137.29 681.778 1136.96 680.837L1132.52 689.725C1133 690.414 1133.66 690.759 1134.5 690.759Z" fill="url(#paint86_linear_415_2104)"/>
<path d="M1135.7 713.324H1138.64V714.378H1131.02V713.324H1134.42V702.15L1131.18 704.078L1130.62 703.184L1134.62 700.718H1135.7V713.324Z" fill="url(#paint87_linear_415_2104)"/>
<path d="M1134.5 723.244C1135.93 723.244 1137.01 723.847 1137.74 725.053C1138.49 726.246 1138.86 727.983 1138.86 730.263C1138.86 732.543 1138.49 734.286 1137.74 735.492C1137.01 736.698 1135.93 737.301 1134.5 737.301C1133.09 737.301 1132.01 736.698 1131.26 735.492C1130.51 734.286 1130.14 732.543 1130.14 730.263C1130.14 727.996 1130.51 726.259 1131.26 725.053C1132.01 723.847 1133.09 723.244 1134.5 723.244ZM1131.56 730.263C1131.56 731.88 1131.71 733.146 1132 734.06L1136.44 725.252C1135.97 724.629 1135.33 724.317 1134.5 724.317C1133.58 724.317 1132.86 724.808 1132.34 725.789C1131.82 726.756 1131.56 728.248 1131.56 730.263ZM1134.5 736.208C1135.43 736.208 1136.16 735.724 1136.68 734.756C1137.2 733.775 1137.46 732.277 1137.46 730.263C1137.46 728.553 1137.29 727.227 1136.96 726.286L1132.52 735.174C1133 735.863 1133.66 736.208 1134.5 736.208Z" fill="url(#paint88_linear_415_2104)"/>
<path d="M1171.64 518.724C1173.07 518.724 1174.15 519.327 1174.88 520.534C1175.63 521.727 1176 523.463 1176 525.743C1176 528.023 1175.63 529.767 1174.88 530.973C1174.15 532.179 1173.07 532.782 1171.64 532.782C1170.23 532.782 1169.15 532.179 1168.4 530.973C1167.65 529.767 1167.28 528.023 1167.28 525.743C1167.28 523.477 1167.65 521.74 1168.4 520.534C1169.15 519.327 1170.23 518.724 1171.64 518.724ZM1168.7 525.743C1168.7 527.361 1168.85 528.626 1169.14 529.541L1173.58 520.733C1173.11 520.11 1172.47 519.798 1171.64 519.798C1170.72 519.798 1170 520.289 1169.48 521.269C1168.96 522.237 1168.7 523.728 1168.7 525.743ZM1171.64 531.689C1172.57 531.689 1173.3 531.205 1173.82 530.237C1174.34 529.256 1174.6 527.758 1174.6 525.743C1174.6 524.033 1174.43 522.708 1174.1 521.767L1169.66 530.655C1170.14 531.344 1170.8 531.689 1171.64 531.689Z" fill="url(#paint89_linear_415_2104)"/>
<path d="M1172.84 554.254H1175.78V555.308H1168.16V554.254H1171.56V543.079L1168.32 545.008L1167.76 544.113L1171.76 541.648H1172.84V554.254Z" fill="url(#paint90_linear_415_2104)"/>
<path d="M1172.84 576.978H1175.78V578.032H1168.16V576.978H1171.56V565.804L1168.32 567.732L1167.76 566.838L1171.76 564.372H1172.84V576.978Z" fill="url(#paint91_linear_415_2104)"/>
<path d="M1171.64 586.897C1173.07 586.897 1174.15 587.501 1174.88 588.707C1175.63 589.9 1176 591.636 1176 593.916C1176 596.196 1175.63 597.94 1174.88 599.146C1174.15 600.352 1173.07 600.955 1171.64 600.955C1170.23 600.955 1169.15 600.352 1168.4 599.146C1167.65 597.94 1167.28 596.196 1167.28 593.916C1167.28 591.65 1167.65 589.913 1168.4 588.707C1169.15 587.501 1170.23 586.897 1171.64 586.897ZM1168.7 593.916C1168.7 595.534 1168.85 596.8 1169.14 597.714L1173.58 588.906C1173.11 588.283 1172.47 587.971 1171.64 587.971C1170.72 587.971 1170 588.462 1169.48 589.443C1168.96 590.41 1168.7 591.902 1168.7 593.916ZM1171.64 599.862C1172.57 599.862 1173.3 599.378 1173.82 598.41C1174.34 597.429 1174.6 595.931 1174.6 593.916C1174.6 592.206 1174.43 590.881 1174.1 589.94L1169.66 598.828C1170.14 599.517 1170.8 599.862 1171.64 599.862Z" fill="url(#paint92_linear_415_2104)"/>
<path d="M1171.64 609.622C1173.07 609.622 1174.15 610.225 1174.88 611.431C1175.63 612.624 1176 614.361 1176 616.641C1176 618.921 1175.63 620.664 1174.88 621.87C1174.15 623.077 1173.07 623.68 1171.64 623.68C1170.23 623.68 1169.15 623.077 1168.4 621.87C1167.65 620.664 1167.28 618.921 1167.28 616.641C1167.28 614.374 1167.65 612.637 1168.4 611.431C1169.15 610.225 1170.23 609.622 1171.64 609.622ZM1168.7 616.641C1168.7 618.258 1168.85 619.524 1169.14 620.439L1173.58 611.63C1173.11 611.007 1172.47 610.696 1171.64 610.696C1170.72 610.696 1170 611.186 1169.48 612.167C1168.96 613.135 1168.7 614.626 1168.7 616.641ZM1171.64 622.586C1172.57 622.586 1173.3 622.102 1173.82 621.135C1174.34 620.154 1174.6 618.656 1174.6 616.641C1174.6 614.931 1174.43 613.605 1174.1 612.664L1169.66 621.552C1170.14 622.241 1170.8 622.586 1171.64 622.586Z" fill="url(#paint93_linear_415_2104)"/>
</g>
<defs>
<filter id="filter0_f_415_2104" x="-430" y="0" width="2241" height="1600" filterUnits="userSpaceOnUse" color-interpolation-filters="sRGB">
<feFlood flood-opacity="0" result="BackgroundImageFix"/>
<feBlend mode="normal" in="SourceGraphic" in2="BackgroundImageFix" result="shape"/>
<feGaussianBlur stdDeviation="225" result="effect1_foregroundBlur_415_2104"/>
</filter>
<linearGradient id="paint0_linear_415_2104" x1="248.5" y1="867" x2="248.5" y2="1178.38" gradientUnits="userSpaceOnUse">
<stop stop-color="#F743E5"/>
<stop offset="0.5" stop-color="#F7869F" stop-opacity="0.307671"/>
<stop offset="1" stop-color="#9A1032"/>
</linearGradient>
<linearGradient id="paint1_linear_415_2104" x1="248.5" y1="867" x2="248.5" y2="1178.38" gradientUnits="userSpaceOnUse">
<stop stop-color="#F743E5"/>
<stop offset="0.5" stop-color="#F7869F" stop-opacity="0.307671"/>
<stop offset="1" stop-color="#9A1032"/>
</linearGradient>
<linearGradient id="paint2_linear_415_2104" x1="248.5" y1="867" x2="248.5" y2="1178.38" gradientUnits="userSpaceOnUse">
<stop stop-color="#F743E5"/>
<stop offset="0.5" stop-color="#F7869F" stop-opacity="0.307671"/>
<stop offset="1" stop-color="#9A1032"/>
</linearGradient>
<linearGradient id="paint3_linear_415_2104" x1="248.5" y1="867" x2="248.5" y2="1178.38" gradientUnits="userSpaceOnUse">
<stop stop-color="#F743E5"/>
<stop offset="0.5" stop-color="#F7869F" stop-opacity="0.307671"/>
<stop offset="1" stop-color="#9A1032"/>
</linearGradient>
<linearGradient id="paint4_linear_415_2104" x1="248.5" y1="867" x2="248.5" y2="1178.38" gradientUnits="userSpaceOnUse">
<stop stop-color="#F743E5"/>
<stop offset="0.5" stop-color="#F7869F" stop-opacity="0.307671"/>
<stop offset="1" stop-color="#9A1032"/>
</linearGradient>
<linearGradient id="paint5_linear_415_2104" x1="248.5" y1="867" x2="248.5" y2="1178.38" gradientUnits="userSpaceOnUse">
<stop stop-color="#F743E5"/>
<stop offset="0.5" stop-color="#F7869F" stop-opacity="0.307671"/>
<stop offset="1" stop-color="#9A1032"/>
</linearGradient>
<linearGradient id="paint6_linear_415_2104" x1="248.5" y1="867" x2="248.5" y2="1178.38" gradientUnits="userSpaceOnUse">
<stop stop-color="#F743E5"/>
<stop offset="0.5" stop-color="#F7869F" stop-opacity="0.307671"/>
<stop offset="1" stop-color="#9A1032"/>
</linearGradient>
<linearGradient id="paint7_linear_415_2104" x1="248.5" y1="867" x2="248.5" y2="1178.38" gradientUnits="userSpaceOnUse">
<stop stop-color="#F743E5"/>
<stop offset="0.5" stop-color="#F7869F" stop-opacity="0.307671"/>
<stop offset="1" stop-color="#9A1032"/>
</linearGradient>
<linearGradient id="paint8_linear_415_2104" x1="248.5" y1="867" x2="248.5" y2="1178.38" gradientUnits="userSpaceOnUse">
<stop stop-color="#F743E5"/>
<stop offset="0.5" stop-color="#F7869F" stop-opacity="0.307671"/>
<stop offset="1" stop-color="#9A1032"/>
</linearGradient>
<linearGradient id="paint9_linear_415_2104" x1="248.5" y1="867" x2="248.5" y2="1178.38" gradientUnits="userSpaceOnUse">
<stop stop-color="#F743E5"/>
<stop offset="0.5" stop-color="#F7869F" stop-opacity="0.307671"/>
<stop offset="1" stop-color="#9A1032"/>
</linearGradient>
<linearGradient id="paint10_linear_415_2104" x1="248.5" y1="867" x2="248.5" y2="1178.38" gradientUnits="userSpaceOnUse">
<stop stop-color="#F743E5"/>
<stop offset="0.5" stop-color="#F7869F" stop-opacity="0.307671"/>
<stop offset="1" stop-color="#9A1032"/>
</linearGradient>
<linearGradient id="paint11_linear_415_2104" x1="248.5" y1="867" x2="248.5" y2="1178.38" gradientUnits="userSpaceOnUse">
<stop stop-color="#F743E5"/>
<stop offset="0.5" stop-color="#F7869F" stop-opacity="0.307671"/>
<stop offset="1" stop-color="#9A1032"/>
</linearGradient>
<linearGradient id="paint12_linear_415_2104" x1="248.5" y1="867" x2="248.5" y2="1178.38" gradientUnits="userSpaceOnUse">
<stop stop-color="#F743E5"/>
<stop offset="0.5" stop-color="#F7869F" stop-opacity="0.307671"/>
<stop offset="1" stop-color="#9A1032"/>
</linearGradient>
<linearGradient id="paint13_linear_415_2104" x1="248.5" y1="867" x2="248.5" y2="1178.38" gradientUnits="userSpaceOnUse">
<stop stop-color="#F743E5"/>
<stop offset="0.5" stop-color="#F7869F" stop-opacity="0.307671"/>
<stop offset="1" stop-color="#9A1032"/>
</linearGradient>
<linearGradient id="paint14_linear_415_2104" x1="248.5" y1="867" x2="248.5" y2="1178.38" gradientUnits="userSpaceOnUse">
<stop stop-color="#F743E5"/>
<stop offset="0.5" stop-color="#F7869F" stop-opacity="0.307671"/>
<stop offset="1" stop-color="#9A1032"/>
</linearGradient>
<linearGradient id="paint15_linear_415_2104" x1="248.5" y1="867" x2="248.5" y2="1178.38" gradientUnits="userSpaceOnUse">
<stop stop-color="#F743E5"/>
<stop offset="0.5" stop-color="#F7869F" stop-opacity="0.307671"/>
<stop offset="1" stop-color="#9A1032"/>
</linearGradient>
<linearGradient id="paint16_linear_415_2104" x1="248.5" y1="867" x2="248.5" y2="1178.38" gradientUnits="userSpaceOnUse">
<stop stop-color="#F743E5"/>
<stop offset="0.5" stop-color="#F7869F" stop-opacity="0.307671"/>
<stop offset="1" stop-color="#9A1032"/>
</linearGradient>
<linearGradient id="paint17_linear_415_2104" x1="248.5" y1="867" x2="248.5" y2="1178.38" gradientUnits="userSpaceOnUse">
<stop stop-color="#F743E5"/>
<stop offset="0.5" stop-color="#F7869F" stop-opacity="0.307671"/>
<stop offset="1" stop-color="#9A1032"/>
</linearGradient>
<linearGradient id="paint18_linear_415_2104" x1="248.5" y1="867" x2="248.5" y2="1178.38" gradientUnits="userSpaceOnUse">
<stop stop-color="#F743E5"/>
<stop offset="0.5" stop-color="#F7869F" stop-opacity="0.307671"/>
<stop offset="1" stop-color="#9A1032"/>
</linearGradient>
<linearGradient id="paint19_linear_415_2104" x1="248.5" y1="867" x2="248.5" y2="1178.38" gradientUnits="userSpaceOnUse">
<stop stop-color="#F743E5"/>
<stop offset="0.5" stop-color="#F7869F" stop-opacity="0.307671"/>
<stop offset="1" stop-color="#9A1032"/>
</linearGradient>
<linearGradient id="paint20_linear_415_2104" x1="248.5" y1="867" x2="248.5" y2="1178.38" gradientUnits="userSpaceOnUse">
<stop stop-color="#F743E5"/>
<stop offset="0.5" stop-color="#F7869F" stop-opacity="0.307671"/>
<stop offset="1" stop-color="#9A1032"/>
</linearGradient>
<linearGradient id="paint21_linear_415_2104" x1="248.5" y1="867" x2="248.5" y2="1178.38" gradientUnits="userSpaceOnUse">
<stop stop-color="#F743E5"/>
<stop offset="0.5" stop-color="#F7869F" stop-opacity="0.307671"/>
<stop offset="1" stop-color="#9A1032"/>
</linearGradient>
<linearGradient id="paint22_linear_415_2104" x1="248.5" y1="867" x2="248.5" y2="1178.38" gradientUnits="userSpaceOnUse">
<stop stop-color="#F743E5"/>
<stop offset="0.5" stop-color="#F7869F" stop-opacity="0.307671"/>
<stop offset="1" stop-color="#9A1032"/>
</linearGradient>
<linearGradient id="paint23_linear_415_2104" x1="248.5" y1="867" x2="248.5" y2="1178.38" gradientUnits="userSpaceOnUse">
<stop stop-color="#F743E5"/>
<stop offset="0.5" stop-color="#F7869F" stop-opacity="0.307671"/>
<stop offset="1" stop-color="#9A1032"/>
</linearGradient>
<linearGradient id="paint24_linear_415_2104" x1="248.5" y1="867" x2="248.5" y2="1178.38" gradientUnits="userSpaceOnUse">
<stop stop-color="#F743E5"/>
<stop offset="0.5" stop-color="#F7869F" stop-opacity="0.307671"/>
<stop offset="1" stop-color="#9A1032"/>
</linearGradient>
<linearGradient id="paint25_linear_415_2104" x1="248.5" y1="867" x2="248.5" y2="1178.38" gradientUnits="userSpaceOnUse">
<stop stop-color="#F743E5"/>
<stop offset="0.5" stop-color="#F7869F" stop-opacity="0.307671"/>
<stop offset="1" stop-color="#9A1032"/>
</linearGradient>
<linearGradient id="paint26_linear_415_2104" x1="248.5" y1="867" x2="248.5" y2="1178.38" gradientUnits="userSpaceOnUse">
<stop stop-color="#F743E5"/>
<stop offset="0.5" stop-color="#F7869F" stop-opacity="0.307671"/>
<stop offset="1" stop-color="#9A1032"/>
</linearGradient>
<linearGradient id="paint27_linear_415_2104" x1="248.5" y1="867" x2="248.5" y2="1178.38" gradientUnits="userSpaceOnUse">
<stop stop-color="#F743E5"/>
<stop offset="0.5" stop-color="#F7869F" stop-opacity="0.307671"/>
<stop offset="1" stop-color="#9A1032"/>
</linearGradient>
<linearGradient id="paint28_linear_415_2104" x1="248.5" y1="867" x2="248.5" y2="1178.38" gradientUnits="userSpaceOnUse">
<stop stop-color="#F743E5"/>
<stop offset="0.5" stop-color="#F7869F" stop-opacity="0.307671"/>
<stop offset="1" stop-color="#9A1032"/>
</linearGradient>
<linearGradient id="paint29_linear_415_2104" x1="248.5" y1="867" x2="248.5" y2="1178.38" gradientUnits="userSpaceOnUse">
<stop stop-color="#F743E5"/>
<stop offset="0.5" stop-color="#F7869F" stop-opacity="0.307671"/>
<stop offset="1" stop-color="#9A1032"/>
</linearGradient>
<linearGradient id="paint30_linear_415_2104" x1="248.5" y1="867" x2="248.5" y2="1178.38" gradientUnits="userSpaceOnUse">
<stop stop-color="#F743E5"/>
<stop offset="0.5" stop-color="#F7869F" stop-opacity="0.307671"/>
<stop offset="1" stop-color="#9A1032"/>
</linearGradient>
<linearGradient id="paint31_linear_415_2104" x1="248.5" y1="867" x2="248.5" y2="1178.38" gradientUnits="userSpaceOnUse">
<stop stop-color="#F743E5"/>
<stop offset="0.5" stop-color="#F7869F" stop-opacity="0.307671"/>
<stop offset="1" stop-color="#9A1032"/>
</linearGradient>
<linearGradient id="paint32_linear_415_2104" x1="248.5" y1="867" x2="248.5" y2="1178.38" gradientUnits="userSpaceOnUse">
<stop stop-color="#F743E5"/>
<stop offset="0.5" stop-color="#F7869F" stop-opacity="0.307671"/>
<stop offset="1" stop-color="#9A1032"/>
</linearGradient>
<linearGradient id="paint33_linear_415_2104" x1="248.5" y1="867" x2="248.5" y2="1178.38" gradientUnits="userSpaceOnUse">
<stop stop-color="#F743E5"/>
<stop offset="0.5" stop-color="#F7869F" stop-opacity="0.307671"/>
<stop offset="1" stop-color="#9A1032"/>
</linearGradient>
<linearGradient id="paint34_linear_415_2104" x1="248.5" y1="867" x2="248.5" y2="1178.38" gradientUnits="userSpaceOnUse">
<stop stop-color="#F743E5"/>
<stop offset="0.5" stop-color="#F7869F" stop-opacity="0.307671"/>
<stop offset="1" stop-color="#9A1032"/>
</linearGradient>
<linearGradient id="paint35_linear_415_2104" x1="248.5" y1="867" x2="248.5" y2="1178.38" gradientUnits="userSpaceOnUse">
<stop stop-color="#F743E5"/>
<stop offset="0.5" stop-color="#F7869F" stop-opacity="0.307671"/>
<stop offset="1" stop-color="#9A1032"/>
</linearGradient>
<linearGradient id="paint36_linear_415_2104" x1="248.5" y1="867" x2="248.5" y2="1178.38" gradientUnits="userSpaceOnUse">
<stop stop-color="#F743E5"/>
<stop offset="0.5" stop-color="#F7869F" stop-opacity="0.307671"/>
<stop offset="1" stop-color="#9A1032"/>
</linearGradient>
<linearGradient id="paint37_linear_415_2104" x1="248.5" y1="867" x2="248.5" y2="1178.38" gradientUnits="userSpaceOnUse">
<stop stop-color="#F743E5"/>
<stop offset="0.5" stop-color="#F7869F" stop-opacity="0.307671"/>
<stop offset="1" stop-color="#9A1032"/>
</linearGradient>
<linearGradient id="paint38_linear_415_2104" x1="248.5" y1="867" x2="248.5" y2="1178.38" gradientUnits="userSpaceOnUse">
<stop stop-color="#F743E5"/>
<stop offset="0.5" stop-color="#F7869F" stop-opacity="0.307671"/>
<stop offset="1" stop-color="#9A1032"/>
</linearGradient>
<linearGradient id="paint39_linear_415_2104" x1="248.5" y1="867" x2="248.5" y2="1178.38" gradientUnits="userSpaceOnUse">
<stop stop-color="#F743E5"/>
<stop offset="0.5" stop-color="#F7869F" stop-opacity="0.307671"/>
<stop offset="1" stop-color="#9A1032"/>
</linearGradient>
<linearGradient id="paint40_linear_415_2104" x1="248.5" y1="867" x2="248.5" y2="1178.38" gradientUnits="userSpaceOnUse">
<stop stop-color="#F743E5"/>
<stop offset="0.5" stop-color="#F7869F" stop-opacity="0.307671"/>
<stop offset="1" stop-color="#9A1032"/>
</linearGradient>
<linearGradient id="paint41_linear_415_2104" x1="248.5" y1="867" x2="248.5" y2="1178.38" gradientUnits="userSpaceOnUse">
<stop stop-color="#F743E5"/>
<stop offset="0.5" stop-color="#F7869F" stop-opacity="0.307671"/>
<stop offset="1" stop-color="#9A1032"/>
</linearGradient>
<linearGradient id="paint42_linear_415_2104" x1="248.5" y1="867" x2="248.5" y2="1178.38" gradientUnits="userSpaceOnUse">
<stop stop-color="#F743E5"/>
<stop offset="0.5" stop-color="#F7869F" stop-opacity="0.307671"/>
<stop offset="1" stop-color="#9A1032"/>
</linearGradient>
<linearGradient id="paint43_linear_415_2104" x1="248.5" y1="867" x2="248.5" y2="1178.38" gradientUnits="userSpaceOnUse">
<stop stop-color="#F743E5"/>
<stop offset="0.5" stop-color="#F7869F" stop-opacity="0.307671"/>
<stop offset="1" stop-color="#9A1032"/>
</linearGradient>
<linearGradient id="paint44_linear_415_2104" x1="248.5" y1="867" x2="248.5" y2="1178.38" gradientUnits="userSpaceOnUse">
<stop stop-color="#F743E5"/>
<stop offset="0.5" stop-color="#F7869F" stop-opacity="0.307671"/>
<stop offset="1" stop-color="#9A1032"/>
</linearGradient>
<linearGradient id="paint45_linear_415_2104" x1="248.5" y1="867" x2="248.5" y2="1178.38" gradientUnits="userSpaceOnUse">
<stop stop-color="#F743E5"/>
<stop offset="0.5" stop-color="#F7869F" stop-opacity="0.307671"/>
<stop offset="1" stop-color="#9A1032"/>
</linearGradient>
<linearGradient id="paint46_linear_415_2104" x1="248.5" y1="867" x2="248.5" y2="1178.38" gradientUnits="userSpaceOnUse">
<stop stop-color="#F743E5"/>
<stop offset="0.5" stop-color="#F7869F" stop-opacity="0.307671"/>
<stop offset="1" stop-color="#9A1032"/>
</linearGradient>
<linearGradient id="paint47_linear_415_2104" x1="1134.5" y1="496" x2="1134.5" y2="793.921" gradientUnits="userSpaceOnUse">
<stop stop-color="#9A1032"/>
<stop offset="0.484375" stop-color="#F7869F" stop-opacity="0.567708"/>
<stop offset="1" stop-color="#F743E5"/>
</linearGradient>
<linearGradient id="paint48_linear_415_2104" x1="1134.5" y1="496" x2="1134.5" y2="793.921" gradientUnits="userSpaceOnUse">
<stop stop-color="#9A1032"/>
<stop offset="0.484375" stop-color="#F7869F" stop-opacity="0.567708"/>
<stop offset="1" stop-color="#F743E5"/>
</linearGradient>
<linearGradient id="paint49_linear_415_2104" x1="1134.5" y1="496" x2="1134.5" y2="793.921" gradientUnits="userSpaceOnUse">
<stop stop-color="#9A1032"/>
<stop offset="0.484375" stop-color="#F7869F" stop-opacity="0.567708"/>
<stop offset="1" stop-color="#F743E5"/>
</linearGradient>
<linearGradient id="paint50_linear_415_2104" x1="1134.5" y1="496" x2="1134.5" y2="793.921" gradientUnits="userSpaceOnUse">
<stop stop-color="#9A1032"/>
<stop offset="0.484375" stop-color="#F7869F" stop-opacity="0.567708"/>
<stop offset="1" stop-color="#F743E5"/>
</linearGradient>
<linearGradient id="paint51_linear_415_2104" x1="1134.5" y1="496" x2="1134.5" y2="793.921" gradientUnits="userSpaceOnUse">
<stop stop-color="#9A1032"/>
<stop offset="0.484375" stop-color="#F7869F" stop-opacity="0.567708"/>
<stop offset="1" stop-color="#F743E5"/>
</linearGradient>
<linearGradient id="paint52_linear_415_2104" x1="1134.5" y1="496" x2="1134.5" y2="793.921" gradientUnits="userSpaceOnUse">
<stop stop-color="#9A1032"/>
<stop offset="0.484375" stop-color="#F7869F" stop-opacity="0.567708"/>
<stop offset="1" stop-color="#F743E5"/>
</linearGradient>
<linearGradient id="paint53_linear_415_2104" x1="1134.5" y1="496" x2="1134.5" y2="793.921" gradientUnits="userSpaceOnUse">
<stop stop-color="#9A1032"/>
<stop offset="0.484375" stop-color="#F7869F" stop-opacity="0.567708"/>
<stop offset="1" stop-color="#F743E5"/>
</linearGradient>
<linearGradient id="paint54_linear_415_2104" x1="1134.5" y1="496" x2="1134.5" y2="793.921" gradientUnits="userSpaceOnUse">
<stop stop-color="#9A1032"/>
<stop offset="0.484375" stop-color="#F7869F" stop-opacity="0.567708"/>
<stop offset="1" stop-color="#F743E5"/>
</linearGradient>
<linearGradient id="paint55_linear_415_2104" x1="1134.5" y1="496" x2="1134.5" y2="793.921" gradientUnits="userSpaceOnUse">
<stop stop-color="#9A1032"/>
<stop offset="0.484375" stop-color="#F7869F" stop-opacity="0.567708"/>
<stop offset="1" stop-color="#F743E5"/>
</linearGradient>
<linearGradient id="paint56_linear_415_2104" x1="1134.5" y1="496" x2="1134.5" y2="793.921" gradientUnits="userSpaceOnUse">
<stop stop-color="#9A1032"/>
<stop offset="0.484375" stop-color="#F7869F" stop-opacity="0.567708"/>
<stop offset="1" stop-color="#F743E5"/>
</linearGradient>
<linearGradient id="paint57_linear_415_2104" x1="1134.5" y1="496" x2="1134.5" y2="793.921" gradientUnits="userSpaceOnUse">
<stop stop-color="#9A1032"/>
<stop offset="0.484375" stop-color="#F7869F" stop-opacity="0.567708"/>
<stop offset="1" stop-color="#F743E5"/>
</linearGradient>
<linearGradient id="paint58_linear_415_2104" x1="1134.5" y1="496" x2="1134.5" y2="793.921" gradientUnits="userSpaceOnUse">
<stop stop-color="#9A1032"/>
<stop offset="0.484375" stop-color="#F7869F" stop-opacity="0.567708"/>
<stop offset="1" stop-color="#F743E5"/>
</linearGradient>
<linearGradient id="paint59_linear_415_2104" x1="1134.5" y1="496" x2="1134.5" y2="793.921" gradientUnits="userSpaceOnUse">
<stop stop-color="#9A1032"/>
<stop offset="0.484375" stop-color="#F7869F" stop-opacity="0.567708"/>
<stop offset="1" stop-color="#F743E5"/>
</linearGradient>
<linearGradient id="paint60_linear_415_2104" x1="1134.5" y1="496" x2="1134.5" y2="793.921" gradientUnits="userSpaceOnUse">
<stop stop-color="#9A1032"/>
<stop offset="0.484375" stop-color="#F7869F" stop-opacity="0.567708"/>
<stop offset="1" stop-color="#F743E5"/>
</linearGradient>
<linearGradient id="paint61_linear_415_2104" x1="1134.5" y1="496" x2="1134.5" y2="793.921" gradientUnits="userSpaceOnUse">
<stop stop-color="#9A1032"/>
<stop offset="0.484375" stop-color="#F7869F" stop-opacity="0.567708"/>
<stop offset="1" stop-color="#F743E5"/>
</linearGradient>
<linearGradient id="paint62_linear_415_2104" x1="1134.5" y1="496" x2="1134.5" y2="793.921" gradientUnits="userSpaceOnUse">
<stop stop-color="#9A1032"/>
<stop offset="0.484375" stop-color="#F7869F" stop-opacity="0.567708"/>
<stop offset="1" stop-color="#F743E5"/>
</linearGradient>
<linearGradient id="paint63_linear_415_2104" x1="1134.5" y1="496" x2="1134.5" y2="793.921" gradientUnits="userSpaceOnUse">
<stop stop-color="#9A1032"/>
<stop offset="0.484375" stop-color="#F7869F" stop-opacity="0.567708"/>
<stop offset="1" stop-color="#F743E5"/>
</linearGradient>
<linearGradient id="paint64_linear_415_2104" x1="1134.5" y1="496" x2="1134.5" y2="793.921" gradientUnits="userSpaceOnUse">
<stop stop-color="#9A1032"/>
<stop offset="0.484375" stop-color="#F7869F" stop-opacity="0.567708"/>
<stop offset="1" stop-color="#F743E5"/>
</linearGradient>
<linearGradient id="paint65_linear_415_2104" x1="1134.5" y1="496" x2="1134.5" y2="793.921" gradientUnits="userSpaceOnUse">
<stop stop-color="#9A1032"/>
<stop offset="0.484375" stop-color="#F7869F" stop-opacity="0.567708"/>
<stop offset="1" stop-color="#F743E5"/>
</linearGradient>
<linearGradient id="paint66_linear_415_2104" x1="1134.5" y1="496" x2="1134.5" y2="793.921" gradientUnits="userSpaceOnUse">
<stop stop-color="#9A1032"/>
<stop offset="0.484375" stop-color="#F7869F" stop-opacity="0.567708"/>
<stop offset="1" stop-color="#F743E5"/>
</linearGradient>
<linearGradient id="paint67_linear_415_2104" x1="1134.5" y1="496" x2="1134.5" y2="793.921" gradientUnits="userSpaceOnUse">
<stop stop-color="#9A1032"/>
<stop offset="0.484375" stop-color="#F7869F" stop-opacity="0.567708"/>
<stop offset="1" stop-color="#F743E5"/>
</linearGradient>
<linearGradient id="paint68_linear_415_2104" x1="1134.5" y1="496" x2="1134.5" y2="793.921" gradientUnits="userSpaceOnUse">
<stop stop-color="#9A1032"/>
<stop offset="0.484375" stop-color="#F7869F" stop-opacity="0.567708"/>
<stop offset="1" stop-color="#F743E5"/>
</linearGradient>
<linearGradient id="paint69_linear_415_2104" x1="1134.5" y1="496" x2="1134.5" y2="793.921" gradientUnits="userSpaceOnUse">
<stop stop-color="#9A1032"/>
<stop offset="0.484375" stop-color="#F7869F" stop-opacity="0.567708"/>
<stop offset="1" stop-color="#F743E5"/>
</linearGradient>
<linearGradient id="paint70_linear_415_2104" x1="1134.5" y1="496" x2="1134.5" y2="793.921" gradientUnits="userSpaceOnUse">
<stop stop-color="#9A1032"/>
<stop offset="0.484375" stop-color="#F7869F" stop-opacity="0.567708"/>
<stop offset="1" stop-color="#F743E5"/>
</linearGradient>
<linearGradient id="paint71_linear_415_2104" x1="1134.5" y1="496" x2="1134.5" y2="793.921" gradientUnits="userSpaceOnUse">
<stop stop-color="#9A1032"/>
<stop offset="0.484375" stop-color="#F7869F" stop-opacity="0.567708"/>
<stop offset="1" stop-color="#F743E5"/>
</linearGradient>
<linearGradient id="paint72_linear_415_2104" x1="1134.5" y1="496" x2="1134.5" y2="793.921" gradientUnits="userSpaceOnUse">
<stop stop-color="#9A1032"/>
<stop offset="0.484375" stop-color="#F7869F" stop-opacity="0.567708"/>
<stop offset="1" stop-color="#F743E5"/>
</linearGradient>
<linearGradient id="paint73_linear_415_2104" x1="1134.5" y1="496" x2="1134.5" y2="793.921" gradientUnits="userSpaceOnUse">
<stop stop-color="#9A1032"/>
<stop offset="0.484375" stop-color="#F7869F" stop-opacity="0.567708"/>
<stop offset="1" stop-color="#F743E5"/>
</linearGradient>
<linearGradient id="paint74_linear_415_2104" x1="1134.5" y1="496" x2="1134.5" y2="793.921" gradientUnits="userSpaceOnUse">
<stop stop-color="#9A1032"/>
<stop offset="0.484375" stop-color="#F7869F" stop-opacity="0.567708"/>
<stop offset="1" stop-color="#F743E5"/>
</linearGradient>
<linearGradient id="paint75_linear_415_2104" x1="1134.5" y1="496" x2="1134.5" y2="793.921" gradientUnits="userSpaceOnUse">
<stop stop-color="#9A1032"/>
<stop offset="0.484375" stop-color="#F7869F" stop-opacity="0.567708"/>
<stop offset="1" stop-color="#F743E5"/>
</linearGradient>
<linearGradient id="paint76_linear_415_2104" x1="1134.5" y1="496" x2="1134.5" y2="793.921" gradientUnits="userSpaceOnUse">
<stop stop-color="#9A1032"/>
<stop offset="0.484375" stop-color="#F7869F" stop-opacity="0.567708"/>
<stop offset="1" stop-color="#F743E5"/>
</linearGradient>
<linearGradient id="paint77_linear_415_2104" x1="1134.5" y1="496" x2="1134.5" y2="793.921" gradientUnits="userSpaceOnUse">
<stop stop-color="#9A1032"/>
<stop offset="0.484375" stop-color="#F7869F" stop-opacity="0.567708"/>
<stop offset="1" stop-color="#F743E5"/>
</linearGradient>
<linearGradient id="paint78_linear_415_2104" x1="1134.5" y1="496" x2="1134.5" y2="793.921" gradientUnits="userSpaceOnUse">
<stop stop-color="#9A1032"/>
<stop offset="0.484375" stop-color="#F7869F" stop-opacity="0.567708"/>
<stop offset="1" stop-color="#F743E5"/>
</linearGradient>
<linearGradient id="paint79_linear_415_2104" x1="1134.5" y1="496" x2="1134.5" y2="793.921" gradientUnits="userSpaceOnUse">
<stop stop-color="#9A1032"/>
<stop offset="0.484375" stop-color="#F7869F" stop-opacity="0.567708"/>
<stop offset="1" stop-color="#F743E5"/>
</linearGradient>
<linearGradient id="paint80_linear_415_2104" x1="1134.5" y1="496" x2="1134.5" y2="793.921" gradientUnits="userSpaceOnUse">
<stop stop-color="#9A1032"/>
<stop offset="0.484375" stop-color="#F7869F" stop-opacity="0.567708"/>
<stop offset="1" stop-color="#F743E5"/>
</linearGradient>
<linearGradient id="paint81_linear_415_2104" x1="1134.5" y1="496" x2="1134.5" y2="793.921" gradientUnits="userSpaceOnUse">
<stop stop-color="#9A1032"/>
<stop offset="0.484375" stop-color="#F7869F" stop-opacity="0.567708"/>
<stop offset="1" stop-color="#F743E5"/>
</linearGradient>
<linearGradient id="paint82_linear_415_2104" x1="1134.5" y1="496" x2="1134.5" y2="793.921" gradientUnits="userSpaceOnUse">
<stop stop-color="#9A1032"/>
<stop offset="0.484375" stop-color="#F7869F" stop-opacity="0.567708"/>
<stop offset="1" stop-color="#F743E5"/>
</linearGradient>
<linearGradient id="paint83_linear_415_2104" x1="1134.5" y1="496" x2="1134.5" y2="793.921" gradientUnits="userSpaceOnUse">
<stop stop-color="#9A1032"/>
<stop offset="0.484375" stop-color="#F7869F" stop-opacity="0.567708"/>
<stop offset="1" stop-color="#F743E5"/>
</linearGradient>
<linearGradient id="paint84_linear_415_2104" x1="1134.5" y1="496" x2="1134.5" y2="793.921" gradientUnits="userSpaceOnUse">
<stop stop-color="#9A1032"/>
<stop offset="0.484375" stop-color="#F7869F" stop-opacity="0.567708"/>
<stop offset="1" stop-color="#F743E5"/>
</linearGradient>
<linearGradient id="paint85_linear_415_2104" x1="1134.5" y1="496" x2="1134.5" y2="793.921" gradientUnits="userSpaceOnUse">
<stop stop-color="#9A1032"/>
<stop offset="0.484375" stop-color="#F7869F" stop-opacity="0.567708"/>
<stop offset="1" stop-color="#F743E5"/>
</linearGradient>
<linearGradient id="paint86_linear_415_2104" x1="1134.5" y1="496" x2="1134.5" y2="793.921" gradientUnits="userSpaceOnUse">
<stop stop-color="#9A1032"/>
<stop offset="0.484375" stop-color="#F7869F" stop-opacity="0.567708"/>
<stop offset="1" stop-color="#F743E5"/>
</linearGradient>
<linearGradient id="paint87_linear_415_2104" x1="1134.5" y1="496" x2="1134.5" y2="793.921" gradientUnits="userSpaceOnUse">
<stop stop-color="#9A1032"/>
<stop offset="0.484375" stop-color="#F7869F" stop-opacity="0.567708"/>
<stop offset="1" stop-color="#F743E5"/>
</linearGradient>
<linearGradient id="paint88_linear_415_2104" x1="1134.5" y1="496" x2="1134.5" y2="793.921" gradientUnits="userSpaceOnUse">
<stop stop-color="#9A1032"/>
<stop offset="0.484375" stop-color="#F7869F" stop-opacity="0.567708"/>
<stop offset="1" stop-color="#F743E5"/>
</linearGradient>
<linearGradient id="paint89_linear_415_2104" x1="1134.5" y1="496" x2="1134.5" y2="793.921" gradientUnits="userSpaceOnUse">
<stop stop-color="#9A1032"/>
<stop offset="0.484375" stop-color="#F7869F" stop-opacity="0.567708"/>
<stop offset="1" stop-color="#F743E5"/>
</linearGradient>
<linearGradient id="paint90_linear_415_2104" x1="1134.5" y1="496" x2="1134.5" y2="793.921" gradientUnits="userSpaceOnUse">
<stop stop-color="#9A1032"/>
<stop offset="0.484375" stop-color="#F7869F" stop-opacity="0.567708"/>
<stop offset="1" stop-color="#F743E5"/>
</linearGradient>
<linearGradient id="paint91_linear_415_2104" x1="1134.5" y1="496" x2="1134.5" y2="793.921" gradientUnits="userSpaceOnUse">
<stop stop-color="#9A1032"/>
<stop offset="0.484375" stop-color="#F7869F" stop-opacity="0.567708"/>
<stop offset="1" stop-color="#F743E5"/>
</linearGradient>
<linearGradient id="paint92_linear_415_2104" x1="1134.5" y1="496" x2="1134.5" y2="793.921" gradientUnits="userSpaceOnUse">
<stop stop-color="#9A1032"/>
<stop offset="0.484375" stop-color="#F7869F" stop-opacity="0.567708"/>
<stop offset="1" stop-color="#F743E5"/>
</linearGradient>
<linearGradient id="paint93_linear_415_2104" x1="1134.5" y1="496" x2="1134.5" y2="793.921" gradientUnits="userSpaceOnUse">
<stop stop-color="#9A1032"/>
<stop offset="0.484375" stop-color="#F7869F" stop-opacity="0.567708"/>
<stop offset="1" stop-color="#F743E5"/>
</linearGradient>
</defs>
</svg>
