<svg width="150" height="180" viewBox="0 0 150 180" fill="none" xmlns="http://www.w3.org/2000/svg">
<g clip-path="url(#clip0_414_1681)">
<path d="M72.8446 62.1217C68.7376 55.2285 64.9452 48.8474 62.5114 42.72C61.7045 40.2351 61.0705 37.788 60.6786 35.4431C59.2986 28.7311 59.8749 24.7888 62.4389 19.3563C62.4932 19.2426 62.5509 19.1257 62.6102 19.0088C63.8304 18.3122 65.5117 17.6634 67.4384 17.4741C71.7314 17.0508 79.0214 18.1393 81.8093 25.981C84.7504 34.2657 78.4714 50.4184 72.8446 62.1217ZM99.3585 15.4025C99.0785 14.864 98.0394 12.9159 97.6821 12.249C97.6146 12.1255 97.5701 12.0448 97.5602 12.0267C93.0252 3.6992 92.872 5.27677 90.0413 4.77616C89.9359 4.75805 89.8272 4.73006 89.7218 4.70371C86.4975 3.96104 80.9563 1.86146 78.2491 0.866838C75.4513 -0.157424 68.0888 2.04589 63.3364 2.51356C62.1277 2.63048 61.1907 2.85279 60.4431 3.14426C58.2579 3.99233 57.7144 5.4332 56.812 6.6139C56.2851 7.30553 55.9162 7.51467 55.4271 7.62994C55.4173 7.63159 55.4041 7.63158 55.3975 7.63488C51.7006 8.96049 42.9664 19.735 44.8535 34.6033C44.9886 36.0623 45.2948 37.4834 45.6884 38.8749C49.2997 53.1438 61.385 72.2803 64.3524 77.7112C62.1655 82.7436 57.4987 93.0768 56.0101 102.809C55.9492 103.138 55.5885 105.375 55.5655 107.252C55.3679 112.199 56.295 116.725 59.1636 119.976C59.1817 119.996 59.7267 120.58 59.7514 120.607C61.2187 122.053 62.9477 122.971 64.6883 123.523C67.1518 124.584 69.0258 123.991 70.8388 123.683C71.6474 124.174 72.4938 124.552 73.355 124.847C78.5389 126.639 84.3387 125.201 87.0558 123.683C90.7 122.499 92.3615 120.36 93.4023 117.043C94.4512 113.919 96.0568 107.545 92.4225 98.1109C90.7906 94.0369 87.507 87.6607 82.4483 78.393L82.4153 78.3386C86.4712 70.6633 97.3314 51.6716 99.2646 46.1221C99.37 45.829 99.4606 45.5458 99.5511 45.2625C102.835 36.8609 104.979 25.7472 99.3585 15.4025" fill="white"/>
<path d="M69.7622 87.8576C68.5914 85.6 66.0291 80.6812 65.4824 79.512C59.5278 91.1148 58.0589 104 57.9651 107.745C58.0276 110.624 57.9651 114.989 62.0358 116.848C67.437 109.492 57.9651 98.502 69.7622 87.8576Z" fill="#ACA9A6"/>
<path d="M83.4323 49.1627C84.8254 42.2448 88.2984 36.3463 83.8885 26.7311C80.2558 18.8152 74.0032 15.9829 67.436 17.4748H67.4377C71.734 17.0516 79.0257 18.1368 81.8103 25.9818C84.7513 34.2665 78.4724 50.4192 72.8455 62.1225C72.7171 62.3975 72.5771 62.6725 72.4454 62.9458C75.1806 67.6933 77.4185 71.7789 80.0895 76.6038C80.0895 76.6038 83.6892 70.7941 85.1844 68.1626C82.1182 61.0587 82.5628 53.4722 83.4323 49.1627Z" fill="#ACA9A6"/>
<path d="M100.494 26.6007C100.491 26.3619 100.491 26.1182 100.486 25.8893V25.8498C100.484 25.7461 100.479 25.6538 100.479 25.5517C100.441 24.516 100.369 23.6201 100.27 22.8791C100.165 22.1496 100.038 21.6062 99.921 21.2176C99.4006 19.6581 98.1524 17.794 96.723 16.0007C93.9269 12.4916 90.4358 9.26728 90.3272 9.16519C90.1065 9.26234 89.8809 9.37926 89.6471 9.51429C86.6648 11.2993 86.734 13.7233 76.3777 8.76339C74.8134 8.01413 72.368 8.48838 70.9995 8.57895C81.4711 16.3564 92.9636 16.0238 100.494 26.6007Z" fill="#BCBAB7"/>
<path d="M92.4598 55.8736C92.86 55.2693 93.2222 54.7077 93.5467 54.1972C93.9336 53.5633 94.3009 52.9145 94.6483 52.2574C94.8064 51.9594 94.9595 51.658 95.1094 51.355C99.3612 42.797 100.553 32.8112 100.493 26.5998C95.1637 11.1173 79.6269 18.022 74.6505 8.3689C74.5682 8.37384 70.8416 8.5912 70.7626 8.59944C71.0063 8.91067 71.2582 9.21696 71.5234 9.52325C73.4961 11.776 78.1168 16.3473 83.0867 17.5132C88.0598 18.6807 92.2293 19.4052 96.4251 25.6546C100.621 31.9088 96.1584 40.7205 92.2293 49.374C90.6616 52.8255 90.5052 56.2935 90.2763 59.7171C90.9152 58.8344 91.0535 57.8069 91.811 56.7892C92.0317 56.4895 92.2474 56.1832 92.4598 55.8736Z" fill="#CCC9C6"/>
<path d="M96.4258 25.6564C92.2283 19.4038 88.0605 18.6792 83.0873 17.5133C78.1159 16.3491 73.4968 11.7745 71.524 9.52179C71.2589 9.21879 71.007 8.90921 70.7633 8.60127C67.3348 8.93556 64.5848 11.6823 62.7289 15.6147C62.0916 16.9666 61.5581 18.4569 61.1382 20.0345C62.5115 18.8455 64.8351 17.7291 67.4385 17.4755C74.0024 15.9819 80.2583 18.8143 83.8893 26.7334C88.3009 36.3453 84.8263 42.2471 83.4315 49.1617C82.562 53.4712 82.1191 61.0577 85.1836 68.1617C86.2491 66.286 87.4001 63.6924 90.277 59.7189C90.5058 56.2921 90.6606 52.8241 92.2283 49.3758C96.1591 40.7206 100.62 31.9074 96.4258 25.6564Z" fill="#BBB8B5"/>
<mask id="mask0_414_1681" style="mask-type:alpha" maskUnits="userSpaceOnUse" x="37" y="-6" width="87" height="95">
<path d="M37.7896 65.3377L66.8279 -5.31162L123.852 18.1262L94.814 88.7756L37.7896 65.3377Z" fill="url(#paint0_linear_414_1681)"/>
</mask>
<g mask="url(#mask0_414_1681)">
<path d="M71.0024 8.57667C70.92 8.58161 70.841 8.59318 70.7603 8.59647C67.3318 8.93569 64.5851 11.6775 62.7259 15.6131C62.0903 16.9667 61.5551 18.4553 61.1385 20.0362C61.5518 19.6789 62.0442 19.3298 62.6073 19.0087C63.8309 18.3138 65.5122 17.6633 67.4388 17.4739C71.7319 17.0524 79.0252 18.1392 81.8082 25.9792C84.7509 34.2656 78.4719 50.4183 72.845 62.1216C75.577 66.8691 77.2517 69.8793 80.3475 74.9331C80.3475 74.9331 93.7337 54.5236 93.8852 54.2206C98.1354 45.6626 100.503 35.1664 99.8694 26.7566C98.8583 13.2699 90.4353 9.2667 90.3267 9.16625C90.106 9.26176 89.8788 9.38032 89.6466 9.51371C86.666 11.3004 86.5886 14.1509 76.2323 9.19258C75.1241 8.65904 73.647 8.53054 72.3955 8.53054C71.88 8.53054 71.4009 8.55032 71.0024 8.57667" fill="url(#paint1_linear_414_1681)"/>
</g>
<path d="M66.6723 78.2991C62.0368 84.7641 54.9213 119.316 65.266 118.105C81.506 115.831 68.8246 82.7057 66.6723 78.2991Z" fill="#9A9794"/>
<mask id="mask1_414_1681" style="mask-type:alpha" maskUnits="userSpaceOnUse" x="38" y="-5" width="86" height="95">
<path d="M96.1692 -4.7288L123.706 68.0186L66.1577 89.7999L38.6212 17.0525L96.1692 -4.7288Z" fill="url(#paint2_linear_414_1681)"/>
</mask>
<g mask="url(#mask1_414_1681)">
<path d="M71.0024 8.57668C70.92 8.58162 70.841 8.59319 70.7603 8.59648C67.3318 8.93571 64.5851 11.6775 62.7259 15.6132C62.0903 16.9668 61.5551 18.4554 61.1385 20.0362C61.5518 19.6789 62.0442 19.3298 62.6073 19.0087C63.8309 18.3138 65.5122 17.6633 67.4388 17.474C71.7319 17.0524 79.0252 18.1392 81.8082 25.9793C84.7509 34.2656 78.4719 50.4183 72.845 62.1216C75.577 66.8691 77.9301 71.7171 80.606 76.5404C80.606 76.5404 94.9606 51.66 95.1088 51.3553C99.3622 42.7957 101.188 32.7753 100.495 26.6001C99.7871 20.3244 98.5603 18.0783 97.019 15.7646C96.4805 14.9544 90.4353 9.26671 90.3267 9.16626C90.106 9.26177 89.8788 9.38033 89.6466 9.51372C86.666 11.3004 86.5886 14.1509 76.2323 9.1926C75.1241 8.65906 73.647 8.53055 72.3955 8.53055C71.88 8.53055 71.4009 8.55033 71.0024 8.57668" fill="url(#paint3_linear_414_1681)"/>
</g>
<g opacity="0.279999">
<mask id="mask2_414_1681" style="mask-type:alpha" maskUnits="userSpaceOnUse" x="13" y="-12" width="140" height="148">
<path d="M152.211 35.9271L94.7152 135.159L13.6272 88.1776L71.1226 -11.0556L152.211 35.9271Z" fill="url(#paint4_linear_414_1681)"/>
</mask>
<g mask="url(#mask2_414_1681)">
<path d="M77.5119 12.7825C73.097 12.8286 69.8678 14.2662 69.7624 15.2921C90.3859 15.9673 92.0409 30.3958 71.8801 66.856C64.236 80.6802 61.1994 93.3897 61.1615 101.928V102.249C61.1846 107.632 62.4246 111.299 64.4566 112.454C65.1532 112.849 65.8992 113.035 66.6369 113.047H66.7637C69.9534 113.002 72.906 109.653 70.836 105.373C68.2606 100.051 70.4359 89.072 77.0244 77.0789C83.6113 65.0808 106.637 32.1002 92.4592 18.7008C87.7446 14.2448 82.3104 12.827 77.9417 12.7825H77.5119Z" fill="url(#paint5_linear_414_1681)"/>
</g>
</g>
<g opacity="0.330002">
<path d="M67.932 14.8505C69.093 14.4734 70.305 14.2643 71.5169 14.1375C72.7339 14.0074 73.9623 13.986 75.1842 14.0667C77.6296 14.2297 80.0816 14.8275 82.2733 16.0164C84.4684 17.1921 86.3292 18.9821 87.6713 21.0982C88.3333 22.162 88.8767 23.2949 89.3279 24.4624C89.7429 25.6382 90.0986 26.8337 90.3456 28.0589C91.3517 32.9727 90.8907 38.0611 89.8697 42.9041C88.8323 47.7652 87.2333 52.4749 85.3675 57.0264C83.5166 61.5895 81.3594 65.9945 79.1676 70.3501L75.833 76.8398L72.5626 83.3213C70.4581 87.6555 68.4244 92.0193 67.0181 96.561C66.6624 97.6956 66.3693 98.8417 66.1387 100.003C65.8917 101.155 65.7155 102.326 65.653 103.499C65.5097 105.845 65.7699 108.238 66.7118 110.471L66.4286 110.621C65.0585 108.548 64.3833 106.016 64.2285 103.504C64.0589 100.984 64.3636 98.4613 64.8691 96.0159C65.3549 93.5607 66.1042 91.1828 66.9127 88.8444C67.7212 86.5028 68.6698 84.2237 69.6479 81.9677C73.6 72.9667 78.252 64.4186 82.3771 55.7107C83.3948 53.5271 84.4059 51.3452 85.3 49.1205C86.2107 46.9007 87.0456 44.6529 87.7191 42.3623C89.076 37.7976 89.845 32.9859 89.1484 28.273C88.9953 27.0972 88.6758 25.9445 88.3333 24.8099C87.9513 23.6885 87.4803 22.5983 86.899 21.5675C85.7117 19.5223 84.0271 17.7636 81.9687 16.5499C79.9185 15.3281 77.5571 14.643 75.1578 14.3878C73.9557 14.261 72.7421 14.233 71.5318 14.3104C70.3231 14.3911 69.1127 14.5492 67.9403 14.8785L67.932 14.8505Z" fill="#797775"/>
</g>
<g opacity="0.550003">
<mask id="mask3_414_1681" style="mask-type:alpha" maskUnits="userSpaceOnUse" x="55" y="77" width="23" height="43">
<path d="M55.752 77.3917H77.1067V119.153H55.752V77.3917Z" fill="url(#paint6_linear_414_1681)"/>
</mask>
<g mask="url(#mask3_414_1681)">
<path d="M55.752 104.984C55.752 112.075 59.0405 116.221 61.6621 117.904C62.5003 118.443 63.9148 118.82 65.415 118.851H65.8119C66.4245 118.838 67.0436 118.767 67.6381 118.622C71.6791 117.638 74.7388 113.584 74.8096 106.04V105.496C74.7816 102.483 74.2892 98.9325 73.2139 94.824C72.8549 93.449 69.9863 87.2277 69.4166 86.126C68.2457 83.87 65.5517 78.5609 65.0033 77.3917C60.3184 87.9818 55.8459 101.233 55.752 104.984" fill="url(#paint7_linear_414_1681)"/>
</g>
</g>
<g opacity="0.440002">
<mask id="mask4_414_1681" style="mask-type:alpha" maskUnits="userSpaceOnUse" x="38" y="-8" width="88" height="98">
<path d="M65.9733 89.5346L38.7842 13.9401L98.5059 -7.53982L125.695 68.0547L65.9733 89.5346Z" fill="url(#paint8_linear_414_1681)"/>
</mask>
<g mask="url(#mask4_414_1681)">
<path d="M62.7259 15.6132C62.0903 16.9668 61.5584 18.4554 61.1385 20.0363C61.5485 19.6789 62.0458 19.3299 62.609 19.0088C63.8309 18.3138 65.5122 17.6634 67.4355 17.474C71.7319 17.0524 79.0219 18.1392 81.8098 25.9793C84.7509 34.2656 78.4719 50.4183 72.845 62.1216C75.5769 66.8691 78.1063 71.2709 80.7757 76.0941C80.7757 76.0941 94.9606 51.66 95.1088 51.3554C99.3622 42.7974 103.341 26.7566 96.7242 16.0002C94.3727 12.1781 90.9985 9.31118 90.8865 9.21073C90.4452 9.2766 89.8788 9.38038 89.6466 9.51376C86.666 11.3005 87.7018 12.7512 77.1479 8.22927C76.285 7.85876 75.376 7.69406 74.4539 7.69406C69.5796 7.69406 64.2887 12.3066 62.7259 15.6132" fill="url(#paint9_linear_414_1681)"/>
</g>
</g>
<g opacity="0.440002">
<mask id="mask5_414_1681" style="mask-type:alpha" maskUnits="userSpaceOnUse" x="20" y="-7" width="117" height="142">
<path d="M61.8828 134.288L20.8793 20.2833L95.8531 -6.68177L136.857 107.321L61.8828 134.288Z" fill="url(#paint10_linear_414_1681)"/>
</mask>
<g mask="url(#mask5_414_1681)">
<path d="M74.4736 8.44505C71.0402 8.46975 67.1951 11.2742 65.7641 12.8798C64.1009 14.7488 61.5584 18.4555 61.1385 20.0363C62.5118 18.8491 64.8337 17.7293 67.4356 17.4741C71.7319 17.0525 79.0219 18.1393 81.8098 25.9794C84.7509 34.2657 78.4719 50.4184 72.845 62.1217C72.7133 62.3967 72.5783 62.6734 72.4449 62.9451C71.8801 63.9479 65.2372 76.7232 65.0033 77.3918C60.8997 89.2285 56.9294 101.357 56.8356 105.106C56.8356 111.527 59.1114 118.733 65.4941 118.833H65.7641C66.3553 118.825 66.9778 118.756 67.6381 118.623C73.7112 117.383 75.2213 107.461 74.309 102.35C74.309 102.35 72.3494 94.0435 72.2572 93.8706C72.2572 93.8706 84.3145 69.6934 85.184 68.1619C86.2444 66.2863 94.9606 51.6601 95.1088 51.3555C99.3623 42.7974 100.902 32.7985 100.494 26.6002C100.35 24.4183 98.1519 17.7952 96.7242 16.0002C93.9264 12.4911 89.8788 9.38047 89.6466 9.51385C86.666 11.3005 87.1353 12.7744 76.3806 8.76295C75.8059 8.54888 75.2015 8.44999 74.5823 8.44505H74.4736Z" fill="url(#paint11_linear_414_1681)"/>
</g>
</g>
<mask id="mask6_414_1681" style="mask-type:alpha" maskUnits="userSpaceOnUse" x="62" y="16" width="24" height="49">
<path d="M85.9843 64.2213H62.609V16.2341H85.9843V64.2213Z" fill="url(#paint12_linear_414_1681)"/>
</mask>
<g mask="url(#mask6_414_1681)">
<path d="M67.3234 16.3148C66.7651 16.3724 64.8154 16.7528 63.6298 17.1464L62.9892 18.1277L62.6072 19.0088C63.8307 18.3139 65.512 17.6634 67.4386 17.474C71.7317 17.0525 79.025 18.1393 81.808 25.9793C84.7507 34.2657 78.4717 50.4184 72.8448 62.1216C72.723 62.3769 72.5978 62.6289 72.476 62.8825C73.3817 63.6433 74.0947 64.2213 74.0947 64.2213C74.2643 63.9413 74.3681 63.7108 74.5196 63.4226C80.3127 51.3488 85.9841 34.2492 82.908 25.5924C81.7108 22.2281 79.6425 19.7087 76.7591 18.108C76.578 18.0092 75.4829 17.4806 75.1025 17.3357C74.9181 17.26 74.7336 17.1908 74.5476 17.125C74.1869 16.9998 73.0655 16.6934 72.8811 16.6523C72.1796 16.4909 71.4517 16.3756 70.714 16.3097C70.164 16.2571 69.6024 16.2341 69.0475 16.2341C68.4662 16.2341 67.8833 16.2588 67.3234 16.3148" fill="url(#paint13_linear_414_1681)"/>
</g>
<path d="M80.3487 74.9329C79.8975 74.177 79.629 73.7621 79.6274 73.7604C79.4578 73.4739 79.298 73.2022 79.1334 72.9272C72.889 61.6998 66.1654 51.9232 62.5097 42.7213C61.7044 40.2364 61.0705 37.7877 60.6769 35.4461C59.2986 28.7307 59.8749 24.7885 62.4389 19.3576C64.904 14.1309 72.3588 7.6082 76.5299 9.60568C85.5243 13.9119 86.7215 11.8337 88.8902 10.0651C88.9577 10.0141 89.1273 9.88892 89.1965 9.8247C89.2443 9.78847 89.5193 9.61062 89.5654 9.57769C113.146 27.7032 87.8676 62.7356 80.3487 74.9329ZM65.9612 117.409C65.3404 117.506 64.7459 117.522 64.1778 117.463C63.2375 117.338 62.2956 116.969 61.3949 116.348C60.1335 115.479 59.1965 114.194 58.714 112.74C57.2501 108.355 57.5563 99.6305 65.3882 79.8747C66.2033 81.6499 66.9707 83.3197 67.3082 84.0047C71.84 93.1753 72.9285 101.587 72.9335 106.609C72.4444 112.931 69.3979 116.765 65.9612 117.409M99.3585 15.4021C99.0785 14.8653 98.0411 12.9189 97.6821 12.2487C97.6146 12.1235 97.5701 12.0428 97.5602 12.0247C93.0251 3.69888 92.872 5.27974 90.038 4.77913C89.9375 4.76102 89.8272 4.72973 89.7218 4.70503C86.4975 3.96401 80.953 1.86113 78.2458 0.869807C75.4513 -0.156103 68.0888 2.04557 63.3363 2.51159C62.1244 2.6318 61.1907 2.85246 60.4431 3.14228C58.2578 3.99199 57.7144 5.43288 56.812 6.61358C56.2851 7.30356 55.9129 7.51598 55.4255 7.62796C55.4172 7.63125 55.4041 7.63126 55.3975 7.6362C51.7006 8.96017 42.9664 19.7363 44.8535 34.6013C44.9852 36.0603 45.2948 37.4831 45.6868 38.8762C49.2997 53.1434 61.385 72.2833 64.3524 77.7109C62.1655 82.745 57.4987 93.0765 56.0101 102.807C55.9491 103.136 55.5885 105.378 55.5655 107.248V107.252C55.3662 112.198 56.2917 116.728 59.1635 119.977C59.1817 119.996 59.7267 120.582 59.7531 120.608C61.217 122.051 62.9477 122.973 64.69 123.526C67.1518 124.585 69.0258 123.99 70.8355 123.681C71.6474 124.175 72.4938 124.55 73.3567 124.847C78.5389 126.64 84.3387 125.199 87.0558 123.681C90.7 122.499 92.3582 120.359 93.4022 117.045C94.4512 113.922 96.0568 107.545 92.4241 98.1122C90.7889 94.0365 87.507 87.6588 82.4482 78.3927L82.4153 78.3383C86.4695 70.6629 97.3297 51.6729 99.2662 46.1218C99.37 45.8303 99.4605 45.5471 99.5511 45.2655C102.835 36.8623 104.979 25.7452 99.3585 15.4021" fill="#EFECE8"/>
<path d="M89.5893 60.307C89.2484 60.857 88.3789 62.1579 87.297 63.7618C84.5997 68.3249 82.0357 72.1947 80.3511 74.9282C80.8995 75.8125 82.1214 77.8034 82.6434 78.7519C82.5759 78.6317 82.5133 78.5148 82.4491 78.3929L82.4145 78.3386C82.6747 77.8479 82.9645 77.3077 83.2774 76.7265C83.2889 73.6405 88.5387 62.7046 89.5893 60.307Z" fill="#DAD7D3"/>
<path d="M78.2119 2.90783C76.221 1.84075 73.6801 1.92638 71.2578 2.34959C70.5184 2.47968 68.7514 2.81891 68.7514 2.81891C68.7514 2.81891 72.3232 3.69661 75.1753 4.70441C77.0131 5.40756 80.0957 6.59814 83.8107 4.63854L83.8799 4.4788C82.1673 4.29602 80.104 3.92221 78.2119 2.90783Z" fill="#BBB8B5"/>
<path d="M66.5891 3.75182C65.7724 4.07623 65.0577 4.36108 64.5505 4.64102C57.8483 8.35768 55.9447 12.0365 55.6269 12.3345C55.4359 13.6288 55.1427 14.6219 54.9978 16.1961C56.2378 16.8351 62.25 15.6642 66.2466 12.5173C66.7423 12.1024 67.2643 11.7055 67.8077 11.3284C68.0185 11.1654 68.2112 11.0665 68.3725 10.9447C68.3989 10.9348 68.4219 10.8838 68.4466 10.8739C70.7323 8.83199 73.4214 3.82596 75.9359 5.06265C76.1368 5.16145 76.3361 5.25199 76.5304 5.33432C76.234 5.16307 75.9359 4.9935 75.6346 4.83048C73.8331 3.86385 71.9262 3.15903 69.8546 3.15903C68.8122 3.15903 67.7254 3.3385 66.5891 3.75182Z" fill="url(#paint14_linear_414_1681)"/>
<path d="M56.679 7.90529C56.3809 8.64796 56.1339 9.36429 55.9659 10.2832C55.849 10.9139 55.737 11.6022 55.6284 12.3383C59.8539 7.0951 64.1123 4.85226 64.5536 4.64313C65.0476 4.39941 66.4045 3.46901 67.0072 3.26976C62.4228 4.51304 59.8637 6.38207 57.1252 7.21037C57.0034 7.3207 56.7498 7.73074 56.679 7.90529Z" fill="#F6F2EE"/>
<path d="M79.1294 9.72277C72.1243 5.79533 68.513 10.7899 68.5113 10.7915C68.4899 10.7981 68.4685 10.8672 68.4488 10.8755C65.9589 13.1019 63.4674 16.2043 62.4366 19.3578C64.905 14.1294 72.3597 7.60673 76.5309 9.60585C86.3948 14.327 86.8904 11.3843 89.5664 9.57786C87.6117 10.7586 85.9946 13.5695 79.1294 9.72277Z" fill="#EBE7E3"/>
<path d="M88.877 9.92559C84.2794 11.849 81.1753 8.07961 76.5316 5.33617C76.3356 5.25054 76.138 5.16326 75.9371 5.06116C72.7112 3.45396 67.2819 11.9758 67.2951 11.9692C68.3325 11.2051 72.1249 5.7956 79.1301 9.72304C85.9936 13.5698 87.0163 11.3846 88.882 10.0705C88.9759 10.0063 89.567 9.57813 89.567 9.57813C89.567 9.57813 88.9709 9.85313 88.882 9.92229L88.877 9.92559Z" fill="#FFFBF7"/>
<path d="M66.2464 12.5172C62.2465 15.5587 56.2376 16.8332 54.9993 16.1976C54.4542 22.2065 53.1467 29.9757 54.4773 38.7544C55.0586 42.588 55.8358 46.6686 56.4813 50.7064C54.8412 37.8092 54.4937 22.3267 66.2464 12.5172Z" fill="#EFECE8"/>
<path d="M60.4431 3.14364C58.2579 3.99335 57.7144 5.43259 56.812 6.61329C56.2818 7.30491 55.9129 7.51734 55.4255 7.62932C55.7598 7.55851 56.155 7.46465 56.6045 7.35432C57.8248 7.04802 58.8589 6.59518 60.0692 6.06164C61.1808 5.57091 62.4389 5.01432 64.0543 4.35563C64.9518 3.99006 66.8488 3.30008 67.8484 3.03002C68.8611 2.75501 71.4926 2.3071 71.6358 2.27911C71.6358 2.27911 72.6469 2.14902 72.9746 2.09962C72.8808 2.1062 61.8395 2.7369 60.4431 3.14364Z" fill="#EFECE8"/>
<mask id="mask7_414_1681" style="mask-type:alpha" maskUnits="userSpaceOnUse" x="55" y="2" width="18" height="6">
<path d="M55.4276 2.10011H72.9735V7.62816H55.4276V2.10011Z" fill="url(#paint15_linear_414_1681)"/>
</mask>
<g mask="url(#mask7_414_1681)">
<path d="M72.6985 2.11694C72.4646 2.13341 61.8383 2.73769 60.4436 3.14444C58.26 3.99415 57.7149 5.43506 56.8125 6.61247C56.2823 7.30574 55.9134 7.51813 55.4276 7.63011C55.7603 7.5593 56.1555 7.46714 56.6017 7.35351C57.8236 7.04887 58.8594 6.59436 60.0697 6.05917C61.1796 5.57009 62.4394 5.0168 64.0565 4.35646C64.9506 3.99089 66.8477 3.29761 67.8456 3.02754C68.8616 2.75584 71.391 2.31615 71.6347 2.28157C71.9706 2.23382 72.6474 2.14817 72.9751 2.10207C72.8813 2.10536 72.789 2.10871 72.6985 2.11694" fill="url(#paint16_linear_414_1681)"/>
</g>
<path d="M88.6085 120.98C88.4998 121.209 88.4142 121.408 88.3022 121.605C87.9185 122.358 87.5019 123.056 87.0556 123.682C90.7212 122.49 92.3614 120.393 93.4021 117.042C89.5191 121.12 88.6085 120.98 88.6085 120.98Z" fill="#D2CFCB"/>
<path d="M80.0901 122.098C77.1705 120.818 74.8239 123.328 73.3567 124.849C78.5406 126.639 84.3387 125.2 87.0574 123.68C87.5004 123.056 87.9187 122.36 88.3023 121.607C86.7692 124.156 82.9143 123.336 80.0901 122.098Z" fill="#DEDBD7"/>
<path d="M71.1171 117.75C72.5959 114.839 73.3797 109.565 72.9334 106.61C72.4378 112.912 69.3913 116.764 65.9629 117.408C65.342 117.507 64.7443 117.522 64.1795 117.462C63.2375 117.337 62.2973 116.97 61.3932 116.349C61.2434 116.245 61.1001 116.133 60.9585 116.02C58.3418 115.241 56.2357 113.024 55.6165 110.311C55.6116 110.283 55.6 110.259 55.5951 110.233C55.6214 110.674 55.6626 111.114 55.7153 111.547L55.7252 111.641C55.8866 112.952 56.1583 114.21 56.5634 115.394C59.4468 120.616 67.7446 124.39 71.1171 117.75Z" fill="#EBE7E3"/>
<path d="M65.9614 117.408C65.3406 117.507 64.7461 117.522 64.178 117.462C63.2394 117.337 62.2958 116.97 61.395 116.349C60.7051 115.872 60.1106 115.272 59.633 114.584C57.2667 112.134 55.9625 107.763 55.7534 104.796L55.7451 104.687V104.689V104.687V104.692C55.6562 105.479 55.5755 106.403 55.5656 107.251V107.254C55.4932 109.051 55.5706 110.792 55.834 112.438C55.8439 112.468 55.8489 112.499 55.8538 112.534C58.4737 117.515 65.744 122.483 70.5838 114.093C69.3257 115.949 67.6921 117.084 65.9614 117.408Z" fill="#F2EFEA"/>
<path d="M97.5614 12.0255C93.0263 3.69798 92.8732 5.27719 90.0392 4.77823C86.2023 4.98407 81.9142 7.66165 76.5311 5.33647C84.1077 9.87155 90.4887 0.0883601 97.6651 12.2181C97.6701 12.228 97.7541 12.3861 97.7607 12.396C97.7294 12.3416 97.7063 12.2922 97.68 12.2494C97.6157 12.1243 97.5713 12.0436 97.5614 12.0255Z" fill="#E7E4E0"/>
<mask id="mask8_414_1681" style="mask-type:alpha" maskUnits="userSpaceOnUse" x="73" y="-4" width="28" height="26">
<path d="M92.8725 21.1134L73.4444 10.5727L81.3405 -3.98278L100.769 6.55791L92.8725 21.1134Z" fill="url(#paint17_linear_414_1681)"/>
</mask>
<g mask="url(#mask8_414_1681)">
<path d="M89.5659 9.57628C89.6087 9.54993 89.6565 9.52196 89.7009 9.49397C91.402 8.37419 94.7218 7.78301 97.6826 12.2473C93.3336 4.88313 89.281 5.55992 85.0769 6.24002C82.3318 6.68463 79.5225 7.12762 76.5304 5.33434C80.7444 8.04979 85.5363 12.076 89.5659 9.57628" fill="url(#paint18_linear_414_1681)"/>
</g>
<path d="M64.6901 123.525C66.5954 122.334 68.2207 120.669 69.5134 118.737C65.912 122.047 58.1148 120.974 55.8242 112.376C56.2836 115.283 57.3243 117.893 59.1637 119.976C59.1818 119.997 59.7269 120.582 59.7532 120.607C61.2172 122.052 62.9479 122.971 64.6901 123.525Z" fill="#CCC9C6"/>
<path d="M78.2474 0.868637C75.4513 -0.157273 68.0905 2.04769 63.3364 2.51207C62.126 2.63063 61.189 2.85459 60.4447 3.14276C63.2557 2.53183 63.45 3.13947 71.6853 2.21895C71.7264 2.21236 72.7655 2.11191 73.0306 2.09709C74.8815 1.97688 76.7061 2.10203 78.2112 2.90893C80.1033 3.92166 81.8884 4.34981 83.6026 4.53425C85.7351 4.76149 87.7573 4.6067 89.7202 4.70551C86.4992 3.96283 80.9547 1.85997 78.2474 0.868637Z" fill="#F2EFEA"/>
<mask id="mask9_414_1681" style="mask-type:alpha" maskUnits="userSpaceOnUse" x="60" y="0" width="30" height="5">
<path d="M60.4436 0.599953H89.7223V4.7036H60.4436V0.599953Z" fill="url(#paint19_linear_414_1681)"/>
</mask>
<g mask="url(#mask9_414_1681)">
<path d="M76.0858 0.601561C72.6194 0.654256 67.1441 2.13962 63.3369 2.51343C62.1249 2.63034 61.1895 2.85429 60.4436 3.14411C63.2858 2.57435 63.5723 3.13761 71.6874 2.21874C71.7253 2.21215 72.7676 2.11168 73.0278 2.09521C74.882 1.97665 76.7033 2.10177 78.2101 2.90702C80.1022 3.92304 81.8888 4.34794 83.6014 4.53072C84.8875 4.6707 86.1308 4.67071 87.3494 4.66742C88.1513 4.66742 88.9401 4.66737 89.7223 4.7036C86.4964 3.96257 80.9535 1.86303 78.2496 0.86841C77.7687 0.693857 77.1611 0.613088 76.4514 0.601561H76.0858Z" fill="url(#paint20_linear_414_1681)"/>
</g>
<path d="M83.601 4.53263L83.377 4.64625C80.3075 6.30286 77.4718 5.53384 75.6357 4.83069C75.9355 4.99206 76.2368 5.16003 76.5299 5.33788C81.9131 7.66305 86.2011 4.98218 90.038 4.77634C89.9376 4.75823 89.8272 4.73024 89.7218 4.70389C87.7589 4.60508 85.7368 4.76152 83.601 4.53263Z" fill="#EBE7E3"/>
<path d="M89.5893 98.5012C86.1032 83.1192 78.5184 73.1038 71.8376 64.8982C66.1663 57.9391 63.082 50.4333 61.6625 43.6422C61.8025 45.2 61.9309 46.8336 62.0363 48.4968C63.329 57.9309 66.8464 69.1368 77.1944 81.8166C86.5972 93.3354 88.5881 94.9064 89.5893 98.5012Z" fill="#FFFBF7"/>
<path d="M97.8565 12.5744C97.8565 12.5777 97.9652 12.8264 97.9652 12.8264C97.9915 12.8857 98.6173 14.3628 98.6403 14.4204C100.387 18.5208 98.581 21.8982 98.2352 22.4795C100.756 31.3998 98.1134 41.6062 94.0196 50.8839C92.2362 54.948 92.3021 58.5905 91.785 61.1594C91.7899 61.1462 91.7982 61.1331 91.8031 61.1232C95.2036 54.8343 98.3126 48.8534 99.2661 46.1232C99.3698 45.8301 99.4604 45.5468 99.551 45.2636C102.833 36.862 104.979 25.7466 99.3599 15.4035C99.1146 14.9359 98.3011 13.4077 97.8565 12.5744Z" fill="#EBE7E3"/>
<path d="M89.5665 9.57829C92.0498 11.4885 93.7739 13.7412 95.2527 15.9791C94.7504 12.4304 93.8546 8.90807 90.8856 9.20942C90.5117 9.25059 90.1643 9.31811 89.8086 9.46631C89.7971 9.46961 89.7658 9.42185 89.5665 9.57829Z" fill="#DEDBD7"/>
<path d="M98.7171 14.3449C98.694 14.2872 96.9518 11.7595 95.9605 10.7501C94.8703 9.56936 93.2895 8.86621 91.9062 8.90244C90.6317 8.93537 90.131 9.27624 89.7358 9.47056C89.6733 9.49855 89.6008 9.55619 89.5679 9.57924C93.8164 8.35902 94.6266 12.4676 95.254 15.9768C96.6191 18.0434 97.5989 20.2237 98.2362 22.4896C98.4783 22.0351 100.285 18.381 98.7171 14.3449Z" fill="#CCC9C6"/>
<path d="M73.3565 124.848C75.2025 123.339 76.7224 121.694 78.6672 121.758C77.2675 121.699 72.0457 122.82 70.8354 123.682C71.6489 124.172 72.4953 124.551 73.3565 124.848Z" fill="#D2CFCB"/>
<path d="M91.2027 108.937C91.1484 107.501 90.987 106.08 90.7219 104.707C90.1933 101.97 89.2333 99.4223 87.7562 97.3375C82.3104 89.6572 69.2585 75.497 65.8728 64.4656C66.8559 71.3802 65.1796 79.6945 67.9493 83.7784C68.8913 84.992 69.8019 86.1892 70.6714 87.3617C77.3143 95.289 85.0456 99.8866 84.8019 111.132C84.6718 117.09 82.6678 119.216 79.7383 121.963C79.8519 122.001 79.9688 122.045 80.0906 122.098C82.9181 123.329 86.7698 124.154 88.3012 121.607C90.2789 117.739 91.4053 114.157 91.2027 108.937Z" fill="#EFECE8"/>
<path d="M85.3104 112.085C87.0675 97.6222 78.7169 89.8744 70.7616 80.7581C69.8411 79.7338 67.1833 78.568 68.2256 80.9689C72.7163 88.0284 75.7116 94.8771 76.423 97.726C80.6172 114.541 76.0097 119.86 70.8373 123.683C72.046 122.82 77.2694 121.699 78.6659 121.76C79.0084 121.77 79.3641 121.834 79.7379 121.962C82.1207 119.726 83.7822 118.55 84.7209 114.99C84.8543 114.496 84.9728 113.946 85.093 113.339C85.1704 112.947 85.2561 112.532 85.3104 112.085Z" fill="#E7E4E0"/>
<path d="M79.1752 101.515C77.2337 93.7393 72.6311 81.6013 64.4634 71.0029C64.3382 71.3817 63.617 73.669 63.0192 75.3701C63.5626 76.307 64.0171 77.0975 64.3514 77.71C64.7713 78.5235 65.0414 79.0884 65.3872 79.8755C66.2023 81.6507 66.9713 83.3204 67.3073 84.0055C71.8407 93.1761 72.9275 101.586 72.9325 106.61C73.2701 112.907 70.1182 120.133 64.689 123.524C67.1525 124.586 69.0264 123.991 70.8378 123.682C75.2577 122.073 83.3694 118.331 79.1752 101.515Z" fill="#F2EFEA"/>
<mask id="mask10_414_1681" style="mask-type:alpha" maskUnits="userSpaceOnUse" x="41" y="6" width="21" height="58">
<path d="M61.728 7.39609L58.4889 63.5329L41.5573 62.5564L44.7947 6.41956L61.728 7.39609Z" fill="url(#paint21_linear_414_1681)"/>
</mask>
<g mask="url(#mask10_414_1681)">
<path d="M51.5842 12.2984C46.1039 19.7893 44.7486 31.9356 46.9388 38.3826C49.7365 46.6244 50.9881 50.7 57.8994 61.7265C58.535 62.7392 54.3177 45.8834 53.3956 41.783C52.5524 38.0318 49.9934 22.704 55.4046 10.622C55.9068 9.5006 56.4799 8.26558 57.1254 7.21168C54.9534 8.35121 53.109 10.2169 51.5842 12.2984" fill="url(#paint22_linear_414_1681)"/>
</g>
<path d="M68.8802 8.59962C66.3673 9.80997 64.1953 11.6082 62.3674 13.6452C60.5346 15.6888 59.1135 18.0634 58.1189 20.5944C56.1362 25.6844 55.9847 31.3112 56.8525 36.6993C57.6693 42.1269 59.6289 47.3734 60.7454 52.9048C61.3119 55.6614 61.6281 58.4954 61.5375 61.3162C61.4403 64.1354 60.9447 66.9316 60.0785 69.5844C60.6203 66.8459 60.9068 64.0728 60.7948 61.3162C60.7125 58.5596 60.2464 55.8376 59.596 53.1583C58.9291 50.4824 58.1139 47.8295 57.312 45.152C56.5347 42.4678 55.8085 39.7375 55.3672 36.9332C54.9423 34.1321 54.7727 31.275 55.0016 28.4295C55.1383 27.01 55.3343 25.5938 55.6834 24.2073C56.0144 22.8191 56.4573 21.4507 57.0419 20.1481C58.1815 17.5265 59.8167 15.1305 61.8388 13.1413C63.8709 11.18 66.2306 9.51026 68.8802 8.59962Z" fill="#CCC9C6"/>
<path d="M63.1844 75.1508C63.7426 73.6638 64.0999 72.1191 64.2696 70.5515C64.4062 68.9805 64.4408 67.4029 64.3239 65.827C64.1576 62.6735 63.6751 59.5382 63.2025 56.4028C62.7463 53.2641 62.2194 50.1321 61.7962 46.9852C61.3499 43.8416 61.2017 40.6864 60.9004 37.5247L63.7689 56.3172C64.2416 59.4575 64.6812 62.6142 64.7883 65.8072C64.8508 67.4029 64.757 69.0035 64.566 70.5877C64.2959 72.1652 63.8694 73.7148 63.1844 75.1508Z" fill="#CCC9C6"/>
<path d="M55.2936 10.875C54.681 12.8741 54.1277 14.888 53.7226 16.93C53.2879 18.9686 52.9684 21.027 52.7675 23.0953C52.3509 27.2302 52.3509 31.4063 52.7807 35.5363C53.1841 39.6713 54.1491 43.7304 55.18 47.7715C55.6888 49.797 56.2404 51.8126 56.7032 53.8578C57.1363 55.9014 57.5496 57.9812 57.487 60.0808C57.3915 57.9878 56.914 55.9508 56.3689 53.9385C55.8288 51.9245 55.2261 49.9254 54.6497 47.9164C53.4838 43.9017 52.5337 39.7948 52.0627 35.6121C51.847 33.5191 51.7531 31.4162 51.7795 29.315C51.8075 27.2138 51.9161 25.1126 52.1911 23.0311C52.4645 20.9463 52.8564 18.883 53.3603 16.8476C53.8889 14.8205 54.518 12.8198 55.2936 10.875Z" fill="#CCC9C6"/>
<path d="M51.3774 12.5959C50.4585 14.3332 49.836 16.2039 49.3288 18.0943C48.8266 19.9864 48.4758 21.9147 48.1975 23.848C47.6739 27.7227 47.6129 31.6535 48.0164 35.5282C48.4182 39.4029 49.3453 43.2266 50.8949 46.7885C51.6869 48.5538 52.5811 50.3158 53.4621 52.0514C54.3283 53.8019 55.3278 55.4832 56.2599 57.2254C55.6341 56.4614 55.043 55.6759 54.4683 54.8706C53.91 54.0604 53.3682 53.2305 52.8594 52.3841C52.3637 51.5278 51.8862 50.6633 51.4416 49.7839C50.9904 48.9144 50.5622 48.0153 50.167 47.1014C48.6076 43.4457 47.6986 39.5363 47.3198 35.599C46.9279 31.6551 47.142 27.6766 47.7463 23.7805C48.0608 21.834 48.4956 19.9024 49.0769 18.0202C49.6598 16.1413 50.358 14.2772 51.3774 12.5959Z" fill="#DEDBD7"/>
<path d="M55.6269 12.3374C57.4235 9.60713 59.9051 7.37417 62.6041 5.51667C63.9642 4.5945 65.4331 3.8156 67.009 3.26889C67.5772 3.07951 68.1535 2.91484 68.7529 2.81933C68.9868 2.77981 69.2338 2.76005 69.4725 2.74358C69.9007 2.72382 70.3338 2.71559 70.7652 2.78804C71.2032 2.84074 71.6215 2.98071 72.0052 3.11245C75.1455 4.23058 77.8659 6.10784 80.6176 7.80232C81.9959 8.64709 83.4022 9.45893 84.9287 9.94471C85.6862 10.1884 86.4832 10.3383 87.2802 10.2839C88.0772 10.2345 88.866 9.99411 89.5675 9.57914C88.9072 10.0567 88.1217 10.3729 87.2983 10.4733C86.4733 10.5836 85.6351 10.4782 84.8332 10.2773C83.226 9.85085 81.7653 9.06371 80.3393 8.27493C77.5003 6.67596 74.8079 4.80693 71.7714 3.79255C71.3844 3.67069 71.0287 3.54883 70.6582 3.49614C70.2877 3.42862 69.9007 3.43191 69.5154 3.44179C68.7447 3.48461 67.9691 3.66081 67.2182 3.90123C65.7065 4.39031 64.2854 5.16097 62.912 5.99586C61.5419 6.84063 60.2443 7.81056 59.0241 8.8694C57.789 9.91342 56.6363 11.0612 55.6269 12.3374Z" fill="#CCC9C6"/>
<path d="M89.5665 9.5783C90.2153 9.0464 91.0453 8.694 91.9213 8.63308C92.7925 8.5705 93.6833 8.77634 94.4622 9.1732C95.8471 9.87471 96.8714 10.871 97.6783 12.2493C97.7013 12.2888 97.787 12.4436 97.8627 12.5885C97.9121 12.6807 97.9582 12.7713 97.9846 12.8207C98.8541 14.4295 99.4123 15.9873 99.4798 17.6966C99.5671 19.3994 99.1801 21.0955 98.2382 22.4919C98.9858 21.0346 99.2476 19.3565 99.0994 17.723C98.9364 16.0878 98.3996 14.5004 97.568 13.0908C96.7462 11.6861 95.6166 10.4379 94.2152 9.64581C93.5137 9.25719 92.7332 9.01841 91.9312 8.99371C91.126 8.97066 90.3092 9.1765 89.5665 9.5783Z" fill="#BBB8B5"/>
<path d="M65.0209 70.6691C65.7966 74.2771 66.9954 77.778 68.6833 81.0336C69.5083 82.6721 70.4453 84.2496 71.4761 85.7646L73.0537 88.0322L73.8408 89.1783C74.101 89.5603 74.3348 89.9654 74.5835 90.354C75.583 91.9168 76.436 93.5652 77.2495 95.2349C78.0169 96.9245 78.6739 98.6651 79.1861 100.452C79.6751 102.24 80.0391 104.065 80.2021 105.911C80.3799 107.755 80.4079 108.532 80.3404 110.372C80.296 108.529 80.2136 107.758 79.9567 105.939C79.7147 104.116 79.3359 102.316 78.8007 100.564C78.2557 98.8116 77.5492 97.1155 76.7917 95.449C75.975 93.8089 75.1203 92.1836 74.1158 90.6455C73.8672 90.2602 73.63 89.8666 73.3731 89.4879L72.5844 88.3582C72.0656 87.6073 71.5222 86.8498 71.0117 86.0791C69.9858 84.5329 69.0521 82.9224 68.237 81.2575C66.6166 77.9163 65.5199 74.3265 65.0209 70.6691Z" fill="#CCC9C6"/>
<path d="M63.9955 60.7264C64.2738 63.2179 64.9243 65.6501 65.6703 68.0362C66.4195 70.4207 67.3186 72.759 68.3725 75.02C70.4869 79.5402 73.1859 83.8151 76.677 87.3671C77.5547 88.2349 78.4719 89.1373 79.292 90.0957C80.117 91.0558 80.8679 92.0784 81.5546 93.1438C82.9246 95.2714 83.9736 97.6081 84.652 100.045C85.7916 104.136 85.9414 108.455 85.2333 112.608C85.095 113.407 84.9221 114.204 84.7212 114.991C85.2119 112.529 85.4556 110.028 85.3684 107.533C85.3025 105.04 84.9287 102.555 84.2124 100.175C83.4878 97.7991 82.4718 95.5085 81.1066 93.432C80.4266 92.3962 79.6806 91.3983 78.8655 90.4646C78.0503 89.5194 77.1611 88.6779 76.2669 87.7673C72.7578 84.1263 70.0127 79.802 67.9773 75.2044C66.9629 72.9006 66.0984 70.5293 65.4051 68.1136C65.0643 66.9033 64.7662 65.6847 64.5143 64.4529C64.2672 63.2228 64.0532 61.9795 63.9955 60.7264Z" fill="#D2CFCB"/>
<path d="M93.8819 54.2223C95.1878 51.6864 96.2598 49.0565 97.1985 46.3889C98.1387 43.7228 98.9176 41.0008 99.545 38.2458C100.163 35.4925 100.599 32.6963 100.773 29.8804C100.843 28.4741 100.846 27.0563 100.693 25.6582L100.584 24.6043L100.365 23.5685L100.26 23.0482C100.215 22.8753 100.143 22.7139 100.09 22.5459L99.7509 21.5332C101.085 24.079 101.406 27.0464 101.399 29.8969C101.399 31.3345 101.297 32.7688 101.113 34.1949C100.94 35.6176 100.696 37.0322 100.383 38.4335C99.7789 41.2362 98.9325 43.983 97.8769 46.6457C96.8131 49.3003 95.5089 51.8757 93.8819 54.2223Z" fill="#FFFBF7"/>
<mask id="mask11_414_1681" style="mask-type:alpha" maskUnits="userSpaceOnUse" x="62" y="52" width="34" height="70">
<path d="M62.4344 52.4586H95.5912V121.008H62.4344V52.4586Z" fill="url(#paint23_linear_414_1681)"/>
</mask>
<g mask="url(#mask11_414_1681)">
<path d="M62.8017 53.2113C62.7012 52.7288 62.6386 52.4587 62.6386 52.4587C62.6386 52.4587 62.693 52.7255 62.8017 53.2113ZM62.4328 74.3585C62.7045 74.8261 62.9268 75.1933 63.1606 75.6116C63.2693 75.8059 63.3895 76.0085 63.4999 76.2012C72.7775 92.4198 87.3214 104.251 79.1487 117.056C78.4192 118.201 77.6732 119.375 76.3954 120.516C77.8725 119.299 79.0285 119.444 80.061 119.592C81.1478 119.747 82.1029 119.904 83.1634 118.463C83.4631 118.056 83.8633 117.399 84.2058 116.549C84.3902 116.103 84.5549 115.611 84.7212 114.99C84.7212 114.99 89.1805 121.009 93.5378 116.637C95.005 111.752 95.5896 104.395 89.0768 96.3999C81.6665 87.3034 77.0475 86.3844 71.0616 76.1319C66.3273 68.0268 63.49 56.2758 62.8017 53.2113C63.4966 56.5261 66.0029 69.8514 62.4328 74.3585" fill="url(#paint24_linear_414_1681)"/>
</g>
<mask id="mask12_414_1681" style="mask-type:alpha" maskUnits="userSpaceOnUse" x="46" y="7" width="26" height="50">
<path d="M49.2853 56.5639L46.7543 8.72831L68.827 7.56071L71.358 55.3948L49.2853 56.5639Z" fill="url(#paint25_linear_414_1681)"/>
</mask>
<g mask="url(#mask12_414_1681)">
<path d="M53.7644 16.0233C52.4322 21.8922 51.5957 30.4897 52.9312 39.2684C53.5125 43.1069 56.3547 51.4871 56.9986 55.5265C55.3634 42.631 49.2293 17.9549 68.8814 8.59654C64.2014 9.75748 55.0028 16.6556 53.7644 16.0233" fill="url(#paint26_linear_414_1681)"/>
</g>
<mask id="mask13_414_1681" style="mask-type:alpha" maskUnits="userSpaceOnUse" x="42" y="0" width="66" height="127">
<path d="M107.826 126.639H42.9669V0.599981H107.826V126.639Z" fill="url(#paint27_linear_414_1681)"/>
</mask>
<g mask="url(#mask13_414_1681)">
<path d="M76.0858 0.601669C72.6194 0.654364 67.1441 2.13973 63.3368 2.51353C62.1249 2.63045 61.1895 2.8544 60.4435 3.14422C58.26 3.99393 57.7149 5.43485 56.8125 6.61225C56.2823 7.30553 55.9134 7.51792 55.4276 7.6299C55.4161 7.63155 55.4046 7.63159 55.3963 7.63653C51.6994 8.96215 42.9669 19.7383 44.8524 34.6033C44.9874 36.0622 45.2953 37.4834 45.6889 38.8748C49.2969 53.1437 61.3855 72.2804 64.3529 77.7113C62.166 82.7437 57.4992 93.0769 56.0106 102.807C55.948 103.138 55.589 105.375 55.5659 107.247C55.365 112.2 56.2938 116.725 59.1657 119.976C59.1822 119.997 59.7272 120.584 59.7519 120.608C61.2159 122.053 62.9482 122.971 64.6872 123.525H64.6888C67.1523 124.582 69.0296 123.991 70.836 123.683C71.6479 124.174 72.4943 124.552 73.3555 124.847C78.5394 126.639 84.3375 125.201 87.0563 123.683C90.7005 122.499 92.362 120.357 93.4027 117.043C94.4517 113.921 96.0573 107.545 92.4246 98.1125C90.7877 94.0369 87.5075 87.6608 82.4454 78.3946L82.4141 78.3387C86.4684 70.6633 97.3302 51.6748 99.2651 46.1221C99.3688 45.829 99.461 45.5458 99.5516 45.2625C102.834 36.8609 104.979 25.7439 99.3589 15.4041C99.079 14.8623 98.0416 12.9209 97.6826 12.2473C97.6167 12.1255 97.5723 12.0448 97.5607 12.0267C93.0256 3.69759 92.8725 5.27678 90.0385 4.77617C89.9364 4.76135 89.8277 4.73005 89.7223 4.70371C86.4964 3.96268 80.9535 1.86314 78.2496 0.868518C77.7687 0.693965 77.1611 0.613196 76.4514 0.601669H76.0858ZM79.6263 73.7591C79.4583 73.4726 79.2969 73.2025 79.1339 72.9259C72.8895 61.7018 66.1659 51.9236 62.5118 42.7233C61.7033 40.2367 61.0709 37.7881 60.6774 35.4448C59.2991 28.7328 59.8738 24.7872 62.4394 19.3596C64.9045 14.1312 72.3592 7.60855 76.5304 9.60438C81.1165 11.8011 83.6393 12.3198 85.3042 12.1173C86.9031 11.9197 87.6968 11.0486 88.759 10.1791C88.9796 9.98642 89.5198 9.61257 89.5659 9.57634C92.0574 11.4948 93.7749 13.7343 95.257 15.9739C107.825 34.959 87.076 64.0237 80.3475 74.9332C79.8947 74.1757 79.6295 73.7607 79.6263 73.7591ZM64.1767 117.462C63.2364 117.338 62.2961 116.968 61.3921 116.35C60.134 115.479 59.1953 114.193 58.7112 112.742C57.2505 108.352 57.5568 99.6292 65.387 79.8767C66.2054 81.6486 66.9745 83.32 67.3071 84.005C71.8389 93.1756 72.9274 101.585 72.934 106.611C72.4449 112.93 69.3968 116.765 65.9601 117.409C65.583 117.468 65.2141 117.496 64.8535 117.496C64.6246 117.496 64.399 117.483 64.1767 117.462" fill="url(#paint28_linear_414_1681)"/>
</g>
<mask id="mask14_414_1681" style="mask-type:alpha" maskUnits="userSpaceOnUse" x="42" y="0" width="66" height="126">
<path d="M107.826 125.692H42.9669V0.599963H107.826V125.692Z" fill="url(#paint29_linear_414_1681)"/>
</mask>
<g mask="url(#mask14_414_1681)">
<path d="M76.2603 0.599953C72.8055 0.603246 67.2066 2.13303 63.3368 2.51343C62.1249 2.63034 61.1895 2.85429 60.4435 3.14411C58.26 3.99382 57.7149 5.43474 56.8125 6.61215C56.2823 7.30542 55.9134 7.51781 55.4276 7.62979C55.4161 7.63144 55.4046 7.63148 55.3963 7.63642C51.6994 8.96204 42.9669 19.7382 44.8524 34.6032C44.9874 36.0622 45.2953 37.4833 45.6889 38.8747C49.2969 53.1436 61.3855 72.2803 64.3529 77.7112C62.166 82.7436 57.4992 93.0767 56.0106 102.807C55.948 103.138 55.589 105.374 55.5659 107.25C55.365 112.2 56.2938 116.725 59.1657 119.976C59.1822 119.997 59.7272 120.584 59.7519 120.608C61.2159 122.053 62.9482 122.971 64.6872 123.525H64.6888C67.1523 124.582 69.0296 123.991 70.836 123.683C71.6479 124.173 72.4943 124.552 73.3555 124.847C75.1159 125.455 76.9454 125.69 78.7024 125.68C82.1194 125.656 85.263 124.684 87.0563 123.683C90.7005 122.499 92.362 120.356 93.4027 117.043C94.4517 113.921 96.0573 107.545 92.4246 98.1124C90.7877 94.0368 87.5075 87.6606 82.4454 78.3945L82.4141 78.3385C86.4684 70.6632 97.3302 51.6747 99.2651 46.122C99.3688 45.8289 99.461 45.5457 99.5516 45.2624C102.834 36.8608 104.979 25.7438 99.3589 15.404C99.079 14.8655 98.0416 12.9207 97.6826 12.2472C97.6167 12.1254 97.5723 12.0447 97.5607 12.0266C93.0256 3.69748 92.8725 5.27667 90.0385 4.77606C89.9364 4.76124 89.8277 4.72995 89.7223 4.7036C86.4964 3.96257 80.9535 1.86303 78.2496 0.86841C77.7358 0.680683 77.0689 0.599953 76.2949 0.599953H76.2603ZM79.6263 73.759C79.4583 73.4725 79.2969 73.2024 79.1339 72.9258C72.8895 61.7017 66.1659 51.9235 62.5118 42.7232C61.7033 40.2366 61.0709 37.788 60.6774 35.4447C59.2991 28.7327 59.8738 24.7871 62.4394 19.3595C64.9045 14.1311 72.3592 7.60844 76.5304 9.60427C81.1165 11.801 83.6393 12.3197 85.3042 12.1172C86.9031 11.9196 87.6968 11.0484 88.759 10.179C88.9796 9.98631 89.5198 9.61246 89.5659 9.57623C92.0574 11.4947 93.7749 13.7342 95.257 15.9738C107.825 34.9589 87.076 64.0236 80.3475 74.9331C79.8947 74.1756 79.6295 73.7606 79.6263 73.759ZM64.1767 117.461C63.2364 117.338 62.2961 116.967 61.3921 116.35C60.134 115.479 59.1953 114.193 58.7112 112.742C57.2505 108.352 57.5568 99.6291 65.387 79.8766C66.2054 81.6485 66.9745 83.3199 67.3071 84.0049C71.8389 93.1755 72.9274 101.585 72.934 106.611C72.4449 112.93 69.3968 116.765 65.9601 117.409C65.583 117.468 65.2141 117.496 64.8535 117.496C64.6246 117.496 64.399 117.483 64.1767 117.461" fill="url(#paint30_linear_414_1681)"/>
</g>
<path d="M75.2132 108.425C75.3301 102.645 74.2367 96.9439 72.4253 91.5229C70.604 86.092 68.0549 80.9328 65.1056 76.0239C63.64 73.5571 62.1102 71.0887 60.6759 68.5873C59.2416 66.0793 57.8336 63.5599 56.4965 60.9976C53.8222 55.8812 51.3077 50.6611 49.4205 45.1972C50.5881 47.8386 51.8346 50.4256 53.1899 52.9698C54.5155 55.5238 55.8987 58.0466 57.3116 60.5562C60.1308 65.5787 63.0999 70.4942 66.1002 75.4294C69.061 80.4108 71.6003 85.682 73.2717 91.2545C74.1132 94.0341 74.7389 96.8813 75.088 99.7615C75.4256 102.64 75.4882 105.555 75.2132 108.425Z" fill="#E1DEDA"/>
<g opacity="0.429993">
<path d="M53.1881 52.9692C54.5137 55.5216 55.9002 58.0477 57.3098 60.5557C57.8911 61.5898 58.4774 62.6206 59.0718 63.6482C60.7745 66.3604 62.6798 69.1533 64.7695 71.8621C74.3551 84.3015 80.3788 96.973 76.0364 109.202C75.2476 111.428 75.6445 112.472 76.644 112.515H76.7758C79.5324 112.403 86.2592 105.46 86.3679 95.0084V94.498C86.2938 87.3182 83.0844 78.5412 73.4148 69.2092C58.3835 57.7925 49.422 45.1999 49.422 45.1999C50.5879 47.8396 51.8328 50.4267 53.1881 52.9692" fill="url(#paint31_linear_414_1681)"/>
</g>
<path d="M65.3872 79.8757C65.0414 79.0885 64.7713 78.5237 64.3514 77.7102C62.1662 82.7443 57.4994 93.0775 56.0091 102.808C55.9498 103.137 55.5892 105.379 55.5661 107.252C55.599 107.587 55.6484 107.901 55.7127 108.189C57.0267 113.861 59.072 114.826 59.9233 114.971C59.3914 114.312 58.9831 113.556 58.713 112.741C57.2507 108.354 57.5553 99.6281 65.3872 79.8757Z" fill="#F2EFEA"/>
<path d="M92.4246 98.1109C90.7894 94.0386 87.5091 87.6608 82.4471 78.3914L82.4158 78.3403C82.4158 78.3403 79.1355 72.9275 79.1322 72.9259C72.8895 61.7018 66.1676 51.9252 62.5102 42.72C61.7049 40.2368 61.0693 37.7881 60.6774 35.4448C60.6741 35.4349 60.6741 35.4267 60.6724 35.4168C60.6691 35.4003 60.6675 35.3872 60.6626 35.374C61.0183 37.6531 60.926 40.0128 61.6605 43.6438C63.0832 50.4349 66.1676 57.9391 71.8356 64.8998C78.5196 73.1021 86.1045 83.1208 89.5906 98.5012C90.0385 100.479 90.7087 104.889 90.9738 108.979C91.2933 113.911 90.3711 117.355 88.6108 120.986C88.6536 121.046 89.7124 122.456 92.7803 118.173C93.0273 117.799 93.2232 117.42 93.4027 117.043C94.4517 113.921 96.0589 107.547 92.4246 98.1109Z" fill="#FFFBF7"/>
<path d="M49.1338 23.6608C49.1338 26.2066 51.1972 28.2666 53.743 28.2666C56.2905 28.2666 58.3539 26.2066 58.3539 23.6608C58.3539 21.1149 56.2905 19.0499 53.743 19.0499C51.1972 19.0499 49.1338 21.1149 49.1338 23.6608ZM54.3589 21.4804C53.8929 21.3009 53.5998 20.8563 53.5965 20.3821C53.6442 20.3788 53.692 20.3689 53.743 20.3689C54.4989 20.3689 55.1872 20.6308 55.7421 21.0622C55.5198 21.3735 55.1576 21.5578 54.7805 21.5578C54.6388 21.5578 54.4972 21.5331 54.3589 21.4804M50.6768 22.4768C50.9584 21.7506 51.492 21.1578 52.1655 20.7872C52.2692 20.9601 52.3318 21.1659 52.3318 21.3783C52.3318 22.037 51.7999 22.5689 51.1428 22.5689C50.9765 22.5689 50.8234 22.5394 50.6768 22.4768ZM53.0349 24.8283L52.4421 23.7118C52.3762 23.585 52.3993 23.4302 52.4948 23.3265L53.3775 22.4175C53.4763 22.3137 53.631 22.2841 53.7578 22.3483L54.8957 22.9048C55.0258 22.9674 55.0983 23.1041 55.0769 23.2474L54.9007 24.5005C54.8809 24.6438 54.7706 24.7558 54.6323 24.7805L53.3857 24.9978C53.3676 25.0011 53.3462 25.0011 53.3281 25.0011C53.2062 25.0011 53.0942 24.9369 53.0349 24.8283M55.9727 23.8929C55.9727 23.3298 56.3663 22.8637 56.8866 22.7353C56.9755 23.0317 57.0348 23.3364 57.0348 23.6608C57.0348 24.1383 56.9294 24.5911 56.7417 25.0011C56.2938 24.8332 55.9727 24.4001 55.9727 23.8929M50.5533 24.438C50.6488 24.4133 50.7493 24.3968 50.8547 24.3968C51.5084 24.3968 52.0436 24.9271 52.0436 25.5858C52.0436 25.8592 51.9514 26.1028 51.7966 26.3037C51.184 25.8509 50.7378 25.1988 50.5533 24.438ZM53.4483 26.9229C53.5224 26.3383 54.0164 25.8871 54.6207 25.8871C55.0176 25.8871 55.3683 26.0864 55.5857 26.3877C55.0621 26.7434 54.4281 26.9509 53.743 26.9509C53.6409 26.9509 53.5438 26.9327 53.4483 26.9229" fill="url(#paint32_linear_414_1681)"/>
<path d="M54.2897 15.3018L55.3535 17.1463L57.1978 16.0824L56.1341 14.2381L54.2897 15.3018Z" fill="url(#paint33_linear_414_1681)"/>
<path d="M51.6714 31.835L53.2062 33.3154L54.6866 31.7872L53.1535 30.3018L51.6714 31.835Z" fill="url(#paint34_linear_414_1681)"/>
<path d="M82.6019 109.269C82.4372 109.485 82.3483 109.845 82.3088 110.308C82.2692 110.777 82.2857 111.197 82.3203 111.597C82.1474 111.408 81.8049 111.346 81.6221 111.486C81.6698 111.672 81.7324 111.841 81.7571 112.04C81.7769 112.179 81.7769 112.332 81.7785 112.48C81.4574 112.716 81.0869 113.035 81.0358 113.631C81.0276 113.727 81.0309 113.814 81.0309 113.905C80.9107 113.526 80.7015 113.139 80.5978 112.809C80.5039 112.516 80.336 112.235 80.1713 112.087C80.1235 112.039 80.061 112.024 80.0033 111.989C79.9671 112.087 79.9391 112.19 79.9029 112.279C79.8881 112.324 79.8815 112.37 79.8634 112.459C79.753 112.345 79.6641 112.241 79.5538 112.161C79.4714 112.101 79.3726 112.075 79.2722 112.055C79.0614 112.007 79.0252 112.059 79.0252 112.366C79.0252 112.467 79.0202 112.574 79.017 112.706C78.5575 112.529 78.3023 112.902 78.3122 112.912C78.4093 113.002 78.4949 113.058 78.5163 113.198C78.5378 113.33 78.4851 113.537 78.4192 113.717C78.2875 114.072 78.3747 114.677 78.63 114.912C78.8128 115.082 79.152 115.051 79.3908 114.818C79.6674 114.562 79.753 113.768 79.5982 113.521C79.5044 113.373 79.4385 113.371 79.2557 113.496C79.3035 113.6 79.399 113.7 79.3858 113.817C79.3726 113.949 79.2804 114.132 79.1866 114.236C79.0581 114.374 78.9132 114.387 78.8095 114.273C78.6283 114.071 78.625 113.72 78.793 113.391C78.8407 113.3 78.9593 113.131 79.0202 113.084C79.2804 112.895 79.5884 112.841 79.7777 112.976C79.9885 113.126 80.117 113.368 80.1433 113.727C80.1927 114.352 79.8683 115.327 79.8979 115.95C79.9194 116.526 80.331 116.753 80.8102 116.847C81.021 116.888 81.5661 116.951 81.6781 116.992C82.2478 117.196 82.7418 117.165 83.0448 116.64C83.3561 116.101 83.5257 115.085 83.8583 114.55C84.051 114.245 84.2733 114.091 84.5302 114.048C84.764 114.016 85.011 114.198 85.1559 114.487C85.1922 114.557 85.2152 114.759 85.2185 114.864C85.2119 115.233 85.0456 115.545 84.7937 115.639C84.6438 115.693 84.5203 115.62 84.4725 115.436C84.438 115.303 84.4413 115.098 84.4923 114.972C84.5335 114.865 84.6619 114.822 84.7525 114.749C84.6488 114.553 84.5895 114.522 84.438 114.613C84.186 114.764 83.9225 115.494 84.051 115.846C84.1514 116.16 84.4413 116.342 84.68 116.274C85.0209 116.179 85.3453 115.701 85.398 115.317C85.4211 115.133 85.4738 114.925 85.5495 114.815C85.6335 114.698 85.7339 114.688 85.8673 114.655C85.8772 114.652 85.8854 114.629 85.9036 114.601C85.8295 114.198 85.5528 114.263 85.3354 114.155C85.3914 114.031 85.4359 113.939 85.4853 113.845C85.6286 113.572 85.6187 113.509 85.4079 113.462C85.3107 113.435 85.2119 113.409 85.1082 113.427C84.9764 113.445 84.8464 113.503 84.6965 113.552C84.7196 113.465 84.7344 113.42 84.7426 113.378C84.7558 113.279 84.7772 113.172 84.7904 113.071C84.764 113.075 84.741 113.075 84.7179 113.071C84.6751 113.071 84.6339 113.068 84.5895 113.081C84.3787 113.14 84.2371 113.272 83.9686 113.43C83.7183 113.578 83.3956 113.952 83.1338 114.328C83.1651 114.198 83.2013 114.071 83.249 113.954C83.4186 113.521 83.3874 113.254 83.2194 113.047L83.0284 112.737C83.0481 112.691 83.0695 112.638 83.0893 112.577C83.1782 112.287 83.3149 112.062 83.4219 111.775C83.3742 111.592 83.0481 111.423 82.8324 111.499C82.9543 111.107 83.0383 110.68 83.0415 110.183C83.0383 109.728 82.9312 109.448 82.8094 109.233C82.7912 109.201 82.7649 109.188 82.7386 109.188C82.6924 109.188 82.6414 109.223 82.6019 109.269M74.2299 114.652C74.1558 114.394 74.0801 114.132 73.9994 113.85C73.6569 113.918 73.4527 114.18 73.3045 114.459C73.1595 114.738 73.0838 115.047 72.9718 115.332C72.8335 115.214 72.6952 115.089 72.5536 114.963C72.1122 115.485 72.0398 116.032 72.4399 116.671C72.7676 117.191 73.1546 117.669 73.5251 118.142C73.9467 118.683 74.3748 119.2 74.4045 119.908C74.4358 120.57 74.0801 121.148 73.5169 121.621C73.0706 121.998 72.575 122.138 71.9525 122.141C71.9327 122.141 71.88 122.326 71.8702 122.36C71.9261 122.619 72.3905 122.502 72.6244 122.443C74.3814 121.998 75.516 120.664 74.9891 119.314C74.7865 118.777 74.1015 117.924 73.8397 117.404C73.6206 116.977 73.4247 116.546 73.5185 116.042C73.6355 115.447 74.2151 114.868 74.9512 114.99C75.3695 115.057 75.7005 115.403 75.6972 115.823C75.6939 116.093 75.4633 116.45 75.1966 116.567C75.0236 116.64 74.8442 116.664 74.7108 116.539C74.5889 116.417 74.5889 116.266 74.6696 116.101C74.6828 116.075 74.6861 116.045 74.6927 116.014C74.4226 116.035 74.0834 116.404 74.1212 116.692C74.192 117.196 75.325 117.598 75.8454 117.256C76.3229 116.946 76.5798 116.221 76.4085 115.639C76.2422 115.075 75.9886 114.781 75.4534 114.608C75.3958 114.585 75.3464 114.562 75.3036 114.538C75.4106 114.268 75.4979 114.035 75.5885 113.778C75.5555 113.776 75.521 113.776 75.4864 113.776C74.8969 113.776 74.5659 114.147 74.2299 114.652M78.2578 116.725C77.9153 116.872 77.5036 117.282 77.4262 117.565C77.5942 117.521 77.7506 117.465 77.8955 117.44C78.2101 117.4 78.4225 117.555 78.4785 117.848C78.5246 118.097 78.3434 118.533 78.0915 118.746C77.6831 119.093 77.2517 119.4 76.8285 119.721C76.3361 120.085 76.1154 120.516 76.1517 121.007C76.1961 121.662 76.7478 122.13 76.8449 122.224C75.9903 123.309 74.9759 124.215 73.945 125.038C74.2283 125.12 74.5132 125.199 74.7964 125.262C75.7251 124.472 76.6308 123.632 77.5069 122.672C78.2512 122.999 79.1619 123.072 79.8765 122.522C80.336 122.166 80.5484 121.735 80.7328 121.282C80.8728 120.939 80.9798 120.592 81.0984 120.243C81.2631 119.769 81.6072 119.386 81.9679 119.245C82.2989 119.116 82.4965 119.279 82.5261 119.711C82.5278 119.769 82.5311 119.821 82.5376 119.917C82.7649 119.629 82.8489 119.337 82.9115 119.065C83.0218 118.547 82.8999 118.229 82.6826 118.021C82.424 117.779 81.9893 117.761 81.5463 118.097C81.3734 118.221 81.1527 118.471 80.993 118.715C80.7822 119.037 80.611 119.363 80.4496 119.693C79.9259 120.386 79.5011 120.837 79.2113 121.107C79.5324 120.626 79.7777 120.116 79.9918 119.601C80.1779 119.156 80.331 118.705 80.4792 118.25C80.499 118.194 80.5072 118.135 80.5303 118.031C80.4512 118.107 80.4068 118.135 80.3722 118.179C79.7563 118.925 79.0614 119.602 78.3714 120.264C78.3023 120.328 78.2496 120.401 78.1854 120.472C78.215 120.116 78.4752 119.655 78.7469 119.255C78.849 119.151 78.9445 119.047 79.0351 118.935C79.3183 118.601 79.5637 118.198 79.7185 117.807C79.9161 117.295 79.7465 116.967 79.45 116.768C79.2771 116.65 79.0845 116.584 78.8654 116.584C78.686 116.584 78.4818 116.63 78.2578 116.725M71.223 117.99C70.9233 117.972 70.3223 117.949 70.3157 117.972C71.9986 118.823 72.4943 119.994 72.7676 121.427C73.1299 121.251 73.4872 120.17 73.4247 119.602C73.3407 118.813 72.9027 118.239 72.183 117.692C72.1633 117.801 72.1501 117.863 72.1304 117.946C71.7384 117.766 71.4931 117.386 70.9941 117.305C71.0748 117.552 71.1473 117.766 71.223 117.99M86.3893 120.053C86.3613 120.039 86.3185 120.022 86.2724 119.997C85.948 119.815 84.7311 119.541 84.107 120.211C83.6772 120.687 83.1634 121.883 83.9505 122.398C84.1432 122.52 84.2832 122.639 84.5895 122.489C84.8447 122.359 85.0143 122.122 85.1329 121.85C85.1559 121.801 85.1592 121.746 85.1773 121.669C85.1279 121.707 85.1016 121.722 85.0769 121.75C84.8233 122.026 84.6751 122.099 84.5516 122.015C84.4281 121.939 84.3309 121.483 84.4709 121.231C84.8447 120.561 85.5495 120.335 85.8986 120.549C86.1753 120.72 86.2378 121.089 86.0155 121.638C85.7553 122.278 85.319 122.792 84.7937 123.009C84.3145 123.207 83.8435 123.283 83.3725 123.345C83.0794 123.38 82.7896 123.311 82.485 123.245C82.1013 123.157 81.7011 123.072 81.2697 123.192C80.1054 123.525 78.7469 124.595 77.9746 125.669C78.1294 125.677 78.2825 125.68 78.4373 125.68C78.6613 125.417 78.928 125.158 79.2409 124.921C80.1367 124.23 81.0243 123.874 81.8608 123.912C82.5212 123.946 83.1074 124.071 83.72 124.098C84.0955 124.116 84.4627 124.139 84.8529 124.07C85.4013 123.971 85.9332 123.553 86.3959 122.792C86.2477 122.761 86.111 122.733 85.9579 122.695C86.6001 122.118 87.1122 121.445 87.2802 120.552C87.0151 120.737 86.7697 120.89 86.5128 121.04C86.6825 120.682 86.8488 120.343 86.9525 120.012C87.0628 119.661 87.0497 119.378 86.9245 119.186C86.7483 119.479 86.5853 119.749 86.3893 120.053M73.6157 122.547C73.2485 122.846 73.2584 123.345 73.5613 123.739C73.6634 123.872 73.7804 123.987 73.8594 124.08C74.1772 123.818 74.4506 123.549 74.7585 123.314C75.4403 122.789 75.6379 122.179 75.5391 121.549C75.516 121.394 75.4716 121.244 75.4304 121.048C74.8145 121.598 74.1921 122.071 73.6157 122.547ZM70.5989 122.743C70.2712 122.729 69.96 122.713 69.6454 122.675C69.6421 122.701 69.9946 123.041 70.202 123.197C70.0522 123.324 69.9122 123.439 69.7706 123.553C71.2724 123.493 72.3889 124.188 73.507 124.885C73.3637 123.984 72.0875 122.771 70.5396 122.55C70.5577 122.612 70.5758 122.672 70.5989 122.743M76.593 124.669C76.3542 124.944 76.0216 125.201 75.7383 125.45C76.2719 125.542 76.7972 125.601 77.3225 125.634C77.3834 125.606 77.4443 125.573 77.5003 125.53C77.7918 125.321 78.0306 125.04 78.2726 124.774C78.4488 124.579 78.5822 124.355 78.7518 124.146C78.9099 123.946 79.0894 123.755 79.264 123.548C78.1821 123.579 77.2764 123.88 76.593 124.669M82.2067 124.63C81.2779 124.709 80.2553 125.134 79.2722 125.665C80.8234 125.608 82.3055 125.359 83.6146 125.013C83.3182 124.755 82.9444 124.62 82.4553 124.62C82.3763 124.62 82.2923 124.625 82.2067 124.63" fill="url(#paint35_linear_414_1681)"/>
<path d="M73.0591 76.9093C73.0097 76.9159 72.9685 76.9422 72.9652 76.9916V77.0081C72.9817 77.2798 73.0558 77.5943 73.3226 78.001C73.6173 78.4506 73.9401 78.7849 74.2826 79.0665C74.0471 79.1291 73.8545 79.4715 73.9253 79.6659C74.1871 79.8585 74.444 79.9837 74.6927 80.1912C75.2147 80.6194 75.4831 80.3905 75.5242 80.1979C75.5358 80.1287 75.4551 80.0034 75.3349 79.8585C75.4452 79.959 75.5704 80.0265 75.7004 80.0249C75.9293 79.9738 76.0841 79.8685 75.9112 79.5095C75.819 79.3267 75.6527 79.1175 75.5621 78.9265C75.4666 78.7256 75.4222 78.5396 75.353 78.3453C75.1076 78.3255 74.8376 78.5807 74.7997 78.8541C74.5922 78.472 74.3584 78.0834 74.0438 77.6866C73.7376 77.293 73.4411 77.0197 73.1694 76.9225C73.1497 76.9159 73.1283 76.911 73.1085 76.9093H73.0591ZM77.4526 78.6071C77.5151 79.0484 77.9762 79.7828 78.4373 80.3509C78.2381 79.8816 78.3187 79.6148 78.4999 79.3826C78.569 79.297 78.5509 78.9726 78.299 78.6647C78.2018 78.5445 77.9779 78.3189 77.8313 78.2777C77.7836 78.2629 77.7374 78.2563 77.6996 78.2563C77.5003 78.2563 77.4279 78.4309 77.4526 78.6071M80.5616 79.022C80.4545 79.1076 80.2635 79.2641 80.1565 79.8553C80.0676 79.7384 79.8189 79.5177 79.7003 79.414C79.6559 79.4897 79.5949 79.5457 79.5702 79.6346C79.4879 79.9047 79.5324 80.2291 79.7218 80.5815C80.0445 81.1924 80.3986 81.7935 80.7559 82.3912C81.4146 83.4945 82.0469 84.5534 81.6879 85.5217C81.7637 85.5167 81.7884 85.5184 81.8016 85.5167C81.8263 85.5085 81.8394 85.4772 81.8592 85.4657C82.3516 85.1215 82.7171 84.5402 82.3582 83.842C81.9893 83.1207 80.9996 82.215 80.6554 81.4756C80.4545 81.0524 80.4447 80.6968 80.5846 80.3921C80.7131 80.1188 81.0885 79.9805 81.5035 80.0266C81.6023 80.0398 81.8444 80.1599 81.9547 80.2291C82.3581 80.5025 82.5821 80.9026 82.5031 81.2418C82.4586 81.4378 82.289 81.5217 82.0568 81.441C81.8855 81.3818 81.6632 81.2336 81.5628 81.0936C81.4739 80.9717 81.5183 80.8005 81.5052 80.6506C81.2186 80.6226 81.1429 80.6655 81.1346 80.8928C81.1165 81.2732 81.5776 81.8215 82.0535 81.9351C82.4685 82.0488 82.8769 81.8643 82.9724 81.558C83.1107 81.1249 82.9625 80.6852 82.5838 80.3592C82.396 80.2044 82.205 80.0002 82.1424 79.8355C82.0782 79.6692 82.1375 79.549 82.1885 79.3794C82.1951 79.3646 82.1754 79.3415 82.1605 79.3036C81.6665 79.0961 81.5397 79.4403 81.2664 79.5984C81.1774 79.4486 81.1066 79.3333 81.0358 79.2131C80.9189 79.0056 80.8498 78.915 80.7625 78.915C80.7081 78.915 80.6456 78.9528 80.5616 79.022M76.7017 79.6428C76.6193 79.7202 76.5666 79.8816 76.6523 80.0364C76.8186 80.351 77.1562 80.6638 77.5283 80.8433C78.2381 81.1858 78.8819 81.7013 79.3595 82.36C79.4418 82.4769 79.5208 82.5955 79.5982 82.7157C79.1882 82.3089 78.7107 81.9368 78.2776 81.558C77.8116 81.1579 77.362 80.9717 76.9816 80.9899C76.8696 80.9964 76.7906 81.0986 76.7955 81.2106C76.8136 81.6025 77.0788 82.0043 77.4756 82.4851C77.8116 82.8919 78.1475 83.3595 78.5131 83.8009C78.4357 83.735 78.355 83.6741 78.2776 83.6082C77.716 83.1553 77.2286 82.6086 76.8367 81.978C76.6407 81.6618 75.7778 80.6029 75.404 81.1332C75.269 81.3242 75.4765 81.7062 75.8767 82.0141C76.2323 82.2842 76.5963 82.5115 76.9553 82.7717C76.9618 83.2064 77.1282 83.4863 77.6469 83.8634C77.9466 84.0758 78.2463 84.2388 78.5443 84.4463C78.6333 84.5089 78.7617 84.6259 78.793 84.7099C78.9445 85.1347 79.2244 85.3586 79.5291 85.4936C79.8765 85.6468 80.1894 85.6534 80.4134 85.6468C80.6176 85.6386 80.8283 85.5283 80.97 85.3372C81.1791 85.0589 81.3075 84.3278 80.9947 83.7465C80.8909 83.5555 80.6966 83.3348 80.5171 83.1833C80.3722 83.0549 80.2849 82.9726 80.2009 82.7931C80.033 82.4259 79.8189 82.0603 79.5702 81.7079C79.2146 81.2139 78.9033 81.0541 78.5608 81.092C78.2611 80.7198 77.9894 80.374 77.6732 80.0561C77.3867 79.7713 77.0491 79.5967 76.8433 79.5967C76.784 79.5967 76.7346 79.6116 76.7017 79.6428M74.281 82.7831C74.2826 83.2837 75.0302 83.3546 75.2147 83.2838C75.4419 83.1965 75.5868 83.0219 75.8108 82.9412C75.9639 82.8918 76.1978 82.9511 76.4761 82.9676C75.9886 82.6613 75.2509 82.299 74.7684 82.299C74.4786 82.299 74.2793 82.4291 74.281 82.7831M75.3497 83.6905C75.2624 83.7103 75.2015 83.7662 75.1241 83.8041C75.2311 83.9309 75.3942 84.1812 75.5341 84.2882C75.3316 84.3327 75.1521 84.3492 74.9924 84.4118C74.8639 84.4579 74.7717 84.5484 74.6745 84.639C74.472 84.8317 74.5033 84.9091 74.8343 85.1265C74.9512 85.2022 75.0582 85.2796 75.2064 85.38C74.6877 85.7489 74.9133 86.2907 74.9298 86.2874C75.0977 86.243 75.2196 86.1919 75.3859 86.2676C75.544 86.3434 75.7367 86.5476 75.8799 86.7419C76.1829 87.1437 76.6111 87.3183 77.0524 87.2096C77.3669 87.1338 77.5711 86.7402 77.4855 86.3154C77.3999 85.8362 76.8861 85.3372 76.5073 85.3323C76.2784 85.3274 76.229 85.3998 76.2373 85.6847C76.3888 85.711 76.5584 85.6748 76.6753 85.7703C76.8103 85.8807 76.9454 86.1112 76.9931 86.2874C77.0573 86.5262 76.9651 86.6859 76.7659 86.7172C76.4217 86.7748 76.0347 86.5262 75.791 86.1079C75.7251 85.991 75.6247 85.7456 75.6181 85.6435C75.5967 85.2252 75.7564 84.8597 76.0397 84.751C76.3542 84.6308 76.7066 84.6654 77.115 84.8894C77.8313 85.2862 78.6711 86.3286 79.3693 86.7419C80.0429 87.1437 80.6472 86.8193 81.021 86.35C81.0342 86.3318 81.0655 86.3186 81.0754 86.2956C81.077 86.2841 81.0753 86.2561 81.0869 86.1804C80.0988 86.4785 79.0828 85.7786 78.0223 85.0524C77.4526 84.6572 76.8729 84.2636 76.2867 83.9013C76.0314 83.7448 75.7877 83.6642 75.5654 83.6642C75.4913 83.6642 75.4189 83.674 75.3497 83.6905ZM83.6426 84.2026C83.114 84.476 82.8802 85.2171 83.3676 86.1672C83.4878 86.3945 83.6327 86.6348 83.799 86.8439C84.4446 87.6607 85.1691 88.3227 85.8854 88.9995C86.3202 89.4178 86.7286 89.8707 87.1419 90.3285C88.2057 91.5125 88.0097 92.9171 88.0393 92.983C88.5136 92.2107 88.9286 91.4153 88.5383 90.1835C88.2897 89.4145 87.7676 88.8909 87.2292 88.4232C86.8208 88.0642 86.3926 87.7596 85.9678 87.4286C85.3898 86.979 85.0209 86.322 84.9978 85.7605C84.9764 85.2483 85.2943 85.0539 85.9052 85.2236C85.9842 85.245 86.0304 85.2565 86.1687 85.296C85.9447 84.8811 85.5429 84.5995 85.1922 84.3854C84.8151 84.1565 84.4923 84.066 84.2107 84.066C83.9983 84.066 83.8106 84.1186 83.6426 84.2026M82.7649 87.4385C83.5043 88.6373 84.1119 89.9118 84.7014 91.1748C84.9995 91.8006 85.426 92.377 85.8163 92.927C85.9612 93.1279 86.2642 93.1839 86.4931 93.2283C86.6528 93.2596 86.7648 93.3057 86.8669 93.4984C88.1859 95.9158 89.2217 98.4419 90.0516 100.877C90.0763 100.96 90.0961 101.085 90.0648 101.156C89.7009 101.885 89.9216 102.407 90.3003 102.881C90.6 103.26 91.1517 104.028 91.3674 104.009C91.4118 103.553 91.4629 103.104 91.4547 102.656C91.453 102.252 91.4365 101.827 91.3196 101.45C91.2505 101.221 90.9985 101.088 90.8289 100.907C90.707 100.779 90.5292 100.68 90.4732 100.52C89.5955 98.1405 88.5449 95.6605 87.2193 93.3057C87.0876 93.062 87.0563 92.8941 87.1386 92.6569C87.2769 92.2436 87.1468 91.7842 86.9031 91.3527C86.2757 90.2577 85.4309 89.4113 84.5516 88.634C84.023 88.168 83.473 87.7463 82.9147 87.3248C82.8456 87.2704 82.7698 87.2342 82.6381 87.1519C82.7023 87.2935 82.7237 87.3726 82.7649 87.4385M80.3755 88.0263C79.9194 88.3639 79.697 88.8678 79.753 89.6385C79.7958 90.1753 80.1647 90.9361 80.5204 91.1766C80.5402 90.9279 80.5352 90.6858 80.5715 90.4783C80.6653 90.0304 80.9798 89.8081 81.408 89.8707C81.7769 89.9299 82.2923 90.3861 82.4652 90.8323C82.755 91.5536 82.9806 92.2913 83.2177 93.0241C83.4911 93.8705 83.9802 94.3926 84.6784 94.5655C85.2465 94.7071 85.7965 94.5984 86.3515 94.3498C86.116 94.2065 85.9332 94.0896 85.7422 93.9809C85.1395 93.6302 84.741 93.0176 84.4347 92.293C84.0526 91.3906 83.6953 90.4668 83.1799 89.6302C82.8489 89.0802 82.4092 88.5532 81.9399 88.1564C81.6237 87.8913 81.3289 87.7826 81.0589 87.7826C80.8069 87.7826 80.5764 87.8781 80.3755 88.0263M75.7367 93.8278C75.3629 93.7652 74.9825 93.7059 74.5708 93.64C74.4572 94.1093 74.668 94.5276 74.938 94.8866C75.2064 95.2357 75.5572 95.5123 75.8569 95.8235C75.6198 95.9306 75.376 96.031 75.1373 96.1331C75.5391 97.0009 76.1978 97.4258 77.2517 97.3039C78.1113 97.2018 78.9494 96.9944 79.781 96.8067C80.7279 96.5976 81.6418 96.3654 82.5656 96.7523C83.4351 97.1113 83.9588 97.9051 84.2288 98.8997C84.4413 99.6918 84.3243 100.405 83.9588 101.192C83.9472 101.215 84.1234 101.385 84.1926 101.427C84.2996 101.108 84.629 100.614 84.6965 100.283C85.1806 97.7963 83.5125 96.0574 81.4673 95.9158C80.662 95.8499 79.8452 95.9471 79.0219 95.9685C78.3467 95.9899 77.6749 95.9784 77.0936 95.5601C76.402 95.0529 76.0051 93.9743 76.5996 93.1164C76.9404 92.6273 77.5794 92.4198 78.1096 92.6701C78.4587 92.8364 78.7782 93.342 78.765 93.7504C78.7584 94.0171 78.6827 94.2576 78.4406 94.3498C78.2101 94.4338 78.019 94.3448 77.8544 94.1389C77.828 94.1093 77.7918 94.0879 77.7605 94.0615C77.6222 94.4139 77.8939 95.0595 78.2875 95.1846C78.9692 95.4003 79.6559 94.5227 79.5291 93.6614C79.4187 92.8726 79.0515 92.2107 78.3583 91.9011C77.5975 91.5635 76.952 91.6837 76.4118 92.2502C76.3476 92.3128 76.2883 92.3589 76.234 92.405C75.9491 92.1069 75.7021 91.855 75.4304 91.5849C74.9825 92.3852 75.2641 93.062 75.7367 93.8278M79.6015 95.1253C80.3772 95.1006 81.184 94.1061 80.8185 93.2218C80.555 92.5615 79.7596 92.018 79.1421 91.6393C80.0988 92.7344 80.4858 93.9232 79.6015 95.1253ZM89.5082 96.5037C89.7816 96.9631 89.9627 97.495 90.1686 97.9956C90.9129 97.5428 91.4398 96.6437 91.1336 95.6705C90.9771 95.1732 90.707 94.7137 90.4551 94.2608C90.2624 93.9216 90.0204 93.6285 89.8129 93.3008C89.6087 92.9863 89.4308 92.652 89.225 92.3144C88.7524 93.8113 88.7409 95.1912 89.5082 96.5037M86.6413 98.3777C86.8833 99.0248 87.5783 99.2521 88.2682 99.0248C88.4988 98.9458 88.7178 98.842 88.8808 98.7778C88.6684 98.2162 88.4263 97.7189 88.2468 97.1837C87.8467 95.9981 87.0974 95.4366 86.1753 95.2702C85.9497 95.2324 85.7158 95.2192 85.4293 95.183C85.9019 96.288 86.2559 97.36 86.6413 98.3777M78.4505 98.2755C78.5921 98.3579 78.6711 98.4007 78.7765 98.4666C78.3467 98.9211 77.7012 99.0726 77.3488 99.7164C77.7325 99.723 78.0651 99.7263 78.406 99.7296C78.243 100.13 77.9268 100.945 77.9532 100.966C79.9292 99.0627 81.7834 98.9409 83.8945 99.2554C83.8237 98.6741 82.4965 97.6663 81.6813 97.4818C81.4212 97.4225 81.1676 97.3929 80.9189 97.3929C80.0824 97.3929 79.2952 97.7173 78.4505 98.2755ZM90.9524 98.8865C91.481 98.679 92.0063 98.4863 92.525 98.3777C92.4905 98.2887 92.4592 98.1982 92.4246 98.1109C92.3357 97.8886 92.2385 97.6563 92.1413 97.4192C91.6243 97.8375 91.1879 98.3728 90.9524 98.8865ZM91.0561 100.196C91.0265 100.206 91.0051 100.248 90.9524 100.327C91.7461 100.469 92.0409 101.167 92.1891 101.976C92.6485 101.864 92.856 101.469 93.0569 101.111C93.2298 101.269 93.3912 101.457 93.5756 101.592C93.4159 101.011 93.2364 100.415 93.0339 99.8054C92.9285 99.7938 92.8214 99.7856 92.7177 99.7856C92.1578 99.7856 91.6062 99.9569 91.0561 100.196M84.1547 102.98C84.2502 102.984 84.3458 102.985 84.4528 102.987C84.2782 103.427 84.1053 103.85 83.9061 104.26C83.9374 104.28 84.5796 103.958 84.8941 103.748C84.9979 104.018 85.0884 104.261 85.179 104.508C85.813 102.422 87.3 101.23 88.7935 100.029C88.6832 100.01 88.5663 100.001 88.4444 100.001C87.104 100.001 85.1098 101.138 84.1547 102.98M89.0076 101.567C88.4906 102.012 88.0097 102.503 87.7495 103.175C87.4943 103.82 87.575 104.337 87.9883 104.777C88.507 104.304 88.894 103.828 88.7425 103.229C89.1048 103.209 89.4506 103.184 89.8886 103.153C89.5642 102.44 89.3633 101.809 89.8063 101.049C89.7816 101.029 89.7602 101.007 89.7338 100.991C89.5017 101.187 89.2464 101.366 89.0076 101.567M92.0656 102.486C92.3324 102.941 92.5217 103.341 92.7902 103.672C92.9762 103.917 93.2825 104.079 93.6613 103.917C93.793 103.865 93.9709 103.726 94.0614 103.59C94.0252 103.413 93.9857 103.237 93.9445 103.056C93.6777 103.087 93.4719 102.931 93.3023 102.807C93.0191 102.605 92.7161 102.475 92.2961 102.475C92.2237 102.475 92.1463 102.478 92.0656 102.486M89.3287 104.639C89.2217 104.991 89.0735 105.281 88.6025 105.381C88.7903 105.655 89.0768 105.706 89.4078 105.668C89.719 105.63 89.9364 105.409 90.0714 105.167C90.2772 104.8 90.3003 104.359 90.2509 103.978C90.2246 103.769 90.1834 103.522 90.1159 103.385C89.6877 103.777 89.4704 104.197 89.3287 104.639M92.5728 105.238C92.94 105.447 93.4768 105.205 93.7716 104.601C93.2825 104.736 93.1063 104.428 92.856 104.174C92.6354 103.953 92.3521 103.809 92.0689 103.609C91.9223 104.224 92.1743 105.017 92.5728 105.238M90.5177 105.139C90.5292 105.472 90.5341 105.771 90.1933 106.079C90.5177 106.175 90.8009 106.094 91.0808 105.872C91.3328 105.678 91.4085 105.437 91.3954 105.165C91.3707 104.693 91.0249 104.128 90.5803 103.919C90.5704 104.365 90.4996 104.77 90.5177 105.139M92.0261 106.531C92.0689 106.596 92.1232 106.633 92.1907 106.639H92.2401C92.2978 106.634 92.3653 106.613 92.4443 106.573C92.6699 106.46 92.7457 106.331 92.7111 106.157C92.6189 105.664 92.2583 105.358 91.8614 105.063C91.7857 105.623 91.7642 106.127 92.0261 106.531" fill="url(#paint36_linear_414_1681)"/>
<path d="M58.769 72.9099L59.4408 72.5262L57.6113 69.3365L56.9395 69.7202L57.6426 70.9503L54.3195 72.8589L54.7378 73.59L58.0625 71.6798L58.769 72.9099ZM61.7677 76.5772L58.4775 77.0992L60.5754 74.5007L59.9233 73.3694L55.93 75.6632L56.3467 76.3927L59.403 74.639L59.4145 74.6587L57.0037 77.5356L57.3462 78.1317L61.0448 77.5043L61.0563 77.5191L58.0033 79.2745L58.4215 80.004L62.4165 77.7118L61.7677 76.5772Z" fill="#BCBAB7"/>
<path d="M64.456 170.816C63.5408 170.816 63.1496 169.596 63.1496 166.238C63.1496 164.495 63.9978 164.06 66.4168 164.06C67.052 164.06 67.5593 164.064 68.0462 164.073C67.2746 166.447 66.2397 170.816 64.456 170.816ZM59.551 168.527C59.551 169.416 59.636 170.174 59.7903 170.816H46.9979C45.2968 170.816 44.2093 170.423 44.2093 168.853V164.495H48.2385C48.5675 163.515 48.7841 162.619 48.8929 161.663H44.2105C44.2296 160.319 44.3277 159.118 44.4258 157.739C42.9005 158.284 41.703 158.915 40.7208 160.006V161.663H38.6499C38.4765 162.84 38.4765 163.732 38.4334 164.495H40.7208V169.072C40.7208 172.276 42.6612 173.649 45.3195 173.649H62.7118C64.8424 173.649 66.479 171.903 68.0522 167.95V173.649H71.5383V161.663C69.9699 161.532 68.5307 161.443 66.9623 161.443C62.6472 161.443 59.551 163.232 59.551 168.527ZM77.8597 167.198V166.022C77.8597 164.495 77.7496 163.187 77.5331 161.663H74.1547C74.2635 163.187 74.3724 164.495 74.3724 166.022V173.649H77.8597C77.8597 169.376 79.2319 164.517 82.8711 165.041C82.8711 164.277 82.7623 162.533 82.5457 161.443C79.8887 161.674 78.5871 164.015 77.8597 167.198ZM29.8234 170.816C28.9082 170.816 28.5158 169.596 28.5158 166.238C28.5158 164.495 29.3664 164.06 31.7842 164.06C32.4195 164.06 32.9267 164.064 33.416 164.073C32.642 166.447 31.6095 170.816 29.8234 170.816ZM24.9209 168.527C24.9209 172.146 26.2272 173.867 27.9715 173.867C30.1081 173.867 31.8141 171.976 33.4208 167.944V173.649H36.9081V161.663C35.3385 161.532 33.9005 161.443 32.3297 161.443C28.0146 161.443 24.9209 163.232 24.9209 168.527M138.557 162.97C138.557 159.985 136.486 158.175 132.781 158.175C130.733 158.175 129.23 158.61 128.314 159.048C127.791 159.787 127.552 160.639 127.224 161.988C128.619 161.443 129.969 161.009 132.019 161.009C133.653 161.009 134.962 161.706 134.962 163.624C134.962 165.693 133.676 167.198 126.678 171.251C126.678 171.687 126.701 172.558 126.897 173.649H138.447C138.776 172.668 138.992 171.797 139.101 170.816H129.271C134.182 169.137 138.557 167.383 138.557 162.97M16.708 170.302L16.5286 170.205C14.4374 169.095 11.6248 167.396 11.6248 164.3C11.6248 161.465 13.4576 160.136 15.6577 160.136C18.0994 160.136 19.5804 161.857 19.5804 164.867C19.5804 166.939 18.4391 168.767 16.708 170.302M23.3943 173.867L17.6531 170.806C20.9024 169.625 23.2855 167.296 23.2855 163.994C23.2855 159.547 19.9501 157.304 15.6577 157.304C11.7134 157.304 7.92099 159.832 7.92099 164.714C7.92099 168.833 11.059 171.295 14.502 173.104L25.5729 178.88C25.5729 176.33 25.269 174.868 23.3943 173.867M104.992 172.558C104.014 172.558 100.961 170.575 100.961 165.259C100.961 162.642 102.487 161.009 104.992 161.009C107.499 161.009 109.027 162.642 109.027 165.259C109.027 170.575 105.975 172.558 104.992 172.558M104.992 158.175C100.635 158.175 97.3647 160.79 97.3647 165.041C97.3647 170.598 102.705 173.867 104.992 173.867C107.282 173.867 112.62 170.598 112.62 165.041C112.62 160.79 109.353 158.175 104.992 158.175ZM105.042 164.117C104.279 164.66 103.625 165.295 103.048 166.022C103.625 166.748 104.279 167.381 105.042 167.926C105.804 167.381 106.456 166.748 107.037 166.022C106.456 165.295 105.804 164.66 105.042 164.117ZM125.045 162.97C125.045 159.985 122.973 158.175 119.267 158.175C117.22 158.175 115.716 158.61 114.8 159.048C114.278 159.787 114.038 160.639 113.71 161.988C115.106 161.443 116.458 161.009 118.506 161.009C120.14 161.009 121.449 161.706 121.449 163.624C121.449 165.693 120.163 167.198 113.167 171.251C113.167 171.687 113.189 172.558 113.385 173.649H124.937C125.262 172.668 125.481 171.797 125.59 170.816H115.758C120.67 169.137 125.045 167.383 125.045 162.97M95.6204 162.97C95.6204 159.985 93.552 158.175 89.8469 158.175C87.7976 158.175 86.2938 158.61 85.3798 159.048C84.8558 159.787 84.6154 160.639 84.29 161.988C85.6837 161.443 87.0356 161.009 89.0849 161.009C90.7179 161.009 92.0255 161.706 92.0255 163.624C92.0255 165.693 90.7394 167.198 83.7444 171.251C83.7444 171.687 83.766 172.558 83.9634 173.649H95.514C95.8418 172.668 96.0583 171.797 96.166 170.816H86.3357C91.2454 169.137 95.6204 167.383 95.6204 162.97Z" fill="#9A1032"/>
<path d="M125.366 153.041C124.871 153.165 124.328 153.282 123.739 153.394C123.144 153.505 122.411 153.559 121.534 153.559C120.67 153.559 119.795 153.443 118.913 153.208C118.03 152.975 117.234 152.598 116.526 152.079C115.816 151.561 115.235 150.878 114.785 150.033C114.332 149.188 114.108 148.152 114.108 146.931C114.108 145.809 114.295 144.823 114.664 143.978C115.034 143.133 115.551 142.43 116.21 141.866C116.87 141.305 117.655 140.886 118.562 140.608C119.469 140.33 120.453 140.192 121.515 140.192C122.182 140.192 122.829 140.255 123.459 140.386C124.089 140.514 124.718 140.672 125.346 140.857L125.071 143.654C124.515 143.344 123.962 143.116 123.414 142.969C122.863 142.82 122.292 142.746 121.701 142.746C121.083 142.746 120.529 142.85 120.035 143.062C119.541 143.27 119.118 143.561 118.765 143.931C118.412 144.303 118.141 144.744 117.949 145.256C117.758 145.767 117.665 146.326 117.665 146.931C117.665 147.56 117.771 148.128 117.989 148.636C118.203 149.141 118.5 149.569 118.877 149.922C119.253 150.272 119.707 150.541 120.237 150.727C120.768 150.911 121.347 151.004 121.979 151.004C122.546 151.004 123.108 150.94 123.663 150.809C124.219 150.681 124.73 150.524 125.199 150.338L125.366 153.041Z" fill="#9A1032"/>
<path d="M137.772 148.43C137.772 149.32 137.635 150.083 137.364 150.727C137.092 151.368 136.708 151.9 136.208 152.318C135.707 152.739 135.109 153.05 134.411 153.254C133.714 153.46 132.945 153.559 132.105 153.559C131.266 153.559 130.498 153.46 129.799 153.254C129.103 153.05 128.505 152.739 128.004 152.318C127.504 151.9 127.12 151.368 126.848 150.727C126.577 150.083 126.44 149.32 126.44 148.43V140.412H129.884V147.857C129.884 148.289 129.918 148.692 129.986 149.069C130.053 149.447 130.173 149.778 130.338 150.069C130.504 150.359 130.73 150.587 131.014 150.753C131.296 150.921 131.662 151.005 132.105 151.005C132.55 151.005 132.915 150.921 133.199 150.753C133.484 150.587 133.708 150.359 133.875 150.069C134.04 149.778 134.159 149.447 134.227 149.069C134.293 148.692 134.329 148.289 134.329 147.857V140.412H137.772V148.43Z" fill="#9A1032"/>
<path d="M142.939 146.375H143.827C144.123 146.375 144.401 146.346 144.661 146.293C144.919 146.235 145.145 146.137 145.335 145.996C145.527 145.855 145.679 145.668 145.79 145.44C145.9 145.212 145.956 144.931 145.956 144.599C145.956 144.264 145.9 143.986 145.79 143.766C145.679 143.543 145.527 143.364 145.335 143.228C145.145 143.092 144.919 142.996 144.661 142.942C144.401 142.884 144.123 142.857 143.827 142.857H142.939V146.375ZM139.494 140.413H143.604C145.593 140.413 147.056 140.756 147.995 141.44C148.932 142.127 149.402 143.196 149.402 144.654C149.402 145.962 148.951 146.984 148.05 147.717C147.147 148.453 145.888 148.819 144.271 148.819H142.939V153.337H139.494V140.413Z" fill="#9A1032"/>
<path d="M42.2852 140.412H45.8036L47.4713 150.338H47.5084L49.2467 140.412H53.6169L55.4317 150.338H55.47L57.1544 140.412H60.5065L57.6162 153.338H53.1922L51.3594 143.413H51.3211L49.6187 153.338H45.1552L42.2852 140.412Z" fill="#9A1032"/>
<path d="M64.1908 146.875C64.1908 147.407 64.2458 147.922 64.3583 148.422C64.4683 148.921 64.6394 149.362 64.8751 149.745C65.1096 150.128 65.4122 150.433 65.7843 150.661C66.154 150.89 66.5966 151.005 67.117 151.005C67.6338 151.005 68.0812 150.89 68.4509 150.661C68.8206 150.433 69.122 150.128 69.3553 149.745C69.591 149.362 69.7645 148.921 69.8757 148.422C69.9858 147.922 70.042 147.407 70.042 146.875C70.042 146.321 69.9858 145.792 69.8757 145.294C69.7645 144.793 69.591 144.354 69.3553 143.976C69.122 143.602 68.8206 143.302 68.4509 143.079C68.0812 142.857 67.6338 142.748 67.117 142.748C66.5966 142.748 66.154 142.857 65.7843 143.079C65.4122 143.302 65.1096 143.602 64.8751 143.976C64.6394 144.354 64.4683 144.793 64.3583 145.294C64.2458 145.792 64.1908 146.321 64.1908 146.875ZM60.6341 146.875C60.6341 145.838 60.774 144.906 61.0516 144.079C61.328 143.253 61.7395 142.552 62.2826 141.979C62.8258 141.404 63.5029 140.962 64.3092 140.654C65.1179 140.346 66.0535 140.19 67.117 140.19C68.1769 140.19 69.1125 140.346 69.9212 140.654C70.7299 140.962 71.4058 141.404 71.949 141.979C72.4921 142.552 72.9025 143.253 73.1812 144.079C73.4587 144.906 73.5963 145.838 73.5963 146.875C73.5963 147.899 73.4587 148.825 73.1812 149.653C72.9025 150.481 72.4873 151.184 71.9394 151.763C71.3903 152.344 70.712 152.789 69.9021 153.096C69.0957 153.406 68.1638 153.56 67.117 153.56C66.0535 153.56 65.1227 153.406 64.3188 153.096C63.5196 152.789 62.8425 152.344 62.2922 151.763C61.7431 151.184 61.328 150.481 61.0516 149.653C60.774 148.825 60.6341 147.899 60.6341 146.875Z" fill="#9A1032"/>
<path d="M78.3374 145.783H79.243C79.5158 145.783 79.8029 145.774 80.1044 145.754C80.4082 145.736 80.6798 145.678 80.9203 145.58C81.1607 145.479 81.3617 145.332 81.5208 145.135C81.6823 144.936 81.7613 144.654 81.7613 144.282C81.7613 143.986 81.6919 143.743 81.5483 143.552C81.4072 143.361 81.2229 143.215 80.9944 143.116C80.7659 143.018 80.5003 142.951 80.1965 142.913C79.895 142.875 79.578 142.857 79.243 142.857H78.3374V145.783ZM74.8943 140.413H81.0411C81.607 140.413 82.1465 140.479 82.6514 140.607C83.1574 140.737 83.6024 140.939 83.9853 141.211C84.3657 141.482 84.666 141.82 84.8825 142.226C85.099 142.636 85.2067 143.116 85.2067 143.672C85.2067 144.535 85.0033 145.246 84.5942 145.802C84.1886 146.356 83.5642 146.733 82.7255 146.932V146.967C82.9971 147.04 83.216 147.158 83.3835 147.32C83.5498 147.481 83.6946 147.68 83.8178 147.921C83.9422 148.163 84.0546 148.44 84.1599 148.755C84.2664 149.069 84.398 149.425 84.5607 149.821L85.818 153.337H82.2278L81.4849 151.005C81.3115 150.449 81.1476 149.992 80.9944 149.634C80.8401 149.278 80.6714 148.993 80.4944 148.783C80.3149 148.572 80.1115 148.428 79.8818 148.348C79.6533 148.267 79.3806 148.227 79.06 148.227H78.3374V153.337H74.8943V140.413Z" fill="#9A1032"/>
<path d="M87.3 140.412H90.743V150.782H96.0763V153.338H87.3V140.412Z" fill="#9A1032"/>
<path d="M100.724 150.782H102.057C103.353 150.782 104.347 150.455 105.037 149.8C105.729 149.146 106.076 148.173 106.076 146.875C106.076 145.579 105.721 144.604 105.018 143.95C104.315 143.295 103.329 142.967 102.057 142.967H100.724V150.782ZM97.2789 140.412H101.982C103.106 140.412 104.137 140.513 105.074 140.709C106.013 140.906 106.817 141.249 107.492 141.738C108.163 142.224 108.69 142.882 109.065 143.709C109.442 144.535 109.631 145.573 109.631 146.82C109.631 148.03 109.438 149.048 109.056 149.875C108.673 150.703 108.143 151.372 107.463 151.884C106.785 152.396 105.976 152.765 105.037 152.994C104.099 153.222 103.081 153.337 101.982 153.337H97.2789V140.412Z" fill="#9A1032"/>
<path fill-rule="evenodd" clip-rule="evenodd" d="M0.598251 140.412V153.338H4.62032V148.67H7.51663L8.54667 145.845H4.62032V143.227H9.49656L10.523 140.412H0.598251Z" fill="#9A1032"/>
<path fill-rule="evenodd" clip-rule="evenodd" d="M11.7545 153.337H15.7766V140.411H11.7545V153.337Z" fill="#9A1032"/>
<path fill-rule="evenodd" clip-rule="evenodd" d="M18.5446 140.412V153.338H22.5691V148.67H25.463L26.4931 145.845H22.5691V143.227H27.443L28.4706 140.412H18.5446Z" fill="#9A1032"/>
<path fill-rule="evenodd" clip-rule="evenodd" d="M34.7352 149.117L33.1261 143.734L31.5733 149.117H34.7352ZM39.9883 153.338H35.9255L35.4004 151.601H30.8543L30.3506 153.338H26.3908L31.0995 140.413H35.2819L39.9883 153.338Z" fill="#9A1032"/>
</g>
<defs>
<linearGradient id="paint0_linear_414_1681" x1="63.9084" y1="70.0936" x2="76.0457" y2="40.5635" gradientUnits="userSpaceOnUse">
<stop stop-color="white"/>
<stop offset="0.573743" stop-color="white" stop-opacity="0"/>
<stop offset="1" stop-color="white" stop-opacity="0"/>
</linearGradient>
<linearGradient id="paint1_linear_414_1681" x1="63.9084" y1="70.0935" x2="76.0458" y2="40.5634" gradientUnits="userSpaceOnUse">
<stop stop-color="#858380"/>
<stop offset="1" stop-color="#A19F9C"/>
</linearGradient>
<linearGradient id="paint2_linear_414_1681" x1="70.3802" y1="-0.245794" x2="86.8187" y2="43.1842" gradientUnits="userSpaceOnUse">
<stop stop-color="white"/>
<stop offset="0.573743" stop-color="white" stop-opacity="0"/>
<stop offset="1" stop-color="white" stop-opacity="0"/>
</linearGradient>
<linearGradient id="paint3_linear_414_1681" x1="70.3803" y1="-0.245891" x2="86.8188" y2="43.1841" gradientUnits="userSpaceOnUse">
<stop stop-color="#9D9B98"/>
<stop offset="1" stop-color="#797775"/>
</linearGradient>
<linearGradient id="paint4_linear_414_1681" x1="87.1736" y1="33.8147" x2="39.1673" y2="116.67" gradientUnits="userSpaceOnUse">
<stop stop-color="white" stop-opacity="0.8"/>
<stop offset="0.159843" stop-color="white" stop-opacity="0.8"/>
<stop offset="0.842522" stop-color="white"/>
<stop offset="1" stop-color="white"/>
</linearGradient>
<linearGradient id="paint5_linear_414_1681" x1="87.1737" y1="33.8149" x2="39.1674" y2="116.67" gradientUnits="userSpaceOnUse">
<stop stop-color="#797775"/>
<stop offset="0.842522" stop-color="#F2EFEA"/>
<stop offset="1" stop-color="#F2EFEA"/>
</linearGradient>
<linearGradient id="paint6_linear_414_1681" x1="65.2818" y1="113.378" x2="65.2818" y2="17.5147" gradientUnits="userSpaceOnUse">
<stop stop-color="white"/>
<stop offset="0.0186554" stop-color="white"/>
<stop offset="1" stop-color="white" stop-opacity="0.8"/>
</linearGradient>
<linearGradient id="paint7_linear_414_1681" x1="65.2818" y1="113.378" x2="65.2818" y2="17.5147" gradientUnits="userSpaceOnUse">
<stop stop-color="#9D9B98"/>
<stop offset="1" stop-color="#F2EFEA"/>
</linearGradient>
<linearGradient id="paint8_linear_414_1681" x1="98.1194" y1="75.4767" x2="73.1178" y2="5.96356" gradientUnits="userSpaceOnUse">
<stop stop-color="white"/>
<stop offset="0.0186554" stop-color="white"/>
<stop offset="1" stop-color="white" stop-opacity="0.8"/>
</linearGradient>
<linearGradient id="paint9_linear_414_1681" x1="98.1194" y1="75.4769" x2="73.1177" y2="5.96367" gradientUnits="userSpaceOnUse">
<stop stop-color="#9D9B98"/>
<stop offset="1" stop-color="#F2EFEA"/>
</linearGradient>
<linearGradient id="paint10_linear_414_1681" x1="96.5245" y1="116.838" x2="58.531" y2="11.2029" gradientUnits="userSpaceOnUse">
<stop stop-color="white"/>
<stop offset="0.0186554" stop-color="white"/>
<stop offset="1" stop-color="white" stop-opacity="0"/>
</linearGradient>
<linearGradient id="paint11_linear_414_1681" x1="96.5245" y1="116.838" x2="58.531" y2="11.2029" gradientUnits="userSpaceOnUse">
<stop stop-color="#44433E"/>
<stop offset="1" stop-color="#F2EFEA"/>
</linearGradient>
<linearGradient id="paint12_linear_414_1681" x1="73.1904" y1="15.2778" x2="73.1904" y2="62.4334" gradientUnits="userSpaceOnUse">
<stop stop-color="white" stop-opacity="0.2"/>
<stop offset="1" stop-color="white" stop-opacity="0.8"/>
</linearGradient>
<linearGradient id="paint13_linear_414_1681" x1="73.1902" y1="15.2777" x2="73.1902" y2="62.4333" gradientUnits="userSpaceOnUse">
<stop stop-color="#F2EFEA"/>
<stop offset="1" stop-color="#F2EFEA"/>
</linearGradient>
<linearGradient id="paint14_linear_414_1681" x1="58.4305" y1="13.0796" x2="73.8533" y2="3.08867" gradientUnits="userSpaceOnUse">
<stop stop-color="#FAF6F2"/>
<stop offset="1" stop-color="#FFFBF7"/>
</linearGradient>
<linearGradient id="paint15_linear_414_1681" x1="55.4273" y1="4.86412" x2="72.974" y2="4.86412" gradientUnits="userSpaceOnUse">
<stop stop-color="white" stop-opacity="0.8"/>
<stop offset="0.0906694" stop-color="white" stop-opacity="0.8"/>
<stop offset="1" stop-color="white" stop-opacity="0"/>
</linearGradient>
<linearGradient id="paint16_linear_414_1681" x1="55.4273" y1="4.86443" x2="72.974" y2="4.86443" gradientUnits="userSpaceOnUse">
<stop stop-color="#B0AEAB"/>
<stop offset="1" stop-color="#FAF6F2"/>
</linearGradient>
<linearGradient id="paint17_linear_414_1681" x1="100.471" y1="14.9505" x2="76.4555" y2="1.92098" gradientUnits="userSpaceOnUse">
<stop stop-color="white" stop-opacity="0.8"/>
<stop offset="0.0477852" stop-color="white" stop-opacity="0.8"/>
<stop offset="0.527027" stop-color="white" stop-opacity="0.602228"/>
<stop offset="0.537629" stop-color="white" stop-opacity="0.602228"/>
<stop offset="1" stop-color="white" stop-opacity="0.4"/>
</linearGradient>
<linearGradient id="paint18_linear_414_1681" x1="100.471" y1="14.9504" x2="76.4556" y2="1.92083" gradientUnits="userSpaceOnUse">
<stop stop-color="#FFFBF7"/>
<stop offset="0.527027" stop-color="#FFFBF7"/>
<stop offset="1" stop-color="#B4B2AF"/>
</linearGradient>
<linearGradient id="paint19_linear_414_1681" x1="60.443" y1="2.65222" x2="89.7214" y2="2.65222" gradientUnits="userSpaceOnUse">
<stop stop-color="white"/>
<stop offset="0.0906694" stop-color="white"/>
<stop offset="1" stop-color="white" stop-opacity="0"/>
</linearGradient>
<linearGradient id="paint20_linear_414_1681" x1="60.4431" y1="2.65218" x2="89.7215" y2="2.65218" gradientUnits="userSpaceOnUse">
<stop stop-color="#CCC9C6"/>
<stop offset="1" stop-color="#FAF6F2"/>
</linearGradient>
<linearGradient id="paint21_linear_414_1681" x1="54.2012" y1="7.04198" x2="51.0667" y2="61.3723" gradientUnits="userSpaceOnUse">
<stop stop-color="white" stop-opacity="0.8"/>
<stop offset="0.0906694" stop-color="white" stop-opacity="0.8"/>
<stop offset="1" stop-color="white" stop-opacity="0"/>
</linearGradient>
<linearGradient id="paint22_linear_414_1681" x1="54.2012" y1="7.04195" x2="51.0667" y2="61.3722" gradientUnits="userSpaceOnUse">
<stop stop-color="#FFFBF7"/>
<stop offset="1" stop-color="#FFFBF7"/>
</linearGradient>
<linearGradient id="paint23_linear_414_1681" x1="62.4345" y1="86.4872" x2="94.4902" y2="86.4872" gradientUnits="userSpaceOnUse">
<stop stop-color="white"/>
<stop offset="0.0906694" stop-color="white"/>
<stop offset="1" stop-color="white" stop-opacity="0"/>
</linearGradient>
<linearGradient id="paint24_linear_414_1681" x1="62.4344" y1="86.4873" x2="94.4902" y2="86.4873" gradientUnits="userSpaceOnUse">
<stop stop-color="#DAD7D3"/>
<stop offset="1" stop-color="#FAF6F2"/>
</linearGradient>
<linearGradient id="paint25_linear_414_1681" x1="61.6491" y1="40.6321" x2="60.5751" y2="20.3343" gradientUnits="userSpaceOnUse">
<stop stop-color="white"/>
<stop offset="0.0906694" stop-color="white"/>
<stop offset="1" stop-color="white" stop-opacity="0"/>
</linearGradient>
<linearGradient id="paint26_linear_414_1681" x1="61.649" y1="40.6321" x2="60.5751" y2="20.3343" gradientUnits="userSpaceOnUse">
<stop stop-color="#BBB8B5"/>
<stop offset="1" stop-color="#FAF6F2"/>
</linearGradient>
<linearGradient id="paint27_linear_414_1681" x1="73.7111" y1="11.2027" x2="73.7111" y2="120.329" gradientUnits="userSpaceOnUse">
<stop stop-color="white" stop-opacity="0"/>
<stop offset="0.0225393" stop-color="white" stop-opacity="0"/>
<stop offset="0.512418" stop-color="white"/>
<stop offset="0.982748" stop-color="white" stop-opacity="0"/>
<stop offset="1" stop-color="white" stop-opacity="0"/>
</linearGradient>
<linearGradient id="paint28_linear_414_1681" x1="73.711" y1="11.2028" x2="73.711" y2="120.33" gradientUnits="userSpaceOnUse">
<stop stop-color="#DAD7D3"/>
<stop offset="0.512418" stop-color="#FFFBF7"/>
<stop offset="1" stop-color="#EEEBE7"/>
</linearGradient>
<linearGradient id="paint29_linear_414_1681" x1="73.711" y1="4.80084" x2="73.711" y2="113.927" gradientUnits="userSpaceOnUse">
<stop stop-color="white" stop-opacity="0"/>
<stop offset="0.0225393" stop-color="white" stop-opacity="0"/>
<stop offset="0.512418" stop-color="white"/>
<stop offset="0.982748" stop-color="white" stop-opacity="0"/>
<stop offset="1" stop-color="white" stop-opacity="0"/>
</linearGradient>
<linearGradient id="paint30_linear_414_1681" x1="73.711" y1="4.80083" x2="73.711" y2="113.927" gradientUnits="userSpaceOnUse">
<stop stop-color="#DAD7D3"/>
<stop offset="0.512418" stop-color="#FFFBF7"/>
<stop offset="1" stop-color="#EEEBE7"/>
</linearGradient>
<linearGradient id="paint31_linear_414_1681" x1="79.1836" y1="114.866" x2="63.8859" y2="51.955" gradientUnits="userSpaceOnUse">
<stop stop-color="#FAF6F2"/>
<stop offset="0.512418" stop-color="#FFFBF7"/>
<stop offset="0.677314" stop-color="#FFFBF7"/>
<stop offset="0.90099" stop-color="#EBE7E3"/>
<stop offset="1" stop-color="#CCC9C6"/>
</linearGradient>
<linearGradient id="paint32_linear_414_1681" x1="58.4515" y1="15.5326" x2="48.13" y2="33.3466" gradientUnits="userSpaceOnUse">
<stop stop-color="#791426"/>
<stop offset="0.534653" stop-color="#AF1C3B"/>
<stop offset="1" stop-color="#791426"/>
</linearGradient>
<linearGradient id="paint33_linear_414_1681" x1="56.4938" y1="14.398" x2="46.1712" y2="32.2135" gradientUnits="userSpaceOnUse">
<stop stop-color="#791426"/>
<stop offset="0.534653" stop-color="#AF1C3B"/>
<stop offset="1" stop-color="#791426"/>
</linearGradient>
<linearGradient id="paint34_linear_414_1681" x1="61.5656" y1="17.337" x2="51.2443" y2="35.1507" gradientUnits="userSpaceOnUse">
<stop stop-color="#791426"/>
<stop offset="0.534653" stop-color="#AF1C3B"/>
<stop offset="1" stop-color="#791426"/>
</linearGradient>
<linearGradient id="paint35_linear_414_1681" x1="61.8206" y1="159.675" x2="100.767" y2="67.1776" gradientUnits="userSpaceOnUse">
<stop stop-color="#791426"/>
<stop offset="0.534653" stop-color="#AF1C3B"/>
<stop offset="1" stop-color="#791426"/>
</linearGradient>
<linearGradient id="paint36_linear_414_1681" x1="61.2737" y1="46.721" x2="106.675" y2="148.334" gradientUnits="userSpaceOnUse">
<stop stop-color="#791426"/>
<stop offset="0.534653" stop-color="#AF1C3B"/>
<stop offset="1" stop-color="#791426"/>
</linearGradient>
<clipPath id="clip0_414_1681">
<rect width="150" height="179.478" fill="white"/>
</clipPath>
</defs>
</svg>
